#N canvas 35 40 1343 888 12;
#X declare -path pd;
#N canvas 1247 50 373 893 osc 0;
#X obj 54 227 netreceive -u -b 5550;
#X obj 54 251 oscparse;
#X obj 54 276 list trim;
#X obj 58 133 netsend -u -b;
#X obj 59 49 loadbang;
#X msg 59 72 connect 255.255.255.255 6660;
#X obj 54 300 s osc-from-devices;
#X obj 70 96 r osc-to-devices;
#X text 51 193 receive messages from devices;
#X text 56 19 broadcast to devices;
#X connect 0 0 1 0;
#X connect 1 0 2 0;
#X connect 2 0 6 0;
#X connect 4 0 5 0;
#X connect 5 0 3 0;
#X connect 7 0 3 0;
#X restore 16 64 pd osc;
#X f 18;
#X text 13 24 PD listening on 6660;
#X text 13 41 PD reporting on 5550;
#N canvas 932 339 538 465 message 0;
#X text 105 105 OSC messages;
#X text 106 146 aloha \; echo 0-1 \; id -99-99 \;;
#X text 105 124 gain 0-1 \;;
#X text 102 337 io create <name> <type> <address> \; io poll <rate> \; io list \;;
#X text 104 200 helper update \; helper shutdown \; helper reboot \; helper patch <patchname> \; helper addpatch <user/repo> \; helper pullpatch \; helper getsamples \;, f 33;
#X coords 0 -1 1 1 250 300 2 100 100;
#X restore 15 89 pd message list;
#X text 14 4 open device ports:;
#X text 114 401 ▼ unassigned device, f 20;
#X obj 150 64 declare -path pd;
#X obj 284 16 bopos.gui 1;
#X obj 284 226 bopos.gui 2;
#X obj 18 437 bopos.gui 0;
#X obj 284 436 bopos.gui 3;
#X obj 534 16 bopos.gui 4;
#X obj 534 226 bopos.gui 5;
#X obj 534 436 bopos.gui 6;
#X obj 18 677 bopos.gui 111;
#X text 194 651 ▼ bob pi;
#X obj 784 16 bopos.gui 7;
