#N canvas 581 43 887 879 12;
#X declare -path pd;
#N canvas 1247 50 373 893 osc 0;
#X obj 54 227 netreceive -u -b 5550;
#X obj 54 251 oscparse;
#X obj 54 276 list trim;
#X obj 58 133 netsend -u -b;
#X obj 59 49 loadbang;
#X msg 59 72 connect 255.255.255.255 6660;
#X obj 54 300 s osc-from-devices;
#X obj 70 96 r osc-to-devices;
#X text 51 193 receive messages from devices;
#X text 56 19 broadcast to devices;
#X connect 0 0 1 0;
#X connect 1 0 2 0;
#X connect 2 0 6 0;
#X connect 4 0 5 0;
#X connect 5 0 3 0;
#X connect 7 0 3 0;
#X restore 16 64 pd osc;
#X f 18;
#X text 13 24 PD listening on 6660;
#X text 13 41 PD reporting on 5550;
#N canvas 932 339 538 465 message 0;
#X text 106 132 aloha \; echo 0-1 \; id -99-99 \;;
#X text 102 317 io create <name> <type> <address> \; io poll <rate> \; io list \;;
#X text 104 188 helper update \; helper shutdown \; helper reboot \; helper patch <patchname> \; helper addpatch <user/repo> \; helper pullpatch \; helper getsamples \;, f 33;
#X text 105 105 boposc messages;
#X coords 0 -1 1 1 250 300 2 100 100;
#X restore 15 89 pd message list;
#X text 14 4 open device ports:;
#X text 114 401 ▼ unassigned device, f 20;
#X obj 150 64 declare -path pd;
#X obj 284 16 bopos.gui 1;
#X obj 284 226 bopos.gui 2;
#X obj 18 437 bopos.gui 0;
#X obj 284 436 bopos.gui 3;
#X obj 534 16 bopos.gui 4;
#X obj 534 226 bopos.gui 5;
#X obj 534 436 bopos.gui 6;
#X obj 18 677 bopos.gui 111;
#X text 194 651 ▼ bob pi;
#X msg 513 685 io create oled io_ssd1306 0x3C;
#X obj 319 671 r debug;
#X obj 318 879 print;
#X listbox 318 847 24 0 0 0 - - - 0;
#X obj 319 701 route 0, f 9;
#X floatatom 379 671 5 0 0 0 - - - 0;
#X obj 318 814 list;
#X msg 506 782 \$1;
#X msg 543 782 \$1;
#X floatatom 506 801 5 0 0 0 - - - 0;
#X floatatom 543 801 5 0 0 0 - - - 0;
#X obj 505 740 route touch1 touch2 adc, f 27;
#X msg 600 782 \$1;
#X msg 637 782 \$2;
#X floatatom 600 801 5 0 0 0 - - - 0;
#X floatatom 637 801 5 0 0 0 - - - 0;
#X floatatom 674 801 5 0 0 0 - - - 0;
#X floatatom 711 801 5 0 0 0 - - - 0;
#X msg 674 782 \$3;
#X msg 711 782 \$4;
#X obj 597 831 vsl 19 162 0 3.3 0 0 empty empty empty 0 -9 0 12 #fcfcfc #000000 #000000 0 1;
#X text 861 1099 comment;
#X obj 639 836 vsl 19 162 0 3.3 0 0 empty empty empty 0 -9 0 12 #fcfcfc #000000 #000000 0 1;
#X obj 679 836 vsl 19 162 0 3.3 0 0 empty empty empty 0 -9 0 12 #fcfcfc #000000 #000000 0 1;
#X obj 722 831 vsl 19 162 0 3.3 0 0 empty empty empty 0 -9 0 12 #fcfcfc #000000 #000000 0 1;
#X obj 336 773 s osc-in;
#X connect 17 0 20 0;
#X connect 20 0 22 0;
#X connect 20 0 27 0;
#X connect 21 0 20 1;
#X connect 22 0 19 0;
#X connect 23 0 25 0;
#X connect 24 0 26 0;
#X connect 27 0 23 0;
#X connect 27 1 24 0;
#X connect 27 2 28 0;
#X connect 27 2 29 0;
#X connect 27 2 34 0;
#X connect 27 2 35 0;
#X connect 28 0 30 0;
#X connect 29 0 31 0;
#X connect 30 0 36 0;
#X connect 31 0 38 0;
#X connect 32 0 39 0;
#X connect 33 0 40 0;
#X connect 34 0 32 0;
#X connect 35 0 33 0;
