{
    "patcher": {
        "fileversion": 1,
        "appversion": {
            "major": 9,
            "minor": 1,
            "revision": 2,
            "architecture": "x64",
            "modernui": 1
        },
        "classnamespace": "box",
        "rect": [ 644.0, 159.0, 617.0, 780.0 ],
        "boxes": [
            {
                "box": {
                    "id": "obj-15",
                    "maxclass": "message",
                    "numinlets": 2,
                    "numoutlets": 1,
                    "outlettype": [ "" ],
                    "patching_rect": [ 427.0, 270.0, 45.0, 22.0 ],
                    "text": "/1/q $1"
                }
            },
            {
                "box": {
                    "id": "obj-13",
                    "maxclass": "message",
                    "numinlets": 2,
                    "numoutlets": 1,
                    "outlettype": [ "" ],
                    "patching_rect": [ 355.0, 270.0, 59.0, 22.0 ],
                    "text": "/1/freq $1"
                }
            },
            {
                "box": {
                    "id": "obj-10",
                    "maxclass": "live.dial",
                    "numinlets": 1,
                    "numoutlets": 2,
                    "outlettype": [ "", "float" ],
                    "parameter_enable": 1,
                    "patching_rect": [ 393.0, 125.0, 27.0, 37.0 ],
                    "saved_attribute_attributes": {
                        "valueof": {
                            "parameter_longname": "live.dial[3]",
                            "parameter_mmax": 20.0,
                            "parameter_mmin": 1.0,
                            "parameter_modmode": 3,
                            "parameter_shortname": "live.dial",
                            "parameter_type": 0,
                            "parameter_unitstyle": 1
                        }
                    },
                    "showname": 0,
                    "varname": "live.dial[3]"
                }
            },
            {
                "box": {
                    "id": "obj-9",
                    "maxclass": "live.dial",
                    "numinlets": 1,
                    "numoutlets": 2,
                    "outlettype": [ "", "float" ],
                    "parameter_enable": 1,
                    "patching_rect": [ 346.0, 125.0, 27.0, 37.0 ],
                    "saved_attribute_attributes": {
                        "valueof": {
                            "parameter_longname": "live.dial[2]",
                            "parameter_mmax": 20000.0,
                            "parameter_mmin": 20.0,
                            "parameter_modmode": 3,
                            "parameter_shortname": "live.dial",
                            "parameter_type": 0,
                            "parameter_unitstyle": 1
                        }
                    },
                    "showname": 0,
                    "varname": "live.dial[2]"
                }
            },
            {
                "box": {
                    "id": "obj-7",
                    "maxclass": "live.dial",
                    "numinlets": 1,
                    "numoutlets": 2,
                    "outlettype": [ "", "float" ],
                    "parameter_enable": 1,
                    "patching_rect": [ 263.0, 119.0, 27.0, 37.0 ],
                    "saved_attribute_attributes": {
                        "valueof": {
                            "parameter_longname": "live.dial[1]",
                            "parameter_mmax": 1.0,
                            "parameter_modmode": 3,
                            "parameter_shortname": "live.dial",
                            "parameter_type": 0,
                            "parameter_unitstyle": 1
                        }
                    },
                    "showname": 0,
                    "varname": "live.dial[1]"
                }
            },
            {
                "box": {
                    "id": "obj-8",
                    "maxclass": "message",
                    "numinlets": 2,
                    "numoutlets": 1,
                    "outlettype": [ "" ],
                    "patching_rect": [ 259.0, 270.0, 61.0, 22.0 ],
                    "text": "/1/sine $1"
                }
            },
            {
                "box": {
                    "id": "obj-6",
                    "maxclass": "live.dial",
                    "numinlets": 1,
                    "numoutlets": 2,
                    "outlettype": [ "", "float" ],
                    "parameter_enable": 1,
                    "patching_rect": [ 176.0, 119.0, 27.0, 37.0 ],
                    "saved_attribute_attributes": {
                        "valueof": {
                            "parameter_longname": "live.dial",
                            "parameter_mmax": 1.0,
                            "parameter_modmode": 3,
                            "parameter_shortname": "live.dial",
                            "parameter_type": 0,
                            "parameter_unitstyle": 1
                        }
                    },
                    "showname": 0,
                    "varname": "live.dial"
                }
            },
            {
                "box": {
                    "format": 6,
                    "id": "obj-5",
                    "maxclass": "flonum",
                    "numinlets": 1,
                    "numoutlets": 2,
                    "outlettype": [ "", "bang" ],
                    "parameter_enable": 0,
                    "patching_rect": [ 176.0, 224.0, 50.0, 22.0 ]
                }
            },
            {
                "box": {
                    "id": "obj-3",
                    "maxclass": "message",
                    "numinlets": 2,
                    "numoutlets": 1,
                    "outlettype": [ "" ],
                    "patching_rect": [ 172.0, 270.0, 67.0, 22.0 ],
                    "text": "/1/noise $1"
                }
            },
            {
                "box": {
                    "id": "obj-1",
                    "maxclass": "newobj",
                    "numinlets": 1,
                    "numoutlets": 0,
                    "patching_rect": [ 254.0, 329.0, 178.0, 22.0 ],
                    "text": "udpsend 255.255.255.255 6660"
                }
            }
        ],
        "lines": [
            {
                "patchline": {
                    "destination": [ "obj-15", 0 ],
                    "source": [ "obj-10", 0 ]
                }
            },
            {
                "patchline": {
                    "destination": [ "obj-1", 0 ],
                    "source": [ "obj-13", 0 ]
                }
            },
            {
                "patchline": {
                    "destination": [ "obj-1", 0 ],
                    "source": [ "obj-15", 0 ]
                }
            },
            {
                "patchline": {
                    "destination": [ "obj-1", 0 ],
                    "source": [ "obj-3", 0 ]
                }
            },
            {
                "patchline": {
                    "destination": [ "obj-3", 0 ],
                    "source": [ "obj-5", 0 ]
                }
            },
            {
                "patchline": {
                    "destination": [ "obj-5", 0 ],
                    "source": [ "obj-6", 0 ]
                }
            },
            {
                "patchline": {
                    "destination": [ "obj-8", 0 ],
                    "source": [ "obj-7", 0 ]
                }
            },
            {
                "patchline": {
                    "destination": [ "obj-1", 0 ],
                    "source": [ "obj-8", 0 ]
                }
            },
            {
                "patchline": {
                    "destination": [ "obj-13", 0 ],
                    "source": [ "obj-9", 0 ]
                }
            }
        ],
        "parameters": {
            "obj-10": [ "live.dial[3]", "live.dial", 0 ],
            "obj-6": [ "live.dial", "live.dial", 0 ],
            "obj-7": [ "live.dial[1]", "live.dial", 0 ],
            "obj-9": [ "live.dial[2]", "live.dial", 0 ],
            "parameterbanks": {
                "0": {
                    "index": 0,
                    "name": "",
                    "parameters": [ "-", "-", "-", "-", "-", "-", "-", "-" ],
                    "buttons": [ "-", "-", "-", "-", "-", "-", "-", "-" ]
                }
            },
            "inherited_shortname": 1
        },
        "autosave": 0
    }
}