#N canvas 276 111 547 394 12;
#X declare -path ../../pd/bop;
#X declare -path ../../pd/bop/babs;
#X declare -path ../../pd;
#X obj 11 332 declare -path ../../pd/bop;
#X obj 12 354 declare -path ../../pd/bop/babs;
#X obj 305 289 dac~;
#X obj 305 47 bop.casio~, f 23;
#A saved wave-1 2;
#A saved wave-2 5;
#A saved filter 1;
#A saved attack 0.0214286;
#A saved decay 0.178571;
#A saved sustain 0.628571;
#A saved release 0;
#A saved gain 0.378571;
#X obj 306 126 bop.reverb~;
#A saved size 0.5;
#A saved damp 0.5;
#A saved cutoff 3000;
#A saved wet 0.7;
#A saved dry 1;
#X obj 306 98 lop~ 400;
#X obj 343 161 r osc-in;
#X obj 343 185 route gain;
#X obj 305 245 *~;
#X obj 343 209 clip 0 1;
#N canvas 63 100 523 493 seq 0;
#X obj 175 438 outlet;
#X obj 92 219 sel 0 1;
#X obj 60 296 f;
#X obj 92 190 tgl 19 0 empty empty empty 0 -10 0 12 #fcfcfc #000000 #000000 0 1;
#X obj 61 390 bop.semisteps, f 22;
#A saved semisteps 0.4343;
#A saved root 64;
#A saved hold 0;
#A saved duration 0.123688;
#A saved velocity 0.75;
#X msg 60 333 semisteps \$1;
#X obj 61 30 tgl 19 1 empty empty empty 0 -10 0 12 #fcfcfc #000000 #000000 1 1;
#X obj 61 85 t b b;
#X msg 93 258 0.4343;
#X msg 154 258 0.3434;
#X msg 273 254 filter loop 1 400 1 80 0.3 8000 0.4 4000 \, duration loop 1 1000 1 1000 0.015 3000 0.015 2000, f 25;
#X obj 93 113 babs/babs.counter;
#X obj 61 57 metro 300;
#X obj 93 137 % 16;
#X obj 93 161 sel 0;
#X obj 273 222 loadbang;
#X connect 1 0 8 0;
#X connect 1 1 9 0;
#X connect 2 0 5 0;
#X connect 3 0 1 0;
#X connect 4 1 0 0;
#X connect 5 0 4 0;
#X connect 6 0 12 0;
#X connect 7 0 2 0;
#X connect 7 1 11 0;
#X connect 8 0 2 1;
#X connect 9 0 2 1;
#X connect 10 0 4 1;
#X connect 11 0 13 0;
#X connect 12 0 7 0;
#X connect 13 0 14 0;
#X connect 14 0 3 0;
#X connect 15 0 10 0;
#X restore 463 17 pd seq;
#X obj 9 7 cnv 19 250 300 empty empty bopOS\ boilerplate 20 12 0 12 #c7c6ff #404040 0;
#X obj 27 119 declare -path ../../pd;
#X msg 27 76 \; pd dsp 1;
#X obj 27 47 loadbang, f 9;
#X obj 27 259 bopos.osc, f 10;
#X obj 27 138 bopos.feedback, f 16;
#X msg 27 167 io create adc ads1015 0x48;
#X msg 72 223 version 1;
#X obj 72 192 loadbang;
#X connect 3 0 5 0;
#X connect 4 0 8 0;
#X connect 5 0 4 0;
#X connect 6 0 7 0;
#X connect 7 0 9 0;
#X connect 8 0 2 0;
#X connect 8 0 2 1;
#X connect 9 0 8 1;
#X connect 10 0 3 1;
#X connect 14 0 13 0;
#X connect 17 0 15 0;
#X connect 18 0 15 0;
#X connect 19 0 18 0;
