#N canvas 150 37 1102 883 12;
#N canvas 1247 50 373 893 osc 0;
#X obj 64 471 netsend -u -b;
#X msg 62 71 connect 255.255.255.255 7770;
#X obj 92 158 oscformat reboot;
#X msg 92 131 1;
#X obj 62 48 loadbang;
#X msg 98 221 1;
#X obj 98 248 oscformat shutdown;
#X msg 108 311 1;
#X obj 108 338 oscformat update;
#X msg 118 401 1;
#X obj 118 428 oscformat updatesamples;
#X obj 92 105 r reboot;
#X obj 98 195 r shutdown;
#X obj 108 285 r update;
#X obj 118 375 r updatesamples;
#X obj 54 777 netreceive -u -b 5550;
#X obj 54 801 oscparse;
#X obj 54 826 list trim;
#X obj 58 673 netsend -u -b;
#X obj 59 559 loadbang;
#X msg 59 582 connect 255.255.255.255 6660;
#X text 56 529 broadcast to PD;
#X obj 54 850 s osc-from-devices;
#X obj 70 606 r osc-to-devices;
#X msg 149 633 connect localhost 6660;
#X text 51 743 receive messages from devices;
#X text 59 22 broadcast directly to helper.py;
#X connect 1 0 0 0;
#X connect 2 0 0 0;
#X connect 3 0 2 0;
#X connect 4 0 1 0;
#X connect 5 0 6 0;
#X connect 6 0 0 0;
#X connect 7 0 8 0;
#X connect 8 0 0 0;
#X connect 9 0 10 0;
#X connect 10 0 0 0;
#X connect 11 0 3 0;
#X connect 12 0 5 0;
#X connect 13 0 7 0;
#X connect 14 0 9 0;
#X connect 15 0 16 0;
#X connect 16 0 17 0;
#X connect 17 0 22 0;
#X connect 19 0 20 0;
#X connect 20 0 18 0;
#X connect 23 0 18 0;
#X connect 24 0 18 0;
#X restore 797 480 pd osc;
#X f 18;
#X text 795 518 helper.py listening on 7770;
#X text 795 533 PD listening on 6660;
#X text 795 550 PD reporting on 5550;
#N canvas 1007 339 538 465 message 0;
#X text 108 103 OSC messages;
#X text 111 452 cdc 1-63 \; cdt 1-7 \; esi 0-7 \; ffi 0-3 \; sfi 0-3 \; store \;;
#X text 108 262 aloha \; echo 0-1 \; id -99-99 \;;
#X text 108 198 sens 0-50 \; floor 0-1 \; debug 0-1 \; calibrate \;;
#X text 106 317 helper update \; helper updatesamples \; helper shutdown \; helper reboot \; helper checkout <branch> \;;
#X text 109 128 voice 0-10 \; backing 0-1 \; gain1 0-1 \; gain2 0-1 \;;
#X coords 0 -1 1 1 280 300 2 100 100;
#X restore 791 149 pd message list;
#X text 796 503 open device ports:;
#X obj 472 439 admin.device 9;
#X obj 22 149 admin.device 1;
#X obj 172 149 admin.device 2;
#X obj 322 149 admin.device 3;
#X obj 472 149 admin.device 4;
#X obj 622 149 admin.device 5;
#X obj 22 439 admin.device 6;
#X obj 172 439 admin.device 7;
#X obj 322 439 admin.device 8;
#X obj 622 439 admin.device 10;
#X obj 1097 169 admin.device -1;
#X text 1096 147 unassigned plantÌ†ΩÌ±á;
#X obj 245 32 cnv 19 650 76 empty empty üëâü™¥üé∂\ The\ Musical\ Plants\ üé∂ü™¥üëà 40 40 2 40 #c6feff #9c00ff 0;
#X obj 796 581 cnv 19 160 140 empty empty üåê\ GLOBAL\ üåê 20 12 0 16 #c6feff #404040 0;
#X obj 825 647 bng 19 250 50 0 reboot empty reboot 25 10 0 12 #fcfcfc #000000 #000000;
#X obj 825 628 bng 19 250 50 0 update empty update 25 10 0 12 #fcfcfc #000000 #000000;
#X obj 825 666 bng 19 250 50 0 shutdown empty shutdown 25 10 0 12 #fcfcfc #000000 #000000;
#X obj 825 685 bng 19 250 50 0 calibrate empty calibrate 25 10 0 12 #fcfcfc #000000 #000000;
#X obj 22 729 admin.device 11;
#X obj 172 729 admin.device 12;
#X obj 322 729 admin.device 13;
#X obj 472 729 admin.device 14;
