#N canvas 843 42 508 800 12;
#N canvas 298 40 365 864 osc 0;
#X obj 64 471 netsend -u -b;
#X msg 62 71 connect 255.255.255.255 7770;
#X obj 92 158 oscformat reboot;
#X msg 92 131 1;
#X obj 62 48 loadbang;
#X msg 98 221 1;
#X obj 98 248 oscformat shutdown;
#X msg 108 311 1;
#X obj 108 338 oscformat update;
#X msg 118 401 1;
#X obj 118 428 oscformat updatesamples;
#X obj 92 105 r reboot;
#X obj 98 195 r shutdown;
#X obj 108 285 r update;
#X obj 118 375 r updatesamples;
#X obj 54 777 netreceive -u -b 5550;
#X obj 54 801 oscparse;
#X obj 54 826 list trim;
#X text 59 22 broadcast to helper.py;
#X obj 58 673 netsend -u -b;
#X obj 59 559 loadbang;
#X msg 59 582 connect 255.255.255.255 6660;
#X text 56 529 broadcast to PD;
#X obj 54 850 s osc-from-devices;
#X obj 70 606 r osc-to-devices;
#X msg 149 633 connect localhost 6660;
#X text 51 743 receive messages from devices;
#X connect 1 0 0 0;
#X connect 2 0 0 0;
#X connect 3 0 2 0;
#X connect 4 0 1 0;
#X connect 5 0 6 0;
#X connect 6 0 0 0;
#X connect 7 0 8 0;
#X connect 8 0 0 0;
#X connect 9 0 10 0;
#X connect 10 0 0 0;
#X connect 11 0 3 0;
#X connect 12 0 5 0;
#X connect 13 0 7 0;
#X connect 14 0 9 0;
#X connect 15 0 16 0;
#X connect 16 0 17 0;
#X connect 17 0 23 0;
#X connect 20 0 21 0;
#X connect 21 0 19 0;
#X connect 24 0 19 0;
#X connect 25 0 19 0;
#X restore 28 92 pd osc;
#X f 15;
#X text 28 22 helper.py listening on 7770;
#X text 28 37 PD listening on 6660;
#X text 28 54 PD reporting on 5550;
#X text 29 7 on devices:;
#X obj 26 277 device-dashboard 1;
#X obj 176 277 device-dashboard 2;
#X obj 326 277 device-dashboard 3;
#X obj 26 527 device-dashboard 4;
#X obj 176 527 device-dashboard 5;
#X obj 326 527 device-dashboard 6;
#X obj 326 17 device-dashboard 0;
#X obj 26 147 cnv 19 250 80 empty empty all\ devices 10 10 0 12 #c6feff #404040 0;
#X obj 37 177 bng 19 250 50 0 reboot empty reboot 25 10 0 12 #fcfcfc #000000 #000000;
#X obj 147 196 bng 19 250 50 0 updatesamples empty updatesamples 25 10 0 12 #fcfcfc #000000 #000000;
#X obj 147 177 bng 19 250 50 0 update empty update 25 10 0 12 #fcfcfc #000000 #000000;
#X obj 37 196 bng 19 250 50 0 shutdown empty shutdown 25 10 0 12 #fcfcfc #000000 #000000;
#N canvas 655 195 176 194 message 0;
#X text 11 49 comment;
#X text 11 5 available messages;
#X text 13 43 aloha \; admin update \; admin updatesamples \; admin shutdown \; admin reboot \; debug sensor1 [0 \, 1] \; debug sensor2 [0 \, 1] \; sensitivity [0 - 50] \; floor [0 - 1] \;;
#X restore 28 111 pd message list;
