#N canvas 264 138 906 789 12;
#N canvas 1247 50 373 893 osc 0;
#X obj 64 471 netsend -u -b;
#X msg 62 71 connect 255.255.255.255 7770;
#X obj 92 158 oscformat reboot;
#X msg 92 131 1;
#X obj 62 48 loadbang;
#X msg 98 221 1;
#X obj 98 248 oscformat shutdown;
#X msg 108 311 1;
#X obj 108 338 oscformat update;
#X msg 118 401 1;
#X obj 118 428 oscformat updatesamples;
#X obj 92 105 r reboot;
#X obj 98 195 r shutdown;
#X obj 108 285 r update;
#X obj 118 375 r updatesamples;
#X obj 54 777 netreceive -u -b 5550;
#X obj 54 801 oscparse;
#X obj 54 826 list trim;
#X obj 58 673 netsend -u -b;
#X obj 59 559 loadbang;
#X msg 59 582 connect 255.255.255.255 6660;
#X text 56 529 broadcast to PD;
#X obj 54 850 s osc-from-devices;
#X obj 70 606 r osc-to-devices;
#X msg 149 633 connect localhost 6660;
#X text 51 743 receive messages from devices;
#X text 59 22 broadcast directly to helper.py;
#X connect 1 0 0 0;
#X connect 2 0 0 0;
#X connect 3 0 2 0;
#X connect 4 0 1 0;
#X connect 5 0 6 0;
#X connect 6 0 0 0;
#X connect 7 0 8 0;
#X connect 8 0 0 0;
#X connect 9 0 10 0;
#X connect 10 0 0 0;
#X connect 11 0 3 0;
#X connect 12 0 5 0;
#X connect 13 0 7 0;
#X connect 14 0 9 0;
#X connect 15 0 16 0;
#X connect 16 0 17 0;
#X connect 17 0 22 0;
#X connect 19 0 20 0;
#X connect 20 0 18 0;
#X connect 23 0 18 0;
#X connect 24 0 18 0;
#X restore 650 14 pd osc;
#X f 18;
#X text 647 59 helper.py listening on 7770;
#X text 647 74 PD listening on 6660;
#X text 647 91 PD reporting on 5550;
#N canvas 1007 339 538 465 message 0;
#X text 105 105 OSC messages;
#X text 109 133 aloha \; echo 0-1 \; id -99-99 \;;
#X text 108 183 helper update \; helper updatesamples \; helper shutdown \; helper reboot \; helper checkout <branch> \;;
#X coords 0 -1 1 1 230 240 2 100 100;
#X restore 649 119 pd message list;
#X text 648 44 open device ports:;
#X obj 15 12 admin.device 0;
#X obj 487 12 admin.device -1;
#X text 344 11 unassigned plant >;
#X obj 165 12 admin.device 111;
