#N canvas 218 180 483 179 12;
#N canvas 710 178 702 571 osc 0;
#X obj 92 250 netsend -u -b;
#X msg 62 71 connect 255.255.255.255 7770;
#X obj 92 158 oscformat reboot;
#X msg 92 131 1;
#X obj 62 48 loadbang;
#X msg 218 131 1;
#X obj 218 158 oscformat shutdown;
#X msg 358 131 1;
#X obj 358 158 oscformat update;
#X msg 488 131 1;
#X obj 488 158 oscformat updatesamples;
#X obj 92 105 r reboot;
#X obj 218 105 r shutdown;
#X obj 358 105 r update;
#X obj 488 105 r updatesamples;
#X msg 38 12 disconnect;
#X obj 54 357 netreceive -u -b 5550;
#X obj 54 381 oscparse;
#X obj 54 410 list trim;
#X obj 54 442 print from-plants;
#X text 159 36 broadcast to helper.py;
#X obj 308 468 netsend -u -b;
#X obj 319 389 loadbang;
#X msg 295 353 disconnect;
#X msg 319 412 connect 255.255.255.255 6660;
#X text 449 362 broadcast to PD;
#X connect 1 0 0 0;
#X connect 2 0 0 0;
#X connect 3 0 2 0;
#X connect 4 0 1 0;
#X connect 5 0 6 0;
#X connect 6 0 0 0;
#X connect 7 0 8 0;
#X connect 8 0 0 0;
#X connect 9 0 10 0;
#X connect 10 0 0 0;
#X connect 11 0 3 0;
#X connect 12 0 5 0;
#X connect 13 0 7 0;
#X connect 14 0 9 0;
#X connect 15 0 0 0;
#X connect 16 0 17 0;
#X connect 17 0 18 0;
#X connect 18 0 19 0;
#X connect 22 0 24 0;
#X connect 23 0 21 0;
#X connect 24 0 21 0;
#X restore 265 49 pd osc;
#X obj 24 46 bng 19 250 50 0 reboot empty reboot 25 10 0 12 #fcfcfc #000000 #000000;
#X obj 24 113 bng 19 250 50 0 updatesamples empty updatesamples 25 10 0 12 #fcfcfc #000000 #000000;
#X obj 24 94 bng 19 250 50 0 update empty update 25 10 0 12 #fcfcfc #000000 #000000;
#X obj 24 65 bng 19 250 50 0 shutdown empty shutdown 25 10 0 12 #fcfcfc #000000 #000000;
#X text 22 6 control all devices on network;
#X text 262 82 helper.py listening on 7770;
#X text 262 97 PD listening on 6660;
#X text 262 114 PD reporting on 5550;
#X text 263 67 on devices:;
