#N canvas 950 662 307 167 12;
#N canvas 235 164 780 622 osc 0;
#X obj 92 290 netsend -u -b;
#X msg 62 111 connect 255.255.255.255 7770;
#X obj 92 198 oscformat reboot;
#X msg 92 171 1;
#X obj 62 88 loadbang;
#X msg 218 171 1;
#X obj 218 198 oscformat shutdown;
#X msg 358 171 1;
#X obj 358 198 oscformat update;
#X msg 488 171 1;
#X obj 488 198 oscformat updatesamples;
#X obj 92 145 r reboot;
#X obj 218 145 r shutdown;
#X obj 358 145 r update;
#X obj 488 145 r updatesamples;
#X msg 38 52 disconnect;
#X text 31 26 TO PYTHON;
#X obj 44 561 netsend -u -b;
#X msg 84 486 1;
#X obj 54 403 loadbang;
#X msg 30 367 disconnect;
#X text 23 341 TO PD;
#X msg 54 426 connect 255.255.255.255 7777;
#X obj 84 513 oscformat calibrate;
#X obj 250 489 bng 19 250 50 0 empty empty empty 0 -10 0 12 #fcfcfc #000000 #000000;
#X obj 84 460 r \$0-calibrate;
#X connect 1 0 0 0;
#X connect 2 0 0 0;
#X connect 3 0 2 0;
#X connect 4 0 1 0;
#X connect 5 0 6 0;
#X connect 6 0 0 0;
#X connect 7 0 8 0;
#X connect 8 0 0 0;
#X connect 9 0 10 0;
#X connect 10 0 0 0;
#X connect 11 0 3 0;
#X connect 12 0 5 0;
#X connect 13 0 7 0;
#X connect 14 0 9 0;
#X connect 15 0 0 0;
#X connect 18 0 23 0;
#X connect 19 0 22 0;
#X connect 20 0 17 0;
#X connect 22 0 17 0;
#X connect 23 0 17 0;
#X connect 25 0 18 0;
#X connect 25 0 24 0;
#X restore 173 73 pd osc;
#X obj 24 36 bng 19 250 50 0 reboot empty reboot 25 10 0 12 #fcfcfc #000000 #000000;
#X obj 24 103 bng 19 250 50 0 updatesamples empty updatesamples 25 10 0 12 #fcfcfc #000000 #000000;
#X obj 24 84 bng 19 250 50 0 update empty update 25 10 0 12 #fcfcfc #000000 #000000;
#X obj 24 55 bng 19 250 50 0 shutdown empty shutdown 25 10 0 12 #fcfcfc #000000 #000000;
#X text 22 6 control all devices on network;
#X obj 30 135 bng 19 250 50 0 \$0-calibrate empty calibrate 25 10 0 12 #fcfcfc #000000 #000000;
