#N canvas 845 121 581 733 12;
#N canvas 1247 50 373 893 osc 0;
#X obj 54 227 netreceive -u -b 5550;
#X obj 54 251 oscparse;
#X obj 54 276 list trim;
#X obj 58 133 netsend -u -b;
#X obj 59 49 loadbang;
#X msg 59 72 connect 255.255.255.255 6660;
#X obj 54 300 s osc-from-devices;
#X obj 70 96 r osc-to-devices;
#X text 51 193 receive messages from devices;
#X text 56 19 broadcast to devices;
#X connect 0 0 1 0;
#X connect 1 0 2 0;
#X connect 2 0 6 0;
#X connect 4 0 5 0;
#X connect 5 0 3 0;
#X connect 7 0 3 0;
#X restore 16 64 pd osc;
#X f 18;
#X text 13 24 PD listening on 6660;
#X text 13 41 PD reporting on 5550;
#N canvas 932 339 538 465 message 0;
#X text 105 105 OSC messages;
#X text 108 169 aloha \; echo 0-1 \; id -99-99 \;;
#X text 107 218 helper update \; helper getsamples \; helper shutdown \; helper reboot \; helper checkout <branch> \;;
#X text 106 133 gain 0-1 \;;
#X coords 0 -1 1 1 230 200 2 100 100;
#X restore 15 89 pd message list;
#X text 14 4 open device ports:;
#X obj 22 313 admin.device -1;
#X text 178 314 < unassigned device, f 10;
#X obj 262 39 admin.device 1;
#X obj 412 39 admin.device 2;
#X obj 266 314 admin.device 0;
