#N canvas 335 83 478 663 12;
#X declare -path ./bop;
#X declare -path ./bop/babs;
#X obj 247 602 declare -path ./bop;
#X obj 37 621 dac~, f 15;
#X msg 247 567 \; pd dsp 1;
#X obj 247 537 loadbang;
#X obj 263 263 read-sensors, f 19;
#X floatatom 268 73 8 0 50 1 sensitivity sensitivity-init sensitivity 0;
#X floatatom 268 102 8 0 1 1 floor floor-init floor 0;
#X obj 44 73 hsl 162 19 0 1 0 0 sensor1 empty sensor1 4 10 0 12 #fcfcfc #000000 #000000 0 1;
#X obj 44 102 hsl 162 19 0 1 0 0 sensor2 empty sensor2 4 10 0 12 #fcfcfc #000000 #000000 0 1;
#X obj 37 434 catch~ left;
#X obj 140 433 catch~ right;
#X obj 37 466 bop.reverb~;
#A saved size 0.671429;
#A saved damp 0.578571;
#A saved cutoff 3000;
#A saved wet 0.857143;
#A saved dry 1;
#X obj 140 464 bop.reverb~;
#A saved size 0.671429;
#A saved damp 0.578571;
#A saved cutoff 3000;
#A saved wet 0.857143;
#A saved dry 1;
#X obj 38 263 voice.bellsharp 0, f 23;
#X obj 38 292 voice.belltreerhodes 1, f 23;
#X obj 38 322 voice.electricxmas 2, f 23;
#X obj 37 351 voice.tubulerglok 3, f 23;
#X text 37 239 VOICES;
#X obj 268 130 bng 19 250 50 0 calibrate empty calibrate 20 10 0 12 #fcfcfc #000000 #000000;
#X obj 39 12 cnv 19 400 40 empty empty plantsOS\ 🐱\ changi 100 20 0 16 #c6ffc7 #e3c6ff 0;
#N canvas 207 64 614 872 getvoice 0;
#X obj 190 553 babs.counter, f 16;
#X obj 190 577 % 4;
#X obj 242 798 file handle;
#X obj 348 691 file which;
#X obj 348 727 unpack s f;
#X msg 348 655 symbol persist/voice.txt;
#X msg 348 758 open \$1 c;
#X obj 190 262 file handle;
#X obj 279 150 file which;
#X obj 279 186 unpack s f;
#X msg 279 114 symbol persist/voice.txt;
#X obj 190 10 loadbang;
#X floatatom 190 394 5 0 0 0 - - - 0;
#X obj 190 43 bng 19 250 50 0 empty empty empty 0 -10 0 12 #fcfcfc #000000 #000000;
#X msg 279 217 open \$1;
#X obj 190 70 t b b, f 13;
#X msg 190 143 1 \, close;
#X msg 242 679 close;
#X obj 295 729 + 48;
#X obj 190 300 - 48;
#X obj 190 615 t f b f b, f 23;
#X obj 264 303 print file-write;
#X text 394 183 read voice from file at load;
#X text 451 717 save voice to file;
#X obj 190 108 delay 5;
#X obj 210 448 r button2;
#X obj 210 472 sel 1;
#X obj 17 18 bng 19 250 50 0 \$0-nextvoice \$0-nextvoice nextvoice 25 10 0 12 #fcfcfc #000000 #000000;
#X obj 190 495 s \$0-nextvoice;
#X obj 190 524 r \$0-nextvoice;
#X obj 190 826 s active-voice;
#X floatatom 17 37 12 0 0 0 - active-voice - 0;
#X obj 203 335 r osc-in;
#X obj 190 426 t b f, f 16;
#X obj 203 359 route voice;
#X text 275 334 receive voice as OSC command;
#X connect 0 0 1 0;
#X connect 1 0 20 0;
#X connect 3 0 4 0;
#X connect 4 0 6 0;
#X connect 5 0 3 0;
#X connect 6 0 2 0;
#X connect 7 0 19 0;
#X connect 7 1 21 0;
#X connect 8 0 9 0;
#X connect 9 0 14 0;
#X connect 10 0 8 0;
#X connect 11 0 13 0;
#X connect 12 0 33 0;
#X connect 13 0 15 0;
#X connect 14 0 7 0;
#X connect 15 0 24 0;
#X connect 15 1 10 0;
#X connect 16 0 7 0;
#X connect 17 0 2 0;
#X connect 18 0 2 0;
#X connect 19 0 12 0;
#X connect 20 0 30 0;
#X connect 20 1 17 0;
#X connect 20 2 18 0;
#X connect 20 3 5 0;
#X connect 24 0 16 0;
#X connect 25 0 26 0;
#X connect 26 0 28 0;
#X connect 29 0 0 0;
#X connect 32 0 34 0;
#X connect 33 0 28 0;
#X connect 33 1 0 1;
#X connect 34 0 12 0;
#X coords 0 -1 1 1 100 55 2 10 10;
#X restore 41 141 pd getvoice;
#X obj 247 623 declare -path ./bop/babs;
#X msg 55 525 \$1 10;
#X obj 55 553 line~;
#X obj 37 587 *~;
#X msg 157 527 \$1 10;
#X obj 157 555 line~;
#X obj 139 587 *~;
#X obj 263 292 OSC-IO, f 19;
#N canvas 143 422 388 192 init-sensitivity 0;
#X obj 205 50 loadbang;
#X msg 205 74 0.05;
#X obj 35 52 loadbang;
#X msg 35 76 10;
#X obj 205 105 s floor-init;
#X obj 35 106 s sensitivity-init;
#X obj 99 52 r sensitivity;
#X msg 99 76 set \$1;
#X msg 269 74 set \$1;
#X obj 269 50 r floor;
#X connect 0 0 1 0;
#X connect 1 0 4 0;
#X connect 2 0 3 0;
#X connect 3 0 5 0;
#X connect 6 0 7 0;
#X connect 7 0 3 0;
#X connect 8 0 1 0;
#X connect 9 0 8 0;
#X restore 263 321 pd init-sensitivity;
#X obj 55 496 r pot1;
#X obj 157 498 r pot2;
#X connect 3 0 2 0;
#X connect 9 0 11 0;
#X connect 10 0 12 0;
#X connect 11 0 24 0;
#X connect 12 0 27 0;
#X connect 22 0 23 0;
#X connect 23 0 24 1;
#X connect 24 0 1 0;
#X connect 25 0 26 0;
#X connect 26 0 27 1;
#X connect 27 0 1 1;
#X connect 30 0 22 0;
#X connect 31 0 25 0;
