#N canvas 383 164 641 467 12;
#X declare -path ./bop;
#X declare -path ./bop/babs;
#X obj 32 14 cnv 19 370 40 empty empty plantsOS\ 🪁\ Kite\ Choir 70 20 0 16 #c6ffc7 #e3c6ff 0;
#X obj 337 33 nbx 3 17 -1e+37 1e+37 0 1 version empty version 0 -10 0 12 #c6ffc7 #000000 #000000 38 256;
#X obj 431 116 declare -path ./bop, f 24;
#X obj 86 396 dac~, f 35;
#X msg 531 70 \; pd dsp 1;
#X obj 531 31 loadbang, f 9;
#X obj 431 145 declare -path ./bop/babs;
#X obj 315 116 bopos.osc, f 10;
#X obj 274 143 bopos.feedback, f 16;
#X obj 86 337 clip~ -1 1;
#X obj 324 336 clip~ -1 1;
#X msg 315 90 id 0;
#X obj 214 303 pow 2;
#X obj 86 306 catch~ left;
#X obj 324 304 catch~ right;
#X obj 86 367 *~ 0.02;
#X obj 324 362 *~ 0.02;
#X connect 5 0 4 0;
#X connect 9 0 15 0;
#X connect 10 0 16 0;
#X connect 11 0 7 0;
#X connect 12 0 15 1;
#X connect 12 0 16 1;
#X connect 13 0 9 0;
#X connect 14 0 10 0;
#X connect 15 0 3 0;
#X connect 16 0 3 1;
