#N canvas 420 164 697 519 12;
#X declare -path ./bop;
#X declare -path ./bop/babs;
#X obj 32 14 cnv 19 640 40 empty empty plantsOS\ 🪁\ Kite\ Choir 20 20 0 16 #c6ffc7 #e3c6ff 0;
#X obj 614 33 nbx 3 17 -1e+37 1e+37 0 1 version empty version 0 -10 0 12 #c6ffc7 #000000 #000000 46 256;
#X obj 32 138 declare -path ./bop, f 28;
#X obj 324 437 dac~, f 35;
#X msg 164 95 \; pd dsp 1;
#X obj 164 66 loadbang, f 9;
#X obj 32 167 declare -path ./bop/babs, f 28;
#X obj 33 66 bopos.osc, f 10;
#X obj 32 94 bopos.feedback, f 16;
#X obj 324 378 clip~ -1 1;
#X obj 562 377 clip~ -1 1;
#X obj 327 180 bop.delay~;
#A saved time 0.333;
#A saved feedback 0.5;
#A saved cutoff 1000;
#A saved q 0.3;
#A saved wet 0.75;
#A saved dry 1;
#X obj 452 344 pow 2;
#N canvas 0 37 1470 891 tilt 0;
#X obj 176 69 route tilt touch;
#X msg 54 170 \$1;
#X msg 263 140 \$2;
#X floatatom 54 194 5 0 0 0 - - - 0;
#X obj 263 182 abs;
#X obj 265 220 hsl 162 19 0 180 0 0 empty empty empty -2 -10 0 12 #fcfcfc #000000 #000000 0 1;
#X obj 262 261 babs.scale 0 180 -1 1;
#X floatatom 263 507 5 0 0 0 - - - 0;
#X floatatom 434 509 5 0 0 0 - - - 0;
#X obj 262 308 moses 0.5, f 17;
#X obj 269 618 f, f 12;
#X obj 279 668 +, f 12;
#X obj 264 559 t b f, f 15;
#X msg 414 603 0;
#X obj 279 753 t f f, f 8;
#X obj 265 403 t f b;
#X obj 428 407 t f b;
#X msg 462 438 1;
#X msg 304 436 -1;
#X obj 341 405 t b;
#X msg 341 429 0;
#X obj 316 493 s \$0-which-tilt;
#X obj 362 835 r \$0-which-tilt;
#X obj 280 875 list prepend;
#X obj 280 899 route -1 0 1;
#X obj 384 456 change;
#X text 110 196 roll;
#X text 310 184 tilt;
#X obj 177 38 inlet;
#X obj 278 710 clip -10 10;
#X obj 279 790 babs.scale -10 10 0 1;
#X obj 264 369 moses -0.1;
#X obj 375 372 moses 0.1;
#X obj 204 1050 bop.instrument~;
#A saved instrument 2;
#X obj 208 1006 bop.strum;
#A saved strum 0;
#A saved chord 7;
#A saved shuffle 0;
#A saved root 44.68;
#A saved octaves 5;
#A saved velocity 1;
#A saved duration 0.614286;
#X obj 384 1048 bop.instrument~;
#A saved instrument 1;
#X obj 394 1013 bop.strum;
#A saved strum 0.821429;
#A saved chord 7;
#A saved shuffle 0;
#A saved root 37.68;
#A saved octaves 5;
#A saved velocity 1;
#A saved duration 0.614286;
#X obj 205 1082 throw~ left;
#X obj 382 1080 throw~ right;
#X msg 206 973 strum \$1;
#X msg 380 970 strum \$1;
#X connect 0 0 1 0;
#X connect 0 0 2 0;
#X connect 1 0 3 0;
#X connect 2 0 4 0;
#X connect 4 0 5 0;
#X connect 5 0 6 0;
#X connect 6 0 9 0;
#X connect 7 0 12 0;
#X connect 8 0 12 0;
#X connect 9 0 31 0;
#X connect 9 1 32 0;
#X connect 10 0 11 0;
#X connect 11 0 29 0;
#X connect 12 0 10 0;
#X connect 12 1 11 1;
#X connect 13 0 10 1;
#X connect 14 0 30 0;
#X connect 14 1 10 1;
#X connect 15 0 7 0;
#X connect 15 1 18 0;
#X connect 16 0 8 0;
#X connect 16 1 17 0;
#X connect 17 0 25 0;
#X connect 18 0 25 0;
#X connect 19 0 20 0;
#X connect 20 0 25 0;
#X connect 22 0 23 1;
#X connect 23 0 24 0;
#X connect 24 0 39 0;
#X connect 24 2 40 0;
#X connect 25 0 21 0;
#X connect 28 0 0 0;
#X connect 29 0 14 0;
#X connect 30 0 23 0;
#X connect 31 0 15 0;
#X connect 31 1 19 0;
#X connect 32 0 19 0;
#X connect 32 1 16 0;
#X connect 33 0 37 0;
#X connect 34 1 33 0;
#X connect 35 0 38 0;
#X connect 36 1 35 0;
#X connect 39 0 34 1;
#X connect 40 0 36 1;
#X restore 32 426 pd tilt;
#X f 18;
#X obj 324 347 catch~ left;
#X obj 562 345 catch~ right;
#X obj 327 215 throw~ left;
#X obj 434 215 throw~ right;
#X msg 326 103 pack kc_samplepack \, folder 7 \, loop 1 \, 0 127;
#X obj 326 73 loadbang;
#X obj 434 178 bop.reverb~;
#A saved size 0.5;
#A saved damp 0.5;
#A saved cutoff 3000;
#A saved wet 0.7;
#A saved dry 1;
#X obj 32 397 r osc-in;
#X obj 327 145 bop.stream~;
#A saved pack kc_samplepack;
#A saved folder 7;
#A saved gain 1;
#X obj 324 408 *~ 0;
#X obj 562 403 *~ 0;
#X msg 32 248 io create adc ads1015 0x48;
#X obj 32 216 loadbang;
#X obj 452 283 r gain;
#X obj 452 313 clip 0 0.5;
#N canvas 37 125 1267 758 mapping 0;
#X obj 373 82 r osc-in;
#X obj 373 106 route gain;
#X obj 373 199 value gain;
#X obj 373 133 t b f;
#X obj 405 170 clip 0 1;
#X obj 373 236 s gain;
#X obj 44 79 r osc-in;
#X obj 44 117 route adc;
#X obj 44 176 unpack f f f f, f 26;
#X text 61 145 incoming voltages 0 - 3.3;
#X obj 532 159 clip 1 2;
#X obj 710 161 clip 1 2;
#X obj 532 99 int;
#X obj 532 123 change;
#X obj 710 102 int;
#X obj 710 126 change;
#X floatatom 532 232 5 0 0 0 - - - 0;
#X obj 532 199 expr 1 - ($i1 - 1);
#X floatatom 710 232 5 0 0 0 - - - 0;
#X obj 710 199 expr 1 - ($i1 - 1);
#X obj 532 263 sel 1;
#X obj 709 265 sel 1;
#X obj 636 430 +;
#X obj 643 387 value gain;
#X obj 607 350 t b b f;
#X obj 632 462 clip 0 1;
#X obj 605 502 value gain;
#X obj 605 543 s gain;
#X msg 532 299 0.05;
#X msg 708 298 -0.05;
#X text 378 23 GAIN;
#X obj 41 207 s adc0;
#X obj 96 209 s adc1;
#X obj 150 208 s adc2;
#X obj 208 210 s adc3;
#X obj 533 68 r adc0;
#X obj 710 71 r adc3;
#X text 49 40 ADC;
#X obj 957 414 delay 2000;
#X obj 957 534 s osc-in;
#X obj 957 446 bng 19 250 50 0 empty empty empty 0 -10 0 12 #fcfcfc #000000 #000000;
#X msg 957 507 helper shutdown;
#X obj 960 292 change;
#X obj 611 292 s click;
#X text 935 54 shutdown/reboot;
#X obj 960 185 clip 1 2;
#X obj 960 125 int;
#X obj 960 149 change;
#X floatatom 960 258 5 0 0 0 - - - 0;
#X obj 960 225 expr 1 - ($i1 - 1);
#X obj 961 94 r adc2;
#X msg 985 379 stop;
#X obj 959 331 sel 1 0, f 13;
#X connect 0 0 1 0;
#X connect 1 0 3 0;
#X connect 2 0 5 0;
#X connect 3 0 2 0;
#X connect 3 1 4 0;
#X connect 4 0 2 0;
#X connect 6 0 7 0;
#X connect 7 0 8 0;
#X connect 8 0 31 0;
#X connect 8 1 32 0;
#X connect 8 2 33 0;
#X connect 8 3 34 0;
#X connect 10 0 17 0;
#X connect 11 0 19 0;
#X connect 12 0 13 0;
#X connect 13 0 10 0;
#X connect 14 0 15 0;
#X connect 15 0 11 0;
#X connect 16 0 20 0;
#X connect 17 0 16 0;
#X connect 18 0 21 0;
#X connect 19 0 18 0;
#X connect 20 0 28 0;
#X connect 20 0 43 0;
#X connect 21 0 29 0;
#X connect 21 0 43 0;
#X connect 22 0 25 0;
#X connect 23 0 22 0;
#X connect 24 0 26 0;
#X connect 24 1 23 0;
#X connect 24 2 22 1;
#X connect 25 0 26 0;
#X connect 26 0 27 0;
#X connect 28 0 24 0;
#X connect 29 0 24 0;
#X connect 35 0 12 0;
#X connect 36 0 14 0;
#X connect 38 0 40 0;
#X connect 40 0 41 0;
#X connect 41 0 39 0;
#X connect 42 0 52 0;
#X connect 45 0 49 0;
#X connect 46 0 47 0;
#X connect 47 0 45 0;
#X connect 48 0 42 0;
#X connect 49 0 48 0;
#X connect 50 0 46 0;
#X connect 51 0 38 0;
#X connect 52 0 38 0;
#X connect 52 1 51 0;
#X restore 32 356 pd mapping;
#X f 23;
#X obj 32 307 s osc-in;
#X msg 64 276 id -1;
#X text 111 275 < mute on dash;
#X connect 5 0 4 0;
#X connect 9 0 23 0;
#X connect 10 0 24 0;
#X connect 11 0 16 0;
#X connect 12 0 23 1;
#X connect 12 0 24 1;
#X connect 14 0 9 0;
#X connect 15 0 10 0;
#X connect 18 0 22 0;
#X connect 19 0 18 0;
#X connect 20 0 17 0;
#X connect 21 0 13 0;
#X connect 22 0 11 0;
#X connect 22 0 20 0;
#X connect 23 0 3 0;
#X connect 24 0 3 1;
#X connect 25 0 30 0;
#X connect 26 0 25 0;
#X connect 27 0 28 0;
#X connect 28 0 12 0;
#X connect 31 0 30 0;
