#N canvas 254 243 1316 952 12;
#X declare -path ./bop;
#X declare -path ./bop/babs;
#X obj 32 14 cnv 19 370 40 empty empty plantsOS\ 🪁\ Kite\ Choir 70 20 0 16 #c6ffc7 #e3c6ff 0;
#X obj 337 33 nbx 3 17 -1e+37 1e+37 0 1 version empty version 0 -10 0 12 #c6ffc7 #000000 #000000 11 256;
#X obj 431 116 declare -path ./bop, f 24;
#X obj 115 888 dac~, f 12;
#X msg 531 70 \; pd dsp 1;
#X obj 531 31 loadbang, f 9;
#X obj 431 145 declare -path ./bop/babs;
#X obj 315 116 bopos.osc, f 10;
#X obj 274 143 bopos.feedback, f 16;
#X obj 114 803 clip~ -1 1;
#X obj 197 802 clip~ -1 1;
#X msg 315 90 id 0;
#X obj 89 572 bop.casio~;
#A saved wave-1 1;
#A saved wave-2 5;
#A saved filter 0;
#A saved attack 0.1;
#A saved decay 0.664286;
#A saved sustain 0.385714;
#A saved release 0.114286;
#A saved gain 1;
#X msg 41 380 60 67 71 74;
#X obj 83 203 bng 19 250 50 0 empty empty empty 0 -10 0 12 #fcfcfc #000000 #000000;
#X obj 97 233 babs.counter;
#X floatatom 97 281 5 0 0 0 - - - 0;
#X obj 86 435 babs.nth;
#X obj 109 334 t b i;
#X msg 93 537 \$1 127;
#X obj 97 257 % 4;
#X obj 206 312 loadbang 1;
#X obj 216 372 tgl 19 0 empty empty empty 0 -10 0 12 #fcfcfc #000000 #000000 0 1;
#X obj 85 479 +;
#X obj 216 396 * -7;
#X msg 204 160 1;
#X obj 216 348 metro 6000;
#X obj 103 685 bop.delay~;
#A saved time 0.333;
#A saved feedback 0.5;
#A saved cutoff 1000;
#A saved q 0.3;
#A saved wet 0.75;
#A saved dry 1;
#X obj 165 112 loadbang;
#X obj 317 772 r osc-in;
#X obj 317 796 route gain;
#X obj 180 511 r osc-in;
#X obj 180 535 route casio;
#X obj 170 622 r osc-in;
#X obj 170 646 route delay;
#X obj 354 579 bop.casio~;
#A saved wave-1 1;
#A saved wave-2 5;
#A saved filter 0;
#A saved attack 0.1;
#A saved decay 0.664286;
#A saved sustain 0.385714;
#A saved release 0.114286;
#A saved gain 1;
#X msg 358 544 \$1 127;
#X obj 445 518 r osc-in;
#X obj 445 542 route casio;
#X obj 330 479 - 0.15;
#X obj 648 486 noise~;
#X obj 648 534 *~ 0.1;
#X obj 721 744 dac~;
#X obj 648 510 pow~ 10;
#X obj 644 578 lop~ 500;
#X obj 766 489 noise~;
#X obj 766 537 *~ 0.1;
#X obj 766 513 pow~ 10;
#X obj 768 578 lop~ 500;
#X obj 112 859 *~ 0.01;
#X obj 197 852 *~ 0.01;
#X obj 317 823 pow 2;
#X obj 81 181 metro 500;
#X connect 5 0 4 0;
#X connect 9 0 49 0;
#X connect 10 0 50 0;
#X connect 11 0 7 0;
#X connect 12 0 27 0;
#X connect 13 0 17 0;
#X connect 14 0 15 0;
#X connect 15 0 20 0;
#X connect 16 0 18 0;
#X connect 17 0 23 0;
#X connect 18 0 13 0;
#X connect 18 1 17 1;
#X connect 19 0 12 0;
#X connect 20 0 16 0;
#X connect 21 0 26 0;
#X connect 22 0 24 0;
#X connect 23 0 19 0;
#X connect 23 0 39 0;
#X connect 24 0 23 1;
#X connect 25 0 26 0;
#X connect 25 0 52 0;
#X connect 26 0 22 0;
#X connect 27 0 9 0;
#X connect 28 0 25 0;
#X connect 29 0 30 0;
#X connect 30 0 51 0;
#X connect 31 0 32 0;
#X connect 32 0 12 1;
#X connect 33 0 34 0;
#X connect 34 0 27 1;
#X connect 35 0 10 0;
#X connect 36 0 35 0;
#X connect 37 0 38 0;
#X connect 38 0 35 1;
#X connect 39 0 36 0;
#X connect 40 0 43 0;
#X connect 41 0 44 0;
#X connect 43 0 41 0;
#X connect 45 0 47 0;
#X connect 46 0 48 0;
#X connect 47 0 46 0;
#X connect 49 0 3 0;
#X connect 50 0 3 1;
#X connect 51 0 50 1;
#X connect 51 0 49 1;
#X connect 52 0 14 0;
