#N canvas 22 74 1448 770 12;
#X declare -path ./bop;
#X declare -path ./bop/babs;
#X obj 32 14 cnv 19 640 40 empty empty plantsOS\ 🪁\ Kite\ Choir 20 20 0 16 #c6ffc7 #e3c6ff 0;
#X obj 614 33 nbx 3 17 -1e+37 1e+37 0 1 version empty version 0 -10 0 12 #c6ffc7 #000000 #000000 56 256;
#X obj 32 138 declare -path ./bop, f 28;
#X obj 309 723 dac~, f 35;
#X msg 164 95 \; pd dsp 1;
#X obj 164 66 loadbang, f 9;
#X obj 32 167 declare -path ./bop/babs, f 28;
#X obj 33 66 bopos.osc, f 10;
#X obj 32 94 bopos.feedback, f 16;
#X obj 309 664 clip~ -1 1;
#X obj 547 663 clip~ -1 1;
#X obj 308 624 bop.delay~;
#A saved time 0.333;
#A saved feedback 0.5;
#A saved cutoff 1000;
#A saved q 0.3;
#A saved wet 0.75;
#A saved dry 1;
#X obj 437 630 pow 2;
#X obj 307 589 catch~ left;
#X obj 547 589 catch~ right;
#X obj 743 515 throw~ left;
#X obj 834 514 throw~ right;
#X obj 548 627 bop.reverb~;
#A saved size 0.5;
#A saved damp 0.5;
#A saved cutoff 3000;
#A saved wet 0.7;
#A saved dry 1;
#X obj 743 348 bop.stream~;
#A saved pack kc_samplepackAPAM;
#A saved folder 0;
#A saved loop 1;
#A saved gain 1;
#X obj 309 694 *~ 0;
#X obj 547 689 *~ 0;
#X msg 31 252 io create adc ads1015 0x48;
#X obj 31 213 loadbang;
#X obj 437 569 r gain;
#N canvas 37 125 1267 758 mapping 0;
#X obj 373 82 r osc-in;
#X obj 373 106 route gain;
#X obj 373 199 value gain;
#X obj 373 133 t b f;
#X obj 405 170 clip 0 1;
#X obj 373 236 s gain;
#X obj 44 79 r osc-in;
#X obj 44 117 route adc;
#X obj 44 176 unpack f f f f, f 26;
#X text 61 145 incoming voltages 0 - 3.3;
#X obj 532 159 clip 1 2;
#X obj 710 161 clip 1 2;
#X obj 532 99 int;
#X obj 532 123 change;
#X obj 710 102 int;
#X obj 710 126 change;
#X floatatom 532 232 5 0 0 0 - - - 0;
#X obj 532 199 expr 1 - ($i1 - 1);
#X floatatom 710 232 5 0 0 0 - - - 0;
#X obj 710 199 expr 1 - ($i1 - 1);
#X obj 532 263 sel 1;
#X obj 709 265 sel 1;
#X obj 636 430 +;
#X obj 643 387 value gain;
#X obj 607 350 t b b f;
#X obj 632 462 clip 0 1;
#X obj 605 502 value gain;
#X obj 605 543 s gain;
#X msg 532 299 0.05;
#X msg 708 298 -0.05;
#X text 378 23 GAIN;
#X obj 41 207 s adc0;
#X obj 96 209 s adc1;
#X obj 150 208 s adc2;
#X obj 208 210 s adc3;
#X obj 533 68 r adc0;
#X obj 710 71 r adc3;
#X text 49 40 ADC;
#X obj 957 414 delay 2000;
#X obj 957 534 s osc-in;
#X obj 957 446 bng 19 250 50 0 empty empty empty 0 -10 0 12 #fcfcfc #000000 #000000;
#X msg 957 507 helper shutdown;
#X obj 960 292 change;
#X obj 611 292 s click;
#X text 935 54 shutdown/reboot;
#X obj 960 185 clip 1 2;
#X obj 960 125 int;
#X obj 960 149 change;
#X floatatom 960 258 5 0 0 0 - - - 0;
#X obj 960 225 expr 1 - ($i1 - 1);
#X obj 961 94 r adc2;
#X msg 985 379 stop;
#X obj 959 331 sel 1 0, f 13;
#X text 55 258 TILT;
#X msg 171 397 \$1;
#X msg 57 379 \$2;
#X floatatom 171 421 5 0 0 0 - - - 0;
#X obj 57 421 abs;
#X obj 58 493 hsl 162 19 0 180 0 0 empty empty empty -2 -10 0 12 #fcfcfc #000000 #000000 0 1;
#X obj 55 534 babs.scale 0 180 -1 1;
#X text 227 423 roll;
#X text 104 423 tilt;
#X obj 55 298 r osc-in;
#X obj 55 576 moses 0, f 29;
#X obj 253 664 babs.scale 0.2 0.8 0 1;
#X floatatom 51 744 5 0 0 0 - - - 0;
#X floatatom 251 737 5 0 0 0 - - - 0;
#X obj 52 700 clip 0 1;
#X obj 251 705 clip 0 1;
#X obj 55 331 route tilt;
#X obj 55 616 * -1;
#X obj 53 663 babs.scale 0.2 0.8 0 1;
#X obj 163 792 +;
#X obj 165 763 t b f;
#X obj 164 830 expr 1 - $f1;
#X text 1261 1044 comment;
#X obj 57 451 s tilt;
#X obj 111 462 r tilt;
#X obj 174 962 s gain-center;
#X obj 28 876 s gain-left;
#X obj 278 873 s gain-right;
#X obj 167 913 babs.scale 0 1 0.5 1;
#X connect 0 0 1 0;
#X connect 1 0 3 0;
#X connect 2 0 5 0;
#X connect 3 0 2 0;
#X connect 3 1 4 0;
#X connect 4 0 2 0;
#X connect 6 0 7 0;
#X connect 7 0 8 0;
#X connect 8 0 31 0;
#X connect 8 1 32 0;
#X connect 8 2 33 0;
#X connect 8 3 34 0;
#X connect 10 0 17 0;
#X connect 11 0 19 0;
#X connect 12 0 13 0;
#X connect 13 0 10 0;
#X connect 14 0 15 0;
#X connect 15 0 11 0;
#X connect 16 0 20 0;
#X connect 17 0 16 0;
#X connect 18 0 21 0;
#X connect 19 0 18 0;
#X connect 20 0 28 0;
#X connect 21 0 29 0;
#X connect 22 0 25 0;
#X connect 23 0 22 0;
#X connect 24 0 26 0;
#X connect 24 1 23 0;
#X connect 24 2 22 1;
#X connect 25 0 26 0;
#X connect 26 0 27 0;
#X connect 28 0 24 0;
#X connect 29 0 24 0;
#X connect 35 0 12 0;
#X connect 36 0 14 0;
#X connect 38 0 40 0;
#X connect 40 0 41 0;
#X connect 41 0 39 0;
#X connect 42 0 52 0;
#X connect 45 0 49 0;
#X connect 46 0 47 0;
#X connect 47 0 45 0;
#X connect 48 0 42 0;
#X connect 49 0 48 0;
#X connect 50 0 46 0;
#X connect 51 0 38 0;
#X connect 52 0 38 0;
#X connect 52 1 51 0;
#X connect 54 0 56 0;
#X connect 55 0 57 0;
#X connect 57 0 76 0;
#X connect 58 0 59 0;
#X connect 59 0 63 0;
#X connect 62 0 69 0;
#X connect 63 0 70 0;
#X connect 63 1 64 0;
#X connect 64 0 68 0;
#X connect 65 0 72 0;
#X connect 65 0 79 0;
#X connect 66 0 73 0;
#X connect 66 0 80 0;
#X connect 67 0 65 0;
#X connect 68 0 66 0;
#X connect 69 0 54 0;
#X connect 69 0 55 0;
#X connect 70 0 71 0;
#X connect 71 0 67 0;
#X connect 72 0 74 0;
#X connect 73 0 72 0;
#X connect 73 1 72 1;
#X connect 74 0 81 0;
#X connect 77 0 58 0;
#X connect 81 0 78 0;
#X restore 32 436 pd mapping;
#X f 23;
#X obj 32 387 s osc-in;
#X msg 64 356 id -1;
#X text 111 355 < mute on dash;
#X msg 43 283 io create tilt lis3dh 0x19;
#X msg 62 319 io poll 20;
#X obj 762 435 line~;
#X msg 762 406 \$1 100;
#X obj 744 465 *~;
#X obj 494 63 r gain;
#X floatatom 494 87 5 0 0 0 - - - 0;
#X obj 306 118 hsl 162 19 0 180 0 0 tilt empty empty -2 -10 0 12 #fcfcfc #000000 #000000 0 1;
#X obj 494 119 r tilt;
#X floatatom 494 143 5 0 0 0 - - - 0;
#X obj 309 62 hsl 162 19 0 1 0 0 gain empty empty -2 -10 0 12 #fcfcfc #000000 #000000 0 1;
#X floatatom 423 209 5 0 0 0 - - - 0;
#X floatatom 304 208 5 0 0 0 - - - 0;
#X floatatom 550 208 5 0 0 0 - - - 0;
#X obj 742 279 r ID;
#X msg 742 306 pack kc_samplepackAPAM \, folder 0 \, loop 1 \, \$1 127;
#X text 738 244 CHOIR--------------------------------;
#X obj 423 185 r gain-center;
#X obj 304 184 r gain-left;
#X obj 550 184 r gain-right;
#X obj 762 379 r gain-center;
#X obj 297 512 throw~ left;
#X obj 388 511 throw~ right;
#X obj 297 345 bop.stream~;
#A saved pack kc_samplepackAPAM;
#A saved folder 1;
#A saved loop 1;
#A saved gain 1;
#X obj 316 432 line~;
#X msg 316 403 \$1 100;
#X obj 298 462 *~;
#X obj 316 375 r gain-left;
#X msg 574 74 1;
#X msg 609 73 2;
#X obj 578 114 s ID;
#X msg 299 296 pack kc_samplepackAPAM \, folder 1 \, loop 1 \, \$1 127;
#X text 293 245 BIRDS--------------------------------;
#X obj 1158 351 bop.stream~;
#A saved pack kc_samplepackAPAM;
#A saved folder 2;
#A saved loop 1;
#A saved gain 1;
#X obj 1177 438 line~;
#X msg 1177 409 \$1 100;
#X obj 1159 468 *~;
#X text 1154 243 WIND--------------------------------;
#X msg 1160 302 pack kc_samplepackAPAM \, folder 2 \, loop 1 \, \$1 127;
#X obj 1177 381 r gain-right;
#X obj 437 599 clip 0 0.9;
#X obj 1157 529 throw~ left;
#X obj 1248 528 throw~ right;
#X obj 296 266 loadbang;
#X obj 1158 267 loadbang;
#X obj 1159 503 *~ 0.3;
#X obj 745 489 *~ 0.8;
#X obj 298 487 *~ 0.3;
#X connect 5 0 4 0;
#X connect 9 0 19 0;
#X connect 10 0 20 0;
#X connect 11 0 9 0;
#X connect 12 0 19 1;
#X connect 12 0 20 1;
#X connect 13 0 11 0;
#X connect 14 0 17 0;
#X connect 17 0 10 0;
#X connect 18 0 32 0;
#X connect 19 0 3 0;
#X connect 20 0 3 1;
#X connect 21 0 25 0;
#X connect 22 0 21 0;
#X connect 22 0 28 0;
#X connect 22 0 29 0;
#X connect 23 0 68 0;
#X connect 26 0 25 0;
#X connect 28 0 25 0;
#X connect 29 0 25 0;
#X connect 30 0 32 1;
#X connect 31 0 30 0;
#X connect 32 0 74 0;
#X connect 33 0 34 0;
#X connect 36 0 37 0;
#X connect 42 0 43 0;
#X connect 43 0 18 0;
#X connect 45 0 39 0;
#X connect 46 0 40 0;
#X connect 47 0 41 0;
#X connect 48 0 31 0;
#X connect 51 0 54 0;
#X connect 52 0 54 1;
#X connect 53 0 52 0;
#X connect 54 0 75 0;
#X connect 55 0 53 0;
#X connect 56 0 58 0;
#X connect 57 0 58 0;
#X connect 59 0 51 0;
#X connect 61 0 64 0;
#X connect 62 0 64 1;
#X connect 63 0 62 0;
#X connect 64 0 73 0;
#X connect 66 0 61 0;
#X connect 67 0 63 0;
#X connect 68 0 12 0;
#X connect 71 0 59 0;
#X connect 72 0 66 0;
#X connect 73 0 70 0;
#X connect 73 0 69 0;
#X connect 74 0 16 0;
#X connect 74 0 15 0;
#X connect 75 0 49 0;
#X connect 75 0 50 0;
