#N canvas 713 379 694 845 12;
#X declare -path ./bop;
#X declare -path ./bop/babs;
#X obj 32 14 cnv 19 370 40 empty empty plantsOS\ 🪁\ Kite\ Choir 70 20 0 16 #c6ffc7 #e3c6ff 0;
#X obj 337 33 nbx 3 17 -1e+37 1e+37 0 1 version empty version 0 -10 0 12 #c6ffc7 #000000 #000000 0 256;
#X obj 431 116 declare -path ./bop, f 24;
#X obj 45 634 dac~, f 12;
#X msg 531 70 \; pd dsp 1;
#X obj 531 31 loadbang, f 9;
#X obj 431 145 declare -path ./bop/babs;
#X obj 315 116 bopos.osc, f 10;
#X obj 274 143 bopos.feedback, f 16;
#X obj 45 601 clip~ -1 1;
#X obj 128 600 clip~ -1 1;
#X msg 315 90 id 0;
#X obj 41 472 noise~;
#X obj 150 195 loadbang;
#X msg 150 219 1;
#X obj 150 243 tgl 19 0 empty empty empty 0 -10 0 12 #fcfcfc #000000 #000000 0 1;
#X obj 103 453 line~;
#X obj 40 519 *~, f 10;
#X obj 150 271 metro 1000;
#X obj 150 302 tgl 19 0 empty empty empty 0 -10 0 12 #fcfcfc #000000 #000000 0 1;
#X obj 150 326 sel 0 1;
#X obj 102 479 pow~ 4;
#X obj 183 466 noise~;
#X obj 245 447 line~;
#X obj 182 513 *~, f 10;
#X obj 244 473 pow~ 4;
#X msg 104 411 1 \, 0 500;
#X msg 246 405 1 \, 0 500;
#X connect 5 0 4 0;
#X connect 9 0 3 0;
#X connect 10 0 3 1;
#X connect 11 0 7 0;
#X connect 12 0 17 0;
#X connect 13 0 14 0;
#X connect 14 0 15 0;
#X connect 15 0 18 0;
#X connect 16 0 21 0;
#X connect 17 0 9 0;
#X connect 18 0 19 0;
#X connect 19 0 20 0;
#X connect 20 0 26 0;
#X connect 20 1 27 0;
#X connect 21 0 17 1;
#X connect 22 0 24 0;
#X connect 23 0 25 0;
#X connect 24 0 10 0;
#X connect 25 0 24 1;
#X connect 26 0 16 0;
#X connect 27 0 23 0;
