#N canvas 146 156 1240 772 12;
#X declare -path ./bop;
#X declare -path ./bop/babs;
#X obj 32 14 cnv 19 370 40 empty empty plantsOS\ 🪁\ Kite\ Choir 70 20 0 16 #c6ffc7 #e3c6ff 0;
#X obj 337 33 nbx 3 17 -1e+37 1e+37 0 1 version empty version 0 -10 0 12 #c6ffc7 #000000 #000000 41 256;
#X obj 581 120 declare -path ./bop, f 24;
#X obj 371 562 dac~, f 35;
#X msg 681 74 \; pd dsp 1;
#X obj 681 35 loadbang, f 9;
#X obj 581 149 declare -path ./bop/babs;
#X obj 317 154 bopos.osc, f 10;
#X obj 401 154 bopos.feedback, f 16;
#X obj 371 503 clip~ -1 1;
#X obj 609 502 clip~ -1 1;
#X msg 274 120 id 0;
#X obj 54 505 bop.delay~;
#A saved time 0.333;
#A saved feedback 0.5;
#A saved cutoff 1000;
#A saved q 0.3;
#A saved wet 0.75;
#A saved dry 1;
#X obj 678 232 r osc-in;
#X obj 678 256 route gain;
#X obj 499 469 pow 2;
#N canvas 0 37 1470 891 tilt 0;
#X obj 176 69 route tilt touch;
#X msg 54 170 \$1;
#X msg 263 140 \$2;
#X floatatom 54 194 5 0 0 0 - - - 0;
#X obj 263 182 abs;
#X obj 265 220 hsl 162 19 0 180 0 0 empty empty empty -2 -10 0 12 #fcfcfc #000000 #000000 0 1;
#X obj 262 261 babs.scale 0 180 -1 1;
#X floatatom 263 507 5 0 0 0 - - - 0;
#X floatatom 434 509 5 0 0 0 - - - 0;
#X obj 262 308 moses 0.5, f 17;
#X obj 269 618 f, f 12;
#X obj 279 668 +, f 12;
#X obj 264 559 t b f, f 15;
#X msg 414 603 0;
#X obj 279 753 t f f, f 8;
#X obj 265 403 t f b;
#X obj 428 407 t f b;
#X msg 462 438 1;
#X msg 304 436 -1;
#X obj 341 405 t b;
#X msg 341 429 0;
#X obj 316 493 s \$0-which-tilt;
#X obj 362 835 r \$0-which-tilt;
#X obj 280 875 list prepend;
#X obj 280 899 route -1 0 1;
#X obj 384 456 change;
#X text 110 196 roll;
#X text 310 184 tilt;
#X obj 177 38 inlet;
#X obj 278 710 clip -10 10;
#X obj 279 790 babs.scale -10 10 0 1;
#X obj 264 369 moses -0.1;
#X obj 375 372 moses 0.1;
#X obj 204 1050 bop.instrument~;
#A saved instrument 2;
#X obj 208 1006 bop.strum;
#A saved strum 0;
#A saved chord 7;
#A saved shuffle 0;
#A saved root 44.68;
#A saved octaves 5;
#A saved velocity 1;
#A saved duration 0.614286;
#X obj 384 1048 bop.instrument~;
#A saved instrument 1;
#X obj 394 1013 bop.strum;
#A saved strum 0.821429;
#A saved chord 7;
#A saved shuffle 0;
#A saved root 37.68;
#A saved octaves 5;
#A saved velocity 1;
#A saved duration 0.614286;
#X obj 205 1082 throw~ left;
#X obj 382 1080 throw~ right;
#X msg 206 973 strum \$1;
#X msg 380 970 strum \$1;
#X connect 0 0 1 0;
#X connect 0 0 2 0;
#X connect 1 0 3 0;
#X connect 2 0 4 0;
#X connect 4 0 5 0;
#X connect 5 0 6 0;
#X connect 6 0 9 0;
#X connect 7 0 12 0;
#X connect 8 0 12 0;
#X connect 9 0 31 0;
#X connect 9 1 32 0;
#X connect 10 0 11 0;
#X connect 11 0 29 0;
#X connect 12 0 10 0;
#X connect 12 1 11 1;
#X connect 13 0 10 1;
#X connect 14 0 30 0;
#X connect 14 1 10 1;
#X connect 15 0 7 0;
#X connect 15 1 18 0;
#X connect 16 0 8 0;
#X connect 16 1 17 0;
#X connect 17 0 25 0;
#X connect 18 0 25 0;
#X connect 19 0 20 0;
#X connect 20 0 25 0;
#X connect 22 0 23 1;
#X connect 23 0 24 0;
#X connect 24 0 39 0;
#X connect 24 2 40 0;
#X connect 25 0 21 0;
#X connect 28 0 0 0;
#X connect 29 0 14 0;
#X connect 30 0 23 0;
#X connect 31 0 15 0;
#X connect 31 1 19 0;
#X connect 32 0 19 0;
#X connect 32 1 16 0;
#X connect 33 0 37 0;
#X connect 34 1 33 0;
#X connect 35 0 38 0;
#X connect 36 1 35 0;
#X connect 39 0 34 1;
#X connect 40 0 36 1;
#X restore 63 139 pd tilt;
#X f 18;
#X obj 371 472 catch~ left;
#X obj 609 470 catch~ right;
#X obj 54 540 throw~ left;
#X obj 161 540 throw~ right;
#X msg 53 428 pack kc_samplepack \, folder 7 \, loop 1 \, 0 127;
#X obj 53 398 loadbang;
#X obj 161 503 bop.reverb~;
#A saved size 0.5;
#A saved damp 0.5;
#A saved cutoff 3000;
#A saved wet 0.7;
#A saved dry 1;
#X obj 63 110 r osc-in;
#X obj 54 470 bop.stream~;
#A saved pack kc_samplepack;
#A saved folder 7;
#A saved gain 1;
#X obj 371 533 *~ 0;
#X obj 609 528 *~ 0;
#X msg 317 120 io create adc ads1015 0x48;
#X obj 317 89 loadbang;
#X obj 678 349 value gain;
#X obj 678 283 t b f;
#X obj 710 320 clip 0 1;
#X obj 678 386 s gain;
#X obj 895 46 r osc-in;
#X obj 895 84 route adc;
#X obj 895 143 unpack f f f f, f 26;
#X text 912 112 incoming voltages 0 - 3.3;
#X obj 895 238 clip 1 2;
#X obj 1073 240 clip 1 2;
#X obj 895 178 int;
#X obj 895 202 change;
#X obj 1073 181 int;
#X obj 1073 205 change;
#X floatatom 895 311 5 0 0 0 - - - 0;
#X obj 895 278 expr 1 - ($i1 - 1);
#X obj 798 350 print button1;
#X floatatom 1073 311 5 0 0 0 - - - 0;
#X obj 1073 278 expr 1 - ($i1 - 1);
#X obj 1087 350 print button2;
#X obj 499 408 r gain;
#X obj 908 349 sel 1;
#X obj 1036 351 sel 1;
#X obj 999 509 +;
#X obj 1006 466 value gain;
#X obj 970 429 t b b f;
#X obj 995 541 clip 0 1;
#X obj 942 574 value gain;
#X obj 940 614 s gain;
#X obj 767 637 print gain;
#X obj 764 593 r gain;
#X obj 499 438 clip 0 0.5;
#X msg 913 383 0.05;
#X msg 1041 385 -0.05;
#X connect 5 0 4 0;
#X connect 9 0 26 0;
#X connect 10 0 27 0;
#X connect 11 0 7 0;
#X connect 12 0 19 0;
#X connect 13 0 14 0;
#X connect 14 0 31 0;
#X connect 15 0 26 1;
#X connect 15 0 27 1;
#X connect 17 0 9 0;
#X connect 18 0 10 0;
#X connect 21 0 25 0;
#X connect 22 0 21 0;
#X connect 23 0 20 0;
#X connect 24 0 16 0;
#X connect 25 0 12 0;
#X connect 25 0 23 0;
#X connect 26 0 3 0;
#X connect 27 0 3 1;
#X connect 28 0 7 0;
#X connect 29 0 28 0;
#X connect 30 0 33 0;
#X connect 31 0 30 0;
#X connect 31 1 32 0;
#X connect 32 0 30 0;
#X connect 34 0 35 0;
#X connect 35 0 36 0;
#X connect 36 0 40 0;
#X connect 36 3 42 0;
#X connect 38 0 45 0;
#X connect 39 0 48 0;
#X connect 40 0 41 0;
#X connect 41 0 38 0;
#X connect 42 0 43 0;
#X connect 43 0 39 0;
#X connect 44 0 46 0;
#X connect 44 0 51 0;
#X connect 45 0 44 0;
#X connect 47 0 49 0;
#X connect 47 0 52 0;
#X connect 48 0 47 0;
#X connect 50 0 61 0;
#X connect 51 0 62 0;
#X connect 52 0 63 0;
#X connect 53 0 56 0;
#X connect 54 0 53 0;
#X connect 55 0 57 0;
#X connect 55 1 54 0;
#X connect 55 2 53 1;
#X connect 56 0 57 0;
#X connect 57 0 58 0;
#X connect 60 0 59 0;
#X connect 61 0 15 0;
#X connect 62 0 55 0;
#X connect 63 0 55 0;
