#N canvas 25 50 1013 1052 12;
#X declare -path ./bop;
#X declare -path ./bop/babs;
#X obj 32 14 cnv 19 370 40 empty empty plantsOS\ 🪁\ Kite\ Choir 70 20 0 16 #c6ffc7 #e3c6ff 0;
#X obj 337 33 nbx 3 17 -1e+37 1e+37 0 1 version empty version 0 -10 0 12 #c6ffc7 #000000 #000000 35 256;
#X obj 431 116 declare -path ./bop, f 24;
#X obj 100 973 dac~, f 12;
#X msg 531 70 \; pd dsp 1;
#X obj 531 31 loadbang, f 9;
#X obj 431 145 declare -path ./bop/babs;
#X obj 315 116 bopos.osc, f 10;
#X obj 274 143 bopos.feedback, f 16;
#X obj 99 888 clip~ -1 1;
#X obj 182 887 clip~ -1 1;
#X msg 315 90 id 0;
#X obj 103 685 bop.delay~;
#A saved time 0.333;
#A saved feedback 0.5;
#A saved cutoff 1000;
#A saved q 0.3;
#A saved wet 0.75;
#A saved dry 1;
#X obj 302 857 r osc-in;
#X obj 302 881 route gain;
#X obj 302 908 pow 2;
#N canvas 0 50 2048 1254 tilt 0;
#X obj 176 69 route tilt touch;
#X msg 54 170 \$1;
#X msg 263 140 \$2;
#X floatatom 54 194 5 0 0 0 - - - 0;
#X obj 263 182 abs;
#X obj 265 220 hsl 162 19 0 180 0 0 empty empty empty -2 -10 0 12 #fcfcfc #000000 #000000 0 1;
#X obj 262 261 babs.scale 0 180 -1 1;
#X floatatom 263 507 5 0 0 0 - - - 0;
#X floatatom 434 509 5 0 0 0 - - - 0;
#X obj 262 308 moses 0.5, f 17;
#X obj 269 618 f, f 12;
#X obj 279 668 +, f 12;
#X obj 264 559 t b f, f 15;
#X msg 414 603 0;
#X obj 279 753 t f f, f 8;
#X obj 265 403 t f b;
#X obj 428 407 t f b;
#X msg 462 438 1;
#X msg 304 436 -1;
#X obj 341 405 t b;
#X msg 341 429 0;
#X obj 316 493 s \$0-which-tilt;
#X obj 362 835 r \$0-which-tilt;
#X obj 280 875 list prepend;
#X obj 280 899 route -1 0 1;
#X obj 384 456 change;
#X text 110 196 roll;
#X text 310 184 tilt;
#X obj 170 36 r osc-in;
#X obj 307 39 inlet;
#X obj 278 710 clip -10 10;
#X obj 279 790 babs.scale -10 10 0 1;
#X obj 264 369 moses -0.1;
#X obj 375 372 moses 0.1;
#X obj 204 1050 bop.instrument~;
#A saved instrument 2;
#X obj 208 1006 bop.strum;
#A saved strum 0;
#A saved chord 7;
#A saved shuffle 0;
#A saved root 44.68;
#A saved octaves 5;
#A saved velocity 1;
#A saved duration 0.614286;
#X obj 384 1048 bop.instrument~;
#A saved instrument 1;
#X obj 394 1013 bop.strum;
#A saved strum 0.821429;
#A saved chord 7;
#A saved shuffle 0;
#A saved root 37.68;
#A saved octaves 5;
#A saved velocity 1;
#A saved duration 0.614286;
#X obj 205 1082 throw~ left;
#X obj 382 1080 throw~ right;
#X msg 206 973 strum \$1;
#X msg 380 970 strum \$1;
#X connect 0 0 1 0;
#X connect 0 0 2 0;
#X connect 1 0 3 0;
#X connect 2 0 4 0;
#X connect 4 0 5 0;
#X connect 5 0 6 0;
#X connect 6 0 9 0;
#X connect 7 0 12 0;
#X connect 8 0 12 0;
#X connect 9 0 32 0;
#X connect 9 1 33 0;
#X connect 10 0 11 0;
#X connect 11 0 30 0;
#X connect 12 0 10 0;
#X connect 12 1 11 1;
#X connect 13 0 10 1;
#X connect 14 0 31 0;
#X connect 14 1 10 1;
#X connect 15 0 7 0;
#X connect 15 1 18 0;
#X connect 16 0 8 0;
#X connect 16 1 17 0;
#X connect 17 0 25 0;
#X connect 18 0 25 0;
#X connect 19 0 20 0;
#X connect 20 0 25 0;
#X connect 22 0 23 1;
#X connect 23 0 24 0;
#X connect 24 0 40 0;
#X connect 24 2 41 0;
#X connect 25 0 21 0;
#X connect 28 0 0 0;
#X connect 29 0 0 0;
#X connect 30 0 14 0;
#X connect 31 0 23 0;
#X connect 32 0 15 0;
#X connect 32 1 19 0;
#X connect 33 0 19 0;
#X connect 33 1 16 0;
#X connect 34 0 38 0;
#X connect 35 1 34 0;
#X connect 36 0 39 0;
#X connect 37 1 36 0;
#X connect 40 0 35 1;
#X connect 41 0 37 1;
#X restore 273 217 pd tilt;
#X f 18;
#X obj 122 807 catch~ left;
#X obj 237 814 catch~ right;
#X obj 103 720 throw~ left;
#X obj 346 712 throw~ right;
#X obj 272 179 r echo;
#X obj 92 434 bop.stream~;
#A saved pack kc_samplepack;
#A saved folder 7;
#A saved loop 1;
#A saved gain 1;
#X msg 102 388 pack kc_samplepack \, folder 7 \, loop 1 \, 0 127;
#X obj 100 352 loadbang;
#X obj 353 631 bop.reverb~;
#A saved size 0.5;
#A saved damp 0.5;
#A saved cutoff 3000;
#A saved wet 0.7;
#A saved dry 1;
#X obj 97 944 *~ 0.7;
#X obj 182 937 *~ 0.7;
#X connect 5 0 4 0;
#X connect 9 0 26 0;
#X connect 10 0 27 0;
#X connect 11 0 7 0;
#X connect 12 0 19 0;
#X connect 13 0 14 0;
#X connect 14 0 15 0;
#X connect 15 0 26 1;
#X connect 15 0 27 1;
#X connect 17 0 9 0;
#X connect 18 0 10 0;
#X connect 22 0 12 0;
#X connect 22 0 25 0;
#X connect 23 0 22 1;
#X connect 24 0 23 0;
#X connect 25 0 20 0;
#X connect 26 0 3 0;
#X connect 27 0 3 1;
