#N canvas 0 69 1347 977 12;
#X declare -path ./bop;
#X declare -path ./bop/babs;
#X obj 32 14 cnv 19 800 40 empty empty plantsOS\ 🛠️\ TESTING 100 20 0 16 #c6ffc7 #e3c6ff 0;
#X obj 765 33 nbx 3 17 -1e+37 1e+37 0 1 version empty version 0 -10 0 12 #c6ffc7 #000000 #000000 6 256;
#X obj 32 55 cnv 19 800 200 empty empty empty 20 12 0 12 #e3c6ff #404040 0;
#X obj 32 256 cnv 19 800 330 empty empty empty 20 12 0 12 #c6feff #404040 0;
#X obj 32 588 cnv 19 400 350 empty empty empty 20 12 0 12 #feffc6 #404040 0;
#X obj 242 858 declare -path ./bop, f 24;
#X obj 48 886 dac~, f 15;
#X msg 347 815 \; pd dsp 1;
#X obj 347 776 loadbang, f 9;
#X obj 51 766 bop.reverb~;
#A saved size 0.671429;
#A saved damp 0.578571;
#A saved cutoff 3000;
#A saved wet 0.857143;
#A saved dry 1;
#X obj 153 764 bop.reverb~;
#A saved size 0.671429;
#A saved damp 0.578571;
#A saved cutoff 3000;
#A saved wet 0.857143;
#A saved dry 1;
#X obj 242 887 declare -path ./bop/babs;
#X obj 150 852 *~;
#X obj 48 852 *~;
#X obj 50 322 r osc-in;
#X obj 260 665 hsl 162 19 0.01 1 1 1 empty empty gain 10 10 0 12 #fcfcfc #000000 #000000 13677 1;
#X obj 258 795 line~;
#X obj 47 551 s touch;
#X obj 81 524 s touchraw;
#X obj 111 495 s buttons;
#X obj 143 464 s pots;
#X msg 257 693 \$1 100;
#X obj 51 717 bop.strum;
#A saved strum 0;
#A saved chord 1;
#A saved shuffle 0;
#A saved root 43;
#A saved octaves 4;
#A saved velocity 0.888;
#A saved duration 0.444;
#X obj 51 741 bop.casio~;
#A saved wave-1 2;
#A saved wave-2 2;
#A saved filter 0.65;
#A saved attack 0;
#A saved decay 0.614286;
#A saved sustain 0;
#A saved release 0.507143;
#A saved gain 1;
#X obj 153 714 bop.strum;
#A saved strum 0;
#A saved chord 7;
#A saved shuffle 1;
#A saved root 46;
#A saved octaves 3;
#A saved velocity 0.888;
#A saved duration 0.444;
#X obj 153 738 bop.casio~;
#A saved wave-1 0;
#A saved wave-2 0;
#A saved filter 0.878571;
#A saved attack 0.1;
#A saved decay 0.3;
#A saved sustain 0.7;
#A saved release 0.2;
#A saved gain 1;
#X msg 51 651 strum \$1;
#X msg 153 655 strum \$1;
#X floatatom 1150 381 5 0 0 0 - - - 36;
#X floatatom 928 390 5 0 0 0 - - - 36;
#X obj 897 251 r touchraw;
#X msg 1144 348 \$1;
#X msg 895 351 \$1;
#X obj 893 690 bop.scope~;
#X obj 1125 695 bop.scope~;
#X obj 895 592 clip 0 1;
#X obj 894 558 babs.scale 0 1024 0 1;
#X obj 1132 593 clip 0 1;
#X obj 1134 552 babs.scale 0 1024 0 1;
#X obj 894 306 route 0 1, f 44;
#X obj 324 310 r touch;
#X msg 397 412 \$1;
#X msg 323 411 \$1;
#X obj 324 380 route 0 1, f 16;
#X obj 49 362 route t traw b p ping;
#X obj 174 438 s pingback;
#X floatatom 1167 631 5 0 0 0 - - - 0;
#X obj 55 616 hsl 80 19 0 1 0 0 empty plant1 plant1 10 10 0 12 #fcfcfc #000000 #000000 0 1;
#X obj 158 617 hsl 80 19 0 1 0 0 empty plant2 plant2 10 10 0 12 #fcfcfc #000000 #000000 0 1;
#X floatatom 926 620 5 0 0 0 - - - 0;
#X obj 524 313 r pots;
#X floatatom 591 376 5 0 0 0 - - - 0;
#X floatatom 527 377 5 0 0 0 - - - 0;
#X obj 189 406 print extra;
#X obj 322 444 s plant1;
#X obj 398 445 s plant2;
#X obj 906 649 s plant1;
#X obj 1159 664 s plant2;
#X obj 526 340 unpack 0 0 0, f 20;
#X text 334 331 ideal plant mapping, f 8;
#X floatatom 661 379 5 0 0 0 - - - 0;
#X floatatom 589 488 5 0 0 0 - - - 0;
#X floatatom 525 489 5 0 0 0 - - - 0;
#X obj 524 452 unpack 0 0 0, f 20;
#X floatatom 659 491 5 0 0 0 - - - 0;
#X obj 522 425 r buttons;
#X obj 877 16 MPR-config-panel 0;
#X obj 1070 15 MPR-config-panel 1;
#X floatatom 935 481 5 0 0 1 no\ touch\ val - - 0;
#X floatatom 964 517 5 0 0 1 touch\ val - - 0;
#X floatatom 1169 475 5 0 0 1 no\ touch\ val - - 0;
#X floatatom 1198 511 5 0 0 1 touch\ val - - 0;
#X obj 74 152 bopos.osc, f 23;
#X obj 557 152 bopos.feedback, f 23;
#X msg 173 112 id 0;
#X obj 321 154 bopos.arduino, f 23;
#X obj 74 82 r version;
#X msg 74 111 version \$1;
#X obj 321 183 s osc-in;
#X obj 173 83 loadbang;
#X obj 550 668 r osc-in;
#X obj 550 692 route ding;
#X obj 550 716 bng 19 250 50 0 empty empty empty 0 -10 0 12 #fcfcfc #000000 #000000;
#X obj 550 740 random 12;
#X obj 550 788 makenote 100 500;
#X obj 550 812 pack;
#X obj 550 836 s ding;
#X obj 177 682 r ding;
#X obj 69 682 r ding;
#X obj 550 764 + 50;
#X obj 257 617 r osc-in;
#X obj 257 641 route gain;
#N canvas 92 135 1247 470 forward-osc 0;
#X obj 74 39 r osc-in;
#X obj 73 166 oscformat -f i ffi;
#X obj 219 169 oscformat -f i sfi;
#X obj 363 170 oscformat -f i cdc;
#X obj 504 168 oscformat -f i cdt;
#X obj 644 167 oscformat -f i esi;
#X obj 74 62 route ffi sfi cdc cdt esi store, f 123;
#X obj 786 167 oscformat -f i store;
#X obj 318 318 outlet;
#X connect 0 0 6 0;
#X connect 1 0 8 0;
#X connect 2 0 8 0;
#X connect 3 0 8 0;
#X connect 4 0 8 0;
#X connect 5 0 8 0;
#X connect 6 0 1 0;
#X connect 6 1 2 0;
#X connect 6 2 3 0;
#X connect 6 3 4 0;
#X connect 6 4 5 0;
#X connect 6 5 7 0;
#X connect 7 0 8 0;
#X restore 321 122 pd forward-osc;
#X connect 8 0 7 0;
#X connect 9 0 13 0;
#X connect 10 0 12 0;
#X connect 12 0 6 1;
#X connect 13 0 6 0;
#X connect 14 0 44 0;
#X connect 15 0 21 0;
#X connect 16 0 13 1;
#X connect 16 0 12 1;
#X connect 21 0 16 0;
#X connect 22 0 23 0;
#X connect 22 1 23 1;
#X connect 23 0 9 0;
#X connect 23 1 9 1;
#X connect 24 0 25 0;
#X connect 24 1 25 1;
#X connect 25 0 10 0;
#X connect 25 1 10 1;
#X connect 26 0 22 0;
#X connect 27 0 24 0;
#X connect 30 0 39 0;
#X connect 31 0 28 0;
#X connect 31 0 38 0;
#X connect 32 0 29 0;
#X connect 32 0 36 0;
#X connect 35 0 33 0;
#X connect 35 0 49 0;
#X connect 35 0 56 0;
#X connect 36 0 35 0;
#X connect 37 0 46 0;
#X connect 37 0 34 0;
#X connect 37 0 57 0;
#X connect 38 0 37 0;
#X connect 39 0 32 0;
#X connect 39 1 31 0;
#X connect 41 0 55 0;
#X connect 42 0 54 0;
#X connect 43 0 42 0;
#X connect 43 1 41 0;
#X connect 44 0 17 0;
#X connect 44 1 18 0;
#X connect 44 2 19 0;
#X connect 44 3 20 0;
#X connect 44 4 45 0;
#X connect 44 5 53 0;
#X connect 47 0 26 0;
#X connect 48 0 27 0;
#X connect 50 0 58 0;
#X connect 58 0 52 0;
#X connect 58 1 51 0;
#X connect 58 2 60 0;
#X connect 63 0 62 0;
#X connect 63 1 61 0;
#X connect 63 2 64 0;
#X connect 65 0 63 0;
#X connect 68 0 36 1;
#X connect 69 0 36 2;
#X connect 70 0 38 1;
#X connect 71 0 38 2;
#X connect 74 0 72 0;
#X connect 75 0 78 0;
#X connect 76 0 77 0;
#X connect 77 0 72 0;
#X connect 79 0 74 0;
#X connect 80 0 81 0;
#X connect 81 0 82 0;
#X connect 82 0 83 0;
#X connect 83 0 89 0;
#X connect 84 0 85 0;
#X connect 84 1 85 1;
#X connect 85 0 86 0;
#X connect 87 0 24 1;
#X connect 88 0 22 1;
#X connect 89 0 84 0;
#X connect 90 0 91 0;
#X connect 91 0 15 0;
#X connect 92 0 75 0;
