#N canvas 1 74 495 687 12;
#X declare -path ./bop;
#X declare -path ./bop/babs;
#X obj 277 582 declare -path ./bop;
#X obj 37 601 dac~, f 15;
#X msg 277 547 \; pd dsp 1;
#X obj 277 517 loadbang;
#X obj 263 273 read-sensors, f 19;
#X floatatom 268 73 8 0 50 1 sensitivity sensitivity-init sensitivity 0;
#X floatatom 268 102 8 0 1 1 floor floor-init floor 0;
#X obj 44 73 hsl 162 19 0 1 0 0 sensor1 empty sensor1 4 10 0 12 #fcfcfc #000000 #000000 0 1;
#X obj 44 102 hsl 162 19 0 1 0 0 sensor2 empty sensor2 4 10 0 12 #fcfcfc #000000 #000000 0 1;
#X obj 37 414 catch~ left;
#X obj 140 413 catch~ right;
#X obj 37 446 bop.reverb~;
#A saved size 0.671429;
#A saved damp 0.578571;
#A saved cutoff 3000;
#A saved wet 0.857143;
#A saved dry 1;
#X obj 140 444 bop.reverb~;
#A saved size 0.671429;
#A saved damp 0.578571;
#A saved cutoff 3000;
#A saved wet 0.857143;
#A saved dry 1;
#X obj 38 273 voice.bellsharp 0, f 23;
#X obj 38 302 voice.belltreerhodes 1, f 23;
#X obj 38 332 voice.electricxmas 2, f 23;
#X obj 37 361 voice.tubulerglok 3, f 23;
#X text 37 249 VOICES;
#X obj 268 130 bng 19 250 50 0 calibrate calibrate calibrate 20 10 0 12 #fcfcfc #000000 #000000;
#X obj 39 12 cnv 19 400 40 empty empty plantsOS\ 🐱\ changi 100 20 0 16 #c6ffc7 #e3c6ff 0;
#N canvas 207 56 614 872 getvoice 0;
#X obj 190 553 babs.counter, f 16;
#X obj 190 577 % 4;
#X obj 242 798 file handle;
#X obj 348 691 file which;
#X obj 348 727 unpack s f;
#X msg 348 655 symbol persist/voice.txt;
#X msg 348 758 open \$1 c;
#X obj 190 262 file handle;
#X obj 279 150 file which;
#X obj 279 186 unpack s f;
#X msg 279 114 symbol persist/voice.txt;
#X obj 190 10 loadbang;
#X floatatom 190 394 5 0 0 0 - - - 0;
#X obj 190 43 bng 19 250 50 0 empty empty empty 0 -10 0 12 #fcfcfc #000000 #000000;
#X msg 279 217 open \$1;
#X obj 190 70 t b b, f 13;
#X msg 190 143 1 \, close;
#X msg 242 679 close;
#X obj 295 729 + 48;
#X obj 190 300 - 48;
#X obj 190 615 t f b f b, f 23;
#X obj 264 303 print file-write;
#X text 394 183 read voice from file at load;
#X text 451 717 save voice to file;
#X obj 190 108 delay 5;
#X obj 190 495 s \$0-nextvoice;
#X obj 190 524 r \$0-nextvoice;
#X obj 190 826 s active-voice;
#X floatatom 17 37 12 0 0 0 - active-voice - 0;
#X obj 203 335 r osc-in;
#X obj 190 426 t b f, f 16;
#X obj 203 359 route voice;
#X text 275 334 receive voice as OSC command;
#X obj 17 18 bng 19 250 50 0 \$0-nextvoice \$0-nextvoice next\ voice 20 10 0 12 #fcfcfc #000000 #000000;
#X connect 0 0 1 0;
#X connect 1 0 20 0;
#X connect 3 0 4 0;
#X connect 4 0 6 0;
#X connect 5 0 3 0;
#X connect 6 0 2 0;
#X connect 7 0 19 0;
#X connect 7 1 21 0;
#X connect 8 0 9 0;
#X connect 9 0 14 0;
#X connect 10 0 8 0;
#X connect 11 0 13 0;
#X connect 12 0 30 0;
#X connect 13 0 15 0;
#X connect 14 0 7 0;
#X connect 15 0 24 0;
#X connect 15 1 10 0;
#X connect 16 0 7 0;
#X connect 17 0 2 0;
#X connect 18 0 2 0;
#X connect 19 0 12 0;
#X connect 20 0 27 0;
#X connect 20 1 17 0;
#X connect 20 2 18 0;
#X connect 20 3 5 0;
#X connect 24 0 16 0;
#X connect 26 0 0 0;
#X connect 29 0 31 0;
#X connect 30 0 25 0;
#X connect 30 1 0 1;
#X connect 31 0 12 0;
#X coords 0 -1 1 1 100 55 2 10 10;
#X restore 40 170 pd getvoice;
#X obj 277 603 declare -path ./bop/babs;
#X obj 263 302 OSC-IO, f 19;
#N canvas 143 422 388 192 init-sensitivity 0;
#X obj 205 50 loadbang;
#X msg 205 74 0.05;
#X obj 35 52 loadbang;
#X msg 35 76 10;
#X obj 205 105 s floor-init;
#X obj 35 106 s sensitivity-init;
#X obj 99 52 r sensitivity;
#X msg 99 76 set \$1;
#X msg 269 74 set \$1;
#X obj 269 50 r floor;
#X connect 0 0 1 0;
#X connect 1 0 4 0;
#X connect 2 0 3 0;
#X connect 3 0 5 0;
#X connect 6 0 7 0;
#X connect 7 0 3 0;
#X connect 8 0 1 0;
#X connect 9 0 8 0;
#X restore 263 360 pd init-sensitivity;
#X obj 139 567 *~;
#X obj 37 567 *~;
#X obj 55 533 r~ amp1;
#X obj 158 536 r~ amp2;
#N canvas 351 143 615 576 mapping 0;
#X msg 67 417 \$1 10;
#X obj 67 445 line~;
#X msg 169 419 \$1 10;
#X obj 169 447 line~;
#X obj 67 388 r pot1;
#X obj 169 390 r pot2;
#X obj 59 83 r button1;
#X msg 60 285 admin reboot;
#X obj 439 83 r button3;
#X obj 60 312 s osc-in;
#X obj 438 169 s calibrate;
#X obj 439 141 bng 19 250 50 0 empty empty empty 0 -10 0 12 #fcfcfc #000000 #000000;
#X obj 300 84 r button2;
#X obj 300 108 sel 1;
#X obj 439 113 sel 1;
#X obj 300 138 bng 19 250 50 0 empty empty empty 0 -10 0 12 #fcfcfc #000000 #000000;
#X obj 59 259 bng 19 250 50 0 empty empty empty 0 -10 0 12 #fcfcfc #000000 #000000;
#X obj 290 387 r sensor1;
#X obj 370 300 r osc-in;
#X obj 370 324 route debug;
#X obj 370 348 route sensor1 sensor2;
#X obj 302 419 babs.gate 0;
#X obj 367 390 tgl 19 0 empty empty empty 0 -10 0 12 #fcfcfc #000000 #000000 0 1;
#X msg 302 448 sensor1 \$1;
#X obj 302 472 s osc-out;
#X obj 433 420 babs.gate 0;
#X obj 498 391 tgl 19 0 empty empty empty 0 -10 0 12 #fcfcfc #000000 #000000 0 1;
#X obj 433 473 s osc-out;
#X obj 421 388 r sensor2;
#X msg 433 449 sensor2 \$1;
#X obj 300 169 s \$0-nextvoice;
#X obj 67 469 s~ amp1;
#X obj 169 471 s~ amp2;
#X obj 59 125 sel 0 1, f 13;
#X obj 104 162 delay 2000;
#X obj 105 247 s osc-in;
#X obj 104 194 bng 19 250 50 0 empty empty empty 0 -10 0 12 #fcfcfc #000000 #000000;
#X msg 105 220 admin shutdown;
#X text 55 28 red \; press to reboot \; hold for 2s to shutdown \;;
#X text 297 30 blue \; next voice \;;
#X text 440 30 green \; calibrate \;;
#X connect 0 0 1 0;
#X connect 1 0 31 0;
#X connect 2 0 3 0;
#X connect 3 0 32 0;
#X connect 4 0 0 0;
#X connect 5 0 2 0;
#X connect 6 0 33 0;
#X connect 7 0 9 0;
#X connect 8 0 14 0;
#X connect 11 0 10 0;
#X connect 12 0 13 0;
#X connect 13 0 15 0;
#X connect 14 0 11 0;
#X connect 15 0 30 0;
#X connect 16 0 7 0;
#X connect 17 0 21 0;
#X connect 18 0 19 0;
#X connect 19 0 20 0;
#X connect 20 0 22 0;
#X connect 20 1 26 0;
#X connect 21 0 23 0;
#X connect 22 0 21 1;
#X connect 23 0 24 0;
#X connect 25 0 29 0;
#X connect 26 0 25 1;
#X connect 28 0 25 0;
#X connect 29 0 27 0;
#X connect 33 0 16 0;
#X connect 33 1 34 0;
#X connect 34 0 36 0;
#X connect 36 0 37 0;
#X connect 37 0 35 0;
#X restore 263 331 pd mapping;
#X f 19;
#X obj 268 226 s version;
#X obj 268 173 loadbang;
#X msg 268 197 4;
#X connect 3 0 2 0;
#X connect 9 0 11 0;
#X connect 10 0 12 0;
#X connect 11 0 25 0;
#X connect 12 0 24 0;
#X connect 24 0 1 1;
#X connect 25 0 1 0;
#X connect 26 0 25 1;
#X connect 27 0 24 1;
#X connect 30 0 31 0;
#X connect 31 0 29 0;
