#N canvas 383 105 462 644 12;
#X declare -path ./bop;
#X declare -path ./bop/babs;
#X obj 262 556 declare -path ./bop, f 24;
#X obj 38 584 dac~, f 15;
#X msg 367 513 \; pd dsp 1;
#X obj 367 474 loadbang, f 9;
#X obj 263 263 read-sensors, f 19;
#X obj 44 73 hsl 162 19 0 1 0 0 sensor1 empty sensor1 4 10 0 12 #fcfcfc #000000 #000000 0 1;
#X obj 44 102 hsl 162 19 0 1 0 0 sensor2 empty sensor2 4 10 0 12 #fcfcfc #000000 #000000 0 1;
#X obj 38 437 catch~ left;
#X obj 140 436 catch~ right;
#X obj 38 469 bop.reverb~;
#A saved size 0.671429;
#A saved damp 0.578571;
#A saved cutoff 3000;
#A saved wet 0.857143;
#A saved dry 1;
#X obj 140 467 bop.reverb~;
#A saved size 0.671429;
#A saved damp 0.578571;
#A saved cutoff 3000;
#A saved wet 0.857143;
#A saved dry 1;
#X obj 38 263 voice.bellsharp 0, f 23;
#X obj 38 282 voice.belltreerhodes 1, f 23;
#X obj 38 301 voice.electricxmas 2, f 23;
#X obj 38 320 voice.tubulerglok 3, f 23;
#X text 37 239 VOICES;
#X obj 266 176 bng 19 250 50 0 calibrate calibrate calibrate 20 10 0 12 #fcfcfc #000000 #000000;
#X obj 39 12 cnv 19 400 40 empty empty plantsOS\ 🐱\ changi 100 20 0 16 #c6ffc7 #e3c6ff 0;
#N canvas 207 56 614 872 getvoice 0;
#X obj 190 553 babs.counter, f 16;
#X obj 242 798 file handle;
#X obj 348 691 file which;
#X obj 348 727 unpack s f;
#X msg 348 655 symbol persist/voice.txt;
#X msg 348 758 open \$1 c;
#X obj 190 262 file handle;
#X obj 279 150 file which;
#X obj 279 186 unpack s f;
#X msg 279 114 symbol persist/voice.txt;
#X obj 190 10 loadbang;
#X floatatom 190 394 5 0 0 0 - - - 0;
#X obj 190 43 bng 19 250 50 0 empty empty empty 0 -10 0 12 #fcfcfc #000000 #000000;
#X msg 279 217 open \$1;
#X obj 190 70 t b b, f 13;
#X msg 190 143 1 \, close;
#X msg 242 679 close;
#X obj 295 729 + 48;
#X obj 190 300 - 48;
#X obj 190 615 t f b f b, f 23;
#X obj 264 303 print file-write;
#X text 394 183 read voice from file at load;
#X text 451 717 save voice to file;
#X obj 190 108 delay 5;
#X obj 190 495 s \$0-nextvoice;
#X obj 190 524 r \$0-nextvoice;
#X obj 190 826 s active-voice;
#X floatatom 17 47 12 0 0 0 - active-voice - 0;
#X obj 203 335 r osc-in;
#X obj 190 426 t b f, f 16;
#X obj 203 359 route voice;
#X text 275 334 receive voice as OSC command;
#X obj 17 18 bng 19 250 50 0 \$0-nextvoice \$0-nextvoice next\ voice 24 10 0 12 #fcfcfc #000000 #000000;
#X obj 190 577 % 6;
#X connect 0 0 33 0;
#X connect 2 0 3 0;
#X connect 3 0 5 0;
#X connect 4 0 2 0;
#X connect 5 0 1 0;
#X connect 6 0 18 0;
#X connect 6 1 20 0;
#X connect 7 0 8 0;
#X connect 8 0 13 0;
#X connect 9 0 7 0;
#X connect 10 0 12 0;
#X connect 11 0 29 0;
#X connect 12 0 14 0;
#X connect 13 0 6 0;
#X connect 14 0 23 0;
#X connect 14 1 9 0;
#X connect 15 0 6 0;
#X connect 16 0 1 0;
#X connect 17 0 1 0;
#X connect 18 0 11 0;
#X connect 19 0 26 0;
#X connect 19 1 16 0;
#X connect 19 2 17 0;
#X connect 19 3 4 0;
#X connect 23 0 15 0;
#X connect 25 0 0 0;
#X connect 28 0 30 0;
#X connect 29 0 24 0;
#X connect 29 1 0 1;
#X connect 30 0 11 0;
#X connect 33 0 19 0;
#X coords 0 -1 1 1 115 65 2 10 10;
#X restore 41 142 pd getvoice;
#X obj 262 585 declare -path ./bop/babs;
#X obj 263 292 OSC-IO, f 19;
#X obj 140 550 *~;
#X obj 38 550 *~;
#X obj 56 516 r~ amp1;
#X obj 158 519 r~ amp2;
#N canvas 513 184 847 703 mapping 0;
#X msg 567 116 \$1 10;
#X obj 567 144 line~;
#X msg 749 118 \$1 10;
#X obj 749 146 line~;
#X obj 567 87 r pot1;
#X obj 749 89 r pot2;
#X msg 350 285 admin reboot;
#X obj 350 312 s osc-in;
#X obj 58 199 s calibrate;
#X obj 59 171 bng 19 250 50 0 empty empty empty 0 -10 0 12 #fcfcfc #000000 #000000;
#X obj 180 84 r button2;
#X obj 180 298 bng 19 250 50 0 empty empty empty 0 -10 0 12 #fcfcfc #000000 #000000;
#X obj 349 259 bng 19 250 50 0 empty empty empty 0 -10 0 12 #fcfcfc #000000 #000000;
#X obj 344 517 r sensor1;
#X obj 427 423 r osc-in;
#X obj 427 447 route debug;
#X obj 427 471 route sensor1 sensor2;
#X obj 356 549 babs.gate 0;
#X obj 421 520 tgl 19 0 empty empty empty 0 -10 0 12 #fcfcfc #000000 #000000 0 1;
#X msg 356 578 sensor1 \$1;
#X obj 356 602 s osc-out;
#X obj 487 550 babs.gate 0;
#X obj 552 521 tgl 19 0 empty empty empty 0 -10 0 12 #fcfcfc #000000 #000000 0 1;
#X obj 487 603 s osc-out;
#X obj 475 518 r sensor2;
#X msg 487 579 sensor2 \$1;
#X obj 180 329 s \$0-nextvoice;
#X obj 567 178 s~ amp1;
#X obj 749 180 s~ amp2;
#X obj 349 125 sel 0 1, f 13;
#X obj 394 162 delay 2000;
#X obj 395 247 s osc-in;
#X obj 394 194 bng 19 250 50 0 empty empty empty 0 -10 0 12 #fcfcfc #000000 #000000;
#X msg 395 220 admin shutdown;
#X text 345 28 red \; press to reboot \; hold for 2s to shutdown \;;
#X text 60 30 green \; calibrate \;;
#X obj 63 413 r osc-in;
#X obj 63 437 route sensitivity floor;
#X obj 349 83 r button3;
#X obj 59 83 r button1;
#X obj 63 491 s sensitivity;
#X obj 140 465 s floor;
#X text 566 30 pot1 \; volume1 \;;
#X text 747 28 pot2 \; volume2 \;;
#X text 66 390 set sensitivity;
#X text 420 384 debug sensors;
#X msg 651 109 0.5;
#X obj 651 85 loadbang;
#X obj 59 113 sel 0 1;
#X obj 180 108 sel 0 1, f 16;
#X obj 232 206 delay 2000;
#X obj 233 291 s osc-in;
#X obj 232 238 bng 19 250 50 0 empty empty empty 0 -10 0 12 #fcfcfc #000000 #000000;
#X msg 233 264 admin update;
#X msg 191 158 stop;
#X text 177 30 blue \; press next voice \; hold for 2s to update \;;
#X connect 0 0 1 0;
#X connect 1 0 27 0;
#X connect 2 0 3 0;
#X connect 3 0 28 0;
#X connect 4 0 0 0;
#X connect 5 0 2 0;
#X connect 6 0 7 0;
#X connect 9 0 8 0;
#X connect 10 0 49 0;
#X connect 11 0 26 0;
#X connect 12 0 6 0;
#X connect 13 0 17 0;
#X connect 14 0 15 0;
#X connect 15 0 16 0;
#X connect 16 0 18 0;
#X connect 16 1 22 0;
#X connect 17 0 19 0;
#X connect 18 0 17 1;
#X connect 19 0 20 0;
#X connect 21 0 25 0;
#X connect 22 0 21 1;
#X connect 24 0 21 0;
#X connect 25 0 23 0;
#X connect 29 0 12 0;
#X connect 29 1 30 0;
#X connect 30 0 32 0;
#X connect 32 0 33 0;
#X connect 33 0 31 0;
#X connect 36 0 37 0;
#X connect 37 0 40 0;
#X connect 37 1 41 0;
#X connect 38 0 29 0;
#X connect 39 0 48 0;
#X connect 46 0 0 0;
#X connect 46 0 2 0;
#X connect 47 0 46 0;
#X connect 48 1 9 0;
#X connect 49 0 11 0;
#X connect 49 0 54 0;
#X connect 49 1 50 0;
#X connect 50 0 52 0;
#X connect 52 0 53 0;
#X connect 53 0 51 0;
#X connect 54 0 50 0;
#X restore 263 321 pd mapping;
#X f 19;
#X obj 384 31 nbx 3 17 -1e+37 1e+37 0 1 version empty version 0 -10 0 12 #c6ffc7 #000000 #000000 28 256;
#X obj 266 92 nbx 5 17 0 50 0 1 sensitivity sensitivity sensitvity 0 -10 0 12 #fcfcfc #000000 #000000 9.5 256;
#X obj 266 139 nbx 5 17 0 1 0 1 floor floor floor 0 -10 0 12 #fcfcfc #000000 #000000 0.09 256;
#N canvas 25 280 456 520 feedback 0;
#X obj 42 457 throw~ left;
#X obj 143 458 throw~ right;
#X obj 53 395 bop.casio~;
#A saved wave-1 5;
#A saved wave-2 6;
#A saved filter 0.2;
#A saved attack 0;
#A saved decay 0.685714;
#A saved sustain 0;
#A saved release 0.828571;
#A saved gain 1;
#X obj 53 44 r start;
#X obj 53 68 bng 19 250 50 0 empty empty empty 0 -10 0 12 #fcfcfc #000000 #000000;
#X obj 51 360 bop.sequence;
#A saved read ../../seq/shutdown.txt;
#A saved loop 0;
#A saved scrub 0;
#A saved internal-sequence attack 0 \; 61 127 \; 67 127 \;;
#X msg 52 100 read ../../seq/start.txt \, go;
#X obj 89 131 r calibrate;
#X obj 136 195 r reboot;
#X obj 166 329 r shutdown;
#X obj 164 263 r update;
#X msg 89 160 read ../../seq/calibrate.txt \, go;
#X msg 136 229 read ../../seq/reboot.txt \, go;
#X msg 166 360 read ../../seq/shutdown.txt \, go;
#X msg 164 290 read ../../seq/update.txt \, go;
#X connect 2 0 0 0;
#X connect 2 0 1 0;
#X connect 3 0 4 0;
#X connect 4 0 6 0;
#X connect 5 1 2 1;
#X connect 6 0 5 0;
#X connect 7 0 11 0;
#X connect 8 0 12 0;
#X connect 9 0 13 0;
#X connect 10 0 14 0;
#X connect 11 0 5 1;
#X connect 12 0 5 1;
#X connect 13 0 5 1;
#X connect 14 0 5 1;
#X restore 263 350 pd feedback;
#X f 19;
#X obj 38 339 voice.bellsmarimba 4, f 23;
#X obj 38 358 voice.bellssynth 5, f 23;
#X connect 3 0 2 0;
#X connect 7 0 9 0;
#X connect 8 0 10 0;
#X connect 9 0 22 0;
#X connect 10 0 21 0;
#X connect 21 0 1 1;
#X connect 22 0 1 0;
#X connect 23 0 22 1;
#X connect 24 0 21 1;
