#N canvas 133 309 1030 571 12;
#X declare -path ./bop;
#X obj 35 91 declare -path ./bop;
#X obj 325 302 bop.casio~;
#A saved wave-1 1;
#A saved wave-2 6;
#A saved filter 0.569629;
#A saved attack 0;
#A saved decay 0.464286;
#A saved sustain 0.4;
#A saved release 0.65;
#A saved gain 1;
#X obj 392 187 loadbang;
#X msg 35 150 \; pd dsp 1;
#X obj 35 120 loadbang;
#X obj 35 242 read-sensors;
#X obj 304 126 r sensor1;
#X obj 801 122 r sensor2;
#X floatatom 120 16 8 0 50 1 sensitivity sensitivity-init sensitivity 0;
#X floatatom 120 40 8 0 1 1 floor floor-init floor 0;
#X floatatom 304 150 15 0 1 0 - - - 0;
#X obj 332 276 bop.strum;
#A saved strum 0.465664;
#A saved chord 7;
#A saved shuffle 1;
#A saved root 52;
#A saved octaves 3;
#A saved velocity 0.888;
#A saved duration 0.742857;
#X msg 304 173 strum \$1;
#X text 39 29 plantsOS;
#X obj 304 250 bop.semisteps;
#A saved semisteps 0.777;
#A saved root 52;
#A saved hold 0;
#A saved duration 0.25;
#A saved velocity 0.75;
#X msg 392 215 semisteps 0.777 \, filter loop 0.264 4000 0.6 4000;
#X obj 325 331 bop.reverb~;
#A saved size 0.671429;
#A saved damp 0.578571;
#A saved cutoff 3000;
#A saved wet 0.857143;
#A saved dry 1;
#X text 460 187 play chord at boot \, start filter sweeping;
#X obj 306 92 hsl 162 19 0 1 0 0 sensor1 empty sensor1 -2 -10 0 12 #fcfcfc #000000 #000000 0 1;
#X obj 802 83 hsl 162 19 0 1 0 0 sensor2 empty sensor2 -2 -10 0 12 #fcfcfc #000000 #000000 0 1;
#X floatatom 801 155 15 0 1 0 - - - 0;
#N canvas 63 100 780 419 keybindings 0;
#X obj 53 26 key;
#X obj 87 26 inlet;
#X obj 54 70 spigot;
#X floatatom 74 101 5 0 0 0 - - - 0;
#X obj 54 128 s keypad;
#X obj 177 99 bng 16 250 50 0 empty empty empty 0 -8 0 10 #fcfcfc #000000 #000000;
#X obj 367 99 bng 16 250 50 0 empty empty empty 0 -8 0 10 #fcfcfc #000000 #000000;
#X obj 272 99 bng 16 250 50 0 empty empty empty 0 -8 0 10 #fcfcfc #000000 #000000;
#X obj 178 33 r keypad;
#X obj 178 73 sel 48 42 43, f 41;
#X text 185 52 0 * +;
#X obj 206 379 netsend -u -b;
#X obj 206 287 oscformat reboot;
#X msg 206 260 1;
#X obj 176 177 loadbang;
#X msg 332 260 1;
#X obj 332 287 oscformat shutdown;
#X msg 472 260 1;
#X obj 472 287 oscformat update;
#X msg 602 260 1;
#X obj 602 287 oscformat updatesamples;
#X obj 206 234 r reboot;
#X obj 332 234 r shutdown;
#X obj 472 234 r update;
#X obj 602 234 r updatesamples;
#X msg 176 200 connect 127.0.0.1 7770;
#X obj 177 128 s shutdown;
#X obj 272 127 s update;
#X obj 367 125 s save;
#X connect 0 0 2 0;
#X connect 1 0 2 1;
#X connect 2 0 3 0;
#X connect 2 0 4 0;
#X connect 5 0 26 0;
#X connect 6 0 28 0;
#X connect 7 0 27 0;
#X connect 8 0 9 0;
#X connect 9 0 5 0;
#X connect 9 1 7 0;
#X connect 9 2 6 0;
#X connect 12 0 11 0;
#X connect 13 0 12 0;
#X connect 14 0 25 0;
#X connect 15 0 16 0;
#X connect 16 0 11 0;
#X connect 17 0 18 0;
#X connect 18 0 11 0;
#X connect 19 0 20 0;
#X connect 20 0 11 0;
#X connect 21 0 13 0;
#X connect 22 0 15 0;
#X connect 23 0 17 0;
#X connect 24 0 19 0;
#X connect 25 0 11 0;
#X restore 35 300 pd keybindings;
#X obj 35 281 tgl 19 1 empty empty empty 0 -10 0 12 #fcfcfc #000000 #000000 0 1;
#X text 31 348 [0] SHUTDOWN;
#X text 31 368 [+] SAVE;
#X text 31 328 [*] UPDATE;
#N canvas 143 422 374 204 init 0;
#X obj 205 50 loadbang;
#X msg 205 74 0.05;
#X obj 35 52 loadbang;
#X msg 35 76 7;
#X obj 205 105 s floor-init;
#X obj 35 106 s sensitivity-init;
#X obj 99 52 r sensitivity;
#X msg 99 76 set \$1;
#X msg 269 74 set \$1;
#X obj 269 50 r floor;
#X connect 0 0 1 0;
#X connect 1 0 4 0;
#X connect 2 0 3 0;
#X connect 3 0 5 0;
#X connect 6 0 7 0;
#X connect 7 0 3 0;
#X connect 8 0 1 0;
#X connect 9 0 8 0;
#X restore 35 203 pd init;
#X text 33 390 todo - replace keybindings with button input from esp, f 18;
#X obj 163 199 s calibrate;
#X obj 163 171 bng 19 250 50 0 empty empty empty 0 -10 0 12 #fcfcfc #000000 #000000;
#X obj 163 142 delay 1000;
#X obj 893 227 loadbang;
#X obj 833 316 bop.strum;
#A saved strum 0.156933;
#A saved chord 7;
#A saved shuffle 1;
#A saved root 52;
#A saved octaves 3;
#A saved velocity 0.888;
#A saved duration 0.742857;
#X msg 805 213 strum \$1;
#X obj 805 290 bop.semisteps;
#A saved semisteps 0.777;
#A saved root 52;
#A saved hold 0;
#A saved duration 0.25;
#A saved velocity 0.75;
#X msg 893 255 semisteps 0.777 \, filter loop 0.264 4000 0.6 4000;
#X obj 826 371 bop.reverb~;
#A saved size 0.671429;
#A saved damp 0.578571;
#A saved cutoff 3000;
#A saved wet 0.857143;
#A saved dry 1;
#X obj 824 345 bop.instrument~;
#A saved instrument 3;
#X obj 532 402 dac~;
#X obj 194 172 r button2;
#X obj 256 401 netreceive -u -b 7777;
#X obj 167 269 noise~;
#X obj 221 318 line~;
#X obj 200 362 *~;
#X obj 257 436 oscparse;
#X obj 254 465 list trim;
#X obj 254 489 route calibrate;
#X msg 209 240 0.5 \, 0 200;
#X obj 690 437 *~ 0.2;
#X obj 509 318 *~ 0.2;
#X connect 1 0 16 0;
#X connect 1 1 16 1;
#X connect 2 0 15 0;
#X connect 4 0 3 0;
#X connect 4 0 30 0;
#X connect 6 0 10 0;
#X connect 7 0 20 0;
#X connect 10 0 12 0;
#X connect 11 1 1 1;
#X connect 12 0 14 0;
#X connect 14 1 11 1;
#X connect 15 0 14 1;
#X connect 16 0 49 0;
#X connect 20 0 33 0;
#X connect 22 0 21 0;
#X connect 29 0 28 0;
#X connect 29 0 47 0;
#X connect 30 0 29 0;
#X connect 31 0 35 0;
#X connect 32 1 37 1;
#X connect 33 0 34 0;
#X connect 34 1 32 1;
#X connect 35 0 34 1;
#X connect 36 0 48 0;
#X connect 37 0 36 0;
#X connect 37 1 36 1;
#X connect 39 0 29 0;
#X connect 40 0 44 0;
#X connect 41 0 43 0;
#X connect 42 0 43 1;
#X connect 43 0 38 0;
#X connect 43 0 38 1;
#X connect 44 0 45 0;
#X connect 45 0 46 0;
#X connect 46 0 29 0;
#X connect 47 0 42 0;
#X connect 48 0 38 1;
#X connect 49 0 38 0;
