#N canvas 91 75 1479 1109 12;
#X declare -path ./bop;
#X declare -path ./bop/babs;
#X obj 32 14 cnv 19 370 40 empty empty plantsOS\ 🪁\ Kite\ Choir 70 20 0 16 #c6ffc7 #e3c6ff 0;
#X obj 337 33 nbx 3 17 -1e+37 1e+37 0 1 version empty version 0 -10 0 12 #c6ffc7 #000000 #000000 29 256;
#X obj 431 116 declare -path ./bop, f 24;
#X obj 100 973 dac~, f 12;
#X msg 531 70 \; pd dsp 1;
#X obj 531 31 loadbang, f 9;
#X obj 431 145 declare -path ./bop/babs;
#X obj 315 116 bopos.osc, f 10;
#X obj 274 143 bopos.feedback, f 16;
#X obj 99 888 clip~ -1 1;
#X obj 182 887 clip~ -1 1;
#X msg 315 90 id 0;
#X obj 89 572 bop.casio~;
#A saved wave-1 1;
#A saved wave-2 5;
#A saved filter 0;
#A saved attack 0.1;
#A saved decay 0.664286;
#A saved sustain 0.385714;
#A saved release 0.114286;
#A saved gain 1;
#X msg 41 380 60 67 71 74;
#X obj 83 203 bng 19 250 50 0 empty empty empty 0 -10 0 12 #fcfcfc #000000 #000000;
#X obj 97 233 babs.counter;
#X floatatom 97 281 5 0 0 0 - - - 0;
#X obj 86 435 babs.nth;
#X obj 109 334 t b i;
#X msg 93 537 \$1 127;
#X obj 97 257 % 4;
#X obj 235 303 loadbang 1;
#X obj 216 372 tgl 19 0 empty empty empty 0 -10 0 12 #fcfcfc #000000 #000000 0 1;
#X obj 85 479 +;
#X obj 216 396 * -7;
#X msg 173 134 1;
#X obj 216 348 metro 6000;
#X obj 103 685 bop.delay~;
#A saved time 0.333;
#A saved feedback 0.5;
#A saved cutoff 1000;
#A saved q 0.3;
#A saved wet 0.75;
#A saved dry 1;
#X obj 134 86 loadbang;
#X obj 302 857 r osc-in;
#X obj 302 881 route gain;
#X obj 180 511 r osc-in;
#X obj 180 535 route casio;
#X obj 170 622 r osc-in;
#X obj 170 646 route delay;
#X obj 354 579 bop.casio~;
#A saved wave-1 1;
#A saved wave-2 5;
#A saved filter 0;
#A saved attack 0.1;
#A saved decay 0.664286;
#A saved sustain 0.385714;
#A saved release 0.114286;
#A saved gain 1;
#X msg 358 544 \$1 127;
#X obj 445 518 r osc-in;
#X obj 445 542 route casio;
#X obj 330 479 - 0.15;
#X obj 97 944 *~ 0.01;
#X obj 182 937 *~ 0.01;
#X obj 302 908 pow 2;
#X obj 81 181 metro 500;
#X msg 198 158 0;
#X obj 727 935 bop.instrument~;
#A saved instrument 2;
#X obj 731 891 bop.strum;
#A saved strum 0;
#A saved chord 7;
#A saved shuffle 0;
#A saved root 36;
#A saved octaves 5;
#A saved velocity 1;
#A saved duration 0.614286;
#X obj 719 541 r \$0-tilt-left;
#X obj 986 938 bop.instrument~;
#A saved instrument 1;
#X obj 996 903 bop.strum;
#A saved strum 0;
#A saved chord 7;
#A saved shuffle 0;
#A saved root 43;
#A saved octaves 5;
#A saved velocity 1;
#A saved duration 0.614286;
#X obj 966 541 r \$0-tilt-right;
#N canvas 92 142 795 1067 tilt 0;
#X obj 176 69 route tilt touch;
#X msg 54 170 \$1;
#X msg 263 140 \$2;
#X floatatom 54 194 5 0 0 0 - - - 0;
#X obj 263 182 abs;
#X obj 265 220 hsl 162 19 0 180 0 0 empty empty empty -2 -10 0 12 #fcfcfc #000000 #000000 0 1;
#X obj 262 261 babs.scale 0 180 -1 1;
#X floatatom 263 507 5 0 0 0 - - - 0;
#X floatatom 434 509 5 0 0 0 - - - 0;
#X obj 262 308 moses 0.5, f 17;
#X obj 269 618 f, f 12;
#X obj 279 668 +, f 12;
#X obj 264 559 t b f, f 15;
#X msg 414 603 0;
#X obj 279 753 t f f, f 8;
#X obj 265 403 t f b;
#X obj 428 407 t f b;
#X msg 462 438 1;
#X msg 304 436 -1;
#X obj 341 405 t b;
#X msg 341 429 0;
#X obj 316 493 s \$0-which-tilt;
#X obj 362 835 r \$0-which-tilt;
#X obj 280 875 list prepend;
#X obj 280 899 route -1 0 1;
#X obj 384 456 change;
#X obj 279 1003 s \$0-tilt-left;
#X obj 335 969 s \$0-tilt-right;
#X text 110 196 roll;
#X text 310 184 tilt;
#X obj 170 36 r osc-in;
#X obj 307 39 inlet;
#X obj 278 710 clip -10 10;
#X obj 279 790 babs.scale -10 10 0 1;
#X obj 264 369 moses -0.1;
#X obj 375 372 moses 0.1;
#X connect 0 0 1 0;
#X connect 0 0 2 0;
#X connect 1 0 3 0;
#X connect 2 0 4 0;
#X connect 4 0 5 0;
#X connect 5 0 6 0;
#X connect 6 0 9 0;
#X connect 7 0 12 0;
#X connect 8 0 12 0;
#X connect 9 0 34 0;
#X connect 9 1 35 0;
#X connect 10 0 11 0;
#X connect 11 0 32 0;
#X connect 12 0 10 0;
#X connect 12 1 11 1;
#X connect 13 0 10 1;
#X connect 14 0 33 0;
#X connect 14 1 10 1;
#X connect 15 0 7 0;
#X connect 15 1 18 0;
#X connect 16 0 8 0;
#X connect 16 1 17 0;
#X connect 17 0 25 0;
#X connect 18 0 25 0;
#X connect 19 0 20 0;
#X connect 20 0 25 0;
#X connect 22 0 23 1;
#X connect 23 0 24 0;
#X connect 24 0 26 0;
#X connect 24 2 27 0;
#X connect 25 0 21 0;
#X connect 30 0 0 0;
#X connect 31 0 0 0;
#X connect 32 0 14 0;
#X connect 33 0 23 0;
#X connect 34 0 15 0;
#X connect 34 1 19 0;
#X connect 35 0 19 0;
#X connect 35 1 16 0;
#X restore 747 428 pd tilt;
#X f 18;
#X obj 728 967 throw~ left;
#X obj 984 970 throw~ right;
#X obj 122 807 catch~ left;
#X obj 237 814 catch~ right;
#X obj 103 720 throw~ left;
#X obj 346 712 throw~ right;
#X obj 760 364 r echo;
#X msg 729 858 strum \$1;
#X msg 982 860 strum \$1;
#X obj 719 605 sig~;
#X obj 726 793 snapshot~;
#X obj 751 676 r \$0-which-tilt;
#X obj 751 700 == -1;
#X obj 753 754 metro 5;
#X floatatom 732 819 5 0 0 0 - - - 0;
#X obj 751 724 change;
#X obj 967 607 sig~;
#X obj 974 795 snapshot~;
#X obj 999 678 r \$0-which-tilt;
#X obj 1001 756 metro 5;
#X floatatom 980 821 5 0 0 0 - - - 0;
#X obj 999 726 change;
#X obj 999 702 == 1;
#X obj 967 631 babs.slide~ 0 1;
#X obj 719 629 babs.slide~ 1 0;
#X connect 5 0 4 0;
#X connect 9 0 40 0;
#X connect 10 0 41 0;
#X connect 11 0 7 0;
#X connect 12 0 27 0;
#X connect 13 0 17 0;
#X connect 14 0 15 0;
#X connect 15 0 20 0;
#X connect 16 0 18 0;
#X connect 17 0 23 0;
#X connect 18 0 13 0;
#X connect 18 1 17 1;
#X connect 19 0 12 0;
#X connect 20 0 16 0;
#X connect 21 0 26 0;
#X connect 22 0 24 0;
#X connect 23 0 19 0;
#X connect 23 0 39 0;
#X connect 24 0 23 1;
#X connect 25 0 26 0;
#X connect 25 0 43 0;
#X connect 26 0 22 0;
#X connect 27 0 56 0;
#X connect 29 0 30 0;
#X connect 30 0 42 0;
#X connect 31 0 32 0;
#X connect 32 0 12 1;
#X connect 33 0 34 0;
#X connect 34 0 27 1;
#X connect 35 0 57 0;
#X connect 36 0 35 0;
#X connect 37 0 38 0;
#X connect 38 0 35 1;
#X connect 39 0 36 0;
#X connect 40 0 3 0;
#X connect 41 0 3 1;
#X connect 42 0 41 1;
#X connect 42 0 40 1;
#X connect 43 0 14 0;
#X connect 44 0 26 0;
#X connect 44 0 43 0;
#X connect 45 0 52 0;
#X connect 46 1 45 0;
#X connect 47 0 61 0;
#X connect 48 0 53 0;
#X connect 49 1 48 0;
#X connect 50 0 68 0;
#X connect 54 0 9 0;
#X connect 55 0 10 0;
#X connect 58 0 51 0;
#X connect 59 0 46 1;
#X connect 60 0 49 1;
#X connect 61 0 76 0;
#X connect 62 0 66 0;
#X connect 63 0 64 0;
#X connect 64 0 67 0;
#X connect 65 0 62 0;
#X connect 66 0 59 0;
#X connect 67 0 65 0;
#X connect 68 0 75 0;
#X connect 69 0 72 0;
#X connect 70 0 74 0;
#X connect 71 0 69 0;
#X connect 72 0 60 0;
#X connect 73 0 71 0;
#X connect 74 0 73 0;
#X connect 75 0 69 0;
#X connect 76 0 62 0;
