#N canvas 492 282 743 475 12;
#X declare -path ./bop;
#X obj 35 91 declare -path ./bop;
#X obj 245 446 dac~, f 15;
#X msg 35 150 \; pd dsp 1;
#X obj 35 120 loadbang;
#X obj 35 242 read-sensors;
#X floatatom 120 16 8 0 50 1 sensitivity sensitivity-init sensitivity 0;
#X floatatom 120 40 8 0 1 1 floor floor-init floor 0;
#X text 39 29 plantsOS;
#X obj 257 92 hsl 162 19 0 1 0 0 sensor1 empty sensor1 4 10 0 12 #fcfcfc #000000 #000000 0 1;
#X obj 497 91 hsl 162 19 0 1 0 0 sensor2 empty sensor2 4 10 0 12 #fcfcfc #000000 #000000 0 1;
#X text 31 348 [0] SHUTDOWN;
#X text 31 368 [+] SAVE;
#X text 31 328 [*] UPDATE;
#N canvas 143 422 374 204 init 0;
#X obj 205 50 loadbang;
#X msg 205 74 0.05;
#X obj 35 52 loadbang;
#X msg 35 76 10;
#X obj 205 105 s floor-init;
#X obj 35 106 s sensitivity-init;
#X obj 99 52 r sensitivity;
#X msg 99 76 set \$1;
#X msg 269 74 set \$1;
#X obj 269 50 r floor;
#X connect 0 0 1 0;
#X connect 1 0 4 0;
#X connect 2 0 3 0;
#X connect 3 0 5 0;
#X connect 6 0 7 0;
#X connect 7 0 3 0;
#X connect 8 0 1 0;
#X connect 9 0 8 0;
#X restore 35 203 pd init;
#X text 33 390 todo - replace keybindings with button input from esp, f 18;
#X obj 245 382 catch~ left;
#X obj 347 381 catch~ right;
#X obj 245 414 bop.reverb~;
#A saved size 0.671429;
#A saved damp 0.578571;
#A saved cutoff 3000;
#A saved wet 0.857143;
#A saved dry 1;
#X obj 347 412 bop.reverb~;
#A saved size 0.671429;
#A saved damp 0.578571;
#A saved cutoff 3000;
#A saved wet 0.857143;
#A saved dry 1;
#X obj 244 229 s active-voice;
#X obj 390 214 voice.bellsharp 0;
#X obj 390 243 voice.belltreerhodes 1;
#X obj 390 273 voice.electricxmas 2;
#X obj 389 302 voice.tubulerglok 3;
#X text 389 180 VOICES;
#N canvas 63 100 647 419 admin 0;
#X obj 38 57 bng 16 250 50 0 empty empty empty 0 -8 0 10 #fcfcfc #000000 #000000;
#X obj 228 57 bng 16 250 50 0 empty empty empty 0 -8 0 10 #fcfcfc #000000 #000000;
#X obj 133 57 bng 16 250 50 0 empty empty empty 0 -8 0 10 #fcfcfc #000000 #000000;
#X obj 45 336 netsend -u -b;
#X obj 67 245 oscformat reboot;
#X msg 67 218 1;
#X obj 37 135 loadbang;
#X msg 193 218 1;
#X obj 193 245 oscformat shutdown;
#X msg 333 218 1;
#X obj 333 245 oscformat update;
#X msg 463 218 1;
#X obj 463 245 oscformat updatesamples;
#X obj 67 192 r reboot;
#X obj 193 192 r shutdown;
#X obj 333 192 r update;
#X obj 463 192 r updatesamples;
#X msg 37 158 connect 127.0.0.1 7770;
#X obj 38 86 s shutdown;
#X obj 133 85 s update;
#X obj 228 83 s save;
#X text 106 134 RECEIVING FROM PYTHON;
#X connect 0 0 18 0;
#X connect 1 0 20 0;
#X connect 2 0 19 0;
#X connect 4 0 3 0;
#X connect 5 0 4 0;
#X connect 6 0 17 0;
#X connect 7 0 8 0;
#X connect 8 0 3 0;
#X connect 9 0 10 0;
#X connect 10 0 3 0;
#X connect 11 0 12 0;
#X connect 12 0 3 0;
#X connect 13 0 5 0;
#X connect 14 0 7 0;
#X connect 15 0 9 0;
#X connect 16 0 11 0;
#X connect 17 0 3 0;
#X restore 35 300 pd admin;
#X obj 244 199 nbx 5 17 0 3 0 1 empty empty voice\ select 0 -10 0 12 #fcfcfc #000000 #000000 2 256;
#X connect 3 0 2 0;
#X connect 15 0 17 0;
#X connect 16 0 18 0;
#X connect 17 0 1 0;
#X connect 18 0 1 1;
#X connect 26 0 19 0;
