#N canvas 348 392 523 349 12;
#X declare -path ./bop;
#X obj 35 71 declare -path ./bop;
#X obj 305 268 dac~;
#X obj 305 232 bop.casio~;
#A saved wave-1 1;
#A saved wave-2 4;
#A saved filter 1;
#A saved attack 0;
#A saved decay 0.707143;
#A saved sustain 0;
#A saved release 0;
#A saved gain 1;
#X obj 305 69 loadbang;
#X msg 35 130 \; pd dsp 1;
#X obj 35 100 loadbang;
#X msg 305 137 64;
#X obj 305 196 pack, f 17;
#X obj 305 169 makenote 127 3000;
#X text 29 19 bopOS Template;
#X obj 305 114 metro 1000;
#X msg 305 92 1;
#X connect 2 0 1 0;
#X connect 2 0 1 1;
#X connect 3 0 11 0;
#X connect 5 0 4 0;
#X connect 6 0 8 0;
#X connect 7 0 2 0;
#X connect 8 0 7 0;
#X connect 8 1 7 1;
#X connect 10 0 6 0;
#X connect 11 0 10 0;
