#N canvas 814 117 531 635 12;
#X declare -path ./bop;
#X declare -path ./bop/babs;
#X obj 57 225 declare -path ./bop;
#X obj 294 599 dac~, f 15;
#X msg 57 314 \; pd dsp 1;
#X obj 57 284 loadbang;
#X obj 57 416 read-sensors;
#X floatatom 58 69 8 0 50 1 sensitivity sensitivity-init sensitivity 0;
#X floatatom 58 93 8 0 1 1 floor floor-init floor 0;
#X obj 61 153 hsl 162 19 0 1 0 0 sensor1 empty sensor1 4 10 0 12 #fcfcfc #000000 #000000 0 1;
#X obj 61 177 hsl 162 19 0 1 0 0 sensor2 empty sensor2 4 10 0 12 #fcfcfc #000000 #000000 0 1;
#N canvas 143 422 374 204 init 0;
#X obj 205 50 loadbang;
#X msg 205 74 0.05;
#X obj 35 52 loadbang;
#X msg 35 76 10;
#X obj 205 105 s floor-init;
#X obj 35 106 s sensitivity-init;
#X obj 99 52 r sensitivity;
#X msg 99 76 set \$1;
#X msg 269 74 set \$1;
#X obj 269 50 r floor;
#X connect 0 0 1 0;
#X connect 1 0 4 0;
#X connect 2 0 3 0;
#X connect 3 0 5 0;
#X connect 6 0 7 0;
#X connect 7 0 3 0;
#X connect 8 0 1 0;
#X connect 9 0 8 0;
#X restore 57 377 pd init;
#X obj 294 392 catch~ left;
#X obj 396 391 catch~ right;
#X obj 294 424 bop.reverb~;
#A saved size 0.671429;
#A saved damp 0.578571;
#A saved cutoff 3000;
#A saved wet 0.857143;
#A saved dry 1;
#X obj 396 422 bop.reverb~;
#A saved size 0.671429;
#A saved damp 0.578571;
#A saved cutoff 3000;
#A saved wet 0.857143;
#A saved dry 1;
#X obj 294 115 s active-voice;
#X obj 292 213 voice.bellsharp 0;
#X obj 292 242 voice.belltreerhodes 1;
#X obj 292 272 voice.electricxmas 2;
#X obj 291 301 voice.tubulerglok 3;
#X text 291 179 VOICES;
#N canvas 63 100 647 419 admin 0;
#X obj 38 57 bng 16 250 50 0 empty empty empty 0 -8 0 10 #fcfcfc #000000 #000000;
#X obj 228 57 bng 16 250 50 0 empty empty empty 0 -8 0 10 #fcfcfc #000000 #000000;
#X obj 133 57 bng 16 250 50 0 empty empty empty 0 -8 0 10 #fcfcfc #000000 #000000;
#X obj 45 336 netsend -u -b;
#X obj 67 245 oscformat reboot;
#X msg 67 218 1;
#X obj 37 135 loadbang;
#X msg 193 218 1;
#X obj 193 245 oscformat shutdown;
#X msg 333 218 1;
#X obj 333 245 oscformat update;
#X msg 463 218 1;
#X obj 463 245 oscformat updatesamples;
#X obj 67 192 r reboot;
#X obj 193 192 r shutdown;
#X obj 333 192 r update;
#X obj 463 192 r updatesamples;
#X msg 37 158 connect 127.0.0.1 7770;
#X obj 38 86 s shutdown;
#X obj 133 85 s update;
#X obj 228 83 s save;
#X text 106 134 RECEIVING FROM PYTHON;
#X connect 0 0 18 0;
#X connect 1 0 20 0;
#X connect 2 0 19 0;
#X connect 4 0 3 0;
#X connect 5 0 4 0;
#X connect 6 0 17 0;
#X connect 7 0 8 0;
#X connect 8 0 3 0;
#X connect 9 0 10 0;
#X connect 10 0 3 0;
#X connect 11 0 12 0;
#X connect 12 0 3 0;
#X connect 13 0 5 0;
#X connect 14 0 7 0;
#X connect 15 0 9 0;
#X connect 16 0 11 0;
#X connect 17 0 3 0;
#X restore 56 458 pd admin;
#X obj 294 85 nbx 2 17 0 3 0 1 empty to-voice-select voice\ select 40 10 0 12 #fcfcfc #000000 #000000 2 256;
#X obj 58 123 bng 19 250 50 0 calibrate empty calibrate 20 10 0 12 #fcfcfc #000000 #000000;
#X obj 59 12 cnv 19 200 40 empty empty plantsOS\ 🐱\ changi 10 20 0 16 #c6ffc7 #e3c6ff 0;
#N canvas 6 121 450 300 getvoice 0;
#X obj 104 234 outlet;
#X obj 104 73 r button2;
#X obj 104 97 sel 1;
#X obj 104 121 bng 19 250 50 0 empty empty empty 0 -10 0 12 #fcfcfc #000000 #000000;
#X obj 104 157 babs.counter;
#X obj 104 181 % 4;
#X obj 182 211 file handle;
#X msg 262 158 open ./persist/voice.txt c;
#X connect 1 0 2 0;
#X connect 2 0 3 0;
#X connect 3 0 4 0;
#X connect 4 0 5 0;
#X connect 5 0 0 0;
#X connect 7 0 6 0;
#X restore 294 44 pd getvoice;
#X obj 57 246 declare -path ./bop/babs;
#X obj 325 463 r pot2;
#X msg 312 503 \$1 10;
#X obj 312 531 line~;
#X obj 291 563 *~;
#X msg 412 505 \$1 10;
#X obj 412 533 line~;
#X obj 391 565 *~;
#X obj 425 465 r pot4;
#X connect 3 0 2 0;
#X connect 10 0 12 0;
#X connect 11 0 13 0;
#X connect 12 0 29 0;
#X connect 13 0 32 0;
#X connect 21 0 14 0;
#X connect 24 0 21 0;
#X connect 26 0 27 0;
#X connect 27 0 28 0;
#X connect 28 0 29 1;
#X connect 29 0 1 0;
#X connect 30 0 31 0;
#X connect 31 0 32 1;
#X connect 32 0 1 1;
#X connect 33 0 30 0;
