#N canvas 6 31 993 796 12;
#X declare -path ./bop;
#X declare -path ./bop/babs;
#X obj 32 14 cnv 19 800 40 empty empty plantsOS\ 🛠️\ TESTING 100 20 0 16 #c6ffc7 #e3c6ff 0;
#X obj 765 33 nbx 3 17 -1e+37 1e+37 0 1 version empty version 0 -10 0 12 #c6ffc7 #000000 #000000 2 256;
#X obj 32 55 cnv 19 800 230 empty empty empty 20 12 0 12 #e3c6ff #404040 0;
#X obj 32 286 cnv 19 400 300 empty empty empty 20 12 0 12 #c6feff #404040 0;
#X obj 31 588 cnv 19 400 350 empty empty empty 20 12 0 12 #feffc6 #404040 0;
#X obj 241 858 declare -path ./bop, f 24;
#X obj 47 886 dac~, f 15;
#X msg 346 815 \; pd dsp 1;
#X obj 346 776 loadbang, f 9;
#X obj 47 771 bop.reverb~;
#A saved size 0.671429;
#A saved damp 0.578571;
#A saved cutoff 3000;
#A saved wet 0.857143;
#A saved dry 1;
#X obj 149 769 bop.reverb~;
#A saved size 0.671429;
#A saved damp 0.578571;
#A saved cutoff 3000;
#A saved wet 0.857143;
#A saved dry 1;
#X obj 241 887 declare -path ./bop/babs;
#X obj 149 852 *~;
#X obj 47 852 *~;
#X obj 48 334 oscparse;
#X msg 157 212 close;
#X msg 221 206 open \$1;
#X msg 210 76 devices;
#X obj 456 169 babs.slipdecode;
#X text 52 76 1.) print available serial devices, f 20;
#X floatatom 221 180 5 0 0 0 - - - 0;
#X obj 221 129 hradio 19 1 0 8 empty empty empty 0 -10 0 12 #fcfcfc #000000 #000000 0;
#X text 223 107 0;
#X text 240 108 1;
#X text 262 108 2;
#X text 279 109 3;
#X text 297 109 4;
#X text 317 110 5;
#X text 336 107 6;
#X text 359 107 7;
#X text 70 125 2.) connect to target device, f 15;
#X obj 47 374 route list;
#X obj 47 306 r osc-in;
#X obj 456 203 s osc-in;
#X obj 258 738 hsl 162 19 0.01 1 1 1 empty empty gain 10 10 0 12 #fcfcfc #000000 #000000 9200 1;
#X obj 255 792 line~;
#X obj 47 551 s touch;
#X obj 81 524 s touchraw;
#X obj 111 495 s buttons;
#X obj 153 466 s pots;
#X msg 255 766 \$1 100;
#X obj 47 722 bop.strum;
#A saved strum 0.999023;
#A saved chord 1;
#A saved shuffle 0;
#A saved root 43;
#A saved octaves 4;
#A saved velocity 0.888;
#A saved duration 0.444;
#X obj 47 746 bop.casio~;
#A saved wave-1 2;
#A saved wave-2 2;
#A saved filter 0.65;
#A saved attack 0;
#A saved decay 0.614286;
#A saved sustain 0;
#A saved release 0.507143;
#A saved gain 1;
#X obj 149 719 bop.strum;
#A saved strum 0.999023;
#A saved chord 7;
#A saved shuffle 1;
#A saved root 46;
#A saved octaves 3;
#A saved velocity 0.888;
#A saved duration 0.444;
#X obj 149 743 bop.casio~;
#A saved wave-1 0;
#A saved wave-2 0;
#A saved filter 0.878571;
#A saved attack 0.1;
#A saved decay 0.3;
#A saved sustain 0.7;
#A saved release 0.2;
#A saved gain 1;
#X msg 47 686 strum \$1;
#X msg 149 690 strum \$1;
#X floatatom 747 454 5 0 0 0 - - - 36;
#N canvas 1152 500 1193 798 emulate-osc 0;
#X obj 138 331 s osc-in;
#X msg 182 261 1 \$1;
#X msg 140 262 0 \$1;
#X obj 110 153 hsl 162 19 0 1 0 0 empty empty empty -2 -10 0 12 #fcfcfc #000000 #000000 0 1;
#X obj 111 121 hsl 162 19 0 1 0 0 empty empty empty -2 -10 0 12 #fcfcfc #000000 #000000 0 1;
#X obj 138 297 oscformat -f ff t;
#X connect 1 0 5 0;
#X connect 2 0 5 0;
#X connect 3 0 1 0;
#X connect 4 0 2 0;
#X connect 5 0 0 0;
#X coords 0 -1 1 1 190 80 1 100 100;
#X restore 217 310 pd emulate-osc;
#X obj 209 247 s to-comport;
#X obj 456 107 r to-comport;
#X floatatom 485 467 5 0 0 0 - - - 36;
#X obj 481 299 r touchraw;
#X msg 731 421 \$1;
#X msg 478 417 \$1;
#X obj 463 709 bop.scope~;
#X obj 738 703 bop.scope~;
#X obj 471 583 clip 0 1;
#X obj 470 549 babs.scale 0 1024 0 1;
#X obj 737 584 clip 0 1;
#X obj 732 541 babs.scale 0 1024 0 1;
#X obj 483 639 s strum1;
#X obj 749 640 s strum2;
#X obj 46 647 r strum1;
#X obj 152 646 r strum2;
#X obj 477 372 route 0 1, f 34;
#X listbox 502 341 20 0 0 0 - - - 0;
#X obj 999 351 r touch;
#X msg 1068 477 \$1;
#X msg 994 476 \$1;
#X obj 995 445 route 0 1, f 16;
#X obj 993 509 s strum1;
#X obj 1069 510 s strum2;
#N canvas 295 320 288 331 print-osc 0;
#X obj 34 167 babs.gate;
#X obj 34 223 print;
#X obj 105 120 tgl 19 0 empty empty print\ OSC 22 12 0 12 #fcfcfc #000000 #000000 0 1;
#X obj 34 134 r osc-in;
#X obj 34 195 oscparse;
#X connect 0 0 4 0;
#X connect 2 0 0 1;
#X connect 3 0 0 0;
#X connect 4 0 1 0;
#X coords 0 -1 1 1 95 60 2 100 100;
#X restore 1060 30 pd print-osc;
#X obj 47 403 route t traw b p ping;
#X obj 930 106 bng 19 250 50 0 empty empty empty 0 -10 0 12 #fcfcfc #000000 #000000;
#X obj 456 137 comport 1 115200;
#X text 555 640 < wants normalised 0 - 1 >;
#X obj 870 231 babs.slipencode;
#X msg 870 138 1;
#X obj 872 271 s to-comport;
#X obj 873 100 bng 25 250 50 0 empty empty ping 0 -10 0 12 #fcfcfc #000000 #000000;
#X obj 869 166 oscformat -f i ping;
#X obj 1048 136 tgl 19 0 empty empty empty 0 -10 0 12 #fcfcfc #000000 #000000 0 1;
#X obj 1048 173 oscformat -f i led;
#X obj 174 438 s pingback;
#X obj 927 73 r pingback;
#X obj 1047 221 babs.slipencode;
#X obj 1047 279 s to-comport;
#X obj 1225 210 oscformat -f sfi echo;
#X obj 1226 243 babs.slipencode;
#X obj 1227 279 s to-comport;
#X msg 1224 173 list yummy 3.14 42;
#X text 994 385 if all scaling and filtering can be done on esp \, we can map like this, f 26;
#X connect 8 0 7 0;
#X connect 9 0 13 0;
#X connect 10 0 12 0;
#X connect 12 0 6 1;
#X connect 13 0 6 0;
#X connect 14 0 31 0;
#X connect 15 0 49 0;
#X connect 16 0 49 0;
#X connect 17 0 49 0;
#X connect 18 0 33 0;
#X connect 20 0 16 0;
#X connect 21 0 20 0;
#X connect 31 0 74 0;
#X connect 32 0 14 0;
#X connect 34 0 40 0;
#X connect 35 0 13 1;
#X connect 35 0 12 1;
#X connect 40 0 35 0;
#X connect 41 0 42 0;
#X connect 41 1 42 1;
#X connect 42 0 9 0;
#X connect 42 1 9 1;
#X connect 43 0 44 0;
#X connect 43 1 44 1;
#X connect 44 0 10 0;
#X connect 44 1 10 1;
#X connect 45 0 41 0;
#X connect 46 0 43 0;
#X connect 50 0 76 0;
#X connect 52 0 65 0;
#X connect 52 0 66 0;
#X connect 53 0 47 0;
#X connect 53 0 60 0;
#X connect 54 0 51 0;
#X connect 54 0 58 0;
#X connect 57 0 55 0;
#X connect 57 0 61 0;
#X connect 58 0 57 0;
#X connect 59 0 56 0;
#X connect 59 0 62 0;
#X connect 60 0 59 0;
#X connect 63 0 45 0;
#X connect 64 0 46 0;
#X connect 65 0 54 0;
#X connect 65 1 53 0;
#X connect 68 0 72 0;
#X connect 69 0 71 0;
#X connect 70 0 69 0;
#X connect 70 1 68 0;
#X connect 74 0 36 0;
#X connect 74 1 37 0;
#X connect 74 2 38 0;
#X connect 74 3 39 0;
#X connect 74 4 85 0;
#X connect 76 0 18 0;
#X connect 78 0 80 0;
#X connect 79 0 82 0;
#X connect 81 0 79 0;
#X connect 82 0 78 0;
#X connect 83 0 84 0;
#X connect 84 0 87 0;
#X connect 86 0 75 0;
#X connect 87 0 88 0;
#X connect 89 0 90 0;
#X connect 90 0 91 0;
#X connect 92 0 89 0;
