#N canvas 366 119 1344 965 12;
#X declare -path ./bop;
#X declare -path ./bop/babs;
#X obj 32 14 cnv 19 800 40 empty empty plantsOS\ 🛠️\ TESTING 100 20 0 16 #c6ffc7 #e3c6ff 0;
#X obj 765 33 nbx 3 17 -1e+37 1e+37 0 1 version empty version 0 -10 0 12 #c6ffc7 #000000 #000000 3 256;
#X obj 32 55 cnv 19 800 230 empty empty empty 20 12 0 12 #e3c6ff #404040 0;
#X obj 32 286 cnv 19 800 300 empty empty empty 20 12 0 12 #c6feff #404040 0;
#X obj 32 588 cnv 19 400 350 empty empty empty 20 12 0 12 #feffc6 #404040 0;
#X obj 242 858 declare -path ./bop, f 24;
#X obj 48 886 dac~, f 15;
#X msg 347 815 \; pd dsp 1;
#X obj 347 776 loadbang, f 9;
#X obj 51 736 bop.reverb~;
#A saved size 0.671429;
#A saved damp 0.578571;
#A saved cutoff 3000;
#A saved wet 0.857143;
#A saved dry 1;
#X obj 153 734 bop.reverb~;
#A saved size 0.671429;
#A saved damp 0.578571;
#A saved cutoff 3000;
#A saved wet 0.857143;
#A saved dry 1;
#X obj 242 887 declare -path ./bop/babs;
#X obj 150 852 *~;
#X obj 48 852 *~;
#X obj 50 299 oscparse;
#X msg 239 218 close;
#X msg 221 189 open \$1;
#X msg 210 76 devices;
#X obj 401 211 babs.slipdecode;
#X text 52 76 1.) print available serial devices, f 20;
#X floatatom 221 163 5 0 0 0 - - - 0;
#X obj 221 129 hradio 19 1 0 8 empty empty empty 0 -10 0 12 #fcfcfc #000000 #000000 0;
#X text 223 107 0;
#X text 240 108 1;
#X text 262 108 2;
#X text 279 109 3;
#X text 297 109 4;
#X text 317 110 5;
#X text 336 107 6;
#X text 359 107 7;
#X text 70 125 2.) connect to target device, f 15;
#X obj 49 330 route list;
#X obj 51 215 r osc-in;
#X obj 401 245 s osc-in;
#X obj 260 617 hsl 162 19 0.01 1 1 1 empty empty gain 10 10 0 12 #fcfcfc #000000 #000000 13000 1;
#X obj 258 735 line~;
#X obj 47 551 s touch;
#X obj 81 524 s touchraw;
#X obj 111 495 s buttons;
#X obj 143 464 s pots;
#X msg 257 645 \$1 100;
#X obj 51 687 bop.strum;
#A saved strum 0;
#A saved chord 1;
#A saved shuffle 0;
#A saved root 43;
#A saved octaves 4;
#A saved velocity 0.888;
#A saved duration 0.444;
#X obj 51 711 bop.casio~;
#A saved wave-1 2;
#A saved wave-2 2;
#A saved filter 0.65;
#A saved attack 0;
#A saved decay 0.614286;
#A saved sustain 0;
#A saved release 0.507143;
#A saved gain 1;
#X obj 153 684 bop.strum;
#A saved strum 0;
#A saved chord 7;
#A saved shuffle 1;
#A saved root 46;
#A saved octaves 3;
#A saved velocity 0.888;
#A saved duration 0.444;
#X obj 153 708 bop.casio~;
#A saved wave-1 0;
#A saved wave-2 0;
#A saved filter 0.878571;
#A saved attack 0.1;
#A saved decay 0.3;
#A saved sustain 0.7;
#A saved release 0.2;
#A saved gain 1;
#X msg 51 651 strum \$1;
#X msg 153 655 strum \$1;
#X floatatom 1150 381 5 0 0 0 - - - 36;
#X obj 209 247 s to-comport;
#X obj 402 81 r to-comport;
#X floatatom 928 390 5 0 0 0 - - - 36;
#X obj 897 251 r touchraw;
#X msg 1144 348 \$1;
#X msg 895 351 \$1;
#X obj 893 690 bop.scope~;
#X obj 1125 695 bop.scope~;
#X obj 895 592 clip 0 1;
#X obj 894 558 babs.scale 0 1024 0 1;
#X obj 1132 593 clip 0 1;
#X obj 1134 552 babs.scale 0 1024 0 1;
#X obj 894 306 route 0 1, f 44;
#X obj 324 310 r touch;
#X msg 397 412 \$1;
#X msg 323 411 \$1;
#X obj 324 380 route 0 1, f 16;
#N canvas 37 345 432 404 print-osc 0;
#X obj 16 190 babs.gate;
#X obj 102 105 tgl 19 0 empty empty print\ OSC\ in 22 12 0 12 #fcfcfc #000000 #000000 0 1;
#X obj 16 157 r osc-in;
#X obj 16 218 oscparse;
#X obj 16 246 print from-arduino;
#X obj 232 189 babs.gate;
#X obj 232 217 oscparse;
#X obj 232 156 r osc-out;
#X obj 232 280 print to-arduino;
#X obj 104 134 tgl 19 0 empty empty print\ OSC\ out 22 12 0 12 #fcfcfc #000000 #000000 0 1;
#X obj 231 245 list trim;
#X connect 0 0 3 0;
#X connect 1 0 0 1;
#X connect 2 0 0 0;
#X connect 3 0 4 0;
#X connect 5 0 6 0;
#X connect 6 0 10 0;
#X connect 7 0 5 0;
#X connect 9 0 5 1;
#X connect 10 0 8 0;
#X coords 0 -1 1 1 120 60 2 100 100;
#X restore 685 208 pd print-osc;
#X obj 49 362 route t traw b p ping;
#X obj 641 113 bng 19 250 50 0 empty empty empty 0 -10 0 12 #fcfcfc #000000 #000000;
#X obj 417 145 babs.slipencode;
#X msg 581 130 1;
#X obj 584 92 bng 25 250 50 0 empty empty ping 0 -10 0 12 #fcfcfc #000000 #000000;
#X obj 580 158 oscformat -f i ping;
#X obj 174 438 s pingback;
#X obj 642 88 r pingback;
#X obj 580 190 s osc-out;
#X obj 416 114 r osc-out;
#X floatatom 1167 631 5 0 0 0 - - - 0;
#X obj 55 616 hsl 80 19 0 1 0 0 empty plant1 plant1 10 10 0 12 #fcfcfc #000000 #000000 0 1;
#X obj 158 617 hsl 80 19 0 1 0 0 empty plant2 plant2 10 10 0 12 #fcfcfc #000000 #000000 0 1;
#X floatatom 926 620 5 0 0 0 - - - 0;
#X obj 524 313 r pots;
#X floatatom 591 376 5 0 0 0 - - - 0;
#X floatatom 527 377 5 0 0 0 - - - 0;
#X obj 189 406 print extra;
#X obj 322 444 s plant1;
#X obj 398 445 s plant2;
#X obj 906 649 s plant1;
#X obj 1159 664 s plant2;
#X obj 526 340 unpack 0 0 0, f 20;
#X text 334 331 ideal plant mapping, f 8;
#X floatatom 661 379 5 0 0 0 - - - 0;
#X floatatom 589 488 5 0 0 0 - - - 0;
#X floatatom 525 489 5 0 0 0 - - - 0;
#X obj 524 452 unpack 0 0 0, f 20;
#X floatatom 659 491 5 0 0 0 - - - 0;
#X obj 522 425 r buttons;
#X obj 877 16 MPR-config-panel 0;
#X obj 1070 15 MPR-config-panel 1;
#X floatatom 935 481 5 0 0 1 no\ touch\ val - - 0;
#X floatatom 964 517 5 0 0 1 touch\ val - - 0;
#X floatatom 1169 475 5 0 0 1 no\ touch\ val - - 0;
#X floatatom 1198 511 5 0 0 1 touch\ val - - 0;
#X obj 526 527 change;
#X msg 526 630 strum \$1 2000;
#X obj 639 528 change;
#X msg 639 631 strum \$1 2000;
#X obj 401 179 comport 0 115200;
#X connect 8 0 7 0;
#X connect 9 0 13 0;
#X connect 10 0 12 0;
#X connect 12 0 6 1;
#X connect 13 0 6 0;
#X connect 14 0 31 0;
#X connect 15 0 48 0;
#X connect 16 0 48 0;
#X connect 17 0 48 0;
#X connect 18 0 33 0;
#X connect 20 0 16 0;
#X connect 21 0 20 0;
#X connect 31 0 66 0;
#X connect 32 0 14 0;
#X connect 34 0 40 0;
#X connect 35 0 13 1;
#X connect 35 0 12 1;
#X connect 40 0 35 0;
#X connect 41 0 42 0;
#X connect 41 1 42 1;
#X connect 42 0 9 0;
#X connect 42 1 9 1;
#X connect 43 0 44 0;
#X connect 43 1 44 1;
#X connect 44 0 10 0;
#X connect 44 1 10 1;
#X connect 45 0 41 0;
#X connect 46 0 43 0;
#X connect 49 0 106 0;
#X connect 51 0 60 0;
#X connect 52 0 47 0;
#X connect 52 0 59 0;
#X connect 53 0 50 0;
#X connect 53 0 57 0;
#X connect 56 0 54 0;
#X connect 56 0 79 0;
#X connect 56 0 86 0;
#X connect 57 0 56 0;
#X connect 58 0 76 0;
#X connect 58 0 55 0;
#X connect 58 0 87 0;
#X connect 59 0 58 0;
#X connect 60 0 53 0;
#X connect 60 1 52 0;
#X connect 62 0 85 0;
#X connect 63 0 84 0;
#X connect 64 0 63 0;
#X connect 64 1 62 0;
#X connect 66 0 36 0;
#X connect 66 1 37 0;
#X connect 66 2 38 0;
#X connect 66 3 39 0;
#X connect 66 4 72 0;
#X connect 66 5 83 0;
#X connect 68 0 106 0;
#X connect 69 0 71 0;
#X connect 70 0 69 0;
#X connect 71 0 74 0;
#X connect 73 0 67 0;
#X connect 75 0 68 0;
#X connect 77 0 45 0;
#X connect 78 0 46 0;
#X connect 80 0 88 0;
#X connect 88 0 82 0;
#X connect 88 1 81 0;
#X connect 88 2 90 0;
#X connect 91 0 104 0;
#X connect 92 0 102 0;
#X connect 93 0 92 0;
#X connect 93 1 91 0;
#X connect 93 2 94 0;
#X connect 95 0 93 0;
#X connect 98 0 57 1;
#X connect 99 0 57 2;
#X connect 100 0 59 1;
#X connect 101 0 59 2;
#X connect 102 0 103 0;
#X connect 103 0 41 1;
#X connect 104 0 105 0;
#X connect 105 0 43 1;
#X connect 106 0 18 0;
