#N canvas 612 190 1100 990 12;
#X declare -path ./bop;
#X declare -path ./bop/babs;
#X obj 32 14 cnv 19 400 40 empty empty plantsOS\ 🛠️\ TESTING 100 20 0 16 #c6ffc7 #e3c6ff 0;
#X obj 377 33 nbx 3 17 -1e+37 1e+37 0 1 version empty version 0 -10 0 12 #c6ffc7 #000000 #000000 0 256;
#X obj 32 70 cnv 19 400 230 empty empty empty 20 12 0 12 #e3c6ff #404040 0;
#X obj 32 304 cnv 19 400 300 empty empty empty 20 12 0 12 #c6feff #404040 0;
#X obj 33 605 cnv 19 400 350 empty empty empty 20 12 0 12 #feffc6 #404040 0;
#X obj 243 875 declare -path ./bop, f 24;
#X obj 49 903 dac~, f 15;
#X msg 348 832 \; pd dsp 1;
#X obj 348 793 loadbang, f 9;
#X obj 49 788 bop.reverb~;
#A saved size 0.671429;
#A saved damp 0.578571;
#A saved cutoff 3000;
#A saved wet 0.857143;
#A saved dry 1;
#X obj 151 786 bop.reverb~;
#A saved size 0.671429;
#A saved damp 0.578571;
#A saved cutoff 3000;
#A saved wet 0.857143;
#A saved dry 1;
#X obj 243 904 declare -path ./bop/babs;
#X obj 151 869 *~;
#X obj 49 869 *~;
#X obj 48 352 oscparse;
#X msg 272 227 close;
#X obj 47 122 comport 1 115200;
#X msg 202 224 open \$1;
#X msg 191 94 devices;
#X obj 47 154 babs.slipdecode;
#X text 269 83 1.) print available serial devices, f 20;
#X floatatom 202 198 5 0 0 0 - - - 0;
#X obj 202 147 hradio 19 1 0 8 empty empty empty 0 -10 0 12 #fcfcfc #000000 #000000 0;
#X text 204 125 0;
#X text 221 126 1;
#X text 243 126 2;
#X text 260 127 3;
#X text 278 127 4;
#X text 298 128 5;
#X text 317 125 6;
#X text 339 126 7;
#X text 258 181 2.) connect to target device, f 15;
#X obj 48 456 route t traw b p, f 19;
#X listbox 58 391 20 0 0 0 - - - 0;
#X obj 48 427 route list;
#X obj 47 324 r osc-in;
#X obj 47 188 s osc-in;
#X obj 222 493 babs.gate;
#X obj 222 549 print;
#X obj 292 460 tgl 19 0 empty empty print\ OSC 22 12 0 12 #fcfcfc #000000 #000000 0 1;
#X obj 222 460 r osc-in;
#X obj 260 755 hsl 162 19 0.01 1 1 1 empty empty gain 10 10 0 12 #fcfcfc #000000 #000000 9700 1;
#X obj 257 809 line~;
#X obj 222 521 oscparse;
#X obj 48 560 s touch;
#X obj 80 529 s touchraw;
#X obj 113 508 s buttons;
#X obj 145 487 s pots;
#X obj 931 89 r touchraw;
#X obj 931 123 unpack 0 0;
#X obj 486 258 bop.scope~;
#X msg 257 783 \$1 100;
#X obj 51 621 r touch;
#X obj 49 739 bop.strum;
#A saved strum 0;
#A saved chord 1;
#A saved shuffle 0;
#A saved root 43;
#A saved octaves 4;
#A saved velocity 0.888;
#A saved duration 0.444;
#X obj 49 763 bop.casio~;
#A saved wave-1 2;
#A saved wave-2 2;
#A saved filter 0.65;
#A saved attack 0;
#A saved decay 0.614286;
#A saved sustain 0;
#A saved release 0.507143;
#A saved gain 1;
#X obj 151 736 bop.strum;
#A saved strum 0;
#A saved chord 7;
#A saved shuffle 1;
#A saved root 46;
#A saved octaves 3;
#A saved velocity 0.888;
#A saved duration 0.444;
#X obj 151 760 bop.casio~;
#A saved wave-1 0;
#A saved wave-2 0;
#A saved filter 0.878571;
#A saved attack 0.1;
#A saved decay 0.3;
#A saved sustain 0.7;
#A saved release 0.2;
#A saved gain 1;
#X obj 51 645 route 0 1, f 19;
#X msg 49 703 strum \$1;
#X msg 151 707 strum \$1;
#X floatatom 49 675 5 0 0 0 - - - 0;
#X floatatom 150 676 5 0 0 0 - - - 0;
#X floatatom 694 143 5 0 0 0 - - - 0;
#X obj 487 107 route 0 1, f 34;
#X obj 487 77 r touch;
#N canvas 1603 414 1193 798 emulate-osc 0;
#X obj 138 331 s osc-in;
#X obj 138 297 oscformat -f ff t;
#X msg 182 261 1 \$1;
#X msg 140 262 0 \$1;
#X obj 110 153 hsl 162 19 0 1 0 0 empty empty empty -2 -10 0 12 #fcfcfc #000000 #000000 0 1;
#X obj 111 121 hsl 162 19 0 1 0 0 empty empty empty -2 -10 0 12 #fcfcfc #000000 #000000 0 1;
#X connect 1 0 0 0;
#X connect 2 0 1 0;
#X connect 3 0 1 0;
#X connect 4 0 2 0;
#X connect 5 0 3 0;
#X coords 0 -1 1 1 190 80 1 100 100;
#X restore 217 328 pd emulate-osc;
#X floatatom 931 157 5 0 0 0 - - - 0;
#X floatatom 998 156 5 0 0 0 - - - 0;
#N canvas 208 233 450 300 filtering-and-scale 0;
#X obj 195 131 inlet;
#X obj 193 198 outlet;
#X connect 0 0 1 0;
#X restore 486 173 pd filtering-and-scale;
#X obj 190 265 s to-comport;
#X obj 47 92 r to-comport;
#X obj 503 211 s plant1;
#X obj 694 211 s plant2;
#N canvas 208 233 450 300 filtering-and-scale 0;
#X obj 195 131 inlet;
#X obj 193 198 outlet;
#X connect 0 0 1 0;
#X restore 694 172 pd filtering-and-scale;
#X floatatom 486 141 5 0 0 0 - - - 0;
#X connect 8 0 7 0;
#X connect 9 0 13 0;
#X connect 10 0 12 0;
#X connect 12 0 6 1;
#X connect 13 0 6 0;
#X connect 14 0 33 0;
#X connect 14 0 34 0;
#X connect 15 0 69 0;
#X connect 16 0 19 0;
#X connect 17 0 69 0;
#X connect 18 0 69 0;
#X connect 19 0 36 0;
#X connect 21 0 17 0;
#X connect 22 0 21 0;
#X connect 32 0 44 0;
#X connect 32 1 45 0;
#X connect 32 2 46 0;
#X connect 32 3 47 0;
#X connect 34 0 32 0;
#X connect 35 0 14 0;
#X connect 37 0 43 0;
#X connect 39 0 37 1;
#X connect 40 0 37 0;
#X connect 41 0 51 0;
#X connect 42 0 13 1;
#X connect 42 0 12 1;
#X connect 43 0 38 0;
#X connect 48 0 49 0;
#X connect 49 0 66 0;
#X connect 49 1 67 0;
#X connect 51 0 42 0;
#X connect 52 0 57 0;
#X connect 53 0 54 0;
#X connect 53 1 54 1;
#X connect 54 0 9 0;
#X connect 54 1 9 1;
#X connect 55 0 56 0;
#X connect 55 1 56 1;
#X connect 56 0 10 0;
#X connect 56 1 10 1;
#X connect 57 0 60 0;
#X connect 57 1 61 0;
#X connect 58 0 53 0;
#X connect 59 0 55 0;
#X connect 60 0 58 0;
#X connect 61 0 59 0;
#X connect 62 0 73 0;
#X connect 63 0 74 0;
#X connect 63 1 62 0;
#X connect 64 0 63 0;
#X connect 68 0 50 0;
#X connect 68 0 71 0;
#X connect 70 0 16 0;
#X connect 73 0 72 0;
#X connect 74 0 68 0;
