#N canvas 66 50 961 834 12;
#X obj 19 392 bng 19 250 50 0 \$0-reboot empty reboot 25 10 0 12 #fcfcfc #000000 #000000;
#X obj 18 436 bng 19 250 50 0 \$0-updatesamples empty updatesamples 25 10 0 12 #fcfcfc #000000 #000000;
#X obj 19 77 bng 19 250 50 0 \$0-update empty update 25 10 0 12 #fcfcfc #000000 #000000;
#X obj 19 96 bng 19 250 50 0 \$0-shutdown empty shutdown 25 10 0 12 #fcfcfc #000000 #000000;
#X obj 193 10 r osc-from-devices;
#X obj 193 123 s \$0-osc-in;
#X obj 193 182 r \$0-osc-in;
#X obj 19 161 tgl 19 1 \$0-print empty print 20 9 0 12 #fcfcfc #000000 #000000 0 1;
#X obj 353 369 list prepend;
#X obj 403 339 r \$0-print;
#X obj 353 417 print device-\$1;
#X listbox 19 143 18 0 0 2 status____________ \$0-osc-list - 0;
#X obj 385 300 s \$0-osc-list;
#X obj 11 11 cnv 18 148 20 empty \$0-header device\ 0 6 10 0 14 #e3c6ff #404040 0;
#X obj 545 13 loadbang;
#X obj 545 37 \$1;
#X obj 547 96 s \$0-header;
#X msg 546 65 label device\\\ \$1;
#X obj 592 341 r \$0-reboot;
#X obj 587 281 r \$0-shutdown;
#X obj 567 221 r \$0-update;
#X obj 547 409 list;
#X obj 547 161 r \$0-updatesamples;
#X listbox 19 59 18 0 0 2 send_message______ - \$0-osc-out 0;
#X obj 719 425 r \$0-osc-out;
#X obj 719 448 oscformat \$1;
#X obj 719 474 s osc-to-devices;
#X obj 193 34 route rpt;
#X obj 193 93 route \$1;
#X obj 140 11 bng 19 250 50 0 empty \$0-hb empty 3 10 0 10 #e3c6ff #ffffff #202020;
#X obj 353 392 route 1;
#X obj 353 268 t l l;
#X obj 193 340 s \$0-hb;
#X msg 225 278 hb;
#X obj 353 239 list;
#X obj 193 248 t b b;
#X obj 547 445 s \$0-osc-out;
#X obj 92 161 bng 19 250 50 0 \$0-clear empty clear 20 9 0 12 #fcfcfc #000000 #000000;
#X obj 132 528 s \$0-osc-list;
#X msg 129 504 set;
#X obj 193 210 route hb version, f 25;
#X obj 246 248 s \$0-version;
#X floatatom 132 30 5 0 0 0 v. \$0-version - 8;
#X msg 276 503 0;
#X obj 274 535 s \$0-version;
#X msg 592 365 list helper reboot;
#X msg 587 305 list helper shutdown;
#X msg 567 245 list helper update;
#X msg 547 185 list helper updatesamples;
#X obj 344 709 r \$0-cdc;
#X obj 445 712 r \$0-cdt;
#X obj 552 712 r \$0-store;
#X msg 345 738 list cdc \$1;
#X msg 445 736 list cdt \$1;
#X obj 427 781 s \$0-osc-out;
#X obj 236 714 r \$0-debug;
#X msg 236 738 list debug \$1;
#X msg 552 736 list store 1;
#X obj 801 47 r \$0-aloha;
#X obj 800 95 list;
#X obj 800 131 s \$0-osc-out;
#X msg 801 71 aloha 1;
#X obj 121 11 bng 19 250 50 0 \$0-aloha empty 👋 3 10 0 10 #e3c6ff #ffffff #000000;
#X obj 129 480 r \$0-clear;
#X obj 276 479 r \$0-clear;
#X connect 4 0 27 0;
#X connect 6 0 40 0;
#X connect 8 0 30 0;
#X connect 9 0 8 1;
#X connect 14 0 15 0;
#X connect 15 0 17 0;
#X connect 17 0 16 0;
#X connect 18 0 45 0;
#X connect 19 0 46 0;
#X connect 20 0 47 0;
#X connect 21 0 36 0;
#X connect 22 0 48 0;
#X connect 24 0 25 0;
#X connect 25 0 26 0;
#X connect 27 0 28 0;
#X connect 28 0 5 0;
#X connect 30 0 10 0;
#X connect 31 0 8 0;
#X connect 31 1 12 0;
#X connect 33 0 8 0;
#X connect 34 0 31 0;
#X connect 35 0 32 0;
#X connect 35 1 33 0;
#X connect 39 0 38 0;
#X connect 40 0 35 0;
#X connect 40 1 41 0;
#X connect 40 2 34 0;
#X connect 43 0 44 0;
#X connect 45 0 21 0;
#X connect 46 0 21 0;
#X connect 47 0 21 0;
#X connect 48 0 21 0;
#X connect 49 0 52 0;
#X connect 50 0 53 0;
#X connect 51 0 57 0;
#X connect 52 0 54 0;
#X connect 53 0 54 0;
#X connect 55 0 56 0;
#X connect 56 0 54 0;
#X connect 57 0 54 0;
#X connect 58 0 61 0;
#X connect 59 0 60 0;
#X connect 61 0 59 0;
#X connect 63 0 39 0;
#X connect 64 0 43 0;
#X coords 0 -1 1 1 150 190 2 10 10;
