#N canvas 771 185 860 746 12;
#X obj 19 125 bng 19 250 50 0 \$0-reboot empty reboot 25 10 0 12 #fcfcfc #000000 #000000;
#X obj 20 305 bng 19 250 50 0 \$0-getsamples empty getsamples 25 10 0 12 #fcfcfc #000000 #000000;
#X obj 19 87 bng 19 250 50 0 \$0-update empty update 25 10 0 12 #fcfcfc #000000 #000000;
#X obj 19 106 bng 19 250 50 0 \$0-shutdown empty shutdown 25 10 0 12 #fcfcfc #000000 #000000;
#X obj 193 10 r osc-from-devices;
#X obj 193 143 s \$0-osc-in;
#X obj 199 189 r \$0-osc-in;
#X obj 19 210 tgl 19 1 \$0-print empty print 22 9 0 12 #fcfcfc #000000 #000000 1 1;
#X obj 359 396 list prepend;
#X obj 439 364 r \$0-print;
#X obj 359 474 print device-\$1;
#X listbox 19 173 18 0 0 2 status____________ \$0-osc-list - 0;
#X obj 391 307 s \$0-osc-list;
#X obj 11 11 cnv 18 148 20 empty \$0-header device\ -1 6 10 0 14 #e3c6ff #404040 0;
#X obj 347 4 loadbang;
#X obj 347 28 \$1;
#X obj 349 149 s \$0-header;
#X msg 348 118 label device\\\ \$1;
#X obj 642 437 r \$0-reboot;
#X obj 637 377 r \$0-shutdown;
#X obj 617 317 r \$0-update;
#X obj 597 505 list;
#X listbox 19 69 18 0 0 2 send_message______ - \$0-osc-out 0;
#X obj 599 576 r \$0-osc-out;
#X obj 599 599 oscformat \$1;
#X obj 599 625 s osc-to-devices;
#X obj 193 54 route rpt;
#X obj 193 113 route \$1;
#X obj 140 11 bng 19 250 50 0 empty \$0-hb empty 3 10 0 10 #e3c6ff #ffffff #202020;
#X obj 359 429 route 1;
#X obj 359 275 t l l;
#X obj 199 347 s \$0-hb;
#X msg 231 285 hb;
#X obj 359 246 list;
#X obj 199 255 t b b;
#X obj 597 541 s \$0-osc-out;
#X obj 89 210 bng 19 250 50 0 \$0-clear empty clear 20 9 0 12 #fcfcfc #000000 #000000;
#X obj 511 108 s \$0-osc-list;
#X msg 511 79 set;
#X obj 199 217 route hb version, f 25;
#X obj 252 255 s \$0-version;
#X floatatom 132 30 5 0 0 0 v. \$0-version - 8;
#X msg 616 76 0;
#X obj 616 108 s \$0-version;
#X msg 642 461 list helper reboot;
#X msg 637 401 list helper shutdown;
#X msg 617 341 list helper update;
#X obj 565 159 r \$0-aloha;
#X msg 565 183 aloha 1;
#X obj 121 11 bng 19 250 50 0 \$0-aloha empty 👋 3 10 0 10 #e3c6ff #ffffff #000000;
#X obj 511 13 r \$0-clear;
#X obj 511 47 t b b, f 15;
#X obj 19 191 tgl 19 0 \$0-echo empty echo 22 10 0 12 #fcfcfc #000000 #000000 0 1;
#X obj 345 51 s \$0-device;
#X obj 348 83 r \$0-device;
#X obj 242 86 r \$0-device;
#X obj 582 207 r \$0-echo;
#X msg 582 231 echo \$1;
#X obj 327 505 s echo;
#X obj 597 257 r \$0-getsamples;
#X msg 597 281 list helper getsamples;
#X connect 4 0 26 0;
#X connect 6 0 39 0;
#X connect 8 0 29 0;
#X connect 9 0 8 1;
#X connect 14 0 15 0;
#X connect 15 0 53 0;
#X connect 17 0 16 0;
#X connect 18 0 44 0;
#X connect 19 0 45 0;
#X connect 20 0 46 0;
#X connect 21 0 35 0;
#X connect 23 0 24 0;
#X connect 24 0 25 0;
#X connect 26 0 27 0;
#X connect 27 0 5 0;
#X connect 29 0 10 0;
#X connect 29 0 58 0;
#X connect 30 0 8 0;
#X connect 30 1 12 0;
#X connect 32 0 8 0;
#X connect 33 0 30 0;
#X connect 34 0 31 0;
#X connect 34 1 32 0;
#X connect 38 0 37 0;
#X connect 39 0 34 0;
#X connect 39 1 40 0;
#X connect 39 2 33 0;
#X connect 42 0 43 0;
#X connect 44 0 21 0;
#X connect 45 0 21 0;
#X connect 46 0 21 0;
#X connect 47 0 48 0;
#X connect 48 0 21 0;
#X connect 50 0 51 0;
#X connect 51 0 38 0;
#X connect 51 1 42 0;
#X connect 54 0 17 0;
#X connect 55 0 27 1;
#X connect 56 0 57 0;
#X connect 57 0 21 0;
#X connect 59 0 60 0;
#X connect 60 0 21 0;
#X coords 0 -1 1 1 150 240 2 10 10;
