#N canvas 218 112 1428 918 12;
#X declare -path ./bop/babs;
#X obj 996 82 declare -path ./bop/babs;
#X msg 909 226 close;
#X msg 891 197 open \$1;
#X msg 880 84 devices;
#X obj 103 577 babs.slipdecode;
#X text 722 84 1.) print available serial devices, f 20;
#X floatatom 891 171 5 0 0 0 - - - 0;
#X obj 891 137 hradio 19 1 0 8 empty empty empty 0 -10 0 12 #fcfcfc #000000 #000000 0;
#X text 893 115 0;
#X text 910 116 1;
#X text 932 116 2;
#X text 949 117 3;
#X text 967 117 4;
#X text 987 118 5;
#X text 1006 115 6;
#X text 1027 114 7;
#X text 740 133 2.) connect to target device, f 15;
#X obj 103 399 babs.slipencode;
#X msg 668 702 1;
#X obj 667 730 oscformat -f i ping;
#X obj 497 267 inlet;
#X obj 103 606 oscparse;
#X obj 102 368 r \$0-osc-to-arduino;
#X obj 104 637 s \$0-osc-from-arduino;
#X obj 667 762 s \$0-osc-to-arduino;
#X obj 879 255 s \$0-to-comport;
#X obj 130 472 r \$0-to-comport;
#X obj 109 779 outlet;
#X obj 108 712 r \$0-osc-from-arduino;
#X obj 668 619 route ping device, f 30;
#X msg 825 726 open \$1;
#X obj 825 758 s \$0-to-comport;
#X obj 103 506 comport 0 115200;
#X obj 647 558 s \$0-osc-to-arduino;
#X obj 108 747 route list;
#X obj 499 452 oscformat -f i ffi;
#X obj 645 455 oscformat -f i sfi;
#X obj 789 456 oscformat -f i cdc;
#X obj 930 454 oscformat -f i cdt;
#X obj 1070 453 oscformat -f i esi;
#X obj 500 348 route ffi sfi cdc cdt esi store, f 123;
#X obj 1212 453 oscformat -f i store;
#X connect 1 0 25 0;
#X connect 2 0 25 0;
#X connect 3 0 25 0;
#X connect 4 0 21 0;
#X connect 6 0 2 0;
#X connect 7 0 6 0;
#X connect 17 0 32 0;
#X connect 18 0 19 0;
#X connect 19 0 24 0;
#X connect 20 0 40 0;
#X connect 21 0 23 0;
#X connect 22 0 17 0;
#X connect 26 0 32 0;
#X connect 28 0 34 0;
#X connect 30 0 31 0;
#X connect 32 0 4 0;
#X connect 34 0 27 0;
#X connect 35 0 33 0;
#X connect 36 0 33 0;
#X connect 37 0 33 0;
#X connect 38 0 33 0;
#X connect 39 0 33 0;
#X connect 40 0 35 0;
#X connect 40 1 36 0;
#X connect 40 2 37 0;
#X connect 40 3 38 0;
#X connect 40 4 39 0;
#X connect 40 5 41 0;
#X connect 41 0 33 0;
