#N canvas 2 37 1468 891 12;
#X declare -path ./bop/babs;
#X obj 80 257 netreceive -u -b 6660;
#X obj 80 289 oscparse;
#X obj 85 1320 netsend -u -b;
#X obj 101 1226 loadbang;
#X msg 101 1252 connect 255.255.255.255 5550;
#X obj 230 1091 r ID;
#X obj 80 337 route all;
#X obj 86 1152 list trim;
#X obj 86 1191 oscformat rpt;
#X obj 329 279 oscparse;
#X obj 329 303 list trim;
#X obj 329 376 s ID;
#X obj 329 255 netreceive -u -b 6661;
#X text 75 213 command (listen on 6660);
#N canvas 810 377 586 560 route-by-id 0;
#X obj 161 39 inlet;
#X obj 173 359 outlet;
#X obj 168 93 list split 1, f 25;
#X obj 168 179 list append;
#X msg 168 125 symbol \$1;
#X obj 168 149 f;
#X obj 409 45 inlet;
#X text 449 40 id;
#X text 212 37 incoming messages;
#X obj 171 260 route -1, f 39;
#X connect 0 0 2 0;
#X connect 2 0 4 0;
#X connect 2 1 3 1;
#X connect 3 0 9 0;
#X connect 4 0 5 0;
#X connect 5 0 3 0;
#X connect 6 0 9 1;
#X connect 9 0 1 0;
#X restore 141 390 pd route-by-id;
#X obj 558 451 list trim;
#X obj 402 649 delay 1000;
#X obj 79 428 s osc-in, f 9;
#X text 563 383 report all other messages, f 14;
#X text 68 24 ----------- OSC INPUT/OUTPUT -----------------------------------------------------------------, f 94;
#X obj 481 969 r osc-in;
#X obj 480 1122 netsend -u -b;
#X obj 519 1063 loadbang;
#X msg 519 1089 connect 127.0.0.1 7770;
#X msg 153 1289 connect localhost 5550;
#X obj 329 327 route id pos1 pos2 pos3, f 33;
#X obj 401 614 loadbang;
#X obj 104 1058 babs.gate, f 14;
#X obj 997 33 declare -path ./bop/babs;
#X obj 482 998 route helper;
#X text 324 218 receive OSC from helper.py (listen on 6661);
#X obj 105 1022 r osc-in;
#X obj 197 998 r osc-in;
#X obj 197 1029 route echo;
#X obj 235 343 r ID;
#X obj 577 365 print received osc from helper.py;
#X obj 86 973 r osc-out;
#X text 81 936 report (broadcast to 5550);
#X obj 557 620 r osc-in;
#X obj 557 654 route id;
#X obj 557 688 s ID;
#X text 553 577 set ID;
#X text 473 937 forward incoming OSC to helper.py (unicast to 7770);
#X obj 827 583 r ID;
#X obj 827 612 print ID;
#X obj 830 716 r RANDOM;
#X obj 830 749 print RANDOM;
#X obj 933 716 r STARTDATE;
#X obj 933 749 print STARTDATE;
#X obj 1059 716 r STARTTIME;
#X obj 1059 749 print STARTTIME;
#X obj 910 581 r PX;
#X obj 1001 580 r PY;
#X obj 910 614 print PX;
#X obj 1001 613 print PY;
#X text 714 737 from start.sh;
#X text 714 593 from helper.py;
#X obj 896 282 oscparse;
#X obj 896 306 list trim;
#X obj 896 336 s osc-in;
#X obj 558 482 s osc-out;
#X obj 558 417 list prepend from-helper;
#X text 66 892 OUT -----------------------------------------------------------------------------------------------------------------------------------------------------, f 157;
#X text 75 177 IN -------------------------------------------------------------------------------------------------------------------------------------------------------, f 157;
#X text 69 530 SET -----------------------------------------------------------------------------------------------------------------------------------------------------, f 157;
#X obj 97 604 loadbang;
#X msg 97 658 1;
#X obj 97 809 s osc-out;
#X obj 97 685 metro 10000;
#X msg 97 738 hb;
#X obj 97 710 t b b;
#X obj 129 737 value version;
#X msg 129 761 version \$1;
#X obj 97 632 delay 1000;
#X text 93 570 heartbeat;
#X obj 311 810 s osc-out;
#X text 369 777 announce;
#X msg 311 779 aloha 1;
#X obj 313 613 r osc-in;
#X obj 313 680 bng 19 250 50 0 empty empty empty 0 -10 0 12 #fcfcfc #000000 #000000;
#X obj 313 648 route aloha;
#X obj 313 706 s aloha;
#X obj 311 749 r aloha;
#X text 309 568 aloha;
#N canvas 63 100 1159 547 process-helper-messages 0;
#X obj 118 55 inlet;
#X obj 111 252 oscformat reboot;
#X msg 111 219 1;
#X obj 286 255 oscformat shutdown;
#X obj 472 255 oscformat update;
#X msg 658 189 1;
#X obj 187 192 s reboot;
#X obj 364 197 s shutdown;
#X obj 552 197 s update;
#X obj 112 156 t b b, f 12;
#X obj 112 191 delay 500;
#X msg 287 226 1;
#X obj 288 163 t b b, f 11;
#X obj 288 198 delay 500;
#X msg 471 225 1;
#X obj 472 162 t b b, f 12;
#X obj 472 197 delay 500;
#X obj 828 224 symbol;
#X obj 828 248 oscformat checkout;
#X obj 658 246 oscformat getsamples;
#X obj 418 449 outlet;
#X obj 111 122 route reboot shutdown update getsamples checkout config, f 143;
#X obj 979 223 symbol;
#X obj 979 247 oscformat config;
#X connect 0 0 21 0;
#X connect 1 0 20 0;
#X connect 2 0 1 0;
#X connect 3 0 20 0;
#X connect 4 0 20 0;
#X connect 5 0 19 0;
#X connect 9 0 10 0;
#X connect 9 1 6 0;
#X connect 10 0 2 0;
#X connect 11 0 3 0;
#X connect 12 0 13 0;
#X connect 12 1 7 0;
#X connect 13 0 11 0;
#X connect 14 0 4 0;
#X connect 15 0 16 0;
#X connect 15 1 8 0;
#X connect 16 0 14 0;
#X connect 17 0 18 0;
#X connect 18 0 20 0;
#X connect 19 0 20 0;
#X connect 21 0 9 0;
#X connect 21 1 12 0;
#X connect 21 2 15 0;
#X connect 21 3 5 0;
#X connect 21 4 17 0;
#X connect 21 5 22 0;
#X connect 22 0 23 0;
#X connect 23 0 20 0;
#X restore 483 1028 pd process-helper-messages;
#X obj 889 963 r osc-in;
#X obj 889 1137 netsend -u -b;
#X obj 934 1064 loadbang;
#X text 887 933 forward incoming OSC to io/main.py (unicast to 8880);
#X msg 934 1090 connect 127.0.0.1 8880;
#X obj 889 992 route io;
#X obj 896 258 netreceive -u -b 6662;
#N canvas 63 100 637 534 process-io-messages 0;
#X obj 100 27 inlet;
#X obj 234 342 outlet;
#X obj 74 188 oscformat report;
#X msg 76 150 1;
#X obj 215 187 oscformat create;
#X obj 215 140 list;
#X obj 122 78 route report create poll;
#X obj 341 140 list;
#X obj 341 187 oscformat poll;
#X connect 0 0 6 0;
#X connect 2 0 1 0;
#X connect 3 0 2 0;
#X connect 4 0 1 0;
#X connect 5 0 4 0;
#X connect 6 0 3 0;
#X connect 6 1 5 0;
#X connect 6 2 7 0;
#X connect 7 0 8 0;
#X connect 8 0 1 0;
#X restore 889 1023 pd process-io-messages;
#X text 894 216 receive OSC from io/main.py (listen on 6662);
#X obj 89 53 inlet;
#X obj 89 86 s osc-in;
#X obj 211 84 outlet;
#X obj 211 56 r osc-in;
#X obj 371 58 loadbang;
#X obj 369 139 s osc-in;
#X msg 370 103 helper config;
#X obj 86 1128 list prepend 0, f 21;
#X text 404 673 wait for id to be set from helper.py, f 10;
#X text 383 81 get ID from helper.py;
#X obj 634 619 r osc-in;
#X obj 634 653 route version;
#X obj 634 687 s version;
#X connect 0 0 1 0;
#X connect 1 0 6 0;
#X connect 3 0 4 0;
#X connect 4 0 2 0;
#X connect 5 0 101 1;
#X connect 6 0 17 0;
#X connect 6 1 14 0;
#X connect 7 0 8 0;
#X connect 8 0 2 0;
#X connect 9 0 10 0;
#X connect 10 0 25 0;
#X connect 12 0 9 0;
#X connect 14 0 17 0;
#X connect 15 0 60 0;
#X connect 16 0 79 0;
#X connect 20 0 29 0;
#X connect 22 0 23 0;
#X connect 23 0 21 0;
#X connect 24 0 2 0;
#X connect 25 0 11 0;
#X connect 25 4 35 0;
#X connect 25 4 61 0;
#X connect 26 0 16 0;
#X connect 27 0 101 0;
#X connect 29 0 84 0;
#X connect 31 0 27 0;
#X connect 32 0 33 0;
#X connect 33 0 27 1;
#X connect 34 0 14 1;
#X connect 36 0 101 0;
#X connect 38 0 39 0;
#X connect 39 0 40 0;
#X connect 43 0 44 0;
#X connect 45 0 46 0;
#X connect 47 0 48 0;
#X connect 49 0 50 0;
#X connect 51 0 53 0;
#X connect 52 0 54 0;
#X connect 57 0 58 0;
#X connect 58 0 59 0;
#X connect 61 0 15 0;
#X connect 65 0 73 0;
#X connect 66 0 68 0;
#X connect 68 0 70 0;
#X connect 69 0 67 0;
#X connect 70 0 69 0;
#X connect 70 1 71 0;
#X connect 71 0 72 0;
#X connect 72 0 67 0;
#X connect 73 0 66 0;
#X connect 77 0 75 0;
#X connect 78 0 80 0;
#X connect 79 0 81 0;
#X connect 80 0 79 0;
#X connect 82 0 77 0;
#X connect 84 0 21 0;
#X connect 85 0 90 0;
#X connect 87 0 89 0;
#X connect 89 0 86 0;
#X connect 90 0 92 0;
#X connect 91 0 57 0;
#X connect 92 0 86 0;
#X connect 94 0 95 0;
#X connect 97 0 96 0;
#X connect 98 0 100 0;
#X connect 100 0 99 0;
#X connect 101 0 7 0;
#X connect 104 0 105 0;
#X connect 105 0 106 0;
