#N canvas 73 158 1398 812 12;
#X declare -path ./bop/babs;
#X obj 996 82 declare -path ./bop/babs;
#X msg 909 226 close;
#X msg 891 197 open \$1;
#X msg 880 84 devices;
#X obj 104 533 babs.slipdecode;
#X text 722 84 1.) print available serial devices, f 20;
#X floatatom 891 171 5 0 0 0 - - - 0;
#X obj 891 137 hradio 19 1 0 8 empty empty empty 0 -10 0 12 #fcfcfc #000000 #000000 0;
#X text 893 115 0;
#X text 910 116 1;
#X text 932 116 2;
#X text 949 117 3;
#X text 967 117 4;
#X text 987 118 5;
#X text 1006 115 6;
#X text 857 110 7;
#X text 740 133 2.) connect to target device, f 15;
#X obj 104 355 babs.slipencode;
#X msg 97 177 1;
#X obj 96 205 oscformat -f i ping;
#X obj 337 145 oscformat -f i brightness;
#X obj 96 44 inlet;
#X obj 104 562 oscparse;
#X obj 338 184 s \$0-osc-to-arduino;
#X obj 103 324 r \$0-osc-to-arduino;
#X obj 105 593 s \$0-osc-from-arduino;
#X obj 96 237 s \$0-osc-to-arduino;
#X obj 879 255 s \$0-to-comport;
#X obj 131 428 r \$0-to-comport;
#X obj 110 735 outlet;
#X obj 109 698 r \$0-osc-from-arduino;
#X obj 339 93 route brightness, f 43;
#X obj 97 94 route ping device, f 30;
#X msg 200 130 open \$1;
#X obj 200 162 s \$0-to-comport;
#X msg 123 123 devices;
#X obj 104 462 comport 0 115200;
#X connect 1 0 27 0;
#X connect 2 0 27 0;
#X connect 3 0 27 0;
#X connect 4 0 22 0;
#X connect 6 0 2 0;
#X connect 7 0 6 0;
#X connect 17 0 36 0;
#X connect 18 0 19 0;
#X connect 19 0 26 0;
#X connect 20 0 23 0;
#X connect 21 0 32 0;
#X connect 22 0 25 0;
#X connect 24 0 17 0;
#X connect 28 0 36 0;
#X connect 30 0 29 0;
#X connect 31 0 20 0;
#X connect 32 0 18 0;
#X connect 32 0 35 0;
#X connect 32 1 33 0;
#X connect 32 2 31 0;
#X connect 33 0 34 0;
#X connect 35 0 34 0;
#X connect 36 0 4 0;
