#N canvas 111 37 1275 891 12;
#X obj 163 102 bng 19 250 50 0 \$0-reboot reboot reboot 25 10 0 12 #fcfcfc #000000 #000000;
#X obj 18 526 bng 19 250 50 0 \$0-updatesamples empty updatesamples 25 10 0 12 #fcfcfc #000000 #000000;
#X obj 18 121 bng 19 250 50 0 \$0-update update update\ bopos 25 10 0 12 #fcfcfc #000000 #000000;
#X obj 163 121 bng 19 250 50 0 \$0-shutdown shutdown shutdown 25 10 0 12 #fcfcfc #000000 #000000;
#X obj 314 15 r osc-from-devices;
#X obj 314 128 s \$0-osc-in;
#X obj 314 187 r \$0-osc-in;
#X obj 88 181 tgl 19 1 \$0-print empty print 20 9 0 12 #fcfcfc #000000 #000000 0 1;
#X obj 474 374 list prepend;
#X obj 524 344 r \$0-print;
#X obj 474 422 print device-\$1;
#X listbox 18 163 32 0 0 2 status____________ \$0-osc-list - 0;
#X obj 506 305 s \$0-osc-list;
#X obj 11 11 cnv 18 240 20 empty \$0-header device\ 0 6 10 0 14 #e3c6ff #404040 0;
#X obj 29 787 loadbang;
#X obj 29 811 \$1;
#X obj 31 870 s \$0-header;
#X msg 30 839 label device\\\ \$1;
#X obj 1045 205 r \$0-reboot;
#X obj 1040 145 r \$0-shutdown;
#X obj 1020 85 r \$0-update;
#X obj 1000 273 list;
#X listbox 18 84 32 0 0 2 send_message______ - \$0-osc-out 0;
#X obj 497 14 r \$0-osc-out;
#X obj 497 37 oscformat \$1;
#X obj 497 63 s osc-to-devices;
#X obj 314 39 route rpt;
#X obj 314 98 route \$1;
#X obj 230 11 bng 19 250 50 0 empty \$0-hb empty 3 10 0 10 #e3c6ff #ffffff #202020;
#X obj 474 397 route 1;
#X obj 474 273 t l l;
#X obj 314 345 s \$0-hb;
#X msg 346 283 hb;
#X obj 474 244 list;
#X obj 314 253 t b b;
#X obj 1000 309 s \$0-osc-out;
#X obj 168 181 bng 19 250 50 0 \$0-clear empty clear 20 9 0 12 #fcfcfc #000000 #000000;
#X obj 188 853 s \$0-osc-list;
#X msg 185 829 set;
#X obj 314 215 route hb version, f 25;
#X obj 367 253 s \$0-version;
#X floatatom 197 13 5 0 0 0 v. \$0-version - 8;
#X msg 332 828 0;
#X obj 330 860 s \$0-version;
#X msg 1045 229 list helper reboot;
#X msg 1040 169 list helper shutdown;
#X msg 1020 109 list helper update;
#X obj 645 379 r \$0-aloha;
#X obj 644 427 list;
#X obj 644 463 s \$0-osc-out;
#X msg 645 403 aloha 1;
#X obj 160 11 bng 19 250 50 0 \$0-aloha empty 👋 3 10 0 10 #e3c6ff #ffffff #000000;
#X obj 185 805 r \$0-clear;
#X obj 332 804 r \$0-clear;
#X obj 113 43 hsl 130 19 0 1 0 0 \$0-gain \$0-to-gain gain:1 5 10 0 12 #fcfcfc #000000 #000000 0 1;
#X obj 646 77 s \$0-osc-out;
#X obj 643 192 s \$0-osc-out;
#X obj 643 125 r \$0-gain2;
#X msg 643 158 list gain2 \$1;
#X msg 785 165 label gain2:\$1;
#X obj 785 189 s \$0-to-gain2;
#X obj 647 300 s \$0-osc-out;
#X obj 647 233 r \$0-backing;
#X msg 647 266 list backing \$1;
#X msg 789 273 label backing:\$1;
#X obj 789 297 s \$0-to-backing;
#X obj 646 10 r \$0-gain;
#X msg 646 43 list gain \$1;
#X msg 795 30 label gain:\$1;
#X obj 795 54 s \$0-to-gain;
#X obj 18 181 tgl 19 1 \$0-echo empty echo 20 9 0 12 #fcfcfc #000000 #000000 1 1;
#X obj 767 390 r \$0-echo;
#X msg 767 419 echo \$1;
#X obj 767 449 list;
#X obj 767 480 s \$0-osc-out;
#X obj 18 102 bng 19 250 50 0 \$0-pullpatch pullpatch pullpatch 25 10 0 12 #fcfcfc #000000 #000000;
#X obj 887 463 s \$0-osc-out;
#X obj 1002 21 r \$0-pullpatch;
#X msg 1002 52 list helper pullpatch;
#X obj 310 635 s debug;
#X obj 320 559 list prepend;
#X obj 337 504 i \$1;
#X obj 337 457 loadbang;
#X obj 391 498 r \$0-osc-list;
#X obj 337 592 list trim;
#X connect 4 0 26 0;
#X connect 6 0 39 0;
#X connect 8 0 29 0;
#X connect 9 0 8 1;
#X connect 14 0 15 0;
#X connect 15 0 17 0;
#X connect 17 0 16 0;
#X connect 18 0 44 0;
#X connect 19 0 45 0;
#X connect 20 0 46 0;
#X connect 21 0 35 0;
#X connect 23 0 24 0;
#X connect 24 0 25 0;
#X connect 26 0 27 0;
#X connect 27 0 5 0;
#X connect 29 0 10 0;
#X connect 30 0 8 0;
#X connect 30 1 12 0;
#X connect 32 0 8 0;
#X connect 33 0 30 0;
#X connect 34 0 31 0;
#X connect 34 1 32 0;
#X connect 38 0 37 0;
#X connect 39 0 34 0;
#X connect 39 1 40 0;
#X connect 39 2 33 0;
#X connect 42 0 43 0;
#X connect 44 0 21 0;
#X connect 45 0 21 0;
#X connect 46 0 21 0;
#X connect 47 0 50 0;
#X connect 48 0 49 0;
#X connect 50 0 48 0;
#X connect 52 0 38 0;
#X connect 53 0 42 0;
#X connect 57 0 58 0;
#X connect 57 0 59 0;
#X connect 58 0 56 0;
#X connect 59 0 60 0;
#X connect 62 0 63 0;
#X connect 62 0 64 0;
#X connect 63 0 61 0;
#X connect 64 0 65 0;
#X connect 66 0 67 0;
#X connect 66 0 68 0;
#X connect 67 0 55 0;
#X connect 68 0 69 0;
#X connect 71 0 72 0;
#X connect 72 0 73 0;
#X connect 73 0 74 0;
#X connect 77 0 78 0;
#X connect 78 0 21 0;
#X connect 80 0 84 0;
#X connect 81 0 80 1;
#X connect 82 0 81 0;
#X connect 83 0 80 0;
#X connect 84 0 79 0;
#X coords 0 -1 1 1 240 200 2 10 10;
