#N canvas 633 116 785 565 12;
#X obj 20 294 bng 19 250 50 0 \$0-reboot empty reboot 25 10 0 12 #fcfcfc #000000 #000000;
#X obj 20 361 bng 19 250 50 0 \$0-updatesamples empty updatesamples 25 10 0 12 #fcfcfc #000000 #000000;
#X obj 20 342 bng 19 250 50 0 \$0-update empty update 25 10 0 12 #fcfcfc #000000 #000000;
#X obj 20 313 bng 19 250 50 0 \$0-shutdown empty shutdown 25 10 0 12 #fcfcfc #000000 #000000;
#X obj 193 10 r osc-from-devices;
#X obj 193 123 s \$0-osc-in;
#X obj 193 182 r \$0-osc-in;
#X obj 20 237 tgl 19 1 \$0-print empty print 25 10 0 12 #fcfcfc #000000 #000000 1 1;
#X obj 267 369 list prepend;
#X obj 348 341 r \$0-print;
#X obj 267 417 print device-\$1;
#X listbox 20 212 18 0 0 0 - \$0-osc-list - 0;
#X obj 299 300 s \$0-osc-list;
#X obj 11 11 cnv 18 148 18 empty \$0-header device\ 2 45 10 0 12 #e3c6ff #404040 0;
#X obj 475 13 loadbang;
#X obj 475 37 \$1;
#X obj 477 96 s \$0-header;
#X msg 476 65 label device\\\ \$1;
#X obj 522 341 r \$0-reboot;
#X obj 477 472 s osc-to-devices;
#X obj 477 440 oscformat \$1 admin;
#X obj 517 281 r \$0-shutdown;
#X obj 497 221 r \$0-update;
#X obj 477 409 list;
#X obj 477 161 r \$0-updatesamples;
#X listbox 20 50 18 0 0 2 send\ message: - \$0-osc-out 0;
#X obj 649 425 r \$0-osc-out;
#X obj 649 448 oscformat \$1;
#X obj 649 474 s osc-to-devices;
#X obj 193 34 route rpt;
#X obj 193 93 route \$1;
#X obj 20 184 bng 19 250 50 0 empty \$0-hb hb 25 10 0 12 #fcfcfc #000000 #000000;
#X symbolatom 70 184 8 0 0 1 ver \$0-version - 0;
#X obj 267 392 route 1;
#X obj 193 210 route hb, f 11;
#X obj 267 268 t l l;
#X obj 193 340 s \$0-hb;
#X msg 225 278 hb;
#X obj 267 239 list;
#X obj 193 248 t b b;
#X msg 477 185 list updatesamples 1;
#X msg 497 245 list update 1;
#X msg 517 305 list shutdown 1;
#X msg 522 365 list reboot 1;
#X connect 4 0 29 0;
#X connect 6 0 34 0;
#X connect 8 0 33 0;
#X connect 9 0 8 1;
#X connect 14 0 15 0;
#X connect 15 0 17 0;
#X connect 17 0 16 0;
#X connect 18 0 43 0;
#X connect 20 0 19 0;
#X connect 21 0 42 0;
#X connect 22 0 41 0;
#X connect 23 0 20 0;
#X connect 24 0 40 0;
#X connect 26 0 27 0;
#X connect 27 0 28 0;
#X connect 29 0 30 0;
#X connect 30 0 5 0;
#X connect 33 0 10 0;
#X connect 34 0 39 0;
#X connect 34 1 38 0;
#X connect 35 0 8 0;
#X connect 35 1 12 0;
#X connect 37 0 8 0;
#X connect 38 0 35 0;
#X connect 39 0 36 0;
#X connect 39 1 37 0;
#X connect 40 0 23 0;
#X connect 41 0 23 0;
#X connect 42 0 23 0;
#X connect 43 0 23 0;
#X coords 0 -1 1 1 150 250 2 10 10;
