#N canvas 735 37 735 891 12;
#X obj 20 78 bng 19 250 50 0 \$0-reboot empty reboot 25 10 0 12 #fcfcfc #000000 #000000;
#X obj 33 354 bng 19 250 50 0 \$0-updatesamples empty updatesamples 25 10 0 12 #fcfcfc #000000 #000000;
#X obj 20 116 bng 19 250 50 0 \$0-update empty update 25 10 0 12 #fcfcfc #000000 #000000;
#X obj 20 97 bng 19 250 50 0 \$0-shutdown empty shutdown 25 10 0 12 #fcfcfc #000000 #000000;
#X obj 193 10 r osc-from-devices;
#X obj 193 123 s \$0-osc-in;
#X obj 193 182 r \$0-osc-in;
#X obj 20 190 tgl 19 1 \$0-print empty print 20 9 0 12 #fcfcfc #000000 #000000 0 1;
#X obj 353 369 list prepend;
#X obj 424 341 r \$0-print;
#X obj 353 417 print device-\$1;
#X listbox 20 162 18 0 0 2 status___________ \$0-osc-list - 0;
#X obj 385 300 s \$0-osc-list;
#X obj 11 11 cnv 18 148 18 empty \$0-header device\ 0 45 10 0 12 #e3c6ff #404040 0;
#X obj 545 13 loadbang;
#X obj 545 37 \$1;
#X obj 547 96 s \$0-header;
#X msg 546 65 label device\\\ \$1;
#X obj 592 341 r \$0-reboot;
#X obj 587 281 r \$0-shutdown;
#X obj 567 221 r \$0-update;
#X obj 547 409 list;
#X obj 547 161 r \$0-updatesamples;
#X listbox 20 50 18 0 0 2 message___________ - \$0-osc-out 0;
#X obj 719 425 r \$0-osc-out;
#X obj 719 448 oscformat \$1;
#X obj 719 474 s osc-to-devices;
#X obj 193 34 route rpt;
#X obj 193 93 route \$1;
#X obj 20 219 bng 19 250 50 0 empty \$0-hb hb 25 10 0 12 #e3c6ff #ffffff #000000;
#X obj 353 392 route 1;
#X obj 353 268 t l l;
#X obj 193 340 s \$0-hb;
#X msg 225 278 hb;
#X obj 353 239 list;
#X obj 193 248 t b b;
#X obj 547 445 s \$0-osc-out;
#X msg 547 185 list admin updatesamples;
#X msg 567 245 list admin update;
#X msg 587 305 list admin shutdown;
#X msg 592 365 list admin reboot;
#X obj 90 190 bng 18 250 50 0 \$0-clear-osc-list empty clear 20 9 0 12 #fcfcfc #000000 #000000;
#X obj 131 497 s \$0-osc-list;
#X obj 128 449 r \$0-clear-osc-list;
#X msg 128 473 set;
#X obj 193 210 route hb version, f 25;
#X obj 246 248 s \$0-version;
#X floatatom 80 220 5 0 0 1 ver. \$0-version - 0;
#X connect 4 0 27 0;
#X connect 6 0 45 0;
#X connect 8 0 30 0;
#X connect 9 0 8 1;
#X connect 14 0 15 0;
#X connect 15 0 17 0;
#X connect 17 0 16 0;
#X connect 18 0 40 0;
#X connect 19 0 39 0;
#X connect 20 0 38 0;
#X connect 21 0 36 0;
#X connect 22 0 37 0;
#X connect 24 0 25 0;
#X connect 25 0 26 0;
#X connect 27 0 28 0;
#X connect 28 0 5 0;
#X connect 30 0 10 0;
#X connect 31 0 8 0;
#X connect 31 1 12 0;
#X connect 33 0 8 0;
#X connect 34 0 31 0;
#X connect 35 0 32 0;
#X connect 35 1 33 0;
#X connect 37 0 21 0;
#X connect 38 0 21 0;
#X connect 39 0 21 0;
#X connect 40 0 21 0;
#X connect 43 0 44 0;
#X connect 44 0 42 0;
#X connect 45 0 35 0;
#X connect 45 1 46 0;
#X connect 45 2 34 0;
#X coords 0 -1 1 1 150 240 2 10 10;
