#N canvas 6 69 751 1021 12;
#X declare -path ./bop;
#X declare -path ./bop/babs;
#X obj 35 91 declare -path ./bop;
#X obj 34 120 declare -path ./bop/babs;
#X obj 558 185 == \$1;
#X obj 558 241 switch~;
#X obj 558 211 tgl 16 0 empty empty ENABLE 20 10 0 10 #00ff04 #000000 #000000 0 1;
#X obj 559 157 r active-voice;
#X obj 279 964 throw~ left;
#X obj 376 965 throw~ right;
#X obj 360 158 babs.gate;
#X obj 412 108 == \$1;
#X obj 413 84 r active-voice;
#X obj 414 134 tgl 19 0 empty empty empty 0 -10 0 12 #fcfcfc #000000 #000000 0 1;
#X obj 362 20 r key;
#X obj 360 190 tgl 19 0 empty empty empty 0 -10 0 12 #fcfcfc #000000 #000000 0 1;
#X obj 362 51 route KEY_W;
#X obj 402 333 babs.counter;
#X floatatom 402 357 5 0 0 0 - - - 0;
#X msg 474 290 0;
#X obj 397 444 t f f;
#X obj 362 488 float;
#X msg 364 521 \$1 0;
#X obj 361 226 sel 0 1;
#X msg 413 520 \$1 127;
#X msg 292 522 stop;
#X obj 399 406 % 92;
#X obj 475 245 sel 1;
#X obj 460 375 loadbang;
#X obj 457 409 float \$2;
#X obj 358 661 pack 0 0 0;
#X obj 357 618 poly 3 1;
#X obj 350 552 unpack;
#X listbox 358 685 20 0 0 0 - - - 0;
#X obj 344 739 route 1 2 3;
#X obj 213 847 polystreamer \$1;
#X obj 351 849 polystreamer \$1;
#X obj 487 850 polystreamer \$1;
#X connect 2 0 4 0;
#X connect 4 0 3 0;
#X connect 4 0 25 0;
#X connect 5 0 2 0;
#X connect 8 0 13 0;
#X connect 9 0 11 0;
#X connect 10 0 9 0;
#X connect 11 0 8 1;
#X connect 12 0 14 0;
#X connect 13 0 21 0;
#X connect 14 0 8 0;
#X connect 15 0 16 0;
#X connect 16 0 24 0;
#X connect 17 0 15 1;
#X connect 18 0 19 1;
#X connect 18 1 22 0;
#X connect 19 0 20 0;
#X connect 20 0 30 0;
#X connect 21 0 19 0;
#X connect 21 1 15 0;
#X connect 22 0 30 0;
#X connect 24 0 18 0;
#X connect 25 0 17 0;
#X connect 26 0 27 0;
#X connect 27 0 24 1;
#X connect 28 0 31 0;
#X connect 29 0 28 0;
#X connect 29 1 28 1;
#X connect 29 2 28 2;
#X connect 30 0 29 0;
#X connect 30 1 29 1;
#X connect 31 0 32 0;
#X connect 32 0 33 0;
#X connect 32 1 34 0;
#X connect 32 2 35 0;
#X connect 33 0 6 0;
#X connect 33 0 7 0;
#X connect 34 0 6 0;
#X connect 34 0 7 0;
#X connect 35 0 6 0;
#X connect 35 0 7 0;
