#N canvas 460 73 819 838 10;
#X declare -path ./bop;
#X declare -path ./bop/babs;
#X floatatom 141 480 5 0 0 0 - - - 0;
#X floatatom 41 480 5 0 0 0 - - - 0;
#X text 181 480 baseline;
#X text 81 480 input;
#X obj 37 563 abs;
#X obj 40 186 -;
#X obj 40 221 abs;
#X obj 41 360 float, f 11;
#X obj 41 95 t f f b f, f 11;
#X obj 59 149 float;
#X obj 41 290 sel 1 0;
#X obj 61 320 bng 15 250 50 0 empty empty SPIKE! 17 7 0 10 #fcfcfc #000000 #000000;
#X text 160 218 filter spikes;
#X text 256 482 auto-calibrate;
#X floatatom 71 240 5 0 0 2 spike-thresh - - 0;
#X obj 42 23 inlet;
#X obj 31 976 outlet;
#X obj 41 510 /;
#X obj 41 260 < 5;
#X obj 219 100 declare -path ./bop;
#N canvas 92 129 450 300 mavg3 0;
#X obj 146 57 inlet;
#X obj 143 270 outlet;
#X obj 133 115 f;
#X obj 154 144 f;
#X obj 197 167 f;
#X obj 175 90 t f b b;
#X obj 169 185 +;
#X obj 143 204 +;
#X obj 144 227 / 3;
#X connect 0 0 5 0;
#X connect 2 0 3 1;
#X connect 2 0 7 0;
#X connect 3 0 4 1;
#X connect 3 0 6 0;
#X connect 4 0 6 1;
#X connect 5 0 2 0;
#X connect 5 1 3 0;
#X connect 5 2 4 0;
#X connect 6 0 7 1;
#X connect 7 0 8 0;
#X connect 8 0 1 0;
#X restore 39 593 pd mavg3;
#X obj 31 951 clip 0 1;
#X obj 219 135 declare -path ./bop/babs;
#X obj 243 346 t b b, f 12;
#X obj 241 372 del 100;
#X obj 243 320 bng 15 250 50 0 empty empty empty 17 7 0 10 #fcfcfc #000000 #000000;
#X msg 278 405 1;
#X msg 237 405 2000;
#N canvas 121 158 450 300 slide 0;
#X obj 38 226 expr $f2+(($f1-$f2)/$f3);
#X obj 108 196 t f;
#X obj 38 56 t f f;
#X obj 67 87 >;
#X obj 97 119 sel 1 0;
#X obj 38 13 inlet;
#X obj 170 14 inlet slideup;
#X obj 289 16 inlet slidedown;
#X obj 38 268 outlet;
#X obj 161 170 f \$1;
#X obj 195 170 f \$2;
#X text 349 263 .mmb;
#X connect 0 0 1 0;
#X connect 0 0 3 1;
#X connect 0 0 8 0;
#X connect 1 0 0 1;
#X connect 2 0 0 0;
#X connect 2 1 3 0;
#X connect 3 0 4 0;
#X connect 4 0 9 0;
#X connect 4 1 10 0;
#X connect 5 0 2 0;
#X connect 6 0 9 1;
#X connect 7 0 10 1;
#X connect 9 0 0 2;
#X connect 10 0 0 2;
#X restore 145 443 pd slide;
#X obj 167 356 loadbang;
#X msg 170 415 10;
#X obj 39 627 expr 1 - $f1;
#X obj 31 872 pow 2;
#X floatatom 223 699 5 0 0 0 - - - 0;
#X obj 39 682 expr if( $f1 < $f2 \, 0 \, $f1);
#X floatatom 68 819 5 0 0 0 - - - 0;
#X floatatom 90 951 5 0 0 0 - - - 0;
#X obj 31 839 + 0;
#X obj 29 910 - 0, f 10;
#X obj 84 868 pow 2;
#N canvas 92 129 450 300 mavg3 0;
#X obj 146 57 inlet;
#X obj 143 270 outlet;
#X obj 133 115 f;
#X obj 154 144 f;
#X obj 197 167 f;
#X obj 175 90 t f b b;
#X obj 169 185 +;
#X obj 143 204 +;
#X obj 144 227 / 3;
#X connect 0 0 5 0;
#X connect 2 0 3 1;
#X connect 2 0 7 0;
#X connect 3 0 4 1;
#X connect 3 0 6 0;
#X connect 4 0 6 1;
#X connect 5 0 2 0;
#X connect 5 1 3 0;
#X connect 5 2 4 0;
#X connect 6 0 7 1;
#X connect 7 0 8 0;
#X connect 8 0 1 0;
#X restore 55 432 pd mavg3;
#X text 239 55 scaling for MPR121;
#X obj 44 57 babs.scale 55 150 15 30;
#X obj 27 739 babs.scale 0 1 0 1;
#X obj 227 253 cnv 16 106 64 empty empty empty 20 12 0 10 #c6feff #404040 0;
#X obj 239 287 r calibrate;
#X obj 211 614 cnv 16 106 64 empty empty empty 20 12 0 10 #c6feff #404040 0;
#X obj 138 770 cnv 16 106 64 empty empty empty 20 12 0 10 #c6feff #404040 0;
#X obj 228 641 r floor;
#X obj 140 794 r sensitivity;
#X connect 0 0 17 1;
#X connect 1 0 17 0;
#X connect 4 0 20 0;
#X connect 5 0 6 0;
#X connect 6 0 18 0;
#X connect 7 0 40 0;
#X connect 7 0 28 0;
#X connect 8 0 9 1;
#X connect 8 1 5 0;
#X connect 8 2 9 0;
#X connect 8 3 7 1;
#X connect 9 0 5 1;
#X connect 10 0 7 0;
#X connect 10 1 11 0;
#X connect 14 0 18 1;
#X connect 15 0 42 0;
#X connect 17 0 4 0;
#X connect 18 0 10 0;
#X connect 20 0 31 0;
#X connect 21 0 16 0;
#X connect 23 0 24 0;
#X connect 23 1 26 0;
#X connect 24 0 27 0;
#X connect 25 0 23 0;
#X connect 26 0 28 2;
#X connect 27 0 28 2;
#X connect 28 0 0 0;
#X connect 29 0 30 0;
#X connect 30 0 28 1;
#X connect 31 0 34 0;
#X connect 32 0 38 0;
#X connect 33 0 34 1;
#X connect 33 0 43 1;
#X connect 34 0 43 0;
#X connect 35 0 37 1;
#X connect 35 0 39 0;
#X connect 37 0 32 0;
#X connect 38 0 36 0;
#X connect 38 0 21 0;
#X connect 39 0 38 1;
#X connect 40 0 1 0;
#X connect 42 0 8 0;
#X connect 43 0 37 0;
#X connect 45 0 25 0;
#X connect 48 0 33 0;
#X connect 49 0 35 0;
