#N canvas 52 180 1604 754 12;
#X declare -path ./bop/babs;
#X obj 396 340 oscformat -f ii ffi;
#X obj 408 171 int;
#X obj 408 195 change;
#X obj 110 166 hsl 162 19 0 3 0 0 \$0-ffi-ctl \$0-ffi-gui ffi:2 10 10 0 12 #fcfcfc #000000 #000000 0 1;
#X obj 835 405 oscformat -f ii cdc;
#X obj 830 188 int;
#X obj 830 212 change;
#X obj 1058 176 int;
#X obj 1058 200 change;
#X obj 1063 393 oscformat -f ii cdt;
#X obj 636 162 int;
#X obj 636 191 change;
#X obj 1289 184 int;
#X obj 1289 213 change;
#X obj 634 428 oscformat -f ii sfi;
#X obj 1290 405 oscformat -f ii esi;
#X obj 217 40 declare -path ./bop/babs;
#X obj 405 105 r \$0-ffi-ctl;
#X obj 488 255 s \$0-ffi-gui;
#X msg 487 224 label ffi:\$1;
#X obj 110 194 hsl 162 19 0 3 0 0 \$0-sfi-ctl \$0-sfi-gui sfi:0 10 10 0 12 #fcfcfc #000000 #000000 0 1;
#X obj 636 102 r \$0-sfi-ctl;
#X obj 684 256 s \$0-sfi-gui;
#X obj 111 221 hsl 162 19 1 63 0 0 \$0-cdc-ctl \$0-cdc-gui cdc:18 10 10 0 12 #fcfcfc #000000 #000000 0 1;
#X obj 831 120 r \$0-cdc-ctl;
#X msg 889 238 label cdc:\$1;
#X obj 890 269 s \$0-cdc-gui;
#X obj 1057 108 r \$0-cdt-ctl;
#X msg 1126 227 label cdt:\$1;
#X obj 1127 258 s \$0-cdt-gui;
#X obj 110 247 hsl 162 19 1 7 0 0 \$0-cdt-ctl \$0-cdt-gui cdt:2 10 10 0 12 #fcfcfc #000000 #000000 0 1;
#X msg 683 225 label sfi:\$1;
#X obj 1286 126 r \$0-esi-ctl;
#X msg 1357 241 label esi:\$1;
#X obj 1358 272 s \$0-esi-gui;
#X obj 110 273 hsl 162 19 0 7 0 0 \$0-esi-ctl \$0-esi-gui esi:2 10 10 0 12 #fcfcfc #000000 #000000 0 1;
#X text 778 604 // Some healthy defaults mpr_one_params.FFI = 3 \; mpr_one_params.CDC = 18 \; mpr_one_params.CDT = 4 \; mpr_one_params.SFI = 0 \; mpr_one_params.ESI = 2 \;;
#X obj 107 133 bng 19 250 50 0 \$0-defaults empty defaults 20 7 0 12 #fcfcfc #000000 #000000;
#X msg 78 556 3;
#X obj 80 637 s \$0-ffi-gui;
#X msg 195 563 0;
#X msg 305 561 18;
#X msg 408 560 4;
#X msg 537 576 2;
#X obj 223 472 r \$0-defaults;
#X obj 193 636 s \$0-sfi-gui;
#X obj 306 641 s \$0-cdc-gui;
#X obj 413 643 s \$0-cdt-gui;
#X obj 529 644 s \$0-esi-gui;
#X obj 401 296 pack \$1 0;
#X obj 405 256 t b f;
#X obj 638 344 pack \$1 0;
#X obj 642 304 t b f;
#X obj 822 337 pack \$1 0;
#X obj 826 297 t b f;
#X obj 1061 331 pack \$1 0;
#X obj 1065 289 t b f;
#X obj 1296 337 pack \$1 0;
#X obj 1300 297 t b f;
#X obj 398 375 s osc-in;
#X obj 630 456 s osc-in;
#X obj 837 440 s osc-in;
#X obj 1065 428 s osc-in;
#X obj 1286 433 s osc-in;
#X connect 0 0 59 0;
#X connect 1 0 2 0;
#X connect 2 0 19 0;
#X connect 2 0 50 0;
#X connect 4 0 61 0;
#X connect 5 0 6 0;
#X connect 6 0 25 0;
#X connect 6 0 54 0;
#X connect 7 0 8 0;
#X connect 8 0 28 0;
#X connect 8 0 56 0;
#X connect 9 0 62 0;
#X connect 10 0 11 0;
#X connect 11 0 31 0;
#X connect 11 0 52 0;
#X connect 12 0 13 0;
#X connect 13 0 33 0;
#X connect 13 0 58 0;
#X connect 14 0 60 0;
#X connect 15 0 63 0;
#X connect 17 0 1 0;
#X connect 19 0 18 0;
#X connect 21 0 10 0;
#X connect 24 0 5 0;
#X connect 25 0 26 0;
#X connect 27 0 7 0;
#X connect 28 0 29 0;
#X connect 31 0 22 0;
#X connect 32 0 12 0;
#X connect 33 0 34 0;
#X connect 38 0 39 0;
#X connect 40 0 45 0;
#X connect 41 0 46 0;
#X connect 42 0 47 0;
#X connect 43 0 48 0;
#X connect 44 0 38 0;
#X connect 44 0 43 0;
#X connect 44 0 42 0;
#X connect 44 0 41 0;
#X connect 44 0 40 0;
#X connect 49 0 0 0;
#X connect 50 0 49 0;
#X connect 50 1 49 1;
#X connect 51 0 14 0;
#X connect 52 0 51 0;
#X connect 52 1 51 1;
#X connect 53 0 4 0;
#X connect 54 0 53 0;
#X connect 54 1 53 1;
#X connect 55 0 9 0;
#X connect 56 0 55 0;
#X connect 56 1 55 1;
#X connect 57 0 15 0;
#X connect 58 0 57 0;
#X connect 58 1 57 1;
#X coords 0 -1 1 1 180 200 1 100 100;
