#N canvas 734 246 1060 752 12;
#X declare -path ./bop/babs;
#X obj 712 135 r sensorsOne;
#X obj 831 136 r sensorsTwo;
#X obj 712 169 list prepend 1;
#X obj 831 167 list prepend 2;
#X obj 712 208 route \$1;
#X obj 102 104 vsl 19 40 0 1 0 0 \$0-from-slider0 \$0-to-slider0 empty 0 -9 0 12 #fcfcfc #000000 #000000 0 1;
#X obj 709 337 babs.listfunnel;
#X obj 716 84 declare -path ./bop/babs;
#X obj 712 469 s, f 8;
#X obj 760 393 list prepend \$0;
#X obj 708 367 t l l;
#X msg 712 422 \$2;
#X msg 762 423 symbol \$1-to-slider\$2;
#X msg 829 205 0.5 0.4 0.3 0.2 0.1 0.6;
#X obj 223 107 vradio 19 1 1 2 \$0-do-send \$0-do-send empty 0 -10 0 12 #fcfcfc #000000 #000000 0;
#X obj 80 546 r \$0-do-send;
#X obj 12 260 r \$0-from-slider0;
#X obj 68 286 r \$0-from-slider1;
#X obj 94 311 r \$0-from-slider2;
#X obj 185 340 r \$0-from-slider3;
#X obj 230 371 r \$0-from-slider4;
#X obj 302 395 r \$0-from-slider5;
#X obj 45 476 pack 0 0 0 0 0 0 0 0 0 0 0 0, f 70;
#X obj 68 415 t b f;
#X obj 116 413 t b f;
#X obj 177 412 t b f;
#X obj 229 414 t b f;
#X obj 284 420 t b f;
#X obj 578 118 loadbang;
#X obj 578 170 s \$0-do-send;
#X msg 578 144 0;
#X obj 46 512 list prepend 1;
#X obj 46 579 route;
#X text 692 44 args: \$1 sensorOne/SensorTwo;
#X obj 121 104 vsl 19 40 0 1 0 0 \$0-from-slider1 \$0-to-slider1 empty 0 -9 0 12 #fcfcfc #000000 #000000 0 1;
#X obj 140 104 vsl 19 40 0 1 0 0 \$0-from-slider2 \$0-to-slider2 empty 0 -9 0 12 #fcfcfc #000000 #000000 0 1;
#X obj 159 104 vsl 19 40 0 1 0 0 \$0-from-slider3 \$0-to-slider3 empty 0 -9 0 12 #fcfcfc #000000 #000000 0 1;
#X obj 178 104 vsl 19 40 0 1 0 0 \$0-from-slider4 \$0-to-slider4 empty 0 -9 0 12 #fcfcfc #000000 #000000 0 1;
#X obj 197 104 vsl 19 40 0 1 0 0 \$0-from-slider5 \$0-to-slider5 empty 0 -9 0 12 #fcfcfc #000000 #000000 0 1;
#X text 246 107 rcv;
#X text 246 126 snd;
#X obj 47 699 s sensorsOne;
#X obj 747 262 r \$0-do-send;
#X obj 715 296 route;
#X obj 713 240 list prepend 0;
#X obj 46 612 list prepend \$1;
#X obj 46 636 route 1 2;
#X obj 76 671 s sensorsTwo;
#X msg 844 233 0 0 0 0 0 0;
#X connect 0 0 2 0;
#X connect 1 0 3 0;
#X connect 2 0 4 0;
#X connect 3 0 4 0;
#X connect 4 0 44 0;
#X connect 6 0 10 0;
#X connect 9 0 12 0;
#X connect 10 0 11 0;
#X connect 10 1 9 0;
#X connect 11 0 8 0;
#X connect 12 0 8 1;
#X connect 13 0 44 0;
#X connect 15 0 32 1;
#X connect 16 0 22 0;
#X connect 17 0 23 0;
#X connect 18 0 24 0;
#X connect 19 0 25 0;
#X connect 20 0 26 0;
#X connect 21 0 27 0;
#X connect 22 0 31 0;
#X connect 23 0 22 0;
#X connect 23 1 22 1;
#X connect 24 0 22 0;
#X connect 24 1 22 2;
#X connect 25 0 22 0;
#X connect 25 1 22 3;
#X connect 26 0 22 0;
#X connect 26 1 22 4;
#X connect 27 0 22 0;
#X connect 27 1 22 5;
#X connect 28 0 30 0;
#X connect 30 0 29 0;
#X connect 31 0 32 0;
#X connect 32 0 45 0;
#X connect 42 0 43 1;
#X connect 43 0 6 0;
#X connect 44 0 43 0;
#X connect 45 0 46 0;
#X connect 46 0 41 0;
#X connect 46 1 47 0;
#X connect 48 0 44 0;
#X coords 0 -1 1 1 175 49 1 100 100;
