#N canvas 112 127 1475 895 12;
#N canvas 606 294 416 120 variables 0;
#X obj 21 22 r RANDOM;
#X obj 21 51 print RANDOM;
#X obj 129 22 r ID;
#X obj 129 51 print ID;
#X obj 212 53 print POS;
#X obj 212 20 r POS1;
#X obj 303 52 print POS;
#X obj 303 19 r POS2;
#X connect 0 0 1 0;
#X connect 2 0 3 0;
#X connect 5 0 4 0;
#X connect 7 0 6 0;
#X restore 699 53 pd variables;
#N canvas 899 156 450 300 ID 0;
#X obj 145 50 r ID;
#X msg 145 74 set \$1;
#X obj 145 130 s ID;
#X floatatom 145 105 5 0 0 1 - - - 0;
#X connect 0 0 1 0;
#X connect 1 0 3 0;
#X connect 3 0 2 0;
#X coords 0 -1 1 1 88 30 1 100 100;
#X restore 801 15 pd ID;
#N canvas 1020 252 228 309 heartbeat 0;
#X obj 21 13 loadbang;
#X msg 21 67 1;
#X obj 21 208 s osc-out;
#X obj 21 94 metro 10000;
#X msg 21 147 hb;
#X obj 21 119 t b b;
#X obj 53 146 value version;
#X msg 53 170 version \$1;
#X obj 21 41 delay 1000;
#X connect 0 0 8 0;
#X connect 1 0 3 0;
#X connect 3 0 5 0;
#X connect 4 0 2 0;
#X connect 5 0 4 0;
#X connect 5 1 6 0;
#X connect 6 0 7 0;
#X connect 7 0 2 0;
#X connect 8 0 1 0;
#X restore 699 15 pd heartbeat;
#N canvas 105 602 450 300 aloha 0;
#X obj 153 105 s osc-out;
#X text 211 72 announce;
#X msg 153 74 aloha 1;
#X obj 41 45 r osc-in;
#X obj 41 140 bng 19 250 50 0 empty empty empty 0 -10 0 12 #fcfcfc #000000 #000000;
#X obj 41 80 route aloha;
#X obj 41 166 s aloha;
#X obj 153 44 r aloha;
#X obj 41 110 delay 1000;
#X connect 2 0 0 0;
#X connect 3 0 5 0;
#X connect 4 0 6 0;
#X connect 5 0 8 0;
#X connect 7 0 2 0;
#X connect 8 0 4 0;
#X restore 699 34 pd aloha;
#X f 12;
#X obj 837 140 netreceive -u -b 6660;
#X obj 837 172 oscparse;
#X obj 837 196 list trim;
#X obj 1114 328 netsend -u -b;
#X obj 1134 276 loadbang;
#X msg 1134 302 connect 255.255.255.255 5550;
#X obj 1209 137 r ID;
#X obj 837 244 route all;
#X obj 1114 166 list prepend 0;
#X obj 1114 190 list trim;
#X obj 1114 216 oscformat rpt;
#X obj 19 126 oscparse;
#X obj 19 150 list trim;
#X obj 51 270 s ID;
#X obj 19 102 netreceive -u -b 6661;
#X text 1113 106 report (broadcast to 5550);
#X text 837 107 command (listen on 6660);
#N canvas 63 100 195 328 route-by-id 0;
#X obj 37 37 inlet;
#X obj 37 259 outlet;
#X obj 69 195 r ID;
#X obj 37 67 list split 1, f 15;
#X obj 37 153 list append;
#X obj 37 224 route;
#X msg 37 99 symbol \$1;
#X obj 37 123 f;
#X connect 0 0 3 0;
#X connect 2 0 5 1;
#X connect 3 0 6 0;
#X connect 3 1 4 1;
#X connect 4 0 5 0;
#X connect 5 0 1 0;
#X connect 6 0 7 0;
#X connect 7 0 4 0;
#X restore 897 276 pd route-by-id;
#X obj 19 243 t b f;
#X obj 184 329 s osc-out;
#X obj 184 244 list prepend admin;
#X obj 184 278 list trim;
#X obj 19 334 s aloha;
#X obj 19 306 delay 1000;
#X obj 837 318 s osc-in, f 9;
#X obj 1114 138 r osc-out;
#X text 78 332 announce;
#X text 189 210 report all other messages, f 14;
#X text 21 69 admin from helper.py (listen on 6661);
#X obj 19 174 route id pos1 pos2, f 24;
#X obj 74 240 s POS1;
#X obj 129 240 s POS2;
#X text 20 8 ----------- OSC INPUT/OUTPUT -----------------------------------------------------------------, f 94;
#X obj 16 472 r osc-in;
#X obj 17 811 netsend -u -b;
#X obj 360 747 loadbang;
#X msg 360 773 connect 127.0.0.1 7770;
#X obj 16 508 route admin;
#X text 12 436 admin to helper.py (unicast to 7770);
#X msg 1224 327 connect localhost 5550;
#X obj 932 382 print osc-in;
#X obj 932 348 r osc-in, f 9;
#X obj 18 684 oscformat reboot;
#X msg 18 628 1;
#X obj 194 684 oscformat shutdown;
#X obj 384 684 oscformat update;
#X msg 544 597 1;
#X obj 544 684 oscformat updatesamples;
#X obj 18 531 route reboot shutdown update updatesamples, f 84;
#X obj 5 355 s start;
#X text 78 356 start msg for feedback;
#X obj 94 601 s reboot;
#X obj 262 607 s shutdown;
#X obj 394 650 s update;
#X obj 19 565 t b b;
#X obj 19 600 delay 500;
#X msg 185 636 1;
#X obj 186 573 t b b;
#X obj 186 608 delay 500;
#X msg 357 633 1;
#X obj 358 570 t b b;
#X obj 358 605 delay 500;
#X obj 407 165 oscparse;
#X obj 407 189 list trim;
#X obj 407 141 netreceive -u -b 6662;
#X obj 406 225 route keyboard;
#X obj 406 249 route key status;
#X obj 405 302 s key;
#X obj 460 280 print keyboard;
#X text 404 107 keystrokes from keyboardlistener.py (listen on 6662);
#X connect 4 0 5 0;
#X connect 5 0 6 0;
#X connect 6 0 11 0;
#X connect 8 0 9 0;
#X connect 9 0 7 0;
#X connect 10 0 12 1;
#X connect 11 0 28 0;
#X connect 11 1 21 0;
#X connect 12 0 13 0;
#X connect 13 0 14 0;
#X connect 14 0 7 0;
#X connect 15 0 16 0;
#X connect 16 0 33 0;
#X connect 18 0 15 0;
#X connect 21 0 28 0;
#X connect 22 0 27 0;
#X connect 22 1 17 0;
#X connect 24 0 25 0;
#X connect 25 0 23 0;
#X connect 27 0 26 0;
#X connect 27 0 53 0;
#X connect 29 0 12 0;
#X connect 33 0 22 0;
#X connect 33 1 34 0;
#X connect 33 2 35 0;
#X connect 33 3 24 0;
#X connect 37 0 41 0;
#X connect 39 0 40 0;
#X connect 40 0 38 0;
#X connect 41 0 52 0;
#X connect 43 0 7 0;
#X connect 45 0 44 0;
#X connect 46 0 38 0;
#X connect 47 0 46 0;
#X connect 48 0 38 0;
#X connect 49 0 38 0;
#X connect 50 0 51 0;
#X connect 51 0 38 0;
#X connect 52 0 58 0;
#X connect 52 1 61 0;
#X connect 52 2 64 0;
#X connect 52 3 50 0;
#X connect 58 0 59 0;
#X connect 58 1 55 0;
#X connect 59 0 47 0;
#X connect 60 0 48 0;
#X connect 61 0 62 0;
#X connect 61 1 56 0;
#X connect 62 0 60 0;
#X connect 63 0 49 0;
#X connect 64 0 65 0;
#X connect 64 1 57 0;
#X connect 65 0 63 0;
#X connect 66 0 67 0;
#X connect 67 0 69 0;
#X connect 68 0 66 0;
#X connect 69 0 70 0;
#X connect 70 0 71 0;
#X connect 70 1 72 0;
