#N canvas 708 273 861 728 12;
#X declare -path ./bop;
#X declare -path ./bop/babs;
#X obj -71 139 loadbang;
#X obj -74 173 float \$1;
#X obj 142 471 bop.stream~;
#A saved pack ../../duet_samplepack;
#A saved folder 0;
#A saved gain 1;
#X msg -75 224 pack ../../duet_samplepack \, folder \$1, f 32;
#X obj 353 337 babs.adsr~;
#X msg 368 269 0.01;
#X msg 415 273 0;
#X msg 464 273 1;
#X msg 504 267 5;
#X obj 462 213 bng 19 250 50 0 empty empty empty 0 -10 0 12 #fcfcfc #000000 #000000;
#X obj 322 261 tgl 19 0 empty empty empty 0 -10 0 12 #fcfcfc #000000 #000000 0 1;
#X obj 241 103 t l l;
#X obj 353 157 expr $f2 / 127;
#X obj 262 582 *~;
#X obj 477 170 loadbang;
#X obj 233 220 stripnote;
#X obj 233 244 pack;
#X obj -59 19 declare -path ./bop;
#X obj -57 54 declare -path ./bop/babs;
#X obj 249 27 inlet;
#X obj 262 637 outlet~;
#X connect 0 0 1 0;
#X connect 1 0 3 0;
#X connect 2 0 13 0;
#X connect 3 0 2 0;
#X connect 4 0 13 1;
#X connect 5 0 4 1;
#X connect 6 0 4 2;
#X connect 7 0 4 3;
#X connect 8 0 4 4;
#X connect 9 0 5 0;
#X connect 9 0 8 0;
#X connect 9 0 7 0;
#X connect 9 0 6 0;
#X connect 10 0 4 0;
#X connect 11 0 15 0;
#X connect 11 1 12 0;
#X connect 12 0 10 0;
#X connect 13 0 20 0;
#X connect 14 0 9 0;
#X connect 15 0 16 0;
#X connect 15 1 16 1;
#X connect 16 0 2 1;
#X connect 19 0 11 0;
