#N canvas 187 85 1000 708 12;
#X declare -path ./bop/babs;
#X obj 75 18 loadbang;
#X obj 75 153 oscparse;
#X obj 75 180 route list;
#X msg 129 72 close;
#X obj 75 99 comport 1 115200;
#X msg 75 72 open \$1;
#X obj 74 218 list split 1;
#X obj 90 246 list trim;
#X msg 181 72 devices;
#X obj 326 50 declare -path ./bop/babs;
#X obj 75 126 babs.slipdecode;
#X msg 75 45 0;
#X msg 110 45 1;
#X obj 76 376 unpack 0 0 0;
#X obj 63 539 s button1;
#X obj 116 492 s button2;
#X obj 150 438 s button3;
#X obj 287 333 unpack 0 0 0 0;
#X obj 288 590 s pot1;
#X obj 318 525 s pot2;
#X msg 146 44 2;
#X obj 287 560 expr 1 - ($f1 / 4095);
#X obj 321 497 expr 1 - ($f1 / 4095);
#X obj 353 435 expr 1 - ($f1 / 4095);
#X obj 397 372 expr 1 - ($f1 / 4095);
#X obj 354 465 s pot3;
#X obj 394 400 s pot4;
#X obj 62 504 change;
#X obj 112 466 change;
#X obj 146 407 change;
#X obj 640 513 clone filter-and-scale 16;
#X obj 640 484 babs.listfunnel;
#X obj 75 284 route buttons pots, f 67;
#X obj 640 289 route touchesOne touchesTwo;
#X obj 733 355 clone filter-and-scale 16;
#X obj 733 326 babs.listfunnel;
#X obj 640 600 s sensorsOne;
#X obj 640 542 route 0 1 2 3 4 5 6 7 8 9 10 11;
#X obj 640 571 pack 0 0 0 0 0 0 0 0 0 0 0 0, f 31;
#X obj 733 384 route 0 1 2 3 4 5 6 7 8 9 10 11;
#X obj 733 413 pack 0 0 0 0 0 0 0 0 0 0 0 0, f 31;
#X obj 733 442 s sensorsTwo;
#X connect 0 0 11 0;
#X connect 1 0 2 0;
#X connect 2 0 6 0;
#X connect 3 0 4 0;
#X connect 4 0 10 0;
#X connect 5 0 4 0;
#X connect 6 1 7 0;
#X connect 7 0 32 0;
#X connect 8 0 4 0;
#X connect 10 0 1 0;
#X connect 11 0 5 0;
#X connect 12 0 5 0;
#X connect 13 0 27 0;
#X connect 13 1 28 0;
#X connect 13 2 29 0;
#X connect 17 0 21 0;
#X connect 17 1 22 0;
#X connect 17 2 23 0;
#X connect 17 3 24 0;
#X connect 20 0 5 0;
#X connect 21 0 18 0;
#X connect 22 0 19 0;
#X connect 23 0 25 0;
#X connect 24 0 26 0;
#X connect 27 0 14 0;
#X connect 28 0 15 0;
#X connect 29 0 16 0;
#X connect 30 0 37 0;
#X connect 31 0 30 0;
#X connect 32 0 13 0;
#X connect 32 1 17 0;
#X connect 32 2 33 0;
#X connect 33 0 31 0;
#X connect 33 1 35 0;
#X connect 34 0 39 0;
#X connect 35 0 34 0;
#X connect 37 0 38 0;
#X connect 37 1 38 1;
#X connect 37 2 38 2;
#X connect 37 3 38 3;
#X connect 37 4 38 4;
#X connect 37 5 38 5;
#X connect 37 6 38 6;
#X connect 37 7 38 7;
#X connect 37 8 38 8;
#X connect 37 9 38 9;
#X connect 37 10 38 10;
#X connect 37 11 38 11;
#X connect 38 0 36 0;
#X connect 39 0 40 0;
#X connect 39 1 40 1;
#X connect 39 2 40 2;
#X connect 39 3 40 3;
#X connect 39 4 40 4;
#X connect 39 5 40 5;
#X connect 39 6 40 6;
#X connect 39 7 40 7;
#X connect 39 8 40 8;
#X connect 39 9 40 9;
#X connect 39 10 40 10;
#X connect 39 11 40 11;
#X connect 40 0 41 0;
