#N canvas 907 95 531 569 12;
#X declare -path ./bop/babs;
#X obj 75 18 loadbang;
#X msg 75 45 1;
#X text 140 532 pin 4/A5;
#X text 176 452 pin 15/A8;
#X obj 75 153 oscparse;
#X obj 75 180 route list;
#X obj 75 284 route touches;
#X msg 129 72 close;
#X obj 75 99 comport 1 115200;
#X msg 75 72 open \$1;
#X obj 75 311 t b l;
#X obj 75 338 unpack 0 0 0 0 0 0 0 0, f 32;
#X msg 109 48 5;
#X obj 74 218 list split 1;
#X obj 90 246 list trim;
#X obj 75 126 babs/babs.slipdecode;
#X msg 181 72 devices;
#X obj 97 453 s sensor1;
#X obj 70 529 s sensor2;
#X obj 326 50 declare -path ./bop/babs;
#X obj 198 370 r sensitivity;
#X obj 99 421 filter-and-scale 2;
#X obj 76 497 filter-and-scale 2;
#X obj 247 393 r floor;
#X connect 0 0 1 0;
#X connect 1 0 9 0;
#X connect 4 0 5 0;
#X connect 5 0 13 0;
#X connect 6 0 10 0;
#X connect 7 0 8 0;
#X connect 8 0 15 0;
#X connect 9 0 8 0;
#X connect 10 1 11 0;
#X connect 11 0 22 0;
#X connect 11 1 21 0;
#X connect 12 0 9 0;
#X connect 13 1 14 0;
#X connect 14 0 6 0;
#X connect 15 0 4 0;
#X connect 16 0 8 0;
#X connect 20 0 21 1;
#X connect 20 0 22 1;
#X connect 21 0 17 0;
#X connect 22 0 18 0;
#X connect 23 0 21 2;
#X connect 23 0 22 2;
