#N canvas 811 143 531 569 12;
#X declare -path ./bop/babs;
#X obj 75 18 loadbang;
#X text 140 532 pin 4/A5;
#X text 176 452 pin 15/A8;
#X obj 75 153 oscparse;
#X obj 75 180 route list;
#X msg 129 72 close;
#X obj 75 99 comport 1 115200;
#X msg 75 72 open \$1;
#X obj 75 338 unpack 0 0 0 0 0 0 0 0, f 32;
#X obj 74 218 list split 1;
#X obj 75 258 list trim;
#X msg 181 72 devices;
#X obj 97 453 s sensor1;
#X obj 70 529 s sensor2;
#X obj 326 50 declare -path ./bop/babs;
#X obj 198 370 r sensitivity;
#X obj 99 421 filter-and-scale 2;
#X obj 76 497 filter-and-scale 2;
#X obj 247 393 r floor;
#X obj 75 126 babs.slipdecode;
#X msg 75 45 0;
#X msg 140 43 1;
#X listbox 315 339 20 0 0 0 - - - 0;
#X obj 75 284 route touches buttons pots;
#X listbox 349 304 20 0 0 0 - - - 0;
#X obj 341 377 unpack 0 0 0;
#X obj 327 472 s button1;
#X obj 376 439 s button2;
#X obj 414 413 s button3;
#X listbox 329 262 20 0 0 0 - - - 0;
#X connect 0 0 20 0;
#X connect 3 0 4 0;
#X connect 4 0 9 0;
#X connect 5 0 6 0;
#X connect 6 0 19 0;
#X connect 7 0 6 0;
#X connect 8 0 17 0;
#X connect 8 1 16 0;
#X connect 9 1 10 0;
#X connect 10 0 23 0;
#X connect 11 0 6 0;
#X connect 15 0 16 1;
#X connect 15 0 17 1;
#X connect 16 0 12 0;
#X connect 17 0 13 0;
#X connect 18 0 16 2;
#X connect 18 0 17 2;
#X connect 19 0 3 0;
#X connect 20 0 7 0;
#X connect 21 0 7 0;
#X connect 23 0 29 0;
#X connect 23 0 8 0;
#X connect 23 1 22 0;
#X connect 23 1 25 0;
#X connect 23 2 24 0;
#X connect 25 0 26 0;
#X connect 25 1 27 0;
#X connect 25 2 28 0;
