#N canvas 51 270 961 746 12;
#X declare -path ./bop/babs;
#X obj 75 18 loadbang;
#X obj 75 153 oscparse;
#X obj 75 180 route list;
#X msg 129 72 close;
#X obj 75 99 comport 1 115200, f 19;
#X msg 75 72 open \$1;
#X obj 74 218 list split 1;
#X obj 90 246 list trim;
#X msg 181 72 devices;
#X obj 326 50 declare -path ./bop/babs;
#X obj 75 126 babs.slipdecode;
#X msg 75 45 0;
#X msg 110 45 1;
#X obj 57 392 unpack 0 0 0;
#X obj 44 555 s button1;
#X obj 97 508 s button2;
#X obj 131 454 s button3;
#X obj 268 349 unpack 0 0 0 0;
#X obj 269 606 s pot1;
#X obj 299 541 s pot2;
#X msg 146 44 2;
#X obj 268 576 expr 1 - ($f1 / 4095);
#X obj 302 513 expr 1 - ($f1 / 4095);
#X obj 334 451 expr 1 - ($f1 / 4095);
#X obj 378 388 expr 1 - ($f1 / 4095);
#X obj 335 481 s pot3;
#X obj 375 416 s pot4;
#X obj 43 520 change;
#X obj 93 482 change;
#X obj 127 423 change;
#X obj 75 284 route buttons pots, f 57;
#X msg 252 74 ports;
#X obj 203 202 s osc-out;
#X obj 203 171 list trim;
#X obj 252 37 r ports;
#X obj 205 123 route ports;
#X obj 205 147 list prepend ports;
#X connect 0 0 11 0;
#X connect 1 0 2 0;
#X connect 2 0 6 0;
#X connect 3 0 4 0;
#X connect 4 0 10 0;
#X connect 4 1 35 0;
#X connect 5 0 4 0;
#X connect 6 1 7 0;
#X connect 7 0 30 0;
#X connect 8 0 4 0;
#X connect 10 0 1 0;
#X connect 11 0 5 0;
#X connect 12 0 5 0;
#X connect 13 0 27 0;
#X connect 13 1 28 0;
#X connect 13 2 29 0;
#X connect 17 0 21 0;
#X connect 17 1 22 0;
#X connect 17 2 23 0;
#X connect 17 3 24 0;
#X connect 20 0 5 0;
#X connect 21 0 18 0;
#X connect 22 0 19 0;
#X connect 23 0 25 0;
#X connect 24 0 26 0;
#X connect 27 0 14 0;
#X connect 28 0 15 0;
#X connect 29 0 16 0;
#X connect 30 0 13 0;
#X connect 30 1 17 0;
#X connect 31 0 4 0;
#X connect 33 0 32 0;
#X connect 34 0 31 0;
#X connect 35 0 36 0;
#X connect 36 0 33 0;
