#N canvas 425 195 709 491 12;
#X declare -path ./bop/babs;
#X obj 89 41 inlet;
#X obj 238 340 declare -path ./bop/babs;
#X obj 89 76 babs.nth;
#X obj 142 45 \$1;
#X obj 142 17 loadbang;
#X obj 270 78 loadbang;
#X obj 272 119 \$2;
#X obj 89 322 outlet~;
#X obj 89 100 sig~;
#X obj 89 254 *~;
#X obj 272 149 mtof~;
#X obj 87 143 babs.slide~ 10 10;
#X obj 271 207 phasor~;
#X connect 0 0 2 0;
#X connect 2 0 8 0;
#X connect 3 0 2 1;
#X connect 4 0 3 0;
#X connect 5 0 6 0;
#X connect 6 0 10 0;
#X connect 8 0 11 0;
#X connect 9 0 7 0;
#X connect 10 0 12 0;
#X connect 11 0 9 0;
#X connect 12 0 9 1;
