#N canvas 645 319 450 300 12;
#X declare -path ./bop/babs;
#X obj 89 41 inlet;
#X obj 89 105 > 0;
#X obj 89 129 change;
#X obj 89 153 * 100;
#X obj 89 242 outlet;
#X obj 238 260 declare -path ./bop/babs;
#X obj 89 76 babs.nth;
#X obj 142 45 \$1;
#X obj 142 17 loadbang;
#X obj 89 178 list prepend \$2;
#X connect 0 0 6 0;
#X connect 1 0 2 0;
#X connect 2 0 3 0;
#X connect 3 0 9 0;
#X connect 6 0 1 0;
#X connect 7 0 6 1;
#X connect 8 0 7 0;
#X connect 9 0 4 0;
