#N canvas 486 30 501 1057 12;
#X declare -path ./bop;
#X declare -path ./bop/babs;
#X obj 60 29 declare -path ./bop;
#X obj 655 189 r sensor2;
#X obj 59 58 declare -path ./bop/babs;
#X obj 67 128 == \$1;
#X obj 67 184 switch~;
#X obj 67 154 tgl 16 0 empty empty ENABLE 20 10 0 10 #00ff04 #000000 #000000 0 1;
#X obj 68 100 r active-voice;
#X obj 657 295 babs.gate;
#X obj 709 245 == \$1;
#X obj 710 221 r active-voice;
#X obj 711 271 tgl 19 0 empty empty empty 0 -10 0 12 #fcfcfc #000000 #000000 0 1;
#X obj 730 801 bop.semisteps, f 23;
#A saved semisteps 7.52;
#A saved root 48;
#A saved hold 1;
#A saved duration 0.9;
#A saved velocity 1;
#X obj 636 1012 hip~ 80;
#X obj 731 852 bop.casio~, f 23;
#A saved wave-1 1;
#A saved wave-2 3;
#A saved filter 1;
#A saved attack 0.0214286;
#A saved decay 0.178571;
#A saved sustain 0.628571;
#A saved release 0;
#A saved gain 1;
#X obj 911 708 loadbang;
#X obj 636 1046 throw~ right;
#X msg 909 811 filter loop 1 6000 0.1 12000 0.3 12000 0.2 6000 \, semisteps 7.52, f 49;
#X obj 909 755 delay 1000;
#X obj 637 942 *~;
#X obj 636 697 sig~;
#X obj 636 721 babs.slide~ 0.1 0.1;
#X floatatom 659 352 5 0 0 0 - - - 0;
#X obj 1029 115 metro 6000;
#X obj 873 136 > 0;
#X obj 873 160 change;
#X obj 873 184 sel 1;
#X obj 873 112 r sensor2;
#X obj 1028 89 == \$1;
#X obj 1029 65 r active-voice;
#X obj 636 645 babs.scale 0 1 0.5 1;
#X obj 589 623 sel 0;
#X msg 589 665 0;
#X obj 205 572 bop.instrument~;
#A saved instrument 3;
#X obj 210 693 hip~ 80;
#X obj 206 507 bop.strum, f 23;
#A saved strum 0;
#A saved chord 7;
#A saved shuffle 1;
#A saved root 67;
#A saved octaves 4;
#A saved velocity 1;
#A saved duration 0.971429;
#X msg 209 440 strum \$1;
#X obj 204 636 *~ 0.6;
#X obj 204 234 r sensor1;
#X obj 205 336 babs.gate;
#X obj 257 286 == \$1;
#X obj 258 262 r active-voice;
#X obj 259 312 tgl 19 0 empty empty empty 0 -10 0 12 #fcfcfc #000000 #000000 0 1;
#X floatatom 211 393 5 0 0 0 - - - 0;
#X obj 208 776 throw~ left;
#X msg 382 465 root 69 \, chord 3;
#X msg 325 425 root 67 \, chord 7;
#X obj 351 386 sel 0 1 2;
#X msg 461 524 root 60 \, chord 0;
#X obj 1051 209 sel 0 1 2;
#X obj 874 220 bng 19 250 50 0 empty empty empty 0 -10 0 12 #fcfcfc #000000 #000000;
#X obj 874 255 f;
#X obj 874 289 + 1;
#X obj 874 327 mod 3;
#X obj 874 367 t b f;
#X obj 1167 156 moses 0.3;
#X obj 1227 194 moses 0.6;
#X msg 992 395 7.52;
#X msg 1046 640 semisteps \$1;
#X msg 1164 216 0;
#X obj 1296 597 f;
#X obj 1046 588 +;
#X obj 1163 261 t f;
#X obj 1220 262 t f;
#X obj 1273 266 t f;
#X obj 1229 324 change;
#X obj 1227 373 sel 0 1 2;
#X msg 1220 220 1;
#X msg 1275 222 2;
#X msg 1204 427 0;
#X msg 1246 429 12;
#X msg 1294 431 24;
#X obj 1253 561 t f f;
#X msg 1054 398 9.343;
#X msg 1108 397 12.435;
#X obj 1047 464 t f f;
#X obj 1104 507 f;
#X obj 1142 471 bng 19 250 50 0 empty empty empty 0 -10 0 12 #fcfcfc #000000 #000000;
#X connect 1 0 7 0;
#X connect 3 0 5 0;
#X connect 5 0 4 0;
#X connect 6 0 3 0;
#X connect 7 0 21 0;
#X connect 8 0 10 0;
#X connect 9 0 8 0;
#X connect 10 0 7 1;
#X connect 11 0 13 0;
#X connect 11 1 13 1;
#X connect 12 0 15 0;
#X connect 13 0 18 1;
#X connect 14 0 17 0;
#X connect 16 0 11 1;
#X connect 17 0 16 0;
#X connect 18 0 12 0;
#X connect 19 0 20 0;
#X connect 20 0 18 0;
#X connect 21 0 29 0;
#X connect 21 0 30 0;
#X connect 21 0 54 0;
#X connect 23 0 24 0;
#X connect 24 0 25 0;
#X connect 25 0 49 0;
#X connect 26 0 23 0;
#X connect 27 0 22 0;
#X connect 28 0 27 0;
#X connect 29 0 19 0;
#X connect 30 0 31 0;
#X connect 31 0 19 0;
#X connect 32 0 36 0;
#X connect 33 0 43 0;
#X connect 34 0 32 0;
#X connect 34 1 32 1;
#X connect 35 0 34 0;
#X connect 36 0 33 0;
#X connect 37 0 38 0;
#X connect 38 0 42 0;
#X connect 39 0 41 0;
#X connect 40 0 39 0;
#X connect 41 0 38 1;
#X connect 42 0 35 0;
#X connect 44 0 34 1;
#X connect 45 0 34 1;
#X connect 46 0 45 0;
#X connect 46 1 44 0;
#X connect 46 2 47 0;
#X connect 47 0 34 1;
#X connect 48 0 56 0;
#X connect 48 1 72 0;
#X connect 48 2 73 0;
#X connect 49 0 50 0;
#X connect 50 0 51 0;
#X connect 51 0 52 0;
#X connect 52 0 53 0;
#X connect 53 1 50 1;
#X connect 53 1 48 0;
#X connect 53 1 46 0;
#X connect 54 0 58 0;
#X connect 54 1 55 0;
#X connect 55 0 66 0;
#X connect 55 1 67 0;
#X connect 56 0 74 0;
#X connect 57 0 11 1;
#X connect 58 0 61 0;
#X connect 59 0 60 1;
#X connect 60 0 57 0;
#X connect 61 0 64 0;
#X connect 62 0 64 0;
#X connect 63 0 64 0;
#X connect 64 0 65 0;
#X connect 65 0 68 0;
#X connect 65 1 69 0;
#X connect 65 2 70 0;
#X connect 66 0 62 0;
#X connect 67 0 63 0;
#X connect 68 0 71 0;
#X connect 69 0 71 0;
#X connect 70 0 71 0;
#X connect 71 0 59 0;
#X connect 71 0 76 0;
#X connect 72 0 74 0;
#X connect 73 0 74 0;
#X connect 74 0 60 0;
#X connect 74 1 75 0;
#X connect 75 0 60 0;
#X connect 76 0 75 0;
