#N canvas 1019 372 1989 1292 12;
#X declare -path ./bop;
#X declare -path ./bop/babs;
#X obj 147 1006 hip~ 80;
#X obj 144 880 bop.casio~, f 23;
#A saved wave-1 3;
#A saved wave-2 6;
#A saved filter 0.262832;
#A saved attack 0.2;
#A saved decay 0.0857143;
#A saved sustain 0;
#A saved release 0.0642857;
#A saved gain 0.2;
#X msg 522 630 gain \$1;
#X obj 515 726 loadbang;
#X obj 151 1088 throw~ left;
#X obj 149 943 *~ 0.7;
#X obj 64 39 declare -path ./bop;
#X obj 354 342 r sensor1;
#X obj 63 68 declare -path ./bop/babs;
#X obj 71 138 == \$1;
#X obj 71 194 switch~;
#X obj 71 164 tgl 16 0 empty empty ENABLE 20 10 0 10 #00ff04 #000000 #000000 0 1;
#X obj 72 110 r active-voice;
#X obj 355 444 babs.gate;
#X obj 407 394 == \$1;
#X obj 408 370 r active-voice;
#X obj 409 420 tgl 19 0 empty empty empty 0 -10 0 12 #fcfcfc #000000 #000000 0 1;
#X obj 1237 427 babs.gate;
#X obj 1292 373 == \$1;
#X obj 1293 349 r active-voice;
#X obj 1294 399 tgl 19 0 empty empty empty 0 -10 0 12 #fcfcfc #000000 #000000 0 1;
#X floatatom 361 501 5 0 0 0 - - - 0;
#X floatatom 1246 510 5 0 0 0 - - - 0;
#X obj 1018 1025 hip~ 80;
#X obj 1014 895 bop.casio~, f 23;
#A saved wave-1 7;
#A saved wave-2 7;
#A saved filter 0;
#A saved attack 0;
#A saved decay 0.0857143;
#A saved sustain 0.0255018;
#A saved release 0.0642857;
#A saved gain 0;
#X msg 1304 646 gain \$1;
#X obj 1417 712 loadbang;
#X obj 1027 962 *~ 0.7;
#X obj 1022 1107 throw~ right;
#X obj 1237 309 r sensor2;
#X msg 521 763 filter loop 0.03 400 0.1 80 0.3 8000 0.2 4000, f 25;
#X msg 1412 751 filter loop 0.9 4000 0.1 80 0.3 8000 0.2 4000 \, sustain loop 0 8000 0.6 8000 \,, f 25;
#X obj 346 627 babs.scale 0 1 0.2 0;
#X msg 337 666 attack \$1;
#X msg 1181 628 filter \$1;
#X obj 132 352 metro 100;
#X obj 140 267 r sensor1;
#X obj 135 298 > 0;
#X obj 133 383 babs.counter;
#X obj 133 407 % 4;
#X obj 130 436 sel 0 1 2 3, f 24;
#X obj 127 518 t f;
#X msg 129 466 48;
#X msg 171 467 52;
#X msg 210 466 55;
#X msg 252 468 52;
#X msg 124 548 \$1 100;
#X obj 1014 410 metro 100;
#X obj 1012 340 > 0;
#X obj 1015 441 babs.counter;
#X obj 1015 465 % 4;
#X obj 1015 495 sel 0 1 2 3, f 24;
#X obj 1012 577 t f;
#X msg 1014 525 48;
#X msg 1056 526 52;
#X msg 1095 525 55;
#X msg 1137 527 52;
#X msg 1009 607 \$1 100;
#X obj 1010 304 r sensor2;
#X obj 134 324 change;
#X obj 531 575 babs.scale 0 1 0.2 1;
#X obj 1011 369 change;
#X connect 0 0 4 0;
#X connect 1 0 5 0;
#X connect 2 0 1 1;
#X connect 3 0 30 0;
#X connect 5 0 0 0;
#X connect 7 0 13 0;
#X connect 9 0 11 0;
#X connect 11 0 10 0;
#X connect 12 0 9 0;
#X connect 13 0 21 0;
#X connect 14 0 16 0;
#X connect 15 0 14 0;
#X connect 16 0 13 1;
#X connect 17 0 22 0;
#X connect 18 0 20 0;
#X connect 19 0 18 0;
#X connect 20 0 17 1;
#X connect 21 0 32 0;
#X connect 21 0 60 0;
#X connect 22 0 25 0;
#X connect 22 0 34 0;
#X connect 23 0 28 0;
#X connect 24 0 27 0;
#X connect 25 0 24 1;
#X connect 26 0 31 0;
#X connect 27 0 23 0;
#X connect 29 0 17 0;
#X connect 30 0 1 1;
#X connect 32 0 33 0;
#X connect 33 0 1 1;
#X connect 34 0 24 1;
#X connect 35 0 38 0;
#X connect 36 0 37 0;
#X connect 37 0 59 0;
#X connect 38 0 39 0;
#X connect 39 0 40 0;
#X connect 40 0 42 0;
#X connect 40 1 43 0;
#X connect 40 2 44 0;
#X connect 40 3 45 0;
#X connect 41 0 46 0;
#X connect 42 0 41 0;
#X connect 43 0 41 0;
#X connect 44 0 41 0;
#X connect 45 0 41 0;
#X connect 46 0 1 0;
#X connect 47 0 49 0;
#X connect 48 0 61 0;
#X connect 49 0 50 0;
#X connect 50 0 51 0;
#X connect 51 0 53 0;
#X connect 51 1 54 0;
#X connect 51 2 55 0;
#X connect 51 3 56 0;
#X connect 52 0 57 0;
#X connect 53 0 52 0;
#X connect 54 0 52 0;
#X connect 55 0 52 0;
#X connect 56 0 52 0;
#X connect 57 0 24 0;
#X connect 58 0 48 0;
#X connect 59 0 35 0;
#X connect 60 0 2 0;
#X connect 61 0 47 0;
