#N canvas 1006 458 600 607 12;
#X declare -path ./bop;
#X declare -path ./bop/babs;
#X obj 153 105 declare -path ./bop;
#X obj 152 134 declare -path ./bop/babs;
#X obj 231 253 r bg-gain;
#X obj 157 352 dac~, f 10;
#X obj 157 318 bop.stream~;
#A saved pack ../../changi_samplepack;
#A saved folder 6;
#A saved loop 1;
#A saved gain 0.2;
#X msg 322 277 pack ../../changi_samplepack;
#X obj 157 195 r ID;
#X msg 157 242 \$1 127;
#X floatatom 157 219 5 0 0 0 - - - 0;
#X msg 171 280 stop;
#X msg 231 277 gain \$1;
#X connect 2 0 10 0;
#X connect 4 0 3 0;
#X connect 4 0 3 1;
#X connect 6 0 8 0;
#X connect 7 0 4 0;
#X connect 8 0 7 0;
#X connect 9 0 4 0;
#X connect 10 0 4 1;
