#N canvas 59 51 560 1057 12;
#X declare -path ./bop;
#X declare -path ./bop/babs;
#X obj 147 1006 hip~ 80;
#X obj 144 880 bop.casio~, f 23;
#A saved wave-1 7;
#A saved wave-2 7;
#A saved filter 0.1;
#A saved attack 0.4;
#A saved decay 0.0857143;
#A saved sustain 0;
#A saved release 0.0642857;
#A saved gain 1;
#X obj 534 664 loadbang;
#X obj 151 1088 throw~ left;
#X obj 149 943 *~ 0.7;
#X obj 64 39 declare -path ./bop;
#X obj 354 342 r sensor1;
#X obj 63 68 declare -path ./bop/babs;
#X obj 71 138 == \$1;
#X obj 71 194 switch~;
#X obj 71 164 tgl 16 0 empty empty ENABLE 20 10 0 10 #00ff04 #000000 #000000 0 1;
#X obj 72 110 r active-voice;
#X obj 355 444 babs.gate;
#X obj 407 394 == \$1;
#X obj 408 370 r active-voice;
#X obj 409 420 tgl 19 0 empty empty empty 0 -10 0 12 #fcfcfc #000000 #000000 0 1;
#X floatatom 361 501 5 0 0 0 - - - 0;
#X msg 337 666 attack \$1;
#X obj 184 169 r sensor1;
#X obj 179 200 > 0;
#X obj 177 285 babs.counter;
#X obj 145 773 t f;
#X msg 142 803 \$1 100;
#X obj 178 226 change;
#X obj 537 692 delay 1000;
#X obj 176 254 metro \$1;
#X msg 523 630 gain 1;
#X msg 521 763 filter loop 0.03 400 0.1 80 0.5 8000 0.2 4000, f 25;
#X obj 530 728 bng 19 250 50 0 empty empty empty 0 -10 0 12 #fcfcfc #000000 #000000;
#X obj 1279 492 > 0;
#X obj 1279 516 change;
#X obj 1279 540 sel 1;
#X obj 1279 468 r sensor2;
#X obj 255 203 babs.scale 0 1 150 400;
#X obj 348 628 babs.scale 0 1 0.4 0;
#X obj 909 172 r sensor2;
#X obj 911 278 babs.gate;
#X obj 963 228 == \$1;
#X obj 964 204 r active-voice;
#X obj 965 254 tgl 19 0 empty empty empty 0 -10 0 12 #fcfcfc #000000 #000000 0 1;
#X floatatom 908 338 5 0 0 0 - - - 0;
#X obj 716 665 bop.instrument~;
#A saved instrument 1;
#X obj 719 1044 hip~ 80;
#X obj 717 847 *~ 0.5;
#X obj 718 1082 throw~ right;
#X obj 1108 806 bop.casio~;
#A saved wave-1 0;
#A saved wave-2 0;
#A saved filter 0.7;
#A saved attack 0.1;
#A saved decay 0.3;
#A saved sustain 1;
#A saved release 1;
#A saved gain 1;
#X obj 699 605 bop.semisteps, f 23;
#A saved semisteps 7;
#A saved root 72;
#A saved hold 0;
#A saved duration 0.25;
#A saved velocity 0.75;
#X msg 1055 463 semisteps 0;
#X obj 1101 663 bop.semisteps, f 23;
#A saved semisteps 7;
#A saved root 36;
#A saved hold 1;
#A saved duration 1;
#A saved velocity 0.75;
#X obj 1084 286 > 0;
#X obj 1084 310 change;
#X obj 1084 334 sel 1;
#X obj 1084 358 bng 19 250 50 0 empty empty empty 0 -10 0 12 #fcfcfc #000000 #000000;
#X obj 1084 262 r sensor2;
#X obj 1031 883 *~;
#X obj 1029 691 sig~;
#X obj 1029 715 babs.slide~ 0.1 0.1;
#X obj 1030 582 babs.scale 0 1 0.5 1;
#X obj 976 627 sel 0;
#X msg 976 669 0;
#X msg 1260 580 filter \$1;
#X obj 1084 388 tgl 19 0 empty empty empty 0 -10 0 12 #fcfcfc #000000 #000000 0 1;
#X obj 1084 416 sel 0 1;
#X msg 1055 514 semisteps 7;
#X obj 907 952 *~ 2;
#X obj 1236 386 babs.scale 0 1 0.7 0.9;
#X msg 30 535 36 52 53 52;
#X msg 123 535 38 54 45 54;
#X obj 69 483 sel 0 1;
#X obj 69 451 tgl 19 0 empty empty empty 0 -10 0 12 #fcfcfc #000000 #000000 0 1;
#X obj 45 699 babs.nth;
#X obj 46 666 list;
#X obj 169 573 babs.counter;
#X obj 168 604 % 4;
#X obj 170 651 t b f;
#X obj 16 356 babs.counter;
#X obj 16 389 % 8;
#X obj 13 422 sel 0;
#X obj 15 318 t b b;
#X floatatom 49 759 5 0 0 0 - - - 0;
#X floatatom 143 381 5 0 0 0 - - - 0;
#X floatatom 257 684 5 0 0 0 - - - 0;
#X connect 0 0 3 0;
#X connect 1 0 4 0;
#X connect 2 0 24 0;
#X connect 4 0 0 0;
#X connect 6 0 12 0;
#X connect 8 0 10 0;
#X connect 10 0 9 0;
#X connect 11 0 8 0;
#X connect 12 0 16 0;
#X connect 13 0 15 0;
#X connect 14 0 13 0;
#X connect 15 0 12 1;
#X connect 16 0 34 0;
#X connect 17 0 1 1;
#X connect 18 0 19 0;
#X connect 18 0 33 0;
#X connect 19 0 23 0;
#X connect 20 0 78 0;
#X connect 21 0 22 0;
#X connect 22 0 1 0;
#X connect 23 0 25 0;
#X connect 24 0 28 0;
#X connect 25 0 20 0;
#X connect 26 0 1 1;
#X connect 27 0 1 1;
#X connect 28 0 27 0;
#X connect 29 0 30 0;
#X connect 30 0 31 0;
#X connect 32 0 29 0;
#X connect 33 0 25 1;
#X connect 34 0 17 0;
#X connect 35 0 36 0;
#X connect 36 0 40 0;
#X connect 37 0 39 0;
#X connect 38 0 37 0;
#X connect 39 0 36 1;
#X connect 40 0 57 0;
#X connect 40 0 58 0;
#X connect 40 0 65 0;
#X connect 41 0 43 0;
#X connect 42 0 44 0;
#X connect 43 0 42 0;
#X connect 45 0 54 1;
#X connect 46 0 41 0;
#X connect 46 1 41 1;
#X connect 47 0 46 1;
#X connect 47 0 48 1;
#X connect 48 0 45 0;
#X connect 48 1 45 1;
#X connect 49 0 50 0;
#X connect 50 0 51 0;
#X connect 51 0 52 0;
#X connect 52 0 61 0;
#X connect 53 0 49 0;
#X connect 54 0 64 0;
#X connect 55 0 56 0;
#X connect 56 0 54 0;
#X connect 57 0 55 0;
#X connect 58 0 59 0;
#X connect 59 0 55 0;
#X connect 60 0 45 1;
#X connect 61 0 62 0;
#X connect 62 0 47 0;
#X connect 62 1 63 0;
#X connect 63 0 46 1;
#X connect 63 0 48 1;
#X connect 64 0 42 0;
#X connect 65 0 60 0;
#X connect 66 0 71 1;
#X connect 67 0 71 1;
#X connect 68 0 66 0;
#X connect 68 1 67 0;
#X connect 69 0 68 0;
#X connect 70 0 79 0;
#X connect 71 0 70 0;
#X connect 72 0 73 0;
#X connect 73 0 81 0;
#X connect 73 0 74 0;
#X connect 74 0 71 0;
#X connect 74 1 70 1;
#X connect 75 0 76 0;
#X connect 76 0 77 0;
#X connect 77 0 69 0;
#X connect 78 0 75 0;
#X connect 78 1 72 0;
#X connect 79 0 21 0;
