#N canvas 1922 32 1728 1057 12;
#X declare -path ./bop;
#X declare -path ./bop/babs;
#X obj 313 723 bop.instrument~;
#A saved instrument 3;
#X obj 336 985 hip~ 80;
#X obj 314 658 bop.strum, f 23;
#A saved strum 0;
#A saved chord 6;
#A saved shuffle 1;
#A saved root 69;
#A saved octaves 4;
#A saved velocity 1;
#A saved duration 0.971429;
#X msg 316 394 strum \$1;
#X obj 312 787 *~ 0.6;
#X obj 60 29 declare -path ./bop;
#X obj 329 50 r sensor1;
#X obj 1069 37 r sensor2;
#X obj 59 58 declare -path ./bop/babs;
#X obj 67 128 == \$1;
#X obj 67 184 switch~;
#X obj 67 154 tgl 16 0 empty empty ENABLE 20 10 0 10 #00ff04 #000000 #000000 0 1;
#X obj 68 100 r active-voice;
#X obj 330 152 babs.gate;
#X obj 382 102 == \$1;
#X obj 383 78 r active-voice;
#X obj 384 128 tgl 19 0 empty empty empty 0 -10 0 12 #fcfcfc #000000 #000000 0 1;
#X obj 1071 143 babs.gate;
#X obj 1123 93 == \$1;
#X obj 1124 69 r active-voice;
#X obj 1125 119 tgl 19 0 empty empty empty 0 -10 0 12 #fcfcfc #000000 #000000 0 1;
#X floatatom 336 209 5 0 0 0 - - - 0;
#X floatatom 1080 226 5 0 0 0 - - - 0;
#X obj 334 1068 throw~ left;
#X obj 1074 714 bop.instrument~;
#A saved instrument 3;
#X obj 1097 976 hip~ 80;
#X obj 1075 649 bop.strum, f 23;
#A saved strum 0;
#A saved chord 6;
#A saved shuffle 1;
#A saved root 45;
#A saved octaves 4;
#A saved velocity 1;
#A saved duration 0.971429;
#X msg 1077 385 strum \$1;
#X obj 1073 778 *~ 0.6;
#X obj 1095 1059 throw~ right;
#X connect 0 0 4 0;
#X connect 1 0 23 0;
#X connect 2 0 0 0;
#X connect 2 1 0 1;
#X connect 3 0 2 0;
#X connect 4 0 1 0;
#X connect 6 0 13 0;
#X connect 7 0 17 0;
#X connect 9 0 11 0;
#X connect 11 0 10 0;
#X connect 12 0 9 0;
#X connect 13 0 21 0;
#X connect 14 0 16 0;
#X connect 15 0 14 0;
#X connect 16 0 13 1;
#X connect 17 0 22 0;
#X connect 18 0 20 0;
#X connect 19 0 18 0;
#X connect 20 0 17 1;
#X connect 21 0 3 0;
#X connect 22 0 27 0;
#X connect 24 0 28 0;
#X connect 25 0 29 0;
#X connect 26 0 24 0;
#X connect 26 1 24 1;
#X connect 27 0 26 0;
#X connect 28 0 25 0;
