#N canvas 455 53 1266 1035 12;
#X declare -path ./bop;
#X declare -path ./bop/babs;
#X obj 60 29 declare -path ./bop;
#X obj 655 189 r sensor2;
#X obj 59 58 declare -path ./bop/babs;
#X obj 67 128 == \$1;
#X obj 67 184 switch~;
#X obj 67 154 tgl 16 0 empty empty ENABLE 20 10 0 10 #00ff04 #000000 #000000 0 1;
#X obj 68 100 r active-voice;
#X obj 657 295 babs.gate;
#X obj 709 245 == \$1;
#X obj 710 221 r active-voice;
#X obj 711 271 tgl 19 0 empty empty empty 0 -10 0 12 #fcfcfc #000000 #000000 0 1;
#X obj 730 560 bop.semisteps, f 23;
#A saved semisteps 7.52;
#A saved root 48;
#A saved hold 1;
#A saved duration 0.9;
#A saved velocity 1;
#X obj 636 771 hip~ 80;
#X obj 731 611 bop.casio~, f 23;
#A saved wave-1 1;
#A saved wave-2 3;
#A saved filter 0.532861;
#A saved attack 0.0214286;
#A saved decay 0.178571;
#A saved sustain 0.628571;
#A saved release 0;
#A saved gain 1;
#X obj 935 387 loadbang;
#X obj 636 805 throw~ right;
#X msg 928 482 filter loop 1 6000 0.1 12000 0.3 12000 0.2 6000 \, semisteps 7.52, f 49;
#X obj 933 434 delay 1000;
#X obj 637 701 *~;
#X obj 636 456 sig~;
#X obj 636 480 babs.slide~ 0.1 0.1;
#X floatatom 659 352 5 0 0 0 - - - 0;
#X obj 1051 284 tgl 19 0 empty empty empty 0 -10 0 12 #fcfcfc #000000 #000000 0 1;
#X obj 1051 312 sel 0 1;
#X obj 1042 247 metro 6000;
#X msg 1051 345 semisteps 7.52;
#X msg 1073 382 semisteps 9.343;
#X obj 931 181 > 0;
#X obj 931 205 change;
#X obj 931 229 sel 1;
#X obj 929 278 bng 19 250 50 0 empty empty empty 0 -10 0 12 #fcfcfc #000000 #000000;
#X obj 931 157 r sensor2;
#X obj 1041 221 == \$1;
#X obj 1042 197 r active-voice;
#X obj 636 404 babs.scale 0 1 0.5 1;
#X obj 589 382 sel 0;
#X msg 589 424 0;
#X obj 205 572 bop.instrument~;
#A saved instrument 3;
#X obj 210 693 hip~ 80;
#X obj 206 507 bop.strum, f 23;
#A saved strum 0;
#A saved chord 7;
#A saved shuffle 1;
#A saved root 67;
#A saved octaves 4;
#A saved velocity 1;
#A saved duration 0.971429;
#X msg 209 440 strum \$1;
#X obj 204 636 *~ 0.6;
#X obj 204 234 r sensor1;
#X obj 205 336 babs.gate;
#X obj 257 286 == \$1;
#X obj 258 262 r active-voice;
#X obj 259 312 tgl 19 0 empty empty empty 0 -10 0 12 #fcfcfc #000000 #000000 0 1;
#X floatatom 211 393 5 0 0 0 - - - 0;
#X obj 208 776 throw~ left;
#X obj 351 358 tgl 19 0 empty empty empty 0 -10 0 12 #fcfcfc #000000 #000000 0 1;
#X obj 351 386 sel 0 1;
#X obj 437 261 tgl 19 0 empty empty empty 0 -10 0 12 #fcfcfc #000000 #000000 0 1;
#X obj 437 289 metro 6000;
#X msg 372 456 root 69 \, chord 3;
#X msg 350 419 root 67 \, chord 7;
#X connect 1 0 7 0;
#X connect 3 0 5 0;
#X connect 5 0 4 0;
#X connect 6 0 3 0;
#X connect 7 0 21 0;
#X connect 8 0 10 0;
#X connect 9 0 8 0;
#X connect 10 0 7 1;
#X connect 11 0 13 0;
#X connect 11 1 13 1;
#X connect 12 0 15 0;
#X connect 13 0 18 1;
#X connect 14 0 17 0;
#X connect 16 0 11 1;
#X connect 17 0 16 0;
#X connect 18 0 12 0;
#X connect 19 0 20 0;
#X connect 20 0 18 0;
#X connect 21 0 34 0;
#X connect 21 0 35 0;
#X connect 22 0 23 0;
#X connect 23 0 25 0;
#X connect 23 1 26 0;
#X connect 25 0 11 1;
#X connect 26 0 11 1;
#X connect 27 0 28 0;
#X connect 28 0 29 0;
#X connect 29 0 30 0;
#X connect 30 0 22 0;
#X connect 30 0 49 0;
#X connect 31 0 27 0;
#X connect 32 0 24 0;
#X connect 33 0 32 0;
#X connect 34 0 19 0;
#X connect 35 0 36 0;
#X connect 36 0 19 0;
#X connect 37 0 41 0;
#X connect 38 0 48 0;
#X connect 39 0 37 0;
#X connect 39 1 37 1;
#X connect 40 0 39 0;
#X connect 41 0 38 0;
#X connect 42 0 43 0;
#X connect 43 0 47 0;
#X connect 44 0 46 0;
#X connect 45 0 44 0;
#X connect 46 0 43 1;
#X connect 47 0 40 0;
#X connect 49 0 50 0;
#X connect 50 0 54 0;
#X connect 50 1 53 0;
#X connect 51 0 52 0;
#X connect 53 0 39 1;
#X connect 54 0 39 1;
