#N canvas 1184 205 1635 1238 12;
#X declare -path ./bop;
#X declare -path ./bop/babs;
#X obj 313 723 bop.instrument~;
#A saved instrument 3;
#X obj 336 985 hip~ 80;
#X obj 314 658 bop.strum, f 23;
#A saved strum 0;
#A saved chord 6;
#A saved shuffle 1;
#A saved root 69;
#A saved octaves 4;
#A saved velocity 1;
#A saved duration 0.971429;
#X msg 316 394 strum \$1;
#X obj 312 787 *~ 0.6;
#X obj 60 29 declare -path ./bop;
#X obj 329 50 r sensor1;
#X obj 1069 37 r sensor2;
#X obj 59 58 declare -path ./bop/babs;
#X obj 67 128 == \$1;
#X obj 67 184 switch~;
#X obj 67 154 tgl 16 0 empty empty ENABLE 20 10 0 10 #00ff04 #000000 #000000 0 1;
#X obj 68 100 r active-voice;
#X obj 330 152 babs.gate;
#X obj 382 102 == \$1;
#X obj 383 78 r active-voice;
#X obj 384 128 tgl 19 0 empty empty empty 0 -10 0 12 #fcfcfc #000000 #000000 0 1;
#X obj 1071 143 babs.gate;
#X obj 1123 93 == \$1;
#X obj 1124 69 r active-voice;
#X obj 1125 119 tgl 19 0 empty empty empty 0 -10 0 12 #fcfcfc #000000 #000000 0 1;
#X floatatom 336 209 5 0 0 0 - - - 0;
#X floatatom 1080 226 5 0 0 0 - - - 0;
#X obj 334 1068 throw~ left;
#X obj 1097 976 hip~ 80;
#X obj 1075 649 bop.strum, f 23;
#A saved strum 0;
#A saved chord 6;
#A saved shuffle 1;
#A saved root 45;
#A saved octaves 4;
#A saved velocity 1;
#A saved duration 0.971429;
#X msg 1077 385 strum \$1;
#X obj 1095 1059 throw~ right;
#X obj 1074 714 bop.casio~;
#A saved wave-1 0;
#A saved wave-2 1;
#A saved filter 1;
#A saved attack 0.22;
#A saved decay 0.3;
#A saved sustain 0.678571;
#A saved release 0.157143;
#A saved gain 1;
#X obj 473 433 loadbang;
#X msg 473 543 filter loop 1 400 0.1 8000 1 7000 0.2 12000 1 6000 0.05 11000 1 7000 0.6 5000 1 10000 0.08 9000 1 8000 0.2 4000 \, attack loop 0 1000 0.1 1000 0.015 3000 0.5 2000 0 2500 0.3 2800 0.22 1500 1 1800 0.3 2200 0.07 2700 0.19 1600 0.015 2000;
#X obj 473 457 delay 1000;
#X obj 1192 296 > 0;
#X obj 1192 320 change;
#X obj 1192 344 sel 0;
#X obj 1192 368 delay 1000;
#X msg 1192 392 stop;
#X obj 1073 778 *~ 0.4;
#X connect 0 0 4 0;
#X connect 1 0 23 0;
#X connect 2 0 0 0;
#X connect 2 1 0 1;
#X connect 3 0 2 0;
#X connect 4 0 1 0;
#X connect 6 0 13 0;
#X connect 7 0 17 0;
#X connect 9 0 11 0;
#X connect 11 0 10 0;
#X connect 12 0 9 0;
#X connect 13 0 21 0;
#X connect 14 0 16 0;
#X connect 15 0 14 0;
#X connect 16 0 13 1;
#X connect 17 0 22 0;
#X connect 17 0 32 0;
#X connect 18 0 20 0;
#X connect 19 0 18 0;
#X connect 20 0 17 1;
#X connect 21 0 3 0;
#X connect 22 0 26 0;
#X connect 24 0 27 0;
#X connect 25 0 28 0;
#X connect 25 1 28 1;
#X connect 26 0 25 0;
#X connect 28 0 37 0;
#X connect 29 0 31 0;
#X connect 30 0 2 1;
#X connect 31 0 30 0;
#X connect 32 0 33 0;
#X connect 33 0 34 0;
#X connect 34 0 35 0;
#X connect 35 0 36 0;
#X connect 36 0 25 1;
#X connect 37 0 24 0;
