#N canvas 1436 32 1572 1057 12;
#X declare -path ./bop;
#X declare -path ./bop/babs;
#X obj 328 1151 hip~ 80;
#X obj 1906 1255;
#X obj 83 82 declare -path ./bop;
#X obj 678 315 r sensor1;
#X obj 1036 321 r sensor2;
#X obj 85 111 declare -path ./bop/babs;
#X obj 93 181 == \$1;
#X obj 93 237 switch~;
#X obj 93 207 tgl 16 0 empty empty ENABLE 20 10 0 10 #00ff04 #000000 #000000 0 1;
#X obj 94 153 r active-voice;
#X obj 679 417 babs.gate;
#X obj 731 367 == \$1;
#X obj 732 343 r active-voice;
#X obj 733 393 tgl 19 0 empty empty empty 0 -10 0 12 #fcfcfc #000000 #000000 0 1;
#X obj 1038 427 babs.gate;
#X obj 1090 377 == \$1;
#X obj 1091 353 r active-voice;
#X obj 1092 403 tgl 19 0 empty empty empty 0 -10 0 12 #fcfcfc #000000 #000000 0 1;
#X floatatom 1041 617 5 0 0 0 - - - 0;
#X obj 329 1183 throw~ left;
#X obj 1058 787 bop.instrument~;
#A saved instrument 1;
#X obj 1061 1166 hip~ 80;
#X obj 1057 851 *~ 0.5;
#X msg 1035 677 strum \$1;
#X obj 1060 1204 throw~ right;
#X obj 3304 1181;
#X obj 1041 727 bop.strum, f 23;
#A saved strum 0;
#A saved chord 7;
#A saved shuffle 1;
#A saved root 48;
#A saved octaves 4;
#A saved velocity 1;
#A saved duration 0.971429;
#X obj 328 1074 bop.casio~, f 13;
#A saved wave-1 3;
#A saved wave-2 3;
#A saved filter 0.683581;
#A saved attack 0.196835;
#A saved decay 0.207143;
#A saved sustain 0;
#A saved release 0.0642857;
#A saved gain 0.7;
#X obj 328 1113 *~ 0.7;
#X obj 735 754 babs.scale 0 1 100 127;
#X obj 391 753 + \$1, f 23;
#X obj 539 634 int;
#X obj 538 601 babs.scale 0 1 0 12;
#X obj 538 672 select 0 5 7 12;
#X obj 569 707 5;
#X obj 601 704 7;
#X obj 632 707 12;
#X obj 537 705 0;
#X msg 437 908 filter loop 0.9 400 0.1 8000 0.75 7000 0.2 12000 0.4 6000 0.05 11000 0.3 7000 0.6 5000 0.15 10000 0.08 9000 0.5 8000 0.2 4000 \, attack loop 0.2 1000 0.1 1000 0.015 3000 0.25 2000 0.05 2500 0.18 2800 0.22 1500 0.1 1800 0.3 2200 0.07 2700 0.19 1600 0.015 2000, f 53;
#X obj 430 851 loadbang;
#X obj 394 804 pack, f 48;
#X obj 412 268 r sensor1;
#X obj 391 306 > 0;
#X obj 392 436 babs.counter;
#X obj 392 460 % 4;
#X obj 389 489 sel 0 1 2 3, f 24;
#X msg 388 519 60;
#X msg 430 520 64;
#X msg 469 519 67;
#X msg 511 521 71;
#X obj 386 571 t f;
#X obj 389 333 change;
#X obj 437 883 delay 1000;
#X obj 1241 703 tgl 19 0 empty empty empty 0 -10 0 12 #fcfcfc #000000 #000000 0 1;
#X obj 1241 731 sel 0 1;
#X obj 1300 486 tgl 19 0 empty empty empty 0 -10 0 12 #fcfcfc #000000 #000000 0 1;
#X obj 1300 514 metro 6000;
#X msg 1241 764 root 48 \, chord 7;
#X msg 1262 801 root 50 \, chord 3;
#X obj 1199 539 > 0;
#X obj 1199 563 change;
#X obj 1199 587 sel 1;
#X obj 1199 611 bng 19 250 50 0 empty empty empty 0 -10 0 12 #fcfcfc #000000 #000000;
#X obj 1199 515 r sensor2;
#X obj 391 405 metro 150;
#X obj 515 209 r sensor1;
#X obj 516 311 babs.gate;
#X obj 568 261 == \$1;
#X obj 569 237 r active-voice;
#X obj 570 287 tgl 19 0 empty empty empty 0 -10 0 12 #fcfcfc #000000 #000000 0 1;
#X floatatom 502 410 5 0 0 0 - - - 0;
#X obj 455 368 babs.scale 0 1 100 280;
#X connect 0 0 19 0;
#X connect 3 0 10 0;
#X connect 4 0 14 0;
#X connect 6 0 8 0;
#X connect 8 0 7 0;
#X connect 9 0 6 0;
#X connect 10 0 29 0;
#X connect 10 0 32 0;
#X connect 11 0 13 0;
#X connect 12 0 11 0;
#X connect 13 0 10 1;
#X connect 14 0 18 0;
#X connect 15 0 17 0;
#X connect 15 0 55 0;
#X connect 16 0 15 0;
#X connect 17 0 14 1;
#X connect 18 0 23 0;
#X connect 20 0 22 0;
#X connect 21 0 24 0;
#X connect 22 0 21 0;
#X connect 23 0 26 0;
#X connect 26 0 20 0;
#X connect 26 1 20 1;
#X connect 27 0 28 0;
#X connect 28 0 0 0;
#X connect 29 0 40 1;
#X connect 30 0 40 0;
#X connect 31 0 33 0;
#X connect 32 0 31 0;
#X connect 33 0 37 0;
#X connect 33 1 34 0;
#X connect 33 2 35 0;
#X connect 33 3 36 0;
#X connect 34 0 30 1;
#X connect 35 0 30 1;
#X connect 36 0 30 1;
#X connect 37 0 30 1;
#X connect 38 0 27 1;
#X connect 39 0 52 0;
#X connect 40 0 27 1;
#X connect 41 0 42 0;
#X connect 42 0 51 0;
#X connect 43 0 44 0;
#X connect 44 0 45 0;
#X connect 45 0 46 0;
#X connect 45 1 47 0;
#X connect 45 2 48 0;
#X connect 45 3 49 0;
#X connect 46 0 50 0;
#X connect 47 0 50 0;
#X connect 48 0 50 0;
#X connect 49 0 50 0;
#X connect 50 0 30 0;
#X connect 51 0 64 0;
#X connect 52 0 38 0;
#X connect 53 0 54 0;
#X connect 54 0 57 0;
#X connect 54 1 58 0;
#X connect 55 0 56 0;
#X connect 56 0 53 0;
#X connect 57 0 26 1;
#X connect 58 0 26 1;
#X connect 59 0 60 0;
#X connect 60 0 61 0;
#X connect 61 0 62 0;
#X connect 62 0 53 0;
#X connect 63 0 59 0;
#X connect 64 0 43 0;
#X connect 65 0 66 0;
#X connect 66 0 71 0;
#X connect 67 0 69 0;
#X connect 68 0 67 0;
#X connect 69 0 66 1;
#X connect 71 0 64 1;
#X connect 71 0 70 0;
