#N canvas 425 129 1149 727 12;
#X declare -path ./bop;
#X declare -path ./bop/babs;
#X obj 35 91 declare -path ./bop;
#X obj 407 288 loadbang;
#X obj 789 341 bop.instrument~;
#A saved instrument 0;
#X obj 34 120 declare -path ./bop/babs;
#X obj 325 449 throw~ left;
#X obj 789 413 throw~ right;
#X obj 42 190 == \$1;
#X obj 42 246 switch~;
#X obj 42 216 tgl 16 0 empty empty ENABLE 20 10 0 10 #00ff04 #000000 #000000 0 1;
#X obj 43 162 r active-voice;
#X msg 406 320 pack ../../changi_samplepack \, folder 3;
#X obj 325 403 bop.sampler~;
#A saved pack ../../changi_samplepack;
#A saved folder 3;
#A saved mode 1;
#A saved sample 0;
#A saved tune 24;
#A saved root 40;
#A saved loop 1;
#A saved loop-start 0;
#A saved loop-length 1;
#A saved attack 0.1;
#A saved release 0.3;
#A saved gain 1;
#X obj 330 206 babs.gate;
#X obj 382 156 == \$1;
#X obj 383 132 r active-voice;
#X obj 384 182 tgl 19 0 empty empty empty 0 -10 0 12 #fcfcfc #000000 #000000 0 1;
#X obj 788 195 babs.gate;
#X obj 840 145 == \$1;
#X obj 841 121 r active-voice;
#X obj 842 171 tgl 19 0 empty empty empty 0 -10 0 12 #fcfcfc #000000 #000000 0 1;
#X obj 332 68 r key;
#X obj 332 99 route w;
#X obj 327 267 * 127;
#X msg 327 291 64 \$1;
#X obj 330 238 tgl 19 0 empty empty empty 0 -10 0 12 #fcfcfc #000000 #000000 0 1;
#X obj 789 56 r key;
#X obj 789 87 route h;
#X obj 789 269 * 127;
#X msg 789 293 64 \$1;
#X obj 789 238 tgl 19 0 empty empty empty 0 -10 0 12 #fcfcfc #000000 #000000 0 1;
#X connect 1 0 10 0;
#X connect 2 0 5 0;
#X connect 6 0 8 0;
#X connect 8 0 7 0;
#X connect 9 0 6 0;
#X connect 10 0 11 1;
#X connect 11 0 4 0;
#X connect 12 0 24 0;
#X connect 13 0 15 0;
#X connect 14 0 13 0;
#X connect 15 0 12 1;
#X connect 16 0 29 0;
#X connect 17 0 19 0;
#X connect 18 0 17 0;
#X connect 19 0 16 1;
#X connect 20 0 21 0;
#X connect 21 0 12 0;
#X connect 22 0 23 0;
#X connect 23 0 11 0;
#X connect 24 0 22 0;
#X connect 25 0 26 0;
#X connect 26 0 16 0;
#X connect 27 0 28 0;
#X connect 28 0 2 0;
#X connect 29 0 27 0;
