#N canvas 837 32 813 1057 12;
#X declare -path ./bop;
#X declare -path ./bop/babs;
#X obj 428 611 bop.instrument~;
#A saved instrument 0;
#X obj 427 703 hip~ 80;
#X obj 429 546 bop.strum, f 23;
#A saved strum 0;
#A saved chord 3;
#A saved shuffle 1;
#A saved root 26;
#A saved octaves 6;
#A saved velocity 1;
#A saved duration 0.971429;
#X obj 427 675 *~ 0.5;
#X msg 431 472 strum \$1;
#X obj 427 731 throw~ left;
#X obj 153 105 declare -path ./bop;
#X obj 422 133 r sensor1;
#X obj 153 133 declare -path ./bop/babs;
#X obj 153 189 == \$1;
#X obj 159 250 switch~;
#X obj 153 217 tgl 16 0 empty empty ENABLE 20 10 0 10 #00ff04 #000000 #000000 0 1;
#X obj 153 161 r active-voice;
#X obj 423 242 babs.gate;
#X obj 476 189 == \$1;
#X obj 476 161 r active-voice;
#X obj 483 215 tgl 19 0 empty empty empty 0 -10 0 12 #fcfcfc #000000 #000000 0 1;
#X floatatom 423 270 5 0 0 0 - - - 0;
#X obj 881 778 throw~ right;
#X obj 1100 18 r sensor2;
#X obj 873 18 r sensor2;
#X msg 660 528 root 26 \, chord 3;
#X obj 639 430 tgl 19 0 empty empty empty 0 -10 0 12 #fcfcfc #000000 #000000 0 1;
#X obj 639 458 sel 0 1;
#X obj 508 349 tgl 19 0 empty empty empty 0 -10 0 12 #fcfcfc #000000 #000000 0 1;
#X obj 508 377 metro 6000;
#X msg 639 491 root 24 \, chord 7;
#X obj 509 314 == \$1;
#X obj 509 286 r active-voice;
#X obj 634 291 r sensor1;
#X obj 634 315 > 0;
#X obj 634 339 change;
#X obj 634 363 sel 1;
#X obj 634 399 bng 19 250 50 0 empty empty empty 0 -10 0 12 #fcfcfc #000000 #000000;
#X obj 1040 470 bop.semisteps, f 23;
#A saved semisteps 5.4343;
#A saved root 48;
#A saved hold 1;
#A saved duration 0.9;
#A saved velocity 1;
#X obj 1030 603 hip~ 80;
#X obj 1196 340 loadbang;
#X obj 1023 156 babs.gate;
#X obj 1075 106 == \$1;
#X obj 1076 82 r active-voice;
#X obj 1077 132 tgl 19 0 empty empty empty 0 -10 0 12 #fcfcfc #000000 #000000 0 1;
#X floatatom 1029 213 5 0 0 0 - - - 0;
#X obj 1196 364 delay 1000;
#X obj 1030 555 *~;
#X obj 1030 339 sig~;
#X obj 1030 363 babs.slide~ 0.1 0.1;
#X obj 802 327 tgl 19 0 empty empty empty 0 -10 0 12 #fcfcfc #000000 #000000 0 1;
#X obj 802 355 sel 0 1;
#X obj 790 254 metro 6000;
#X obj 883 214 > 0;
#X obj 883 238 change;
#X obj 883 262 sel 1;
#X obj 883 286 bng 19 250 50 0 empty empty empty 0 -10 0 12 #fcfcfc #000000 #000000;
#X obj 772 223 == \$1;
#X obj 773 199 r active-voice;
#X obj 1041 521 bop.synth~, f 23;
#A saved osc1-wave 2;
#A saved osc1-tune 0;
#A saved osc1-pulsewidth 0.5;
#A saved osc1-gain 1;
#A saved osc2-wave 0;
#A saved osc2-tune 0;
#A saved osc2-pulsewidth 0.5;
#A saved osc2-gain 1;
#A saved noise 0;
#A saved cutoff 10000;
#A saved q 0;
#A saved mono 0;
#A saved slide 0;
#A saved attack 0;
#A saved decay 0.3;
#A saved sustain 0.7;
#A saved release 0.2;
#A saved gain 1;
#X msg 1192 421 cutoff loop 10000 4000 500 8000 10000 8000 10000 4000, f 47;
#X msg 823 425 semisteps 5.4343;
#X msg 802 388 semisteps 4.3434;
#X obj 1030 278 babs.scale 0 1 0.5 1;
#X obj 978 275 sel 0;
#X msg 978 317 0;
#X connect 0 0 3 0;
#X connect 1 0 5 0;
#X connect 2 0 0 0;
#X connect 2 1 0 1;
#X connect 3 0 1 0;
#X connect 4 0 2 0;
#X connect 7 0 13 0;
#X connect 9 0 11 0;
#X connect 11 0 10 0;
#X connect 12 0 9 0;
#X connect 13 0 17 0;
#X connect 14 0 16 0;
#X connect 15 0 14 0;
#X connect 16 0 13 1;
#X connect 17 0 4 0;
#X connect 19 0 37 0;
#X connect 20 0 49 0;
#X connect 21 0 2 1;
#X connect 22 0 23 0;
#X connect 23 0 26 0;
#X connect 23 1 21 0;
#X connect 24 0 25 0;
#X connect 25 0 33 0;
#X connect 26 0 2 1;
#X connect 27 0 24 0;
#X connect 28 0 27 0;
#X connect 29 0 30 0;
#X connect 30 0 31 0;
#X connect 31 0 32 0;
#X connect 32 0 33 0;
#X connect 33 0 22 0;
#X connect 34 0 55 0;
#X connect 34 1 55 1;
#X connect 35 0 18 0;
#X connect 36 0 42 0;
#X connect 37 0 41 0;
#X connect 38 0 40 0;
#X connect 39 0 38 0;
#X connect 40 0 37 1;
#X connect 41 0 59 0;
#X connect 41 0 60 0;
#X connect 42 0 56 0;
#X connect 43 0 35 0;
#X connect 44 0 45 0;
#X connect 45 0 43 0;
#X connect 46 0 47 0;
#X connect 47 0 58 0;
#X connect 47 1 57 0;
#X connect 49 0 50 0;
#X connect 50 0 51 0;
#X connect 51 0 52 0;
#X connect 52 0 46 0;
#X connect 53 0 48 0;
#X connect 54 0 53 0;
#X connect 55 0 43 1;
#X connect 56 0 34 1;
#X connect 57 0 34 1;
#X connect 58 0 34 1;
#X connect 59 0 44 0;
#X connect 60 0 61 0;
#X connect 61 0 44 0;
