#N canvas 487 33 993 1057 12;
#X declare -path ./bop;
#X declare -path ./bop/babs;
#X obj 147 1006 hip~ 80;
#X obj 144 880 bop.casio~, f 23;
#A saved wave-1 0;
#A saved wave-2 0;
#A saved filter 0.271662;
#A saved attack 0;
#A saved decay 0.0857143;
#A saved sustain 0.742521;
#A saved release 0.0642857;
#A saved gain 1;
#X obj 368 691 loadbang;
#X obj 151 1088 throw~ left;
#X obj 64 39 declare -path ./bop;
#X obj 340 51 r sensor1;
#X obj 63 68 declare -path ./bop/babs;
#X obj 71 138 == \$1;
#X obj 71 194 switch~;
#X obj 71 164 tgl 16 0 empty empty ENABLE 20 10 0 10 #00ff04 #000000 #000000 0 1;
#X obj 72 110 r active-voice;
#X obj 341 153 babs.gate;
#X obj 393 103 == \$1;
#X obj 394 79 r active-voice;
#X obj 395 129 tgl 19 0 empty empty empty 0 -10 0 12 #fcfcfc #000000 #000000 0 1;
#X obj 371 719 delay 1000;
#X obj 929 1075 throw~ right;
#X obj 973 929 bop.instrument~;
#A saved instrument 1;
#X obj 927 1026 hip~ 80;
#X obj 364 755 bng 19 250 50 0 empty empty empty 0 -10 0 12 #fcfcfc #000000 #000000;
#X obj 994 536 > 0;
#X obj 994 560 change;
#X obj 994 584 sel 1;
#X obj 994 512 r sensor2;
#X obj 151 629 bop.semisteps, f 23;
#A saved semisteps 21.343;
#A saved root 48;
#A saved hold 0;
#A saved duration 0.121429;
#A saved velocity 1;
#X floatatom 339 189 5 0 0 0 - - - 0;
#X obj 410 321 sel 0 1 2;
#X obj 539 67 > 0;
#X obj 539 91 change;
#X obj 539 115 sel 1;
#X obj 539 144 bng 19 250 50 0 empty empty empty 0 -10 0 12 #fcfcfc #000000 #000000;
#X obj 228 468 metro 300;
#X obj 228 436 tgl 19 0 empty empty empty 0 -10 0 12 #fcfcfc #000000 #000000 0 1;
#X obj 227 499 bng 19 250 50 0 empty empty empty 0 -10 0 12 #fcfcfc #000000 #000000;
#X obj 226 528 f;
#X msg 226 565 semisteps \$1;
#X msg 399 349 7.52;
#X msg 421 386 9.343;
#X msg 424 427 12.435;
#X msg 355 790 filter loop 0.03 400 0.1 80 0.5 8000 0.2 4000 \, sustain loop 0.6 6000 1 6000, f 25;
#X obj 968 861 bop.semisteps, f 23;
#A saved semisteps 9;
#A saved root 48;
#A saved hold 0;
#A saved duration 0.121429;
#A saved velocity 1;
#X obj 1045 668 tgl 19 0 empty empty empty 0 -10 0 12 #fcfcfc #000000 #000000 0 1;
#X obj 1044 731 bng 19 250 50 0 empty empty empty 0 -10 0 12 #fcfcfc #000000 #000000;
#X obj 1043 760 f;
#X msg 1043 797 semisteps \$1;
#X msg 1252 604 7;
#X msg 1274 631 9;
#X msg 1291 693 12;
#X obj 794 569 r sensor2;
#X obj 796 675 babs.gate;
#X obj 848 625 == \$1;
#X obj 849 601 r active-voice;
#X obj 850 651 tgl 19 0 empty empty empty 0 -10 0 12 #fcfcfc #000000 #000000 0 1;
#X obj 775 836 sig~;
#X obj 775 860 babs.slide~ 0.1 0.1;
#X floatatom 798 732 5 0 0 0 - - - 0;
#X obj 775 784 babs.scale 0 1 0.5 1;
#X obj 728 762 sel 0;
#X msg 728 804 0;
#X obj 904 1016 *~;
#X obj 981 1099 *~ 1;
#X obj 1255 533 sel 0 1 2;
#X obj 994 613 bng 19 250 50 0 empty empty empty 0 -10 0 12 #fcfcfc #000000 #000000;
#X obj 537 174 f;
#X obj 537 208 + 1;
#X obj 537 246 mod 3;
#X obj 537 286 t b f;
#X obj 987 650 f;
#X obj 987 684 + 1;
#X obj 987 722 mod 3;
#X obj 987 762 t b f;
#X obj 1045 700 metro 150;
#X obj 824 -67 moses 0.3;
#X obj 884 -29 moses 0.6;
#X msg 821 -7 0;
#X obj 953 374 f;
#X obj 614 535 +;
#X obj 820 38 t f;
#X obj 877 39 t f;
#X obj 930 43 t f;
#X obj 886 101 change;
#X obj 884 150 sel 0 1 2;
#X msg 877 -3 1;
#X msg 932 -1 2;
#X msg 861 204 0;
#X msg 903 206 12;
#X msg 951 208 24;
#X obj 910 338 t f f;
#X obj 761 284 f;
#X obj 799 248 bng 19 250 50 0 empty empty empty 0 -10 0 12 #fcfcfc #000000 #000000;
#X obj 614 448 t f f;
#X obj 1425 413 moses 0.3;
#X obj 1485 451 moses 0.6;
#X msg 1422 473 0;
#X obj 1554 854 f;
#X obj 1215 1015 +;
#X obj 1421 518 t f;
#X obj 1478 519 t f;
#X obj 1531 523 t f;
#X obj 1487 581 change;
#X obj 1485 630 sel 0 1 2;
#X msg 1478 477 1;
#X msg 1533 479 2;
#X msg 1462 684 0;
#X msg 1504 686 12;
#X msg 1552 688 24;
#X obj 1511 818 t f f;
#X obj 1362 764 f;
#X obj 1400 728 bng 19 250 50 0 empty empty empty 0 -10 0 12 #fcfcfc #000000 #000000;
#X obj 1229 782 t f f;
#X connect 0 0 3 0;
#X connect 1 0 0 0;
#X connect 2 0 15 0;
#X connect 5 0 11 0;
#X connect 5 0 27 0;
#X connect 7 0 9 0;
#X connect 9 0 8 0;
#X connect 10 0 7 0;
#X connect 11 0 25 0;
#X connect 12 0 14 0;
#X connect 13 0 12 0;
#X connect 14 0 11 1;
#X connect 15 0 19 0;
#X connect 17 0 59 1;
#X connect 18 0 16 0;
#X connect 19 0 39 0;
#X connect 20 0 21 0;
#X connect 21 0 22 0;
#X connect 21 0 41 0;
#X connect 22 0 62 0;
#X connect 23 0 20 0;
#X connect 24 0 1 0;
#X connect 24 1 1 1;
#X connect 25 0 72 0;
#X connect 26 0 36 0;
#X connect 26 1 37 0;
#X connect 26 2 38 0;
#X connect 27 0 28 0;
#X connect 28 0 29 0;
#X connect 28 0 32 0;
#X connect 29 0 30 0;
#X connect 30 0 63 0;
#X connect 31 0 33 0;
#X connect 32 0 31 0;
#X connect 33 0 34 0;
#X connect 34 0 35 0;
#X connect 35 0 24 1;
#X connect 36 0 90 0;
#X connect 37 0 90 0;
#X connect 38 0 90 0;
#X connect 39 0 1 1;
#X connect 40 0 17 0;
#X connect 40 1 17 1;
#X connect 41 0 71 0;
#X connect 42 0 43 0;
#X connect 43 0 44 0;
#X connect 44 0 40 1;
#X connect 45 0 109 0;
#X connect 46 0 109 0;
#X connect 47 0 109 0;
#X connect 48 0 49 0;
#X connect 49 0 55 0;
#X connect 50 0 52 0;
#X connect 51 0 50 0;
#X connect 52 0 49 1;
#X connect 53 0 54 0;
#X connect 54 0 59 0;
#X connect 55 0 56 0;
#X connect 55 0 57 0;
#X connect 55 0 91 0;
#X connect 56 0 53 0;
#X connect 57 0 58 0;
#X connect 58 0 53 0;
#X connect 59 0 60 0;
#X connect 60 0 18 0;
#X connect 61 0 45 0;
#X connect 61 1 46 0;
#X connect 61 2 47 0;
#X connect 62 0 67 0;
#X connect 63 0 64 0;
#X connect 64 0 65 0;
#X connect 65 0 66 0;
#X connect 66 1 63 1;
#X connect 66 1 26 0;
#X connect 67 0 68 0;
#X connect 68 0 69 0;
#X connect 69 0 70 0;
#X connect 70 1 67 1;
#X connect 70 1 61 0;
#X connect 71 0 42 0;
#X connect 72 0 74 0;
#X connect 72 1 73 0;
#X connect 73 0 82 0;
#X connect 73 1 83 0;
#X connect 74 0 77 0;
#X connect 75 0 76 1;
#X connect 76 0 34 1;
#X connect 77 0 80 0;
#X connect 78 0 80 0;
#X connect 79 0 80 0;
#X connect 80 0 81 0;
#X connect 81 0 84 0;
#X connect 81 1 85 0;
#X connect 81 2 86 0;
#X connect 82 0 78 0;
#X connect 83 0 79 0;
#X connect 84 0 87 0;
#X connect 85 0 87 0;
#X connect 86 0 87 0;
#X connect 87 0 75 0;
#X connect 87 0 89 0;
#X connect 88 0 76 0;
#X connect 89 0 88 0;
#X connect 90 0 76 0;
#X connect 90 1 88 0;
#X connect 91 0 93 0;
#X connect 91 1 92 0;
#X connect 92 0 101 0;
#X connect 92 1 102 0;
#X connect 93 0 96 0;
#X connect 94 0 95 1;
#X connect 95 0 43 1;
#X connect 96 0 99 0;
#X connect 97 0 99 0;
#X connect 98 0 99 0;
#X connect 99 0 100 0;
#X connect 100 0 103 0;
#X connect 100 1 104 0;
#X connect 100 2 105 0;
#X connect 101 0 97 0;
#X connect 102 0 98 0;
#X connect 103 0 106 0;
#X connect 104 0 106 0;
#X connect 105 0 106 0;
#X connect 106 0 94 0;
#X connect 106 0 108 0;
#X connect 107 0 95 0;
#X connect 108 0 107 0;
#X connect 109 0 95 0;
#X connect 109 1 107 0;
