#N canvas 738 37 990 1052 12;
#X declare -path ./bop;
#X declare -path ./bop/babs;
#X obj 35 91 declare -path ./bop;
#X obj 34 120 declare -path ./bop/babs;
#X obj 42 190 == \$1;
#X obj 42 246 switch~;
#X obj 42 216 tgl 16 0 empty empty ENABLE 20 10 0 10 #00ff04 #000000 #000000 0 1;
#X obj 43 162 r active-voice;
#X obj 1099 783 throw~ right;
#X obj 529 73 babs.listsum;
#X text 546 109 total touch value 0 - 12;
#X msg 529 169 filter \$1;
#X obj 529 223 s \$0-to-casio-1;
#X obj 587 197 s \$0-to-casio-2;
#X obj 1283 74 babs.listsum;
#X text 1300 110 total touch value 0 - 12;
#X msg 1283 170 filter \$1;
#X obj 1283 224 s \$0-to-casio-3;
#X obj 1341 198 s \$0-to-casio-4;
#X obj 1098 760 *~ 1.5;
#X obj 529 139 babs.scale 0 6 0.3 1;
#X obj 1283 146 babs.scale 0 6 0.3 1;
#X obj 957 660 bop.casio~;
#A saved wave-1 1;
#A saved wave-2 0;
#A saved filter 0;
#A saved attack 0.142857;
#A saved decay 0.492857;
#A saved sustain 0.75;
#A saved release 0.507143;
#A saved gain 1;
#X obj 1102 482 bop.strum;
#A saved strum 0.130435;
#A saved chord 2;
#A saved shuffle 0;
#A saved root 48;
#A saved octaves 3;
#A saved velocity 0.888;
#A saved duration 0.444;
#X msg 1092 410 strum \$1;
#X obj 1107 691 bop.casio~;
#A saved wave-1 0;
#A saved wave-2 0;
#A saved filter 0.321429;
#A saved attack 0.1;
#A saved decay 0.3;
#A saved sustain 0.878571;
#A saved release 0.878571;
#A saved gain 1;
#X obj 906 43 r sensor2;
#X obj 897 161 babs.gate;
#X obj 949 111 == \$1;
#X obj 950 87 r active-voice;
#X obj 951 137 tgl 19 0 empty empty empty 0 -10 0 12 #fcfcfc #000000 #000000 0 1;
#X floatatom 952 200 5 0 0 0 - - - 0;
#X obj 953 234 moses 0.5;
#X obj 968 273 pack;
#X obj 771 617 bop.semisteps, f 23;
#A saved semisteps 0.797;
#A saved root 48;
#A saved hold 1;
#A saved duration 0.9;
#A saved velocity 1;
#X obj 734 469 tgl 19 0 empty empty empty 0 -10 0 12 #fcfcfc #000000 #000000 0 1;
#X obj 734 497 sel 0 1;
#X obj 734 363 > 0;
#X obj 734 387 change;
#X obj 734 411 sel 1;
#X obj 734 435 bng 19 250 50 0 empty empty empty 0 -10 0 12 #fcfcfc #000000 #000000;
#X floatatom 939 388 5 0 0 0 - - - 0;
#X obj 940 730 *~;
#X obj 940 514 sig~;
#X obj 940 538 babs.slide~ 0.1 0.1;
#X obj 940 453 babs.scale 0 1 0.5 1;
#X obj 888 450 sel 0;
#X msg 888 492 0;
#X msg 734 530 semisteps 0.797;
#X msg 755 567 semisteps 2.787;
#X obj 1026 327 babs.scale 0.5 1 0 1;
#X msg 1175 366 chord 2 \, root 48;
#X msg 1219 398 chord 6 \, root 50;
#X msg 797 381 filter \$1;
#X obj 797 350 babs.scale 0 0.5 0 0.8;
#X obj 170 953 throw~ left;
#X obj 233 232 babs.gate;
#X obj 285 182 == \$1;
#X obj 286 158 r active-voice;
#X obj 287 208 tgl 19 0 empty empty empty 0 -10 0 12 #fcfcfc #000000 #000000 0 1;
#X obj 232 280 s \$0-inputOne;
#X obj 363 689 cnv 19 400 200 empty empty empty 20 12 0 12 #feffc6 #404040 0;
#X obj 175 871 bop.sampler~;
#A saved pack ../../../samples/coldvoice_samplepack;
#A saved folder 1;
#A saved mode 0;
#A saved sample 0;
#A saved tune 0;
#A saved root 56;
#A saved loop 0;
#A saved loop-start 0;
#A saved loop-length 1;
#A saved attack 0;
#A saved release 0.964286;
#A saved gain 1;
#X msg 393 724 pack ../../../samples/coldvoice_samplepack;
#X msg 444 812 65 127;
#X text 391 704 any samplers used need this param set when they are created;
#X msg 425 759 folder 0;
#X text 492 758 numbers folder;
#X text 502 780 002_coldsamples01 folder;
#X msg 435 781 folder 1;
#X msg 412 845 64 127;
#X msg 140 690 strum \$1;
#X obj 256 762 bop.strum;
#A saved strum 0.118012;
#A saved chord 6;
#A saved shuffle 1;
#A saved root 50;
#A saved octaves 3;
#A saved velocity 0.888;
#A saved duration 0.521429;
#X msg 255 692 strum \$1;
#X obj 141 765 bop.strum;
#A saved strum 0;
#A saved chord 0;
#A saved shuffle 1;
#A saved root 46;
#A saved octaves 3;
#A saved velocity 0.888;
#A saved duration 0.444;
#X floatatom 218 344 5 0 0 0 - - - 0;
#X obj 211 375 moses 0.5;
#X obj 255 795 bop.casio~;
#A saved wave-1 6;
#A saved wave-2 0;
#A saved filter 0.210446;
#A saved attack 0.1;
#A saved decay 0.3;
#A saved sustain 0.7;
#A saved release 0.2;
#A saved gain 1;
#X obj 232 130 r sensor1;
#X obj 110 544 babs.scale 0 0.5 0 1;
#X obj 257 598 babs.scale 0.5 1 0 1;
#X obj 331 445 tgl 19 0 empty empty empty 0 -10 0 12 #fcfcfc #000000 #000000 0 1;
#X obj 331 473 sel 0 1;
#X obj 331 370 change;
#X obj 331 394 sel 1;
#X obj 331 418 bng 19 250 50 0 empty empty empty 0 -10 0 12 #fcfcfc #000000 #000000;
#X msg 297 516 chord 2 \, root 48;
#X msg 341 548 chord 6 \, root 50;
#X obj 331 346 > 0.5;
#X obj 444 422 loadbang;
#X obj 443 457 delay 1000;
#X msg 465 510 filter loop 0.5 4000 0.1 5000;
#X connect 2 0 4 0;
#X connect 4 0 3 0;
#X connect 5 0 2 0;
#X connect 7 0 18 0;
#X connect 9 0 10 0;
#X connect 9 0 11 0;
#X connect 12 0 19 0;
#X connect 14 0 15 0;
#X connect 14 0 16 0;
#X connect 17 0 6 0;
#X connect 18 0 9 0;
#X connect 19 0 14 0;
#X connect 20 0 40 1;
#X connect 21 0 23 0;
#X connect 21 1 23 1;
#X connect 22 0 21 0;
#X connect 23 0 17 0;
#X connect 24 0 25 0;
#X connect 25 0 29 0;
#X connect 25 0 39 0;
#X connect 25 0 35 0;
#X connect 26 0 28 0;
#X connect 27 0 26 0;
#X connect 28 0 25 1;
#X connect 29 0 30 0;
#X connect 30 0 31 0;
#X connect 30 0 52 0;
#X connect 30 1 31 1;
#X connect 30 1 48 0;
#X connect 31 0 12 0;
#X connect 32 0 20 0;
#X connect 32 1 20 1;
#X connect 33 0 34 0;
#X connect 34 0 46 0;
#X connect 34 0 49 0;
#X connect 34 1 47 0;
#X connect 34 1 50 0;
#X connect 35 0 36 0;
#X connect 36 0 37 0;
#X connect 37 0 38 0;
#X connect 38 0 33 0;
#X connect 39 0 43 0;
#X connect 39 0 44 0;
#X connect 40 0 17 0;
#X connect 41 0 42 0;
#X connect 42 0 40 0;
#X connect 43 0 41 0;
#X connect 44 0 45 0;
#X connect 45 0 41 0;
#X connect 46 0 32 1;
#X connect 47 0 32 1;
#X connect 48 0 22 0;
#X connect 49 0 21 1;
#X connect 50 0 21 1;
#X connect 51 0 20 0;
#X connect 52 0 51 0;
#X connect 54 0 58 0;
#X connect 54 0 73 0;
#X connect 54 0 86 0;
#X connect 55 0 57 0;
#X connect 56 0 55 0;
#X connect 57 0 54 1;
#X connect 60 0 53 0;
#X connect 61 0 60 1;
#X connect 62 0 60 1;
#X connect 64 0 60 1;
#X connect 67 0 60 1;
#X connect 68 0 60 1;
#X connect 69 0 72 0;
#X connect 70 0 75 0;
#X connect 70 1 75 1;
#X connect 71 0 70 0;
#X connect 72 0 60 0;
#X connect 72 1 60 1;
#X connect 73 0 74 0;
#X connect 74 0 77 0;
#X connect 74 1 78 0;
#X connect 75 0 53 0;
#X connect 76 0 54 0;
#X connect 77 0 69 0;
#X connect 78 0 71 0;
#X connect 79 0 80 0;
#X connect 80 0 84 0;
#X connect 80 1 85 0;
#X connect 81 0 82 0;
#X connect 82 0 83 0;
#X connect 83 0 79 0;
#X connect 84 0 70 0;
#X connect 85 0 70 0;
#X connect 86 0 81 0;
#X connect 87 0 88 0;
#X connect 88 0 89 0;
#X connect 89 0 70 1;
