#N canvas 665 32 846 1057 12;
#X declare -path ./bop;
#X declare -path ./bop/babs;
#X obj 35 91 declare -path ./bop;
#X obj 34 120 declare -path ./bop/babs;
#X obj 42 190 == \$1;
#X obj 42 246 switch~;
#X obj 42 216 tgl 16 0 empty empty ENABLE 20 10 0 10 #00ff04 #000000 #000000 0 1;
#X obj 43 162 r active-voice;
#X obj 845 884 throw~ right;
#X obj 906 43 r sensor2;
#X obj 897 161 babs.gate;
#X obj 949 111 == \$1;
#X obj 950 87 r active-voice;
#X obj 951 137 tgl 19 0 empty empty empty 0 -10 0 12 #fcfcfc #000000 #000000 0 1;
#X floatatom 903 218 5 0 0 0 - - - 0;
#X obj 842 701 bop.instrument~, f 17;
#A saved instrument 2;
#X obj 881 790 *~ 1.5;
#X obj 952 880 hip~;
#X msg 839 559 strum \$1;
#X obj 874 263 moses 0.5;
#X obj 842 651 bop.strum;
#A saved strum 0;
#A saved chord 0;
#A saved shuffle 1;
#A saved root 48;
#A saved octaves 3;
#A saved velocity 0.888;
#A saved duration 0.444;
#X obj 251 884 throw~ left;
#X obj 452 776 cnv 19 400 200 empty empty empty 20 12 0 12 #feffc6 #404040 0;
#X obj 254 802 bop.sampler~;
#A saved pack bop_samplepack;
#A saved folder 1;
#A saved mode 0;
#A saved sample 0;
#A saved tune 0;
#A saved root 40;
#A saved loop 1;
#A saved loop-start 0;
#A saved loop-length 1;
#A saved attack 0.1;
#A saved release 0.3;
#A saved gain 1;
#X msg 497 806 pack ../../../samples/coldvoice_samplepack;
#X msg 548 894 65 127;
#X text 495 786 any samplers used need this param set when they are created;
#X msg 529 841 folder 0;
#X text 596 840 numbers folder;
#X text 606 862 002_coldsamples01 folder;
#X msg 539 863 folder 1;
#X msg 516 927 64 127;
#X obj 255 730 bop.strum;
#A saved strum 0;
#A saved chord 0;
#A saved shuffle 1;
#A saved root 24;
#A saved octaves 3;
#A saved velocity 0.888;
#A saved duration 0.444;
#X msg 257 648 strum \$1;
#X obj 392 742 bop.casio~;
#A saved wave-1 0;
#A saved wave-2 0;
#A saved filter 0.7;
#A saved attack 0.1;
#A saved decay 0.3;
#A saved sustain 0.7;
#A saved release 0.2;
#A saved gain 1;
#X obj 386 693 bop.strum;
#A saved strum 0.00621116;
#A saved chord 0;
#A saved shuffle 1;
#A saved root 48;
#A saved octaves 3;
#A saved velocity 0.888;
#A saved duration 0.444;
#X msg 376 621 strum \$1;
#X obj 296 138 r sensor1;
#X obj 297 247 babs.gate;
#X obj 350 194 == \$1;
#X obj 350 166 r active-voice;
#X obj 357 220 tgl 19 0 empty empty empty 0 -10 0 12 #fcfcfc #000000 #000000 0 1;
#X floatatom 297 275 5 0 0 0 - - - 0;
#X obj 290 306 moses 0.5;
#X obj 240 518 babs.scale 0 0.5 0 1;
#X obj 387 572 babs.scale 0.5 1 0 1;
#X obj 574 396 loadbang;
#X obj 573 431 delay 1000;
#X msg 595 484 filter loop 0.7 4000 0.1 5000;
#X obj 793 301 babs.scale 0 0.5 0 1;
#X obj 1279 780 bop.casio~, f 23;
#A saved wave-1 3;
#A saved wave-2 3;
#A saved filter 0.203106;
#A saved attack 0.3;
#A saved decay 0.0857143;
#A saved sustain 0;
#A saved release 0.0642857;
#A saved gain 0.7;
#X obj 1316 721 pack f f;
#X msg 1678 548 filter \$1;
#X msg 1709 656 attack loop 0.2 1000 0.1 1000 0.015 3000 0.25 2000 0.05 2500 0.18 2800 0.22 1500 0.1 1800 0.3 2200 0.07 2700 0.19 1600 0.015 2000 0.28 2100 0.08 2400 0.17 2600 0.24 1800 0.05 2950 0.2 2300 0.12 1900 0.015 2100 0.26 2500 0.09 2900 0.18 2700 0.015 3000, f 93;
#X obj 1234 647 + \$1;
#X obj 1224 473 int;
#X obj 1223 511 select 0 5 7 12;
#X obj 1257 554 5;
#X obj 1289 551 7;
#X obj 1320 554 12;
#X obj 1225 552 0;
#X obj 1114 281 babs.counter;
#X obj 1114 305 % 4;
#X obj 1111 334 sel 0 1 2 3, f 24;
#X msg 1110 364 60;
#X msg 1152 365 64;
#X msg 1191 364 67;
#X obj 1108 416 t f;
#X obj 1838 532 loadbang;
#X obj 1115 207 change;
#X obj 1776 581 delay 1000;
#X obj 1716 612 bng 19 250 50 0 empty empty empty 0 -10 0 12 #fcfcfc #000000 #000000;
#X obj 1113 250 metro \$1;
#X obj 952 767 *~ 0.9;
#X obj 1223 440 babs.scale 0.5 1 0 12;
#X obj 1369 658 babs.scale 0.5 1 100 127;
#X obj 1209 202 babs.scale 0.5 1 150 300;
#X obj 1115 171 > 0.5;
#X msg 1233 366 74;
#X obj 1682 418 babs.scale 0.5 1 0.2 0.7;
#X connect 2 0 4 0;
#X connect 4 0 3 0;
#X connect 5 0 2 0;
#X connect 7 0 8 0;
#X connect 8 0 12 0;
#X connect 8 0 75 0;
#X connect 9 0 11 0;
#X connect 10 0 9 0;
#X connect 11 0 8 1;
#X connect 12 0 17 0;
#X connect 13 0 14 0;
#X connect 14 0 6 0;
#X connect 15 0 6 0;
#X connect 16 0 18 0;
#X connect 17 0 47 0;
#X connect 17 1 72 0;
#X connect 17 1 73 0;
#X connect 17 1 74 0;
#X connect 17 1 77 0;
#X connect 18 0 13 0;
#X connect 18 1 13 1;
#X connect 21 0 19 0;
#X connect 22 0 21 1;
#X connect 23 0 21 1;
#X connect 25 0 21 1;
#X connect 28 0 21 1;
#X connect 29 0 21 1;
#X connect 30 0 21 0;
#X connect 30 1 21 1;
#X connect 31 0 30 0;
#X connect 32 0 19 0;
#X connect 33 0 32 0;
#X connect 33 1 32 1;
#X connect 34 0 33 0;
#X connect 35 0 36 0;
#X connect 36 0 40 0;
#X connect 37 0 39 0;
#X connect 38 0 37 0;
#X connect 39 0 36 1;
#X connect 40 0 41 0;
#X connect 41 0 42 0;
#X connect 41 1 43 0;
#X connect 42 0 31 0;
#X connect 43 0 34 0;
#X connect 44 0 45 0;
#X connect 45 0 46 0;
#X connect 46 0 33 1;
#X connect 47 0 16 0;
#X connect 48 0 71 0;
#X connect 49 0 48 1;
#X connect 50 0 48 1;
#X connect 51 0 48 1;
#X connect 52 0 49 0;
#X connect 53 0 54 0;
#X connect 54 0 58 0;
#X connect 54 1 55 0;
#X connect 54 2 56 0;
#X connect 54 3 57 0;
#X connect 55 0 52 1;
#X connect 56 0 52 1;
#X connect 57 0 52 1;
#X connect 58 0 52 1;
#X connect 59 0 60 0;
#X connect 60 0 61 0;
#X connect 61 0 62 0;
#X connect 61 1 63 0;
#X connect 61 2 64 0;
#X connect 61 3 76 0;
#X connect 62 0 65 0;
#X connect 63 0 65 0;
#X connect 64 0 65 0;
#X connect 65 0 52 0;
#X connect 66 0 68 0;
#X connect 67 0 70 0;
#X connect 68 0 69 0;
#X connect 69 0 51 0;
#X connect 70 0 59 0;
#X connect 71 0 15 0;
#X connect 72 0 53 0;
#X connect 73 0 49 1;
#X connect 74 0 70 1;
#X connect 75 0 67 0;
#X connect 76 0 65 0;
#X connect 77 0 50 0;
