#N canvas 0 43 1199 1029 12;
#X declare -path ./bop;
#X declare -path ./bop/babs;
#X obj 35 91 declare -path ./bop;
#X obj 34 120 declare -path ./bop/babs;
#X obj 375 996 throw~ left;
#X obj 42 190 == \$1;
#X obj 42 246 switch~;
#X obj 42 216 tgl 16 0 empty empty ENABLE 20 10 0 10 #00ff04 #000000 #000000 0 1;
#X obj 43 162 r active-voice;
#X obj 312 163 babs.gate;
#X obj 364 113 == \$1;
#X obj 365 89 r active-voice;
#X obj 366 139 tgl 19 0 empty empty empty 0 -10 0 12 #fcfcfc #000000 #000000 0 1;
#X obj 1079 160 babs.gate;
#X obj 1131 110 == \$1;
#X obj 1132 86 r active-voice;
#X obj 1133 136 tgl 19 0 empty empty empty 0 -10 0 12 #fcfcfc #000000 #000000 0 1;
#X obj 311 61 r sensorsOne;
#X obj 311 211 s \$0-inputOne;
#X obj 1080 205 s \$0-inputTwo;
#X obj 1074 930 throw~ right;
#X obj 288 307 r \$0-inputOne;
#X obj 554 309 r \$0-inputOne;
#X obj 529 73 babs.listsum;
#X obj 529 35 r \$0-inputOne;
#X obj 408 537 tone-envelope 1 55;
#X obj 1283 74 babs.listsum;
#X obj 1283 36 r \$0-inputTwo;
#X obj 1030 305 r \$0-inputTwo;
#X obj 1077 54 r sensorsTwo;
#X obj 1226 308 r \$0-inputTwo;
#X text 148 406 left outside \; c pent;
#X text 744 443 left inside \; g pent;
#X text 918 447 right inside \; g pent;
#X text 1387 453 right outside \; d pent;
#X obj 1222 510 tone-envelope 1 74;
#X obj 1035 501 tone-envelope 0 67;
#X text 1291 168 total touch value 0 - 1;
#X text 541 165 total touch value 0 - 1;
#X obj 1105 632 *~ 2;
#X obj 250 523 trigger-note 0 48;
#X msg 585 784 instrument \$1;
#X obj 501 811 bop.instrument~, f 17;
#A saved instrument 1;
#X floatatom 585 758 5 0 0 0 - - - 0;
#X obj 584 701 bng 19 250 50 0 empty empty empty 0 -10 0 12 #fcfcfc #000000 #000000;
#X obj 585 732 random 4;
#X obj 584 672 stripnote;
#X obj 529 613 trigger-note 1 55;
#X obj 297 833 *~ 1.5;
#X obj 344 707 *~ 1;
#X msg 1323 784 instrument \$1;
#X obj 1239 811 bop.instrument~, f 17;
#A saved instrument 1;
#X floatatom 1323 758 5 0 0 0 - - - 0;
#X obj 1322 701 bng 19 250 50 0 empty empty empty 0 -10 0 12 #fcfcfc #000000 #000000;
#X obj 1323 732 random 4;
#X obj 1322 672 stripnote;
#X obj 1035 833 *~ 1.5;
#X obj 858 559 trigger-note 0 67;
#X obj 1267 613 trigger-note 1 74;
#X obj 368 923 hip~;
#X obj 529 139 babs.scale 0 6 0 5000;
#X obj 1090 883 hip~;
#X obj 1283 146 babs.scale 0 6 0 5000;
#X listbox 439 209 20 0 0 0 - - - 0;
#X floatatom 651 211 5 0 0 0 - - - 0;
#X connect 3 0 5 0;
#X connect 5 0 4 0;
#X connect 6 0 3 0;
#X connect 7 0 16 0;
#X connect 7 0 61 0;
#X connect 8 0 10 0;
#X connect 9 0 8 0;
#X connect 10 0 7 1;
#X connect 11 0 17 0;
#X connect 12 0 14 0;
#X connect 13 0 12 0;
#X connect 14 0 11 1;
#X connect 15 0 7 0;
#X connect 19 0 38 0;
#X connect 20 0 23 0;
#X connect 20 0 45 0;
#X connect 21 0 58 0;
#X connect 22 0 21 0;
#X connect 23 0 47 0;
#X connect 24 0 60 0;
#X connect 25 0 24 0;
#X connect 26 0 34 0;
#X connect 26 0 55 0;
#X connect 27 0 11 0;
#X connect 28 0 33 0;
#X connect 28 0 56 0;
#X connect 33 0 37 0;
#X connect 34 0 37 0;
#X connect 37 0 59 0;
#X connect 38 0 44 0;
#X connect 38 0 40 0;
#X connect 39 0 40 1;
#X connect 40 0 46 0;
#X connect 41 0 39 0;
#X connect 42 0 43 0;
#X connect 43 0 41 0;
#X connect 44 0 42 0;
#X connect 45 0 40 0;
#X connect 45 0 44 0;
#X connect 46 0 2 0;
#X connect 47 0 57 0;
#X connect 48 0 49 1;
#X connect 49 0 54 0;
#X connect 50 0 48 0;
#X connect 51 0 52 0;
#X connect 52 0 50 0;
#X connect 53 0 51 0;
#X connect 54 0 18 0;
#X connect 55 0 53 0;
#X connect 55 0 49 0;
#X connect 56 0 49 0;
#X connect 56 0 53 0;
#X connect 57 0 2 0;
#X connect 58 0 57 1;
#X connect 58 0 62 0;
#X connect 59 0 18 0;
#X connect 60 0 59 1;
