#N canvas 1353 104 1655 985 12;
#X declare -path ./bop;
#X declare -path ./bop/babs;
#X obj 371 540 bop.semisteps, f 23;
#A saved semisteps 0.4343;
#A saved root 48;
#A saved hold 1;
#A saved duration 0.9;
#A saved velocity 1;
#X obj 361 673 hip~ 80;
#X obj 372 591 bop.casio~, f 23;
#A saved wave-1 1;
#A saved wave-2 1;
#A saved filter 1;
#A saved attack 0.0214286;
#A saved decay 0.178571;
#A saved sustain 0.628571;
#A saved release 0;
#A saved gain 1;
#X obj 527 410 loadbang;
#X obj 358 777 throw~ left;
#X obj 60 29 declare -path ./bop;
#X obj 353 124 r sensor1;
#X obj 980 80 r sensor2;
#X obj 59 58 declare -path ./bop/babs;
#X obj 67 128 == \$1;
#X obj 67 184 switch~;
#X obj 67 154 tgl 16 0 empty empty ENABLE 20 10 0 10 #00ff04 #000000 #000000 0 1;
#X obj 68 100 r active-voice;
#X obj 354 226 babs.gate;
#X obj 406 176 == \$1;
#X obj 407 152 r active-voice;
#X obj 408 202 tgl 19 0 empty empty empty 0 -10 0 12 #fcfcfc #000000 #000000 0 1;
#X obj 982 186 babs.gate;
#X obj 1034 136 == \$1;
#X obj 1035 112 r active-voice;
#X obj 1036 162 tgl 19 0 empty empty empty 0 -10 0 12 #fcfcfc #000000 #000000 0 1;
#X floatatom 360 283 5 0 0 0 - - - 0;
#X obj 1055 451 bop.semisteps, f 23;
#A saved semisteps 7.52;
#A saved root 48;
#A saved hold 1;
#A saved duration 0.9;
#A saved velocity 1;
#X obj 961 662 hip~ 80;
#X obj 1056 502 bop.casio~, f 23;
#A saved wave-1 1;
#A saved wave-2 3;
#A saved filter 0.1;
#A saved attack 0.0214286;
#A saved decay 0.178571;
#A saved sustain 0.628571;
#A saved release 0;
#A saved gain 1;
#X obj 1260 278 loadbang;
#X obj 961 696 throw~ right;
#X msg 1253 373 filter loop 1 6000 0.1 12000 0.3 12000 0.2 6000 \, semisteps 7.52, f 49;
#X msg 523 491 filter loop 1 4000 0.1 8000 0.3 8000 0.2 4000 \, semisteps 0.4343, f 47;
#X obj 1258 325 delay 1000;
#X obj 527 434 delay 1000;
#X obj 361 625 *~;
#X obj 358 336 sig~;
#X obj 358 360 babs.slide~ 0.1 0.1;
#X obj 962 592 *~;
#X obj 981 296 sig~;
#X obj 981 320 babs.slide~ 0.1 0.1;
#X floatatom 984 243 5 0 0 0 - - - 0;
#X obj 133 397 tgl 19 0 empty empty empty 0 -10 0 12 #fcfcfc #000000 #000000 0 1;
#X obj 133 425 sel 0 1;
#X obj 121 296 tgl 19 0 empty empty empty 0 -10 0 12 #fcfcfc #000000 #000000 0 1;
#X obj 121 324 metro 6000;
#X msg 133 458 semisteps 0.4343;
#X msg 154 495 semisteps 2.3434;
#X obj 1376 175 tgl 19 0 empty empty empty 0 -10 0 12 #fcfcfc #000000 #000000 0 1;
#X obj 1376 203 sel 0 1;
#X obj 1410 95 tgl 19 0 empty empty empty 0 -10 0 12 #fcfcfc #000000 #000000 0 1;
#X obj 1410 123 metro 6000;
#X msg 1376 236 semisteps 7.52;
#X msg 1398 273 semisteps 9.343;
#X obj 214 260 r sensor1;
#X obj 214 284 > 0;
#X obj 214 308 change;
#X obj 214 332 sel 1;
#X obj 214 356 bng 19 250 50 0 empty empty empty 0 -10 0 12 #fcfcfc #000000 #000000;
#X obj 1254 97 > 0;
#X obj 1254 121 change;
#X obj 1254 145 sel 1;
#X obj 1254 169 bng 19 250 50 0 empty empty empty 0 -10 0 12 #fcfcfc #000000 #000000;
#X obj 1254 73 r sensor2;
#X connect 0 0 2 0;
#X connect 0 1 2 1;
#X connect 1 0 4 0;
#X connect 2 0 31 1;
#X connect 3 0 30 0;
#X connect 6 0 13 0;
#X connect 7 0 17 0;
#X connect 9 0 11 0;
#X connect 11 0 10 0;
#X connect 12 0 9 0;
#X connect 13 0 21 0;
#X connect 14 0 16 0;
#X connect 15 0 14 0;
#X connect 16 0 13 1;
#X connect 17 0 37 0;
#X connect 18 0 20 0;
#X connect 19 0 18 0;
#X connect 20 0 17 1;
#X connect 21 0 32 0;
#X connect 22 0 24 0;
#X connect 22 1 24 1;
#X connect 23 0 26 0;
#X connect 24 0 34 1;
#X connect 25 0 29 0;
#X connect 27 0 22 1;
#X connect 28 0 0 1;
#X connect 29 0 27 0;
#X connect 30 0 28 0;
#X connect 31 0 1 0;
#X connect 32 0 33 0;
#X connect 33 0 31 0;
#X connect 34 0 23 0;
#X connect 35 0 36 0;
#X connect 36 0 34 0;
#X connect 37 0 35 0;
#X connect 38 0 39 0;
#X connect 39 0 42 0;
#X connect 39 1 43 0;
#X connect 40 0 41 0;
#X connect 42 0 0 1;
#X connect 43 0 0 1;
#X connect 44 0 45 0;
#X connect 45 0 48 0;
#X connect 45 1 49 0;
#X connect 46 0 47 0;
#X connect 48 0 22 1;
#X connect 49 0 22 1;
#X connect 50 0 51 0;
#X connect 51 0 52 0;
#X connect 52 0 53 0;
#X connect 53 0 54 0;
#X connect 54 0 38 0;
#X connect 55 0 56 0;
#X connect 56 0 57 0;
#X connect 57 0 58 0;
#X connect 58 0 44 0;
#X connect 59 0 55 0;
