#N canvas 1920 32 1728 1057 12;
#X declare -path ./bop;
#X declare -path ./bop/babs;
#X obj 428 611 bop.instrument~;
#A saved instrument 0;
#X obj 427 703 hip~ 80;
#X obj 429 546 bop.strum, f 23;
#A saved strum 0;
#A saved chord 3;
#A saved shuffle 1;
#A saved root 26;
#A saved octaves 6;
#A saved velocity 1;
#A saved duration 0.971429;
#X obj 427 675 *~ 0.5;
#X msg 431 472 strum \$1;
#X obj 427 731 throw~ left;
#X obj 153 105 declare -path ./bop;
#X obj 422 133 r sensor1;
#X obj 153 133 declare -path ./bop/babs;
#X obj 153 189 == \$1;
#X obj 153 217 switch~;
#X obj 153 217 tgl 16 0 empty empty ENABLE 20 10 0 10 #00ff04 #000000 #000000 0 1;
#X obj 153 161 r active-voice;
#X obj 423 242 babs.gate;
#X obj 476 189 == \$1;
#X obj 476 161 r active-voice;
#X obj 476 217 tgl 19 0 empty empty empty 0 -10 0 12 #fcfcfc #000000 #000000 0 1;
#X floatatom 423 270 5 0 0 0 - - - 0;
#X obj 1100 133 babs.gate;
#X obj 1156 102 == \$1;
#X obj 1156 74 r active-voice;
#X obj 1156 130 tgl 19 0 empty empty empty 0 -10 0 12 #fcfcfc #000000 #000000 0 1;
#X floatatom 1109 242 5 0 0 0 - - - 0;
#X obj 881 750 hip~ 80;
#X obj 877 611 bop.casio~, f 23;
#A saved wave-1 7;
#A saved wave-2 7;
#A saved filter 0;
#A saved attack 0;
#A saved decay 0.0857143;
#A saved sustain 0.0255018;
#A saved release 0.0642857;
#A saved gain 1;
#X obj 890 675 *~ 0.7;
#X obj 881 778 throw~ right;
#X obj 1100 18 r sensor2;
#X msg 1044 342 filter \$1;
#X obj 873 46 > 0;
#X obj 878 161 babs.counter;
#X obj 878 189 % 4;
#X obj 878 217 sel 0 1 2 3, f 24;
#X obj 878 273 t f;
#X msg 878 245 48;
#X msg 919 242 52;
#X msg 958 242 55;
#X msg 1000 242 52;
#X msg 878 301 \$1 100;
#X obj 873 18 r sensor2;
#X obj 873 74 change;
#X obj 878 133 metro \$1;
#X obj 936 42 babs.scale 0 1 200 50;
#X obj 630 42 bop.ui;
#X msg 660 528 root 26 \, chord 3;
#X obj 639 430 tgl 19 0 empty empty empty 0 -10 0 12 #fcfcfc #000000 #000000 0 1;
#X obj 639 458 sel 0 1;
#X obj 639 374 tgl 19 0 empty empty empty 0 -10 0 12 #fcfcfc #000000 #000000 0 1;
#X obj 639 402 metro 6000;
#X msg 639 491 root 24 \, chord 7;
#X connect 0 0 3 0;
#X connect 1 0 5 0;
#X connect 2 0 0 0;
#X connect 2 1 0 1;
#X connect 3 0 1 0;
#X connect 4 0 2 0;
#X connect 7 0 13 0;
#X connect 9 0 11 0;
#X connect 11 0 10 0;
#X connect 12 0 9 0;
#X connect 13 0 17 0;
#X connect 14 0 16 0;
#X connect 14 0 47 0;
#X connect 15 0 14 0;
#X connect 16 0 13 1;
#X connect 17 0 4 0;
#X connect 18 0 22 0;
#X connect 19 0 21 0;
#X connect 20 0 19 0;
#X connect 21 0 18 1;
#X connect 22 0 28 0;
#X connect 23 0 26 0;
#X connect 24 0 25 0;
#X connect 25 0 23 0;
#X connect 27 0 18 0;
#X connect 28 0 24 1;
#X connect 29 0 40 0;
#X connect 30 0 31 0;
#X connect 31 0 32 0;
#X connect 32 0 34 0;
#X connect 32 1 35 0;
#X connect 32 2 36 0;
#X connect 32 3 37 0;
#X connect 33 0 38 0;
#X connect 34 0 33 0;
#X connect 35 0 33 0;
#X connect 36 0 33 0;
#X connect 37 0 33 0;
#X connect 38 0 24 0;
#X connect 39 0 29 0;
#X connect 39 0 42 0;
#X connect 40 0 41 0;
#X connect 41 0 30 0;
#X connect 42 0 41 1;
#X connect 43 0 2 0;
#X connect 44 0 2 1;
#X connect 45 0 46 0;
#X connect 46 0 49 0;
#X connect 46 1 44 0;
#X connect 47 0 48 0;
#X connect 48 0 45 0;
#X connect 49 0 2 1;
