#N canvas 446 32 1280 1052 12;
#X declare -path ./bop;
#X declare -path ./bop/babs;
#X obj 328 1151 hip~ 80;
#X obj 1906 1255;
#X obj 83 82 declare -path ./bop;
#X obj 678 315 r sensor1;
#X obj 1251 294 r sensor2;
#X obj 85 111 declare -path ./bop/babs;
#X obj 93 181 == \$1;
#X obj 93 237 switch~;
#X obj 93 207 tgl 16 0 empty empty ENABLE 20 10 0 10 #00ff04 #000000 #000000 0 1;
#X obj 94 153 r active-voice;
#X obj 679 417 babs.gate;
#X obj 731 367 == \$1;
#X obj 732 343 r active-voice;
#X obj 733 393 tgl 19 0 empty empty empty 0 -10 0 12 #fcfcfc #000000 #000000 0 1;
#X obj 1253 400 babs.gate;
#X obj 1305 350 == \$1;
#X obj 1306 326 r active-voice;
#X obj 1307 376 tgl 19 0 empty empty empty 0 -10 0 12 #fcfcfc #000000 #000000 0 1;
#X floatatom 1250 460 5 0 0 0 - - - 0;
#X obj 329 1183 throw~ left;
#X obj 1058 787 bop.instrument~;
#A saved instrument 1;
#X obj 1061 1166 hip~ 80;
#X obj 1059 969 *~ 0.5;
#X obj 1060 1204 throw~ right;
#X obj 3304 1181;
#X obj 328 1074 bop.casio~, f 13;
#A saved wave-1 3;
#A saved wave-2 3;
#A saved filter 0.623254;
#A saved attack 0.0744414;
#A saved decay 0.207143;
#A saved sustain 0;
#A saved release 0.0642857;
#A saved gain 0.7;
#X obj 328 1113 *~ 0.7;
#X obj 735 754 babs.scale 0 1 100 127;
#X obj 391 753 + \$1, f 23;
#X obj 539 634 int;
#X obj 538 601 babs.scale 0 1 0 12;
#X obj 538 672 select 0 5 7 12;
#X obj 569 707 5;
#X obj 601 704 7;
#X obj 632 707 12;
#X obj 537 705 0;
#X msg 437 908 filter loop 0.9 400 0.1 8000 0.75 7000 0.2 12000 0.4 6000 0.05 11000 0.3 7000 0.6 5000 0.15 10000 0.08 9000 0.5 8000 0.2 4000 \, attack loop 0.2 1000 0.1 1000 0.015 3000 0.25 2000 0.05 2500 0.18 2800 0.22 1500 0.1 1800 0.3 2200 0.07 2700 0.19 1600 0.015 2000, f 53;
#X obj 430 851 loadbang;
#X obj 394 804 pack, f 48;
#X obj 412 268 r sensor1;
#X obj 391 306 > 0;
#X obj 392 436 babs.counter;
#X obj 392 460 % 4;
#X obj 389 489 sel 0 1 2 3, f 24;
#X msg 388 519 60;
#X msg 430 520 64;
#X msg 469 519 67;
#X msg 511 521 71;
#X obj 386 571 t f;
#X obj 389 333 change;
#X obj 437 883 delay 1000;
#X obj 391 405 metro 150;
#X obj 515 209 r sensor1;
#X obj 516 311 babs.gate;
#X obj 568 261 == \$1;
#X obj 569 237 r active-voice;
#X obj 570 287 tgl 19 0 empty empty empty 0 -10 0 12 #fcfcfc #000000 #000000 0 1;
#X floatatom 502 410 5 0 0 0 - - - 0;
#X obj 455 368 babs.scale 0 1 100 280;
#X obj 1450 928 bop.casio~;
#A saved wave-1 2;
#A saved wave-2 2;
#A saved filter 0.7;
#A saved attack 0.1;
#A saved decay 0.3;
#A saved sustain 1;
#A saved release 0.492857;
#A saved gain 1;
#X obj 1041 727 bop.semisteps, f 23;
#A saved semisteps 0;
#A saved root 60;
#A saved hold 0;
#A saved duration 0.25;
#A saved velocity 0.75;
#X msg 1429 523 semisteps 0;
#X msg 948 605 root 60;
#X msg 949 631 root 64;
#X msg 949 661 root 67;
#X msg 950 691 root 72;
#X obj 1443 785 bop.semisteps, f 23;
#A saved semisteps 0;
#A saved root 24;
#A saved hold 1;
#A saved duration 1;
#A saved velocity 0.75;
#X msg 1132 568 root 24;
#X msg 1133 594 root 28;
#X msg 1133 624 root 31;
#X msg 1134 654 root 36;
#X obj 1426 408 > 0;
#X obj 1426 432 change;
#X obj 1426 456 sel 1;
#X obj 1426 480 bng 19 250 50 0 empty empty empty 0 -10 0 12 #fcfcfc #000000 #000000;
#X obj 1426 384 r sensor2;
#X obj 1373 1005 *~;
#X obj 1371 813 sig~;
#X obj 1371 837 babs.slide~ 0.1 0.1;
#X obj 1372 704 babs.scale 0 1 0.5 1;
#X obj 1318 749 sel 0;
#X msg 1318 791 0;
#X msg 1602 702 filter \$1;
#X obj 1224 1088 *~ 2;
#X obj 1757 823 bop.ui;
#X obj 1290 892 print;
#X obj 1972 582 bop.ui;
#X obj 1578 611 babs.scale 0 1 0.7 0.9;
#X connect 0 0 19 0;
#X connect 3 0 10 0;
#X connect 4 0 14 0;
#X connect 6 0 8 0;
#X connect 8 0 7 0;
#X connect 9 0 6 0;
#X connect 10 0 27 0;
#X connect 10 0 30 0;
#X connect 11 0 13 0;
#X connect 12 0 11 0;
#X connect 13 0 10 1;
#X connect 14 0 18 0;
#X connect 15 0 17 0;
#X connect 16 0 15 0;
#X connect 17 0 14 1;
#X connect 18 0 79 0;
#X connect 18 0 80 0;
#X connect 18 0 87 0;
#X connect 20 0 22 0;
#X connect 21 0 23 0;
#X connect 22 0 21 0;
#X connect 25 0 26 0;
#X connect 26 0 0 0;
#X connect 27 0 38 1;
#X connect 28 0 38 0;
#X connect 29 0 31 0;
#X connect 30 0 29 0;
#X connect 31 0 35 0;
#X connect 31 1 32 0;
#X connect 31 2 33 0;
#X connect 31 3 34 0;
#X connect 32 0 28 1;
#X connect 32 0 63 0;
#X connect 32 0 68 0;
#X connect 33 0 28 1;
#X connect 33 0 64 0;
#X connect 33 0 69 0;
#X connect 34 0 28 1;
#X connect 34 0 65 0;
#X connect 34 0 70 0;
#X connect 35 0 28 1;
#X connect 35 0 62 0;
#X connect 35 0 67 0;
#X connect 36 0 25 1;
#X connect 37 0 50 0;
#X connect 38 0 25 1;
#X connect 39 0 40 0;
#X connect 40 0 49 0;
#X connect 41 0 42 0;
#X connect 42 0 43 0;
#X connect 43 0 44 0;
#X connect 43 1 45 0;
#X connect 43 2 46 0;
#X connect 43 3 47 0;
#X connect 44 0 48 0;
#X connect 45 0 48 0;
#X connect 46 0 48 0;
#X connect 47 0 48 0;
#X connect 48 0 28 0;
#X connect 49 0 51 0;
#X connect 50 0 36 0;
#X connect 51 0 41 0;
#X connect 52 0 53 0;
#X connect 53 0 58 0;
#X connect 54 0 56 0;
#X connect 55 0 54 0;
#X connect 56 0 53 1;
#X connect 58 0 51 1;
#X connect 58 0 57 0;
#X connect 59 0 76 1;
#X connect 60 0 20 0;
#X connect 60 1 20 1;
#X connect 61 0 60 1;
#X connect 61 0 66 1;
#X connect 62 0 60 0;
#X connect 63 0 60 0;
#X connect 64 0 60 0;
#X connect 65 0 60 0;
#X connect 66 0 59 0;
#X connect 66 1 59 1;
#X connect 67 0 66 0;
#X connect 68 0 66 0;
#X connect 69 0 66 0;
#X connect 70 0 66 0;
#X connect 71 0 72 0;
#X connect 72 0 73 0;
#X connect 73 0 74 0;
#X connect 74 0 61 0;
#X connect 75 0 71 0;
#X connect 76 0 83 0;
#X connect 77 0 78 0;
#X connect 78 0 76 0;
#X connect 79 0 77 0;
#X connect 80 0 81 0;
#X connect 81 0 77 0;
#X connect 81 0 85 0;
#X connect 82 0 59 1;
#X connect 83 0 21 0;
#X connect 84 0 59 1;
#X connect 86 0 66 1;
#X connect 87 0 82 0;
