#N canvas 214 211 1193 605 12;
#X declare -path ./bop;
#X declare -path ./bop/babs;
#X obj 35 91 declare -path ./bop;
#X obj 34 120 declare -path ./bop/babs;
#X obj 398 768 throw~ left;
#X obj 42 190 == \$1;
#X obj 42 246 switch~;
#X obj 42 216 tgl 16 0 empty empty ENABLE 20 10 0 10 #00ff04 #000000 #000000 0 1;
#X obj 43 162 r active-voice;
#X obj 312 163 babs.gate;
#X obj 364 113 == \$1;
#X obj 365 89 r active-voice;
#X obj 366 139 tgl 19 0 empty empty empty 0 -10 0 12 #fcfcfc #000000 #000000 0 1;
#X obj 1079 160 babs.gate;
#X obj 1131 110 == \$1;
#X obj 1132 86 r active-voice;
#X obj 1133 136 tgl 19 0 empty empty empty 0 -10 0 12 #fcfcfc #000000 #000000 0 1;
#X obj 311 61 r sensorsOne;
#X obj 311 211 s \$0-inputOne;
#X obj 1080 205 s \$0-inputTwo;
#X obj 1099 783 throw~ right;
#X obj 288 307 r \$0-inputOne;
#X obj 554 309 r \$0-inputOne;
#X obj 529 73 babs.listsum;
#X obj 529 35 r \$0-inputOne;
#X obj 570 470 tone-envelope 3 57;
#X obj 559 505 tone-envelope 1 55;
#X obj 590 435 tone-envelope 5 59;
#X obj 606 406 tone-envelope 7 62;
#X obj 616 376 tone-envelope 9 64;
#X obj 1283 74 babs.listsum;
#X obj 1283 36 r \$0-inputTwo;
#X obj 1030 305 r \$0-inputTwo;
#X obj 1077 54 r sensorsTwo;
#X obj 1226 308 r \$0-inputTwo;
#X text 148 406 left outside \; c pent;
#X text 744 443 left inside \; g pent;
#X text 918 447 right inside \; g pent;
#X text 1387 453 right outside \; d pent;
#X obj 1222 510 tone-envelope 1 74;
#X obj 1233 475 tone-envelope 3 76;
#X obj 1253 440 tone-envelope 5 78;
#X obj 1279 381 tone-envelope 9 83;
#X obj 283 488 tone-envelope 0 48;
#X obj 294 453 tone-envelope 2 50;
#X obj 314 418 tone-envelope 4 52;
#X obj 330 389 tone-envelope 6 55;
#X obj 1035 501 tone-envelope 0 67;
#X obj 1046 466 tone-envelope 2 69;
#X obj 1066 431 tone-envelope 4 71;
#X obj 1092 372 tone-envelope 8 76;
#X obj 1082 402 tone-envelope 6 74;
#X obj 1269 411 tone-envelope 7 81;
#X obj 340 359 tone-envelope 8 57;
#X obj 1283 146 babs.scale 0 12 0 1;
#X text 1291 168 total touch value 0 - 1;
#X obj 529 139 babs.scale 0 12 0 1;
#X text 541 165 total touch value 0 - 1;
#X connect 3 0 5 0;
#X connect 5 0 4 0;
#X connect 6 0 3 0;
#X connect 7 0 16 0;
#X connect 8 0 10 0;
#X connect 9 0 8 0;
#X connect 10 0 7 1;
#X connect 11 0 17 0;
#X connect 12 0 14 0;
#X connect 13 0 12 0;
#X connect 14 0 11 1;
#X connect 15 0 7 0;
#X connect 19 0 41 0;
#X connect 19 0 42 0;
#X connect 19 0 43 0;
#X connect 19 0 44 0;
#X connect 19 0 51 0;
#X connect 20 0 27 0;
#X connect 20 0 26 0;
#X connect 20 0 25 0;
#X connect 20 0 24 0;
#X connect 20 0 23 0;
#X connect 21 0 54 0;
#X connect 22 0 21 0;
#X connect 23 0 2 0;
#X connect 24 0 2 0;
#X connect 25 0 2 0;
#X connect 26 0 2 0;
#X connect 27 0 2 0;
#X connect 28 0 52 0;
#X connect 29 0 28 0;
#X connect 30 0 45 0;
#X connect 30 0 46 0;
#X connect 30 0 47 0;
#X connect 30 0 48 0;
#X connect 30 0 49 0;
#X connect 31 0 11 0;
#X connect 32 0 37 0;
#X connect 32 0 38 0;
#X connect 32 0 39 0;
#X connect 32 0 40 0;
#X connect 32 0 50 0;
#X connect 37 0 18 0;
#X connect 38 0 18 0;
#X connect 39 0 18 0;
#X connect 40 0 18 0;
#X connect 41 0 2 0;
#X connect 42 0 2 0;
#X connect 43 0 2 0;
#X connect 44 0 2 0;
#X connect 45 0 18 0;
#X connect 46 0 18 0;
#X connect 47 0 18 0;
#X connect 48 0 18 0;
#X connect 49 0 18 0;
#X connect 50 0 18 0;
#X connect 51 0 2 0;
