#N canvas 486 458 1193 605 12;
#X declare -path ./bop;
#X declare -path ./bop/babs;
#X obj 35 91 declare -path ./bop;
#X obj 397 316 loadbang;
#X obj 787 420 bop.instrument~;
#A saved instrument 3;
#X msg 414 417 stop;
#X obj 393 358 delay 600;
#X obj 323 459 bop.sampler~;
#A saved pack ../../changi_samplepack;
#A saved folder 5;
#A saved mode 0;
#A saved sample 0;
#A saved tune 0;
#A saved root 40;
#A saved loop 0;
#A saved loop-start 0;
#A saved loop-length 1;
#A saved attack 0.1;
#A saved release 0.3;
#A saved gain 1;
#X obj 322 531 throw~ left;
#X obj 787 457 throw~ right;
#X obj 35 126 declare -path ./bop/babs;
#X obj 42 190 == \$1;
#X obj 42 246 switch~;
#X obj 42 216 tgl 16 0 empty empty ENABLE 20 10 0 10 #00ff04 #000000 #000000 0 1;
#X obj 42 160 r active-voice;
#X obj 322 491 *~ 2;
#X obj 330 206 babs.gate;
#X obj 382 156 == \$1;
#X obj 383 132 r active-voice;
#X obj 384 182 tgl 19 0 empty empty empty 0 -10 0 12 #fcfcfc #000000 #000000 0 1;
#X obj 788 195 babs.gate;
#X obj 840 145 == \$1;
#X obj 841 121 r active-voice;
#X obj 842 171 tgl 19 0 empty empty empty 0 -10 0 12 #fcfcfc #000000 #000000 0 1;
#X obj 327 267 * 127;
#X msg 327 291 64 \$1;
#X obj 330 238 tgl 19 0 empty empty empty 0 -10 0 12 #fcfcfc #000000 #000000 0 1;
#X obj 789 269 * 127;
#X msg 789 293 64 \$1;
#X obj 789 238 tgl 19 0 empty empty empty 0 -10 0 12 #fcfcfc #000000 #000000 0 1;
#X obj 329 70 r key;
#X obj 786 58 r key;
#X obj 329 101 route KEY_W;
#X obj 786 89 route KEY_H;
#X msg 390 383 pack ../../duet_samplepack \, folder 1;
#X connect 1 0 4 0;
#X connect 2 0 7 0;
#X connect 3 0 5 1;
#X connect 4 0 32 0;
#X connect 5 0 13 0;
#X connect 9 0 11 0;
#X connect 11 0 10 0;
#X connect 12 0 9 0;
#X connect 13 0 6 0;
#X connect 14 0 24 0;
#X connect 15 0 17 0;
#X connect 16 0 15 0;
#X connect 17 0 14 1;
#X connect 18 0 27 0;
#X connect 19 0 21 0;
#X connect 20 0 19 0;
#X connect 21 0 18 1;
#X connect 22 0 23 0;
#X connect 23 0 5 0;
#X connect 24 0 22 0;
#X connect 25 0 26 0;
#X connect 26 0 2 0;
#X connect 27 0 25 0;
#X connect 28 0 30 0;
#X connect 29 0 31 0;
#X connect 30 0 14 0;
#X connect 31 0 18 0;
#X connect 32 0 5 1;
