#N canvas 436 32 958 1057 12;
#X declare -path ./bop;
#X declare -path ./bop/babs;
#X obj 35 91 declare -path ./bop;
#X obj 34 120 declare -path ./bop/babs;
#X obj 42 190 == \$1;
#X obj 42 246 switch~;
#X obj 42 216 tgl 16 0 empty empty ENABLE 20 10 0 10 #00ff04 #000000 #000000 0 1;
#X obj 43 162 r active-voice;
#X obj 1079 160 babs.gate;
#X obj 1131 110 == \$1;
#X obj 1132 86 r active-voice;
#X obj 1133 136 tgl 19 0 empty empty empty 0 -10 0 12 #fcfcfc #000000 #000000 0 1;
#X obj 1080 205 s \$0-inputTwo;
#X obj 1094 862 throw~ right;
#X obj 529 73 babs.listsum;
#X obj 529 35 r \$0-inputOne;
#X obj 1283 74 babs.listsum;
#X obj 1283 36 r \$0-inputTwo;
#X text 1291 168 total touch value 0 - 1;
#X text 541 165 total touch value 0 - 1;
#X obj 1284 551 cnv 19 400 200 empty empty empty 20 12 0 12 #feffc6 #404040 0;
#X obj 1096 733 bop.sampler~;
#A saved pack ../../../samples/coldvoice_samplepack;
#A saved folder 2;
#A saved mode 0;
#A saved sample 5;
#A saved tune 0;
#A saved root 0;
#A saved loop 1;
#A saved loop-start 0;
#A saved loop-length 1;
#A saved attack 0.185714;
#A saved release 0.528571;
#A saved gain 0.521429;
#X msg 1365 674 65 127;
#X msg 1346 621 folder 0;
#X text 1413 620 numbers folder;
#X text 1423 642 002_coldsamples01 folder;
#X msg 1356 643 folder 1;
#X msg 1333 707 64 127;
#X text 1293 583 (samplepack already param set and saved :);
#X obj 529 139 babs.scale 0 6 0 1;
#X obj 1283 146 babs.scale 0 6 0 1;
#X obj 1077 54 r sensor2;
#X msg 931 565 strum \$1;
#X obj 932 640 bop.strum;
#A saved strum 0;
#A saved chord 0;
#A saved shuffle 1;
#A saved root 0;
#A saved octaves 3;
#A saved velocity 0.888;
#A saved duration 0.992857;
#X obj 1072 249 moses 0.5;
#X obj 911 452 babs.scale 0 0.5 0 1;
#X obj 1220 390 tgl 19 0 empty empty empty 0 -10 0 12 #fcfcfc #000000 #000000 0 1;
#X obj 1220 418 sel 0 1;
#X obj 1220 315 change;
#X obj 1220 339 sel 1;
#X obj 1220 363 bng 19 250 50 0 empty empty empty 0 -10 0 12 #fcfcfc #000000 #000000;
#X obj 1220 291 > 0.5;
#X obj 395 834 throw~ left;
#X obj 398 705 bop.casio~;
#A saved wave-1 0;
#A saved wave-2 0;
#A saved filter 0;
#A saved attack 0.1;
#A saved decay 0.392857;
#A saved sustain 0.828571;
#A saved release 0.521429;
#A saved gain 1;
#X obj 398 806 *~ 1.5;
#X obj 501 712 bop.strum;
#A saved strum 0.63354;
#A saved chord 6;
#A saved shuffle 1;
#A saved root 50;
#A saved octaves 3;
#A saved velocity 0.888;
#A saved duration 0.444;
#X msg 463 444 strum \$1;
#X obj 499 758 bop.casio~;
#A saved wave-1 0;
#A saved wave-2 0;
#A saved filter 0.0801242;
#A saved attack 0.1;
#A saved decay 0.3;
#A saved sustain 0.7;
#A saved release 0.2;
#A saved gain 1;
#X obj 296 138 r sensor1;
#X obj 297 247 babs.gate;
#X obj 350 194 == \$1;
#X obj 350 166 r active-voice;
#X obj 357 220 tgl 19 0 empty empty empty 0 -10 0 12 #fcfcfc #000000 #000000 0 1;
#X floatatom 297 275 5 0 0 0 - - - 0;
#X obj 290 306 moses 0.5;
#X obj 455 346 pack;
#X msg 563 444 filter \$1;
#X obj 193 638 bop.semisteps, f 23;
#A saved semisteps 2.787;
#A saved root 48;
#A saved hold 0;
#A saved duration 0.25;
#A saved velocity 0.75;
#X obj 156 490 tgl 19 0 empty empty empty 0 -10 0 12 #fcfcfc #000000 #000000 0 1;
#X obj 156 518 sel 0 1;
#X obj 156 384 > 0;
#X obj 156 408 change;
#X obj 156 432 sel 1;
#X obj 156 456 bng 19 250 50 0 empty empty empty 0 -10 0 12 #fcfcfc #000000 #000000;
#X floatatom 361 409 5 0 0 0 - - - 0;
#X obj 362 751 *~;
#X obj 362 535 sig~;
#X obj 362 559 babs.slide~ 0.1 0.1;
#X obj 362 474 babs.scale 0 1 0.5 1;
#X obj 310 471 sel 0;
#X msg 310 513 0;
#X msg 156 551 semisteps 0.797;
#X msg 177 588 semisteps 2.787;
#X msg 219 402 filter \$1;
#X msg 543 502 chord 2 \, root 48;
#X msg 587 534 chord 6 \, root 50;
#X obj 433 383 babs.scale 0.5 1 0 0.3;
#X obj 219 371 babs.scale 0 0.5 0 0.4;
#X obj 1635 780 bop.casio~, f 23;
#A saved wave-1 3;
#A saved wave-2 6;
#A saved filter 0.1;
#A saved attack 0.263354;
#A saved decay 0.0857143;
#A saved sustain 0;
#A saved release 0.0642857;
#A saved gain 1;
#X obj 2025 564 loadbang;
#X obj 1841 347 babs.gate;
#X obj 1898 294 == \$1;
#X obj 1899 270 r active-voice;
#X obj 1900 320 tgl 19 0 empty empty empty 0 -10 0 12 #fcfcfc #000000 #000000 0 1;
#X floatatom 1847 449 5 0 0 0 - - - 0;
#X msg 1828 566 attack \$1;
#X obj 1599 200 babs.counter;
#X obj 1599 224 % 4;
#X obj 1596 253 sel 0 1 2 3, f 24;
#X obj 1593 335 t f;
#X msg 1595 283 48;
#X msg 1637 284 52;
#X msg 1676 283 55;
#X msg 1718 285 52;
#X msg 1590 365 \$1 100;
#X obj 1600 141 change;
#X obj 2028 592 delay 1000;
#X obj 1598 169 metro \$1;
#X msg 2014 530 gain 1;
#X msg 2012 663 filter loop 0.03 400 0.1 80 0.5 8000 0.2 4000, f 25;
#X obj 2021 628 bng 19 250 50 0 empty empty empty 0 -10 0 12 #fcfcfc #000000 #000000;
#X obj 1845 242 r sensor2;
#X obj 1601 115 > 0.5;
#X obj 1677 118 babs.scale 0.5 1 150 400;
#X obj 1839 528 babs.scale 0.5 1 0.4 0;
#X obj 1843 375 moses 0.5;
#X connect 2 0 4 0;
#X connect 4 0 3 0;
#X connect 5 0 2 0;
#X connect 6 0 10 0;
#X connect 6 0 32 0;
#X connect 6 0 39 0;
#X connect 6 0 100 0;
#X connect 7 0 9 0;
#X connect 8 0 7 0;
#X connect 9 0 6 1;
#X connect 12 0 27 0;
#X connect 13 0 12 0;
#X connect 14 0 28 0;
#X connect 15 0 14 0;
#X connect 19 0 11 0;
#X connect 20 0 19 1;
#X connect 21 0 19 1;
#X connect 24 0 19 1;
#X connect 25 0 19 1;
#X connect 29 0 6 0;
#X connect 30 0 31 0;
#X connect 31 0 19 0;
#X connect 31 1 19 1;
#X connect 32 0 33 0;
#X connect 32 1 101 0;
#X connect 33 0 30 0;
#X connect 34 0 35 0;
#X connect 36 0 37 0;
#X connect 37 0 38 0;
#X connect 38 0 34 0;
#X connect 39 0 36 0;
#X connect 41 0 63 1;
#X connect 42 0 40 0;
#X connect 43 0 45 0;
#X connect 43 1 45 1;
#X connect 44 0 43 0;
#X connect 45 0 42 0;
#X connect 46 0 47 0;
#X connect 47 0 51 0;
#X connect 47 0 62 0;
#X connect 47 0 58 0;
#X connect 48 0 50 0;
#X connect 49 0 48 0;
#X connect 50 0 47 1;
#X connect 51 0 52 0;
#X connect 52 0 75 0;
#X connect 52 0 53 0;
#X connect 52 1 74 0;
#X connect 52 1 44 0;
#X connect 52 1 53 1;
#X connect 54 0 43 0;
#X connect 55 0 41 0;
#X connect 55 1 41 1;
#X connect 56 0 57 0;
#X connect 57 0 69 0;
#X connect 57 0 72 0;
#X connect 57 1 70 0;
#X connect 57 1 73 0;
#X connect 58 0 59 0;
#X connect 59 0 60 0;
#X connect 60 0 61 0;
#X connect 61 0 56 0;
#X connect 62 0 66 0;
#X connect 62 0 67 0;
#X connect 63 0 42 0;
#X connect 64 0 65 0;
#X connect 65 0 63 0;
#X connect 66 0 64 0;
#X connect 67 0 68 0;
#X connect 68 0 64 0;
#X connect 69 0 55 1;
#X connect 70 0 55 1;
#X connect 71 0 41 0;
#X connect 72 0 43 0;
#X connect 73 0 43 0;
#X connect 74 0 54 0;
#X connect 75 0 71 0;
#X connect 76 0 11 0;
#X connect 77 0 94 0;
#X connect 78 0 103 0;
#X connect 79 0 81 0;
#X connect 80 0 79 0;
#X connect 81 0 78 1;
#X connect 82 0 102 0;
#X connect 83 0 76 1;
#X connect 84 0 85 0;
#X connect 85 0 86 0;
#X connect 86 0 88 0;
#X connect 86 1 89 0;
#X connect 86 2 90 0;
#X connect 86 3 91 0;
#X connect 87 0 92 0;
#X connect 88 0 87 0;
#X connect 89 0 87 0;
#X connect 90 0 87 0;
#X connect 91 0 87 0;
#X connect 92 0 76 0;
#X connect 93 0 95 0;
#X connect 94 0 98 0;
#X connect 95 0 84 0;
#X connect 96 0 76 1;
#X connect 97 0 76 1;
#X connect 98 0 97 0;
#X connect 99 0 78 0;
#X connect 100 0 93 0;
#X connect 101 0 95 1;
#X connect 102 0 83 0;
#X connect 103 1 82 0;
