#N canvas 541 32 1615 1191 12;
#X declare -path ./bop;
#X declare -path ./bop/babs;
#X obj 328 1151 hip~ 80;
#X obj 1906 1255;
#X obj 83 82 declare -path ./bop;
#X obj 617 319 r sensor1;
#X obj 1057 60 r sensor2;
#X obj 85 111 declare -path ./bop/babs;
#X obj 93 181 == \$1;
#X obj 93 237 switch~;
#X obj 93 207 tgl 16 0 empty empty ENABLE 20 10 0 10 #00ff04 #000000 #000000 0 1;
#X obj 94 153 r active-voice;
#X obj 618 421 babs.gate;
#X obj 670 371 == \$1;
#X obj 671 347 r active-voice;
#X obj 672 397 tgl 19 0 empty empty empty 0 -10 0 12 #fcfcfc #000000 #000000 0 1;
#X obj 1059 166 babs.gate;
#X obj 1111 116 == \$1;
#X obj 1112 92 r active-voice;
#X obj 1113 142 tgl 19 0 empty empty empty 0 -10 0 12 #fcfcfc #000000 #000000 0 1;
#X floatatom 1068 249 5 0 0 0 - - - 0;
#X obj 329 1183 throw~ left;
#X obj 1034 468 bop.instrument~;
#A saved instrument 1;
#X obj 1042 604 hip~ 80;
#X obj 1033 532 *~ 0.5;
#X msg 1028 342 strum \$1;
#X obj 1046 689 throw~ right;
#X obj 3304 1181;
#X obj 1017 408 bop.strum, f 23;
#A saved strum 0;
#A saved chord 7;
#A saved shuffle 1;
#A saved root 48;
#A saved octaves 4;
#A saved velocity 1;
#A saved duration 0.971429;
#X obj 328 1074 bop.casio~, f 13;
#A saved wave-1 3;
#A saved wave-2 3;
#A saved filter 0.4;
#A saved attack 0.22;
#A saved decay 0.207143;
#A saved sustain 0;
#A saved release 0.0642857;
#A saved gain 0.7;
#X obj 345 364 loadbang;
#X obj 345 394 bng 19 250 50 0 empty empty empty 0 -10 0 12 #fcfcfc #000000 #000000;
#X obj 345 451 bop.sequence;
#A saved loop 1;
#A saved scrub 0;
#A saved internal-sequence 60 100 \; - 100 \; 64 100 \; - 100 \; 67 100 \; - 100 \; 71 100 \;;
#X msg 387 423 open;
#X msg 345 422 go;
#X obj 328 1113 *~ 0.7;
#X msg 560 918 filter loop 0.9 400 0.1 8000 0.75 7000 0.2 12000 0.4 6000 0.05 11000 0.3 7000 0.6 5000 0.15 10000 0.08 9000 0.5 8000 0.2 4000 \, attack loop 0.2 1000 0.1 1000 0.015 3000 0.25 2000 0.05 2500 0.18 2800 0.22 1500 0.1 1800 0.3 2200 0.07 2700 0.19 1600 0.015 2000, f 39;
#X obj 563 880 loadbang;
#X obj 415 500 babs.gate;
#X obj 479 442 r sensor1;
#X obj 474 473 > 0;
#X msg 1230 361 strum loop 0 1000 0 1000 1 1000 1 1000;
#X obj 381 740 bop.strum, f 23;
#A saved strum 0.114029;
#A saved chord 7;
#A saved shuffle 1;
#A saved root 48;
#A saved octaves 4;
#A saved velocity 1;
#A saved duration 0.971429;
#X obj 1255 320 loadbang;
#X obj 810 586 metro 4000;
#X obj 810 610 tgl 19 0 empty empty empty 0 -10 0 12 #fcfcfc #000000 #000000 0 1;
#X obj 782 519 loadbang;
#X msg 782 543 1;
#X obj 810 634 sel 0 1;
#X msg 745 671 strum 0 1 2000;
#X msg 850 698 strum 0 1 2000;
#X obj 1270 542 tgl 19 0 empty empty empty 0 -10 0 12 #fcfcfc #000000 #000000 0 1;
#X obj 1242 451 loadbang;
#X msg 1242 475 1;
#X obj 1270 566 sel 0 1;
#X msg 1205 603 strum 0 1 2000;
#X msg 1310 630 strum 0 1 2000;
#X obj 1270 518 metro 4312;
#X connect 0 0 19 0;
#X connect 3 0 10 0;
#X connect 4 0 14 0;
#X connect 6 0 8 0;
#X connect 8 0 7 0;
#X connect 9 0 6 0;
#X connect 11 0 13 0;
#X connect 12 0 11 0;
#X connect 13 0 10 1;
#X connect 14 0 18 0;
#X connect 15 0 17 0;
#X connect 16 0 15 0;
#X connect 17 0 14 1;
#X connect 18 0 23 0;
#X connect 20 0 22 0;
#X connect 21 0 24 0;
#X connect 22 0 21 0;
#X connect 23 0 26 0;
#X connect 26 0 20 0;
#X connect 26 1 20 1;
#X connect 27 0 33 0;
#X connect 28 0 29 0;
#X connect 29 0 32 0;
#X connect 30 1 36 0;
#X connect 31 0 30 0;
#X connect 32 0 30 0;
#X connect 33 0 0 0;
#X connect 35 0 34 0;
#X connect 37 0 38 0;
#X connect 38 0 36 1;
#X connect 40 1 27 1;
#X connect 41 0 39 0;
#X connect 42 0 43 0;
#X connect 43 0 46 0;
#X connect 44 0 45 0;
#X connect 45 0 42 0;
#X connect 46 0 47 0;
#X connect 46 1 48 0;
#X connect 47 0 40 1;
#X connect 48 0 40 1;
#X connect 49 0 52 0;
#X connect 50 0 51 0;
#X connect 51 0 55 0;
#X connect 52 0 53 0;
#X connect 52 1 54 0;
#X connect 53 0 26 1;
#X connect 54 0 26 1;
#X connect 55 0 49 0;
