#N canvas 471 32 1204 1057 12;
#X declare -path ./bop;
#X declare -path ./bop/babs;
#X obj 147 1006 hip~ 80;
#X obj 144 880 bop.casio~, f 23;
#A saved wave-1 1;
#A saved wave-2 1;
#A saved filter 0.5;
#A saved attack 0.4;
#A saved decay 0.0857143;
#A saved sustain 0;
#A saved release 0.0642857;
#A saved gain 1;
#X obj 534 664 loadbang;
#X obj 151 1088 throw~ left;
#X obj 64 39 declare -path ./bop;
#X obj 354 342 r sensor1;
#X obj 63 68 declare -path ./bop/babs;
#X obj 71 138 == \$1;
#X obj 71 194 switch~;
#X obj 71 164 tgl 16 0 empty empty ENABLE 20 10 0 10 #00ff04 #000000 #000000 0 1;
#X obj 72 110 r active-voice;
#X obj 355 444 babs.gate;
#X obj 407 394 == \$1;
#X obj 408 370 r active-voice;
#X obj 409 420 tgl 19 0 empty empty empty 0 -10 0 12 #fcfcfc #000000 #000000 0 1;
#X floatatom 361 501 5 0 0 0 - - - 0;
#X msg 337 666 attack \$1;
#X obj 140 267 r sensor1;
#X obj 135 298 > 0;
#X obj 133 383 babs.counter;
#X obj 133 407 % 4;
#X obj 130 436 sel 0 1 2 3, f 24;
#X obj 127 518 t f;
#X msg 129 466 48;
#X msg 171 467 52;
#X msg 210 466 55;
#X msg 252 468 52;
#X msg 124 548 \$1 100;
#X obj 134 324 change;
#X obj 537 692 delay 1000;
#X obj 132 352 metro \$1;
#X obj 929 1075 throw~ right;
#X obj 914 399 r sensor2;
#X obj 916 505 babs.gate;
#X obj 968 455 == \$1;
#X obj 969 431 r active-voice;
#X obj 970 481 tgl 19 0 empty empty empty 0 -10 0 12 #fcfcfc #000000 #000000 0 1;
#X obj 927 1026 hip~ 80;
#X msg 523 630 gain 1;
#X obj 530 728 bng 19 250 50 0 empty empty empty 0 -10 0 12 #fcfcfc #000000 #000000;
#X obj 1279 492 > 0;
#X obj 1279 516 change;
#X obj 1279 540 sel 1;
#X obj 1279 468 r sensor2;
#X obj 211 301 babs.scale 0 1 150 400;
#X obj 348 628 babs.scale 0 1 0.4 0;
#X obj 944 866 bop.casio~;
#A saved wave-1 0;
#A saved wave-2 0;
#A saved filter 0.5;
#A saved attack 0.1;
#A saved decay 0.3;
#A saved sustain 0.7;
#A saved release 0.2;
#A saved gain 1;
#X obj 942 833 bop.semisteps;
#A saved semisteps 0.4343;
#A saved root 48;
#A saved hold 1;
#A saved duration 0.25;
#A saved velocity 0.75;
#X msg 1067 667 semisteps 0.4343;
#X obj 791 718 sig~;
#X obj 791 742 babs.slide~ 0.1 0.1;
#X floatatom 814 614 5 0 0 0 - - - 0;
#X obj 744 644 sel 0;
#X msg 744 686 0;
#X obj 937 922 *~;
#X msg 1079 703 semisteps 2.3434;
#X msg 1087 731 semisteps 4.3434;
#X msg 1094 765 semisteps 9.3434;
#X msg 780 846 filter \$1;
#X obj 149 943 *~ 1;
#X msg 521 763 filter loop 1 400 0.5 80 0.5 8000 0.2 4000, f 25;
#X obj 791 666 babs.scale 0 1 0.5 0.9;
#X connect 0 0 3 0;
#X connect 1 0 59 0;
#X connect 2 0 29 0;
#X connect 5 0 11 0;
#X connect 7 0 9 0;
#X connect 9 0 8 0;
#X connect 10 0 7 0;
#X connect 11 0 15 0;
#X connect 12 0 14 0;
#X connect 13 0 12 0;
#X connect 14 0 11 1;
#X connect 15 0 45 0;
#X connect 16 0 1 1;
#X connect 17 0 18 0;
#X connect 17 0 44 0;
#X connect 18 0 28 0;
#X connect 19 0 20 0;
#X connect 20 0 21 0;
#X connect 21 0 23 0;
#X connect 21 1 24 0;
#X connect 21 2 25 0;
#X connect 21 3 26 0;
#X connect 22 0 27 0;
#X connect 23 0 22 0;
#X connect 23 0 48 0;
#X connect 24 0 22 0;
#X connect 24 0 55 0;
#X connect 25 0 22 0;
#X connect 25 0 56 0;
#X connect 26 0 22 0;
#X connect 26 0 57 0;
#X connect 27 0 1 0;
#X connect 28 0 30 0;
#X connect 29 0 39 0;
#X connect 30 0 19 0;
#X connect 32 0 33 0;
#X connect 33 0 51 0;
#X connect 34 0 36 0;
#X connect 35 0 34 0;
#X connect 36 0 33 1;
#X connect 37 0 31 0;
#X connect 38 0 1 1;
#X connect 39 0 60 0;
#X connect 40 0 41 0;
#X connect 41 0 42 0;
#X connect 43 0 40 0;
#X connect 44 0 30 1;
#X connect 45 0 16 0;
#X connect 46 0 54 1;
#X connect 47 0 46 0;
#X connect 47 1 46 1;
#X connect 48 0 47 1;
#X connect 49 0 50 0;
#X connect 50 0 54 0;
#X connect 51 0 52 0;
#X connect 51 0 61 0;
#X connect 52 0 53 0;
#X connect 53 0 49 0;
#X connect 54 0 37 0;
#X connect 55 0 47 1;
#X connect 56 0 47 1;
#X connect 57 0 47 1;
#X connect 58 0 46 1;
#X connect 59 0 0 0;
#X connect 60 0 1 1;
#X connect 61 0 49 0;
#X connect 61 0 58 0;
