#N canvas 433 32 1989 1292 12;
#X declare -path ./bop;
#X declare -path ./bop/babs;
#X obj 147 1006 hip~ 80;
#X obj 144 880 bop.casio~, f 23;
#A saved wave-1 3;
#A saved wave-2 6;
#A saved filter 0.1;
#A saved attack 0.2;
#A saved decay 0.0857143;
#A saved sustain 0;
#A saved release 0.0642857;
#A saved gain 0;
#X msg 602 622 gain \$1;
#X obj 342 516 loadbang;
#X obj 151 1088 throw~ left;
#X obj 263 629 delay 1000;
#X obj 341 573 bng 19 250 50 0 empty empty empty 0 -10 0 12 #fcfcfc #000000 #000000;
#X obj 148 772 bop.sequence;
#A saved loop 1;
#A saved scrub 0;
#A saved internal-sequence 48 100 \; - 100 \; 52 100 \; - 100 \; 55 100 \; - 100 \; 52 100 \;;
#X msg 76 562 open;
#X msg 168 618 go;
#X obj 149 943 *~ 0.7;
#X obj 64 39 declare -path ./bop;
#X obj 568 207 r sensor1;
#X obj 63 68 declare -path ./bop/babs;
#X obj 71 138 == \$1;
#X obj 71 194 switch~;
#X obj 71 164 tgl 16 0 empty empty ENABLE 20 10 0 10 #00ff04 #000000 #000000 0 1;
#X obj 72 110 r active-voice;
#X obj 569 309 babs.gate;
#X obj 621 259 == \$1;
#X obj 622 235 r active-voice;
#X obj 623 285 tgl 19 0 empty empty empty 0 -10 0 12 #fcfcfc #000000 #000000 0 1;
#X obj 1489 326 babs.gate;
#X obj 1541 276 == \$1;
#X obj 1542 252 r active-voice;
#X obj 1543 302 tgl 19 0 empty empty empty 0 -10 0 12 #fcfcfc #000000 #000000 0 1;
#X floatatom 575 366 5 0 0 0 - - - 0;
#X floatatom 1498 409 5 0 0 0 - - - 0;
#X obj 1013 844 bop.semisteps, f 23;
#A saved semisteps 0.4343;
#A saved root 48;
#A saved hold 1;
#A saved duration 0.9;
#A saved velocity 0.75;
#X obj 1018 1025 hip~ 80;
#X obj 1014 895 bop.casio~, f 23;
#A saved wave-1 7;
#A saved wave-2 7;
#A saved filter 0.1;
#A saved attack 0;
#A saved decay 0.0857143;
#A saved sustain 0;
#A saved release 0.0642857;
#A saved gain 0;
#X msg 1489 574 gain \$1;
#X obj 1286 534 loadbang;
#X obj 1256 657 delay 1000;
#X obj 1211 588 bng 19 250 50 0 empty empty empty 0 -10 0 12 #fcfcfc #000000 #000000;
#X obj 1018 787 bop.sequence;
#A saved loop 1;
#A saved scrub 0;
#A saved internal-sequence 48 100 \; - 250 \; 52 100 \; - 250 \; 55 100 \; - 250 \; 52 100 \; - 250 \;;
#X msg 946 577 open;
#X msg 1038 633 go;
#X obj 1027 962 *~ 0.7;
#X obj 1022 1107 throw~ right;
#X obj 1413 237 r sensor2;
#X msg 299 693 filter loop 0.03 400 0.1 80 0.3 8000 0.2 4000, f 25;
#X msg 1227 717 filter loop 0.9 4000 0.1 80 0.3 8000 0.2 4000 \, sustain loop 0 8000 0.6 8000 \,, f 25;
#X obj 432 426 babs.scale 0 1 0.2 0;
#X msg 464 495 attack \$1;
#X msg 1244 440 filter \$1;
#X connect 0 0 4 0;
#X connect 1 0 10 0;
#X connect 2 0 1 1;
#X connect 3 0 6 0;
#X connect 5 0 41 0;
#X connect 6 0 5 0;
#X connect 6 0 9 0;
#X connect 7 0 1 0;
#X connect 7 1 1 1;
#X connect 8 0 7 0;
#X connect 9 0 7 0;
#X connect 10 0 0 0;
#X connect 12 0 18 0;
#X connect 14 0 16 0;
#X connect 16 0 15 0;
#X connect 17 0 14 0;
#X connect 18 0 26 0;
#X connect 19 0 21 0;
#X connect 20 0 19 0;
#X connect 21 0 18 1;
#X connect 22 0 27 0;
#X connect 23 0 25 0;
#X connect 24 0 23 0;
#X connect 25 0 22 1;
#X connect 26 0 2 0;
#X connect 26 0 43 0;
#X connect 27 0 31 0;
#X connect 27 0 45 0;
#X connect 28 0 30 0;
#X connect 28 1 30 1;
#X connect 29 0 39 0;
#X connect 30 0 38 0;
#X connect 31 0 30 1;
#X connect 32 0 34 0;
#X connect 33 0 42 0;
#X connect 34 0 33 0;
#X connect 34 0 37 0;
#X connect 35 0 28 0;
#X connect 35 1 28 1;
#X connect 36 0 35 0;
#X connect 37 0 35 0;
#X connect 38 0 29 0;
#X connect 40 0 22 0;
#X connect 41 0 1 1;
#X connect 42 0 30 1;
#X connect 43 0 44 0;
#X connect 44 0 1 1;
#X connect 45 0 30 1;
