#N canvas 580 60 746 1057 12;
#X declare -path ./bop;
#X declare -path ./bop/babs;
#X obj 285 533 bop.instrument~;
#A saved instrument 0;
#X obj 284 625 hip~ 80;
#X obj 286 468 bop.strum, f 23;
#A saved strum 1;
#A saved chord 0;
#A saved shuffle 1;
#A saved root 48;
#A saved octaves 3;
#A saved velocity 1;
#A saved duration 0.971429;
#X obj 284 597 *~ 0.5;
#X msg 288 394 strum \$1;
#X obj 284 653 throw~ left;
#X obj 10 27 declare -path ./bop;
#X obj 279 55 r sensor1;
#X obj 10 55 declare -path ./bop/babs;
#X obj 10 111 == \$1;
#X obj 16 172 switch~;
#X obj 10 139 tgl 16 0 empty empty ENABLE 20 10 0 10 #00ff04 #000000 #000000 0 1;
#X obj 10 83 r active-voice;
#X obj 280 164 babs.gate;
#X obj 333 111 == \$1;
#X obj 333 83 r active-voice;
#X obj 340 137 tgl 19 0 empty empty empty 0 -10 0 12 #fcfcfc #000000 #000000 0 1;
#X floatatom 280 192 5 0 0 0 - - - 0;
#X obj 892 966 throw~ right;
#X obj 1100 18 r sensor2;
#X obj 873 18 r sensor2;
#X obj 1051 658 bop.semisteps, f 23;
#A saved semisteps 0.4354;
#A saved root 48;
#A saved hold 1;
#A saved duration 0.9;
#A saved velocity 1;
#X obj 1041 791 hip~ 80;
#X obj 1196 340 loadbang;
#X obj 1023 156 babs.gate;
#X obj 1075 106 == \$1;
#X obj 1076 82 r active-voice;
#X obj 1077 132 tgl 19 0 empty empty empty 0 -10 0 12 #fcfcfc #000000 #000000 0 1;
#X floatatom 1029 213 5 0 0 0 - - - 0;
#X obj 1196 364 delay 1000;
#X obj 1041 743 *~;
#X obj 1030 339 sig~;
#X obj 1030 363 babs.slide~ 0.1 0.1;
#X obj 888 257 metro 6000;
#X obj 872 55 > 0;
#X obj 872 79 change;
#X obj 872 103 sel 1;
#X obj 870 226 == \$1;
#X obj 871 202 r active-voice;
#X obj 1052 709 bop.synth~, f 23;
#A saved osc1-wave 2;
#A saved osc1-tune 0;
#A saved osc1-pulsewidth 0.5;
#A saved osc1-gain 1;
#A saved osc2-wave 0;
#A saved osc2-tune 0;
#A saved osc2-pulsewidth 0.5;
#A saved osc2-gain 1;
#A saved noise 0;
#A saved cutoff 7341.89;
#A saved q 0;
#A saved mono 0;
#A saved slide 0;
#A saved attack 0;
#A saved decay 0.3;
#A saved sustain 0.7;
#A saved release 0.2;
#A saved gain 1;
#X msg 1192 421 cutoff loop 10000 4000 500 8000 10000 8000 10000 4000, f 47;
#X obj 1030 278 babs.scale 0 1 0.5 1;
#X obj 978 275 sel 0;
#X msg 978 317 0;
#X obj 224 273 babs.scale 0 1 1 0;
#X msg 368 351 root 40 \, chord 1;
#X obj 802 355 sel 0 1 2;
#X msg 387 431 root 48 \, chord 0;
#X obj 368 318 sel 0 1 2;
#X msg 389 388 root 41 \, chord 7;
#X obj 799 177 bng 19 250 50 0 empty empty empty 0 -10 0 12 #fcfcfc #000000 #000000;
#X obj 799 212 f;
#X obj 799 246 + 1;
#X obj 799 284 mod 3;
#X obj 799 318 t b f;
#X msg 893 624 semisteps \$1;
#X msg 802 388 4.3434;
#X msg 823 425 5.4343;
#X msg 844 458 0.4354;
#X obj 848 516 t f f;
#X obj 870 583 +;
#X obj 920 552 f;
#X obj 946 492 bng 19 250 50 0 empty empty empty 0 -10 0 12 #fcfcfc #000000 #000000;
#X obj 614 231 moses 0.3;
#X obj 674 269 moses 0.6;
#X msg 611 291 0;
#X obj 743 672 f;
#X obj 610 336 t f;
#X obj 667 337 t f;
#X obj 720 341 t f;
#X obj 676 399 change;
#X obj 674 448 sel 0 1 2;
#X msg 667 295 1;
#X msg 722 297 2;
#X msg 651 502 0;
#X msg 693 504 12;
#X msg 741 506 24;
#X obj 700 636 t f f;
#X connect 0 0 3 0;
#X connect 1 0 5 0;
#X connect 2 0 0 0;
#X connect 2 1 0 1;
#X connect 3 0 1 0;
#X connect 4 0 2 0;
#X connect 7 0 13 0;
#X connect 9 0 11 0;
#X connect 11 0 10 0;
#X connect 12 0 9 0;
#X connect 13 0 17 0;
#X connect 14 0 16 0;
#X connect 15 0 14 0;
#X connect 16 0 13 1;
#X connect 17 0 44 0;
#X connect 19 0 24 0;
#X connect 20 0 34 0;
#X connect 21 0 39 0;
#X connect 21 1 39 1;
#X connect 22 0 18 0;
#X connect 23 0 29 0;
#X connect 24 0 28 0;
#X connect 25 0 27 0;
#X connect 26 0 25 0;
#X connect 27 0 24 1;
#X connect 28 0 41 0;
#X connect 28 0 42 0;
#X connect 28 0 63 0;
#X connect 29 0 40 0;
#X connect 30 0 22 0;
#X connect 31 0 32 0;
#X connect 32 0 30 0;
#X connect 34 0 35 0;
#X connect 35 0 36 0;
#X connect 36 0 50 0;
#X connect 37 0 33 0;
#X connect 38 0 37 0;
#X connect 39 0 30 1;
#X connect 40 0 21 1;
#X connect 41 0 31 0;
#X connect 42 0 43 0;
#X connect 43 0 31 0;
#X connect 44 0 4 0;
#X connect 45 0 2 1;
#X connect 46 0 56 0;
#X connect 46 1 57 0;
#X connect 46 2 58 0;
#X connect 47 0 2 1;
#X connect 48 0 45 0;
#X connect 48 1 49 0;
#X connect 48 2 47 0;
#X connect 49 0 2 1;
#X connect 50 0 51 0;
#X connect 51 0 52 0;
#X connect 52 0 53 0;
#X connect 53 0 54 0;
#X connect 54 1 51 1;
#X connect 54 1 46 0;
#X connect 54 1 48 0;
#X connect 55 0 21 1;
#X connect 56 0 59 0;
#X connect 57 0 59 0;
#X connect 58 0 59 0;
#X connect 59 0 60 0;
#X connect 59 1 61 0;
#X connect 60 0 55 0;
#X connect 61 0 60 0;
#X connect 62 0 61 0;
#X connect 63 0 65 0;
#X connect 63 1 64 0;
#X connect 64 0 72 0;
#X connect 64 1 73 0;
#X connect 65 0 67 0;
#X connect 66 0 60 1;
#X connect 67 0 70 0;
#X connect 68 0 70 0;
#X connect 69 0 70 0;
#X connect 70 0 71 0;
#X connect 71 0 74 0;
#X connect 71 1 75 0;
#X connect 71 2 76 0;
#X connect 72 0 68 0;
#X connect 73 0 69 0;
#X connect 74 0 77 0;
#X connect 75 0 77 0;
#X connect 76 0 77 0;
#X connect 77 0 62 0;
#X connect 77 1 66 0;
