#N canvas 45 252 1008 705 12;
#X declare -path ./bop;
#X declare -path ./bop/babs;
#X obj 35 91 declare -path ./bop;
#X obj 34 120 declare -path ./bop/babs;
#X obj 526 187 == \$1;
#X obj 526 243 switch~;
#X obj 526 213 tgl 16 0 empty empty ENABLE 20 10 0 10 #00ff04 #000000 #000000 0 1;
#X obj 527 159 r active-voice;
#X obj 465 464 loadbang;
#X obj 292 643 throw~ left;
#X obj 389 644 throw~ right;
#X obj 292 597 bop.sampler~;
#A saved pack ../../duet_samplepack;
#A saved folder 0;
#A saved mode 1;
#A saved sample 0;
#A saved tune 0;
#A saved root 0;
#A saved loop 1;
#A saved loop-start 0;
#A saved loop-length 1;
#A saved attack 0.001;
#A saved release 5;
#A saved gain 1;
#X obj 328 160 babs.gate;
#X obj 380 110 == \$1;
#X obj 381 86 r active-voice;
#X obj 382 136 tgl 19 0 empty empty empty 0 -10 0 12 #fcfcfc #000000 #000000 0 1;
#X obj 330 22 r key;
#X obj 328 192 tgl 19 0 empty empty empty 0 -10 0 12 #fcfcfc #000000 #000000 0 1;
#X obj 330 53 route KEY_W;
#X obj 370 335 babs.counter;
#X floatatom 370 359 5 0 0 0 - - - 0;
#X msg 442 292 0;
#X obj 365 446 t f f;
#X obj 330 490 float;
#X msg 330 534 \$1 0;
#X obj 329 228 sel 0 1;
#X msg 379 533 \$1 127;
#X msg 260 524 stop;
#X obj 367 408 % 92;
#X obj 443 247 sel 1;
#X obj 462 498 float \$1;
#X msg 464 546 pack ../../duet_samplepack \, folder \$1 \, release 5 \, attack 0.001, f 32;
#X connect 2 0 4 0;
#X connect 4 0 3 0;
#X connect 4 0 27 0;
#X connect 5 0 2 0;
#X connect 6 0 28 0;
#X connect 9 0 7 0;
#X connect 9 0 8 0;
#X connect 10 0 15 0;
#X connect 11 0 13 0;
#X connect 12 0 11 0;
#X connect 13 0 10 1;
#X connect 14 0 16 0;
#X connect 15 0 23 0;
#X connect 16 0 10 0;
#X connect 17 0 18 0;
#X connect 18 0 26 0;
#X connect 19 0 17 1;
#X connect 20 0 21 1;
#X connect 20 1 24 0;
#X connect 21 0 22 0;
#X connect 22 0 9 1;
#X connect 23 0 21 0;
#X connect 23 1 17 0;
#X connect 24 0 9 1;
#X connect 25 0 9 0;
#X connect 26 0 20 0;
#X connect 27 0 19 0;
#X connect 28 0 29 0;
#X connect 29 0 9 1;
