#N canvas 1280 32 1728 1057 12;
#X declare -path ./bop;
#X declare -path ./bop/babs;
#X obj 322 990 hip~ 80;
#X obj 1906 1255;
#X obj 83 82 declare -path ./bop;
#X obj 661 75 r sensor1;
#X obj 1057 60 r sensor2;
#X obj 85 111 declare -path ./bop/babs;
#X obj 93 181 == \$1;
#X obj 93 237 switch~;
#X obj 93 207 tgl 16 0 empty empty ENABLE 20 10 0 10 #00ff04 #000000 #000000 0 1;
#X obj 94 153 r active-voice;
#X obj 662 177 babs.gate;
#X obj 714 127 == \$1;
#X obj 715 103 r active-voice;
#X obj 716 153 tgl 19 0 empty empty empty 0 -10 0 12 #fcfcfc #000000 #000000 0 1;
#X obj 1059 166 babs.gate;
#X obj 1111 116 == \$1;
#X obj 1112 92 r active-voice;
#X obj 1113 142 tgl 19 0 empty empty empty 0 -10 0 12 #fcfcfc #000000 #000000 0 1;
#X floatatom 668 234 5 0 0 0 - - - 0;
#X floatatom 1068 249 5 0 0 0 - - - 0;
#X obj 323 1022 throw~ left;
#X obj 1034 468 bop.instrument~;
#A saved instrument 1;
#X obj 1042 604 hip~ 80;
#X obj 1033 532 *~ 0.5;
#X msg 1028 342 strum \$1;
#X obj 1046 689 throw~ right;
#X obj 3304 1181;
#X obj 1017 408 bop.strum, f 23;
#A saved strum 0;
#A saved chord 7;
#A saved shuffle 1;
#A saved root 48;
#A saved octaves 4;
#A saved velocity 1;
#A saved duration 0.971429;
#X obj 322 871 bop.semisteps, f 23;
#A saved semisteps 0.4343;
#A saved root 48;
#A saved hold 1;
#A saved duration 0.9;
#A saved velocity 0.857143;
#X obj 322 913 bop.casio~, f 23;
#A saved wave-1 3;
#A saved wave-2 3;
#A saved filter 0.390283;
#A saved attack 0.070003;
#A saved decay 0.0857143;
#A saved sustain 0;
#A saved release 0.0642857;
#A saved gain 0.7;
#X obj 224 234 loadbang;
#X obj 196 333 delay 1000;
#X obj 149 288 bng 19 250 50 0 empty empty empty 0 -10 0 12 #fcfcfc #000000 #000000;
#X obj 317 512 bop.sequence;
#A saved loop 1;
#A saved scrub 0;
#A saved internal-sequence 60 100 \; - 100 \; 64 100 \; - 100 \; 67 100 \; - 100 \; 71 100 \;;
#X msg 80 415 open;
#X msg 101 322 go;
#X obj 322 952 *~ 0.7;
#X obj 398 554 unpack f f;
#X obj 409 835 pack f f;
#X obj 787 749 select 0;
#X obj 787 785 bng 19 250 50 0 empty empty empty 0 -10 0 12 #fcfcfc #000000 #000000;
#X msg 788 821 gain 0;
#X obj 840 784 bng 19 250 50 0 empty empty empty 0 -10 0 12 #fcfcfc #000000 #000000;
#X msg 846 823 gain 0.7;
#X obj 613 746 babs.scale 0 1 100 127;
#X obj 406 751 + \$1;
#X obj 465 642 int;
#X obj 464 609 babs.scale 0 1 0 12;
#X obj 464 680 select 0 5 7 12;
#X obj 498 723 5;
#X obj 530 720 7;
#X obj 561 723 12;
#X obj 466 721 0;
#X msg 239 391 filter loop 0.9 400 0.1 8000 0.75 7000 0.2 12000 0.4 6000 0.05 11000 0.3 7000 0.6 5000 0.15 10000 0.08 9000 0.5 8000 0.2 4000 \, attack loop 0.2 1000 0.1 1000 0.015 3000 0.25 2000 0.05 2500 0.18 2800 0.22 1500 0.1 1800 0.3 2200 0.07 2700 0.19 1600 0.015 2000;
#X connect 0 0 20 0;
#X connect 3 0 10 0;
#X connect 4 0 14 0;
#X connect 6 0 8 0;
#X connect 8 0 7 0;
#X connect 9 0 6 0;
#X connect 10 0 18 0;
#X connect 11 0 13 0;
#X connect 12 0 11 0;
#X connect 13 0 10 1;
#X connect 14 0 19 0;
#X connect 15 0 17 0;
#X connect 16 0 15 0;
#X connect 17 0 14 1;
#X connect 18 0 39 0;
#X connect 18 0 44 0;
#X connect 18 0 47 0;
#X connect 19 0 24 0;
#X connect 21 0 23 0;
#X connect 22 0 25 0;
#X connect 23 0 22 0;
#X connect 24 0 27 0;
#X connect 27 0 21 0;
#X connect 27 1 21 1;
#X connect 28 0 29 0;
#X connect 28 1 29 1;
#X connect 29 0 36 0;
#X connect 30 0 32 0;
#X connect 31 0 53 0;
#X connect 32 0 31 0;
#X connect 32 0 35 0;
#X connect 33 0 28 0;
#X connect 33 1 37 0;
#X connect 34 0 33 0;
#X connect 35 0 33 0;
#X connect 36 0 0 0;
#X connect 37 0 45 0;
#X connect 38 0 28 1;
#X connect 39 0 40 0;
#X connect 39 1 42 0;
#X connect 40 0 41 0;
#X connect 41 0 29 1;
#X connect 42 0 43 0;
#X connect 43 0 29 1;
#X connect 44 0 38 1;
#X connect 45 0 38 0;
#X connect 46 0 48 0;
#X connect 47 0 46 0;
#X connect 48 0 52 0;
#X connect 48 1 49 0;
#X connect 48 2 50 0;
#X connect 48 3 51 0;
#X connect 49 0 45 1;
#X connect 50 0 45 1;
#X connect 51 0 45 1;
#X connect 52 0 45 1;
#X connect 53 0 29 1;
