#N canvas 0 37 1470 891 12;
#X declare -path ./bop;
#X declare -path ./bop/babs;
#X obj 35 91 declare -path ./bop;
#X obj 34 120 declare -path ./bop/babs;
#X obj 398 768 throw~ left;
#X obj 42 190 == \$1;
#X obj 42 246 switch~;
#X obj 42 216 tgl 16 0 empty empty ENABLE 20 10 0 10 #00ff04 #000000 #000000 0 1;
#X obj 43 162 r active-voice;
#X obj 312 163 babs.gate;
#X obj 364 113 == \$1;
#X obj 365 89 r active-voice;
#X obj 366 139 tgl 19 0 empty empty empty 0 -10 0 12 #fcfcfc #000000 #000000 0 1;
#X obj 1079 160 babs.gate;
#X obj 1131 110 == \$1;
#X obj 1132 86 r active-voice;
#X obj 1133 136 tgl 19 0 empty empty empty 0 -10 0 12 #fcfcfc #000000 #000000 0 1;
#X obj 311 61 r sensorsOne;
#X obj 311 211 s \$0-inputOne;
#X obj 1080 205 s \$0-inputTwo;
#X obj 1099 783 throw~ right;
#X obj 288 357 r \$0-inputOne;
#X obj 554 359 r \$0-inputOne;
#X obj 398 705 bop.casio~;
#A saved wave-1 3;
#A saved wave-2 0;
#A saved filter 0.5;
#A saved attack 0.457143;
#A saved decay 0.492857;
#A saved sustain 0.7;
#A saved release 0.507143;
#A saved gain 1;
#X obj 529 73 babs.listsum;
#X text 546 109 total touch value 0 - 12;
#X obj 529 35 r \$0-inputOne;
#X obj 529 139 babs.scale 0 12 0.5 1;
#X msg 529 169 filter \$1;
#X obj 570 470 trigger-note 3 57;
#X obj 559 505 trigger-note 1 55;
#X obj 590 435 trigger-note 5 59;
#X obj 397 647 r \$0-to-casio-1;
#X obj 396 540 s \$0-to-casio-1;
#X obj 602 551 s \$0-to-casio-2;
#X obj 529 223 s \$0-to-casio-1;
#X obj 587 197 s \$0-to-casio-2;
#X obj 521 704 bop.casio~;
#A saved wave-1 4;
#A saved wave-2 0;
#A saved filter 0.5;
#A saved attack 0.414286;
#A saved decay 0.507143;
#A saved sustain 0.7;
#A saved release 0.507143;
#A saved gain 1;
#X obj 520 646 r \$0-to-casio-2;
#X obj 1283 74 babs.listsum;
#X text 1300 110 total touch value 0 - 12;
#X obj 1283 146 babs.scale 0 12 0.5 1;
#X msg 1283 170 filter \$1;
#X obj 1283 36 r \$0-inputTwo;
#X obj 1283 224 s \$0-to-casio-3;
#X obj 1341 198 s \$0-to-casio-4;
#X obj 1098 733 bop.casio~;
#A saved wave-1 1;
#A saved wave-2 0;
#A saved filter 0.5;
#A saved attack 0.1;
#A saved decay 0.3;
#A saved sustain 0.7;
#A saved release 0.2;
#A saved gain 1;
#X obj 1221 732 bop.casio~;
#A saved wave-1 2;
#A saved wave-2 1;
#A saved filter 0.5;
#A saved attack 0.1;
#A saved decay 0.3;
#A saved sustain 0.7;
#A saved release 0.2;
#A saved gain 1;
#X obj 1097 675 r \$0-to-casio-3;
#X obj 1220 674 r \$0-to-casio-4;
#X obj 1030 355 r \$0-inputTwo;
#X obj 1078 547 s \$0-to-casio-3;
#X obj 1077 54 r sensorsTwo;
#X obj 1226 358 r \$0-inputTwo;
#X obj 1276 557 s \$0-to-casio-4;
#X text 148 406 left outside \; c pent;
#X text 744 443 left inside \; g pent;
#X text 918 447 right inside \; g pent;
#X text 1387 453 right outside \; d pent;
#X obj 1222 510 trigger-note 1 74;
#X obj 1233 475 trigger-note 3 76;
#X obj 1253 440 trigger-note 5 78;
#X obj 283 488 trigger-note 0 48;
#X obj 294 453 trigger-note 2 50;
#X obj 314 418 trigger-note 4 52;
#X obj 1035 501 trigger-note 0 67;
#X obj 1046 466 trigger-note 2 69;
#X obj 1066 431 trigger-note 4 71;
#X obj 956 727 bop.instrument~;
#A saved instrument 3;
#X obj 949 664 r \$0-to-casio-3;
#X obj 949 688 route filter;
#X obj 1329 733 bop.instrument~;
#A saved instrument 3;
#X obj 1345 686 route filter;
#X obj 1345 662 r \$0-to-casio-4;
#X obj 250 704 bop.instrument~;
#A saved instrument 3;
#X obj 243 641 r \$0-to-casio-3;
#X obj 243 665 route filter;
#X obj 632 711 bop.instrument~;
#A saved instrument 3;
#X obj 648 664 route filter;
#X obj 648 640 r \$0-to-casio-4;
#X connect 3 0 5 0;
#X connect 5 0 4 0;
#X connect 6 0 3 0;
#X connect 7 0 16 0;
#X connect 8 0 10 0;
#X connect 9 0 8 0;
#X connect 10 0 7 1;
#X connect 11 0 17 0;
#X connect 12 0 14 0;
#X connect 13 0 12 0;
#X connect 14 0 11 1;
#X connect 15 0 7 0;
#X connect 19 0 60 0;
#X connect 19 0 61 0;
#X connect 19 0 62 0;
#X connect 20 0 29 0;
#X connect 20 0 28 0;
#X connect 20 0 27 0;
#X connect 21 0 2 0;
#X connect 22 0 25 0;
#X connect 24 0 22 0;
#X connect 25 0 26 0;
#X connect 26 0 33 0;
#X connect 26 0 34 0;
#X connect 27 0 32 0;
#X connect 28 0 32 0;
#X connect 29 0 32 0;
#X connect 30 0 21 0;
#X connect 35 0 2 0;
#X connect 36 0 35 0;
#X connect 37 0 39 0;
#X connect 39 0 40 0;
#X connect 40 0 42 0;
#X connect 40 0 43 0;
#X connect 41 0 37 0;
#X connect 44 0 18 0;
#X connect 45 0 18 0;
#X connect 46 0 44 0;
#X connect 47 0 45 0;
#X connect 48 0 63 0;
#X connect 48 0 64 0;
#X connect 48 0 65 0;
#X connect 50 0 11 0;
#X connect 51 0 57 0;
#X connect 51 0 58 0;
#X connect 51 0 59 0;
#X connect 57 0 52 0;
#X connect 58 0 52 0;
#X connect 59 0 52 0;
#X connect 60 0 31 0;
#X connect 61 0 31 0;
#X connect 62 0 31 0;
#X connect 63 0 49 0;
#X connect 64 0 49 0;
#X connect 65 0 49 0;
#X connect 66 0 18 0;
#X connect 67 0 68 0;
#X connect 68 1 66 0;
#X connect 69 0 18 0;
#X connect 70 1 69 0;
#X connect 71 0 70 0;
#X connect 72 0 2 0;
#X connect 73 0 74 0;
#X connect 74 1 72 0;
#X connect 75 0 2 0;
#X connect 76 1 75 0;
#X connect 77 0 76 0;
