#N canvas 650 31 1266 1057 12;
#X declare -path ./bop;
#X declare -path ./bop/babs;
#X obj 147 1006 hip~ 80;
#X obj 144 880 bop.casio~, f 23;
#A saved wave-1 3;
#A saved wave-2 6;
#A saved filter 0.350559;
#A saved attack 0.4;
#A saved decay 0.0857143;
#A saved sustain 0;
#A saved release 0.0642857;
#A saved gain 1;
#X obj 727 680 loadbang;
#X obj 151 1088 throw~ left;
#X obj 149 943 *~ 0.7;
#X obj 64 39 declare -path ./bop;
#X obj 547 358 r sensor1;
#X obj 63 68 declare -path ./bop/babs;
#X obj 71 138 == \$1;
#X obj 71 194 switch~;
#X obj 71 164 tgl 16 0 empty empty ENABLE 20 10 0 10 #00ff04 #000000 #000000 0 1;
#X obj 72 110 r active-voice;
#X obj 548 460 babs.gate;
#X obj 600 410 == \$1;
#X obj 601 386 r active-voice;
#X obj 602 436 tgl 19 0 empty empty empty 0 -10 0 12 #fcfcfc #000000 #000000 0 1;
#X floatatom 554 517 5 0 0 0 - - - 0;
#X msg 530 682 attack \$1;
#X obj 140 267 r sensor1;
#X obj 135 298 > 0;
#X obj 133 383 babs.counter;
#X msg 142 820 \$1 100;
#X obj 134 324 change;
#X obj 730 708 delay 1000;
#X obj 132 352 metro \$1;
#X obj 929 1075 throw~ right;
#X obj 914 399 r sensor2;
#X obj 916 505 babs.gate;
#X obj 968 455 == \$1;
#X obj 969 431 r active-voice;
#X obj 970 481 tgl 19 0 empty empty empty 0 -10 0 12 #fcfcfc #000000 #000000 0 1;
#X obj 924 914 bop.instrument~;
#A saved instrument 1;
#X obj 927 1026 hip~ 80;
#X obj 925 849 bop.strum, f 23;
#A saved strum 0;
#A saved chord 0;
#A saved shuffle 0;
#A saved root 60;
#A saved octaves 4;
#A saved velocity 1;
#A saved duration 0.971429;
#X obj 923 978 *~ 0.5;
#X msg 927 775 strum \$1;
#X floatatom 925 588 5 0 0 0 - - - 0;
#X msg 716 646 gain 1;
#X obj 723 744 bng 19 250 50 0 empty empty empty 0 -10 0 12 #fcfcfc #000000 #000000;
#X obj 1279 492 > 0;
#X obj 1279 516 change;
#X obj 1279 540 sel 1;
#X obj 1279 468 r sensor2;
#X obj 211 301 babs.scale 0 1 150 400;
#X obj 541 644 babs.scale 0 1 0.4 0;
#X msg 1067 667 root 48 \, chord 7;
#X msg 1079 703 root 53 \, chord 2;
#X msg 1087 731 root 55 \, chord 0;
#X msg 1094 765 root 60 \, chord 0;
#X msg 714 779 filter loop 0.03 400 0.1 80 0.4 8000 0.2 4000, f 25;
#X obj 145 773 t f;
#X msg 30 535 36 52 53 52;
#X msg 123 535 38 54 45 54;
#X obj 69 483 sel 0 1;
#X obj 69 451 tgl 19 0 empty empty empty 0 -10 0 12 #fcfcfc #000000 #000000 0 1;
#X obj 45 699 babs.nth;
#X obj 46 666 list;
#X obj 169 573 babs.counter;
#X obj 168 604 % 4;
#X obj 170 651 t b f;
#X obj 16 356 babs.counter;
#X obj 16 389 % 8;
#X obj 13 422 sel 0;
#X obj 15 318 t b b;
#X floatatom 49 759 5 0 0 0 - - - 0;
#X floatatom 257 684 5 0 0 0 - - - 0;
#X connect 0 0 3 0;
#X connect 1 0 4 0;
#X connect 2 0 23 0;
#X connect 4 0 0 0;
#X connect 6 0 12 0;
#X connect 8 0 10 0;
#X connect 10 0 9 0;
#X connect 11 0 8 0;
#X connect 12 0 16 0;
#X connect 13 0 15 0;
#X connect 14 0 13 0;
#X connect 15 0 12 1;
#X connect 16 0 44 0;
#X connect 17 0 1 1;
#X connect 18 0 19 0;
#X connect 18 0 43 0;
#X connect 19 0 22 0;
#X connect 20 0 63 0;
#X connect 21 0 1 0;
#X connect 22 0 24 0;
#X connect 23 0 38 0;
#X connect 24 0 20 0;
#X connect 26 0 27 0;
#X connect 27 0 36 0;
#X connect 28 0 30 0;
#X connect 29 0 28 0;
#X connect 30 0 27 1;
#X connect 31 0 34 0;
#X connect 32 0 25 0;
#X connect 33 0 31 0;
#X connect 33 1 31 1;
#X connect 34 0 32 0;
#X connect 35 0 33 0;
#X connect 36 0 35 0;
#X connect 37 0 1 1;
#X connect 38 0 49 0;
#X connect 39 0 40 0;
#X connect 40 0 41 0;
#X connect 42 0 39 0;
#X connect 43 0 24 1;
#X connect 44 0 17 0;
#X connect 45 0 33 1;
#X connect 46 0 33 1;
#X connect 47 0 33 1;
#X connect 48 0 33 1;
#X connect 49 0 1 1;
#X connect 50 0 21 0;
#X connect 51 0 56 1;
#X connect 52 0 56 1;
#X connect 53 0 51 0;
#X connect 53 1 52 0;
#X connect 54 0 53 0;
#X connect 55 0 64 0;
#X connect 56 0 55 0;
#X connect 57 0 58 0;
#X connect 58 0 65 0;
#X connect 58 0 59 0;
#X connect 59 0 56 0;
#X connect 59 1 55 1;
#X connect 60 0 61 0;
#X connect 61 0 62 0;
#X connect 62 0 54 0;
#X connect 63 0 60 0;
#X connect 63 1 57 0;
#X connect 64 0 50 0;
