#N canvas 0 43 1199 1029 12;
#X declare -path ./bop;
#X declare -path ./bop/babs;
#X obj 35 91 declare -path ./bop;
#X obj 34 120 declare -path ./bop/babs;
#X obj 375 996 throw~ left;
#X obj 42 190 == \$1;
#X obj 42 246 switch~;
#X obj 42 216 tgl 16 0 empty empty ENABLE 20 10 0 10 #00ff04 #000000 #000000 0 1;
#X obj 43 162 r active-voice;
#X obj 1074 930 throw~ right;
#X obj 408 537 tone-envelope 1 55;
#X obj 1030 305 r \$0-inputTwo;
#X obj 1226 308 r \$0-inputTwo;
#X text 148 406 left outside \; c pent;
#X text 744 443 left inside \; g pent;
#X text 918 447 right inside \; g pent;
#X text 1387 453 right outside \; d pent;
#X obj 1222 510 tone-envelope 1 74;
#X obj 1035 501 tone-envelope 0 67;
#X obj 1105 632 *~ 2;
#X obj 250 523 trigger-note 0 48;
#X msg 585 784 instrument \$1;
#X obj 501 811 bop.instrument~, f 17;
#A saved instrument 1;
#X floatatom 585 758 5 0 0 0 - - - 0;
#X obj 584 701 bng 19 250 50 0 empty empty empty 0 -10 0 12 #fcfcfc #000000 #000000;
#X obj 585 732 random 4;
#X obj 584 672 stripnote;
#X obj 529 613 trigger-note 1 55;
#X obj 297 833 *~ 1.5;
#X obj 344 707 *~ 1;
#X msg 1323 784 instrument \$1;
#X obj 1239 811 bop.instrument~, f 17;
#A saved instrument 1;
#X floatatom 1323 758 5 0 0 0 - - - 0;
#X obj 1322 701 bng 19 250 50 0 empty empty empty 0 -10 0 12 #fcfcfc #000000 #000000;
#X obj 1323 732 random 4;
#X obj 1322 672 stripnote;
#X obj 1035 833 *~ 1.5;
#X obj 858 559 trigger-note 0 67;
#X obj 1267 613 trigger-note 1 74;
#X obj 368 923 hip~;
#X obj 1090 883 hip~;
#X obj 296 138 r sensor1;
#X obj 297 247 babs.gate;
#X obj 350 194 == \$1;
#X obj 350 166 r active-voice;
#X obj 357 220 tgl 19 0 empty empty empty 0 -10 0 12 #fcfcfc #000000 #000000 0 1;
#X floatatom 297 275 5 0 0 0 - - - 0;
#X obj 906 43 r sensor2;
#X obj 897 161 babs.gate;
#X obj 949 111 == \$1;
#X obj 950 87 r active-voice;
#X obj 951 137 tgl 19 0 empty empty empty 0 -10 0 12 #fcfcfc #000000 #000000 0 1;
#X floatatom 903 218 5 0 0 0 - - - 0;
#X connect 3 0 5 0;
#X connect 5 0 4 0;
#X connect 6 0 3 0;
#X connect 8 0 27 0;
#X connect 9 0 16 0;
#X connect 9 0 35 0;
#X connect 10 0 15 0;
#X connect 10 0 36 0;
#X connect 15 0 17 0;
#X connect 16 0 17 0;
#X connect 17 0 38 0;
#X connect 18 0 24 0;
#X connect 18 0 20 0;
#X connect 19 0 20 1;
#X connect 20 0 26 0;
#X connect 21 0 19 0;
#X connect 22 0 23 0;
#X connect 23 0 21 0;
#X connect 24 0 22 0;
#X connect 25 0 20 0;
#X connect 25 0 24 0;
#X connect 26 0 2 0;
#X connect 27 0 37 0;
#X connect 28 0 29 1;
#X connect 29 0 34 0;
#X connect 30 0 28 0;
#X connect 31 0 32 0;
#X connect 32 0 30 0;
#X connect 33 0 31 0;
#X connect 34 0 7 0;
#X connect 35 0 33 0;
#X connect 35 0 29 0;
#X connect 36 0 29 0;
#X connect 36 0 33 0;
#X connect 37 0 2 0;
#X connect 38 0 7 0;
#X connect 39 0 40 0;
#X connect 40 0 44 0;
#X connect 41 0 43 0;
#X connect 42 0 41 0;
#X connect 43 0 40 1;
#X connect 45 0 46 0;
#X connect 46 0 50 0;
#X connect 47 0 49 0;
#X connect 48 0 47 0;
#X connect 49 0 46 1;
