#N canvas 617 52 1620 1248 12;
#X declare -path ./bop;
#X declare -path ./bop/babs;
#X obj 405 1055 hip~ 80;
#X obj 383 728 bop.strum, f 23;
#A saved strum 0;
#A saved chord 2;
#A saved shuffle 1;
#A saved root 48;
#A saved octaves 4;
#A saved velocity 1;
#A saved duration 0.971429;
#X obj 381 857 *~ 0.5;
#X msg 385 464 strum \$1;
#X obj 383 1119 throw~ left;
#X obj 382 793 bop.synth~;
#A saved osc1-wave 1;
#A saved osc1-tune 0;
#A saved osc1-pulsewidth 0.5;
#A saved osc1-gain 1;
#A saved osc2-wave 3;
#A saved osc2-tune 0;
#A saved osc2-pulsewidth 0.5;
#A saved osc2-gain 1;
#A saved noise 0;
#A saved cutoff 2600;
#A saved q 0.5;
#A saved mono 0;
#A saved slide 0;
#A saved attack 0.1;
#A saved decay 0.3;
#A saved sustain 0.221;
#A saved release 0.2;
#A saved gain 1;
#X obj 64 39 declare -path ./bop;
#X obj 333 60 r sensor1;
#X obj 912 41 r sensor2;
#X obj 63 68 declare -path ./bop/babs;
#X obj 71 138 == \$1;
#X obj 71 194 switch~;
#X obj 71 164 tgl 16 0 empty empty ENABLE 20 10 0 10 #00ff04 #000000 #000000 0 1;
#X obj 72 110 r active-voice;
#X obj 334 162 babs.gate;
#X obj 386 112 == \$1;
#X obj 387 88 r active-voice;
#X obj 388 138 tgl 19 0 empty empty empty 0 -10 0 12 #fcfcfc #000000 #000000 0 1;
#X obj 914 147 babs.gate;
#X obj 966 97 == \$1;
#X obj 967 73 r active-voice;
#X obj 968 123 tgl 19 0 empty empty empty 0 -10 0 12 #fcfcfc #000000 #000000 0 1;
#X floatatom 340 219 5 0 0 0 - - - 0;
#X floatatom 923 230 5 0 0 0 - - - 0;
#X obj 892 919 hip~ 80;
#X obj 890 789 bop.casio~, f 23;
#A saved wave-1 3;
#A saved wave-2 3;
#A saved filter 0;
#A saved attack 0.3;
#A saved decay 0.0857143;
#A saved sustain 0;
#A saved release 0.0642857;
#A saved gain 0;
#X obj 1096 438 loadbang;
#X obj 1097 535 delay 1000;
#X obj 1087 482 bng 19 250 50 0 empty empty empty 0 -10 0 12 #fcfcfc #000000 #000000;
#X obj 709 559 bop.sequence;
#A saved loop 1;
#A saved scrub 0;
#A saved internal-sequence 60 100 \; - 250 \; 64 100 \; - 250 \; 67 100 \; - 250 \; 71 100 \; - 250 \; 74 100 \; - 250 \;;
#X msg 642 427 open;
#X msg 734 483 go;
#X obj 870 983 throw~ right;
#X msg 1348 583 filter loop 0.9 600 0.1 8000 1 12000 0.2 6000 \, attack loop 0.5 1000 0.1 1000 0.015 3000 0.5 2000, f 25;
#X msg 544 418 stop;
#X obj 891 836 *~ 0.9;
#X obj 927 730 pack f f;
#X obj 955 299 select 0;
#X obj 955 335 bng 19 250 50 0 empty empty empty 0 -10 0 12 #fcfcfc #000000 #000000;
#X msg 956 371 gain 0;
#X obj 1008 334 bng 19 250 50 0 empty empty empty 0 -10 0 12 #fcfcfc #000000 #000000;
#X msg 1014 373 gain 0.7;
#X obj 980 667 babs.scale 0 1 100 127;
#X msg 824 359 filter \$1;
#X msg 1211 187 attack loop 0.2 1000 0.1 1000 0.015 3000 0.25 2000 0.05 2500 0.18 2800 0.22 1500 0.1 1800 0.3 2200 0.07 2700 0.19 1600 0.015 2000 0.28 2100 0.08 2400 0.17 2600 0.24 1800 0.05 2950 0.2 2300 0.12 1900 0.015 2100 0.26 2500 0.09 2900 0.18 2700 0.015 3000, f 25;
#X obj 837 459 unpack f f;
#X obj 845 656 + \$1;
#X obj 904 547 int;
#X obj 903 514 babs.scale 0 1 0 12;
#X obj 903 585 select 0 5 7 12;
#X obj 937 628 5;
#X obj 969 625 7;
#X obj 1000 628 12;
#X obj 905 626 0;
#X obj 385 348 bng 19 250 50 0 empty empty empty 0 -10 0 12 #fcfcfc #000000 #000000;
#X obj 438 347 bng 19 250 50 0 empty empty empty 0 -10 0 12 #fcfcfc #000000 #000000;
#X msg 506 385 sustain 0.221;
#X msg 386 384 sustain 1;
#X obj 385 312 select 1;
#X connect 0 0 4 0;
#X connect 1 0 5 0;
#X connect 1 1 5 1;
#X connect 2 0 0 0;
#X connect 3 0 1 0;
#X connect 5 0 2 0;
#X connect 7 0 14 0;
#X connect 8 0 18 0;
#X connect 10 0 12 0;
#X connect 12 0 11 0;
#X connect 13 0 10 0;
#X connect 14 0 22 0;
#X connect 15 0 17 0;
#X connect 16 0 15 0;
#X connect 17 0 14 1;
#X connect 18 0 23 0;
#X connect 19 0 21 0;
#X connect 20 0 19 0;
#X connect 21 0 18 1;
#X connect 22 0 3 0;
#X connect 22 0 58 0;
#X connect 23 0 37 0;
#X connect 23 0 42 0;
#X connect 23 0 43 0;
#X connect 23 0 48 0;
#X connect 24 0 32 0;
#X connect 25 0 35 0;
#X connect 26 0 28 0;
#X connect 27 0 44 0;
#X connect 28 0 27 0;
#X connect 28 0 31 0;
#X connect 29 0 25 0;
#X connect 29 1 45 0;
#X connect 30 0 29 0;
#X connect 31 0 29 0;
#X connect 34 0 29 0;
#X connect 35 0 24 0;
#X connect 36 0 25 1;
#X connect 37 0 38 0;
#X connect 37 1 40 0;
#X connect 38 0 39 0;
#X connect 39 0 25 1;
#X connect 40 0 41 0;
#X connect 41 0 25 1;
#X connect 42 0 36 1;
#X connect 43 0 25 1;
#X connect 44 0 25 1;
#X connect 45 0 46 0;
#X connect 46 0 36 0;
#X connect 47 0 49 0;
#X connect 48 0 47 0;
#X connect 49 0 53 0;
#X connect 49 1 50 0;
#X connect 49 2 51 0;
#X connect 49 3 52 0;
#X connect 50 0 46 1;
#X connect 51 0 46 1;
#X connect 52 0 46 1;
#X connect 53 0 46 1;
#X connect 54 0 57 0;
#X connect 55 0 56 0;
#X connect 56 0 5 1;
#X connect 57 0 5 1;
#X connect 58 0 54 0;
#X connect 58 1 55 0;
