#N canvas 1 0 1920 1052 12;
#X declare -path ./bop;
#X declare -path ./bop/babs;
#X obj 35 91 declare -path ./bop;
#X obj 34 120 declare -path ./bop/babs;
#X obj 249 884 throw~ left;
#X obj 42 190 == \$1;
#X obj 42 246 switch~;
#X obj 42 216 tgl 16 0 empty empty ENABLE 20 10 0 10 #00ff04 #000000 #000000 0 1;
#X obj 43 162 r active-voice;
#X obj 312 163 babs.gate;
#X obj 364 113 == \$1;
#X obj 365 89 r active-voice;
#X obj 366 139 tgl 19 0 empty empty empty 0 -10 0 12 #fcfcfc #000000 #000000 0 1;
#X obj 1079 160 babs.gate;
#X obj 1131 110 == \$1;
#X obj 1132 86 r active-voice;
#X obj 1133 136 tgl 19 0 empty empty empty 0 -10 0 12 #fcfcfc #000000 #000000 0 1;
#X obj 311 61 r sensorsOne;
#X obj 311 211 s \$0-inputOne;
#X obj 1080 205 s \$0-inputTwo;
#X obj 1094 862 throw~ right;
#X obj 114 339 r \$0-inputOne;
#X obj 529 73 babs.listsum;
#X obj 529 35 r \$0-inputOne;
#X obj 1283 74 babs.listsum;
#X obj 1283 36 r \$0-inputTwo;
#X obj 1077 54 r sensorsTwo;
#X obj 978 306 r \$0-inputTwo;
#X text 86 482 left outside \; c pent;
#X text 616 472 left inside \; g pent;
#X text 933 450 right inside \; g pent;
#X text 1409 453 right outside \; d pent;
#X text 1291 168 total touch value 0 - 1;
#X text 541 165 total touch value 0 - 1;
#X obj 442 620 cnv 19 400 200 empty empty empty 20 12 0 12 #feffc6 #404040 0;
#X obj 254 802 bop.sampler~;
#A saved pack ../../../samples/coldvoice_samplepack;
#A saved folder 3;
#A saved mode 0;
#A saved sample 3;
#A saved tune 0;
#A saved root 40;
#A saved loop 0;
#A saved loop-start 0;
#A saved loop-length 1;
#A saved attack 0;
#A saved release 0;
#A saved gain 1;
#X msg 472 655 pack ../../../samples/coldvoice_samplepack;
#X msg 523 743 65 127;
#X text 470 635 any samplers used need this param set when they are created;
#X msg 504 690 folder 0;
#X text 571 689 numbers folder;
#X text 581 711 002_coldsamples01 folder;
#X msg 514 712 folder 1;
#X msg 491 776 64 127;
#X obj 486 466 trigger-note 3 57;
#X obj 464 437 trigger-note 1 55;
#X obj 487 501 trigger-note 5 59;
#X obj 204 451 trigger-note 0 48;
#X obj 223 483 trigger-note 2 50;
#X obj 235 517 trigger-note 4 52;
#X obj 1249 425 trigger-note 1 74;
#X obj 1252 455 trigger-note 3 76;
#X obj 1257 481 trigger-note 5 78;
#X obj 1067 429 trigger-note 0 67;
#X obj 1081 456 trigger-note 2 69;
#X obj 1093 487 trigger-note 4 71;
#X obj 1284 551 cnv 19 400 200 empty empty empty 20 12 0 12 #feffc6 #404040 0;
#X obj 1096 733 bop.sampler~;
#A saved pack ../../../samples/coldvoice_samplepack;
#A saved folder 2;
#A saved mode 0;
#A saved sample 0;
#A saved tune 0;
#A saved root 90;
#A saved loop 0;
#A saved loop-start 0;
#A saved loop-length 1;
#A saved attack 0;
#A saved release 0;
#A saved gain 1;
#X msg 1365 674 65 127;
#X msg 1346 621 folder 0;
#X text 1413 620 numbers folder;
#X text 1423 642 002_coldsamples01 folder;
#X msg 1356 643 folder 1;
#X msg 1333 707 64 127;
#X text 1293 583 (samplepack already param set and saved :);
#X obj 529 139 babs.scale 0 6 0 1;
#X obj 1283 146 babs.scale 0 6 0 1;
#X obj 1093 773 *~ 3;
#X obj 1000 732 bop.sampler~;
#A saved pack ../../../samples/coldvoice_samplepack;
#A saved folder 3;
#A saved mode 0;
#A saved sample 3;
#A saved tune 0;
#A saved root 40;
#A saved loop 0;
#A saved loop-start 0;
#A saved loop-length 1;
#A saved attack 0;
#A saved release 0;
#A saved gain 1;
#X obj 153 802 bop.sampler~;
#A saved pack ../../../samples/coldvoice_samplepack;
#A saved folder 2;
#A saved mode 0;
#A saved sample 0;
#A saved tune 0;
#A saved root 90;
#A saved loop 0;
#A saved loop-start 0;
#A saved loop-length 1;
#A saved attack 0;
#A saved release 0;
#A saved gain 1;
#X obj 207 843 *~ 3;
#X connect 3 0 5 0;
#X connect 5 0 4 0;
#X connect 6 0 3 0;
#X connect 7 0 16 0;
#X connect 8 0 10 0;
#X connect 9 0 8 0;
#X connect 10 0 7 1;
#X connect 11 0 17 0;
#X connect 12 0 14 0;
#X connect 13 0 12 0;
#X connect 14 0 11 1;
#X connect 15 0 7 0;
#X connect 19 0 47 0;
#X connect 19 0 46 0;
#X connect 19 0 45 0;
#X connect 19 0 44 0;
#X connect 19 0 43 0;
#X connect 19 0 42 0;
#X connect 20 0 63 0;
#X connect 21 0 20 0;
#X connect 22 0 64 0;
#X connect 23 0 22 0;
#X connect 24 0 11 0;
#X connect 25 0 53 0;
#X connect 25 0 52 0;
#X connect 25 0 51 0;
#X connect 25 0 50 0;
#X connect 25 0 49 0;
#X connect 25 0 48 0;
#X connect 33 0 68 0;
#X connect 34 0 33 1;
#X connect 35 0 33 1;
#X connect 37 0 33 1;
#X connect 40 0 33 1;
#X connect 41 0 33 1;
#X connect 42 0 33 0;
#X connect 42 0 67 0;
#X connect 43 0 33 0;
#X connect 43 0 67 0;
#X connect 44 0 33 0;
#X connect 44 0 67 0;
#X connect 45 0 33 0;
#X connect 45 0 67 0;
#X connect 46 0 33 0;
#X connect 46 0 67 0;
#X connect 47 0 33 0;
#X connect 47 0 67 0;
#X connect 48 0 55 0;
#X connect 48 0 66 0;
#X connect 49 0 55 0;
#X connect 49 0 66 0;
#X connect 50 0 55 0;
#X connect 50 0 66 0;
#X connect 51 0 55 0;
#X connect 51 0 66 0;
#X connect 52 0 55 0;
#X connect 52 0 66 0;
#X connect 53 0 55 0;
#X connect 53 0 66 0;
#X connect 55 0 65 0;
#X connect 56 0 55 1;
#X connect 57 0 55 1;
#X connect 60 0 55 1;
#X connect 61 0 55 1;
#X connect 65 0 18 0;
#X connect 66 0 65 0;
#X connect 67 0 68 0;
#X connect 68 0 2 0;
