#N canvas 494 98 924 821 12;
#X declare -path ./bop;
#X declare -path ./bop/babs;
#X obj 35 91 declare -path ./bop;
#X obj 34 120 declare -path ./bop/babs;
#X obj 390 813 throw~ left;
#X obj 42 190 == \$1;
#X obj 42 246 switch~;
#X obj 42 216 tgl 16 0 empty empty ENABLE 20 10 0 10 #00ff04 #000000 #000000 0 1;
#X obj 43 162 r active-voice;
#X obj 312 163 babs.gate;
#X obj 364 113 == \$1;
#X obj 365 89 r active-voice;
#X obj 366 139 tgl 19 0 empty empty empty 0 -10 0 12 #fcfcfc #000000 #000000 0 1;
#X obj 1079 160 babs.gate;
#X obj 1131 110 == \$1;
#X obj 1132 86 r active-voice;
#X obj 1133 136 tgl 19 0 empty empty empty 0 -10 0 12 #fcfcfc #000000 #000000 0 1;
#X obj 311 61 r sensorsOne;
#X obj 311 211 s \$0-inputOne;
#X obj 1080 205 s \$0-inputTwo;
#X obj 1099 783 throw~ right;
#X obj 288 307 r \$0-inputOne;
#X obj 554 309 r \$0-inputOne;
#X obj 529 73 babs.listsum;
#X obj 529 35 r \$0-inputOne;
#X obj 1283 74 babs.listsum;
#X obj 1283 36 r \$0-inputTwo;
#X obj 1030 305 r \$0-inputTwo;
#X obj 1077 54 r sensorsTwo;
#X obj 1226 308 r \$0-inputTwo;
#X text 148 406 left outside \; c pent;
#X text 744 443 left inside \; g pent;
#X text 918 447 right inside \; g pent;
#X text 1409 453 right outside \; d pent;
#X obj 1283 146 babs.scale 0 12 0 1;
#X text 1291 168 total touch value 0 - 1;
#X obj 529 139 babs.scale 0 12 0 1;
#X text 541 165 total touch value 0 - 1;
#X obj 392 594 *~ 2;
#X obj 1105 632 *~ 2;
#X obj 314 418 tone-envelope-saw 4 52;
#X obj 294 453 tone-envelope-saw 2 50;
#X obj 283 488 tone-envelope-saw 0 48;
#X obj 590 435 tone-envelope-saw 5 59;
#X obj 570 470 tone-envelope-saw 3 57;
#X obj 559 505 tone-envelope-saw 1 55;
#X obj 1066 431 tone-envelope-saw 4 71;
#X obj 1046 466 tone-envelope-saw 2 69;
#X obj 1035 501 tone-envelope-saw 0 67;
#X obj 1253 440 tone-envelope-saw 5 78;
#X obj 1233 475 tone-envelope-saw 3 76;
#X obj 1222 510 tone-envelope-saw 1 74;
#X obj 559 590 cnv 19 400 200 empty empty empty 20 12 0 12 #feffc6 #404040 0;
#X obj 622 750 bop.sampler~;
#A saved pack ../../../samples/coldvoice_samplepack;
#A saved folder 0;
#A saved mode 1;
#A saved sample 0;
#A saved tune 0;
#A saved root 40;
#A saved loop 0;
#A saved loop-start 0;
#A saved loop-length 1;
#A saved attack 0;
#A saved release 0;
#A saved gain 1;
#X msg 589 625 pack ../../../samples/coldvoice_samplepack;
#X msg 640 713 65 127;
#X text 587 605 any samplers used need this param set when they are created;
#X msg 621 660 folder 0;
#X text 688 659 numbers folder;
#X text 698 681 002_coldsamples01 folder;
#X msg 631 682 folder 1;
#X connect 3 0 5 0;
#X connect 5 0 4 0;
#X connect 6 0 3 0;
#X connect 7 0 16 0;
#X connect 8 0 10 0;
#X connect 9 0 8 0;
#X connect 10 0 7 1;
#X connect 11 0 17 0;
#X connect 12 0 14 0;
#X connect 13 0 12 0;
#X connect 14 0 11 1;
#X connect 15 0 7 0;
#X connect 19 0 38 0;
#X connect 19 0 39 0;
#X connect 19 0 40 0;
#X connect 20 0 41 0;
#X connect 20 0 42 0;
#X connect 20 0 43 0;
#X connect 21 0 34 0;
#X connect 22 0 21 0;
#X connect 23 0 32 0;
#X connect 24 0 23 0;
#X connect 25 0 44 0;
#X connect 25 0 45 0;
#X connect 25 0 46 0;
#X connect 26 0 11 0;
#X connect 27 0 47 0;
#X connect 27 0 48 0;
#X connect 27 0 49 0;
#X connect 36 0 2 0;
#X connect 37 0 18 0;
#X connect 38 0 36 0;
#X connect 39 0 36 0;
#X connect 40 0 36 0;
#X connect 41 0 36 0;
#X connect 42 0 36 0;
#X connect 43 0 36 0;
#X connect 44 0 37 0;
#X connect 45 0 37 0;
#X connect 46 0 37 0;
#X connect 47 0 37 0;
#X connect 48 0 37 0;
#X connect 49 0 37 0;
#X connect 51 0 2 0;
#X connect 52 0 51 0;
#X connect 53 0 51 0;
#X connect 55 0 51 0;
#X connect 58 0 51 0;
