#N canvas 560 149 1151 1057 12;
#X declare -path ./bop;
#X declare -path ./bop/babs;
#X obj 147 1006 hip~ 80;
#X obj 144 880 bop.casio~, f 23;
#A saved wave-1 0;
#A saved wave-2 0;
#A saved filter 0.223965;
#A saved attack 0;
#A saved decay 0.0857143;
#A saved sustain 0.966621;
#A saved release 0.0642857;
#A saved gain 1;
#X obj 368 691 loadbang;
#X obj 151 1088 throw~ left;
#X obj 64 39 declare -path ./bop;
#X obj 340 168 r sensor1;
#X obj 63 68 declare -path ./bop/babs;
#X obj 71 138 == \$1;
#X obj 71 194 switch~;
#X obj 71 164 tgl 16 0 empty empty ENABLE 20 10 0 10 #00ff04 #000000 #000000 0 1;
#X obj 72 110 r active-voice;
#X obj 341 270 babs.gate;
#X obj 393 220 == \$1;
#X obj 394 196 r active-voice;
#X obj 395 246 tgl 19 0 empty empty empty 0 -10 0 12 #fcfcfc #000000 #000000 0 1;
#X obj 371 719 delay 1000;
#X obj 929 1075 throw~ right;
#X obj 914 399 r sensor2;
#X obj 916 505 babs.gate;
#X obj 968 455 == \$1;
#X obj 969 431 r active-voice;
#X obj 970 481 tgl 19 0 empty empty empty 0 -10 0 12 #fcfcfc #000000 #000000 0 1;
#X obj 924 914 bop.instrument~;
#A saved instrument 1;
#X obj 927 1026 hip~ 80;
#X obj 925 849 bop.strum, f 23;
#A saved strum 0;
#A saved chord 0;
#A saved shuffle 0;
#A saved root 55;
#A saved octaves 4;
#A saved velocity 1;
#A saved duration 0.971429;
#X obj 923 978 *~ 0.5;
#X msg 927 775 strum \$1;
#X floatatom 925 588 5 0 0 0 - - - 0;
#X obj 364 755 bng 19 250 50 0 empty empty empty 0 -10 0 12 #fcfcfc #000000 #000000;
#X obj 1279 492 > 0;
#X obj 1279 516 change;
#X obj 1279 540 sel 1;
#X obj 1279 468 r sensor2;
#X msg 1067 667 root 48 \, chord 7;
#X msg 1087 731 root 55 \, chord 0;
#X obj 151 629 bop.semisteps, f 23;
#A saved semisteps 7.52;
#A saved root 48;
#A saved hold 0;
#A saved duration 0.121429;
#A saved velocity 1;
#X floatatom 339 306 5 0 0 0 - - - 0;
#X obj 618 295 sel 0 1 2;
#X obj 617 269 random 3;
#X obj 539 184 > 0;
#X obj 539 208 change;
#X obj 539 232 sel 1;
#X obj 537 281 bng 19 250 50 0 empty empty empty 0 -10 0 12 #fcfcfc #000000 #000000;
#X obj 228 468 metro 300;
#X obj 228 436 tgl 19 0 empty empty empty 0 -10 0 12 #fcfcfc #000000 #000000 0 1;
#X obj 227 499 bng 19 250 50 0 empty empty empty 0 -10 0 12 #fcfcfc #000000 #000000;
#X obj 226 528 f;
#X msg 226 565 semisteps \$1;
#X msg 618 328 7.52;
#X msg 640 365 9.343;
#X msg 643 406 12.435;
#X msg 355 790 filter loop 0.03 400 0.1 80 0.5 8000 0.2 4000 \, sustain loop 0.6 6000 1 6000, f 25;
#X obj 344 372 print;
#X msg 1094 765 root 57 \, chord 1;
#X connect 0 0 3 0;
#X connect 1 0 0 0;
#X connect 2 0 15 0;
#X connect 5 0 11 0;
#X connect 5 0 39 0;
#X connect 7 0 9 0;
#X connect 9 0 8 0;
#X connect 10 0 7 0;
#X connect 11 0 36 0;
#X connect 12 0 14 0;
#X connect 13 0 12 0;
#X connect 14 0 11 1;
#X connect 15 0 28 0;
#X connect 17 0 18 0;
#X connect 18 0 27 0;
#X connect 19 0 21 0;
#X connect 20 0 19 0;
#X connect 21 0 18 1;
#X connect 22 0 25 0;
#X connect 23 0 16 0;
#X connect 24 0 22 0;
#X connect 24 1 22 1;
#X connect 25 0 23 0;
#X connect 26 0 24 0;
#X connect 27 0 26 0;
#X connect 28 0 51 0;
#X connect 29 0 30 0;
#X connect 30 0 31 0;
#X connect 32 0 29 0;
#X connect 33 0 24 1;
#X connect 34 0 24 1;
#X connect 35 0 1 0;
#X connect 35 1 1 1;
#X connect 37 0 48 0;
#X connect 37 1 49 0;
#X connect 37 2 50 0;
#X connect 38 0 37 0;
#X connect 39 0 40 0;
#X connect 40 0 41 0;
#X connect 40 0 52 0;
#X connect 40 0 44 0;
#X connect 41 0 42 0;
#X connect 42 0 38 0;
#X connect 43 0 45 0;
#X connect 44 0 43 0;
#X connect 45 0 46 0;
#X connect 46 0 47 0;
#X connect 47 0 35 1;
#X connect 48 0 46 1;
#X connect 48 0 34 0;
#X connect 49 0 46 1;
#X connect 49 0 53 0;
#X connect 50 0 46 1;
#X connect 50 0 33 0;
#X connect 51 0 1 1;
#X connect 53 0 24 1;
