#N canvas 1920 32 1728 1057 12;
#X declare -path ./bop;
#X declare -path ./bop/babs;
#X obj 349 909 hip~ 80;
#X obj 350 717 bop.strum, f 11;
#A saved strum 0;
#A saved chord 7;
#A saved shuffle 1;
#A saved root 48;
#A saved octaves 4;
#A saved velocity 1;
#A saved duration 0.971429;
#X obj 348 846 *~ 0.5;
#X msg 345 570 strum \$1;
#X obj 351 974 throw~ left;
#X obj 349 782 bop.synth~;
#A saved osc1-wave 1;
#A saved osc1-tune 0;
#A saved osc1-pulsewidth 0.5;
#A saved osc1-gain 1;
#A saved osc2-wave 3;
#A saved osc2-tune 0;
#A saved osc2-pulsewidth 0.5;
#A saved osc2-gain 1;
#A saved noise 0;
#A saved cutoff 2600;
#A saved q 0.5;
#A saved mono 0;
#A saved slide 0;
#A saved attack 0.1;
#A saved decay 0.3;
#A saved sustain 0.2;
#A saved release 0.2;
#A saved gain 1;
#X obj 64 39 declare -path ./bop;
#X obj 333 60 r sensor1;
#X obj 1112 62 r sensor2;
#X obj 63 68 declare -path ./bop/babs;
#X obj 71 138 == \$1;
#X obj 71 194 switch~;
#X obj 71 164 tgl 16 0 empty empty ENABLE 20 10 0 10 #00ff04 #000000 #000000 0 1;
#X obj 72 110 r active-voice;
#X obj 334 162 babs.gate;
#X obj 386 112 == \$1;
#X obj 387 88 r active-voice;
#X obj 388 138 tgl 19 0 empty empty empty 0 -10 0 12 #fcfcfc #000000 #000000 0 1;
#X obj 1114 168 babs.gate;
#X obj 1166 118 == \$1;
#X obj 1167 94 r active-voice;
#X obj 1168 144 tgl 19 0 empty empty empty 0 -10 0 12 #fcfcfc #000000 #000000 0 1;
#X floatatom 340 219 5 0 0 0 - - - 0;
#X floatatom 1114 205 5 0 0 0 - - - 0;
#X obj 892 919 hip~ 80;
#X obj 890 789 bop.casio~, f 23;
#A saved wave-1 3;
#A saved wave-2 3;
#A saved filter 0.2;
#A saved attack 0.17;
#A saved decay 0.0857143;
#A saved sustain 0;
#A saved release 0.0642857;
#A saved gain 0.7;
#X obj 892 979 throw~ right;
#X obj 891 836 *~ 0.9;
#X obj 927 730 pack f f;
#X obj 980 667 babs.scale 0 1 100 127;
#X msg 1289 557 filter \$1;
#X msg 1320 665 attack loop 0.2 1000 0.1 1000 0.015 3000 0.25 2000 0.05 2500 0.18 2800 0.22 1500 0.1 1800 0.3 2200 0.07 2700 0.19 1600 0.015 2000 0.28 2100 0.08 2400 0.17 2600 0.24 1800 0.05 2950 0.2 2300 0.12 1900 0.015 2100 0.26 2500 0.09 2900 0.18 2700 0.015 3000, f 93;
#X obj 845 656 + \$1;
#X obj 835 482 int;
#X obj 834 449 babs.scale 0 1 0 12;
#X obj 834 520 select 0 5 7 12;
#X obj 868 563 5;
#X obj 900 560 7;
#X obj 931 563 12;
#X obj 836 561 0;
#X obj 724 259 metro 100;
#X obj 725 290 babs.counter;
#X obj 725 314 % 4;
#X obj 722 343 sel 0 1 2 3, f 24;
#X msg 721 373 60;
#X msg 763 374 64;
#X msg 802 373 67;
#X msg 844 375 71;
#X obj 719 425 t f;
#X obj 1449 541 loadbang;
#X obj 726 156 r sensor2;
#X obj 726 180 > 0;
#X obj 726 216 change;
#X obj 1387 590 delay 1000;
#X obj 1293 427 babs.scale 0 1 0.2 0.8;
#X obj 443 515 > 0;
#X obj 443 539 change;
#X obj 443 563 sel 0;
#X obj 443 587 delay 1000;
#X msg 443 611 stop;
#X msg 585 645 sustain \$1;
#X obj 585 603 babs.scale 0 1 0.2 0.5;
#X obj 1327 621 bng 19 250 50 0 empty empty empty 0 -10 0 12 #fcfcfc #000000 #000000;
#X obj 177 493 tgl 19 0 empty empty empty 0 -10 0 12 #fcfcfc #000000 #000000 0 1;
#X obj 177 521 sel 0 1;
#X obj 177 437 tgl 19 0 empty empty empty 0 -10 0 12 #fcfcfc #000000 #000000 0 1;
#X obj 177 465 metro 6000;
#X msg 178 554 root 48 \, chord 7;
#X msg 198 591 root 50 \, chord 3;
#X connect 0 0 4 0;
#X connect 1 0 5 0;
#X connect 1 1 5 1;
#X connect 2 0 0 0;
#X connect 3 0 1 0;
#X connect 5 0 2 0;
#X connect 7 0 14 0;
#X connect 8 0 18 0;
#X connect 10 0 12 0;
#X connect 12 0 11 0;
#X connect 13 0 10 0;
#X connect 14 0 22 0;
#X connect 15 0 17 0;
#X connect 15 0 65 0;
#X connect 16 0 15 0;
#X connect 17 0 14 1;
#X connect 18 0 23 0;
#X connect 19 0 21 0;
#X connect 20 0 19 0;
#X connect 21 0 18 1;
#X connect 22 0 3 0;
#X connect 22 0 55 0;
#X connect 22 0 61 0;
#X connect 23 0 29 0;
#X connect 23 0 34 0;
#X connect 23 0 54 0;
#X connect 24 0 26 0;
#X connect 25 0 27 0;
#X connect 27 0 24 0;
#X connect 28 0 25 1;
#X connect 29 0 28 1;
#X connect 30 0 25 1;
#X connect 31 0 25 1;
#X connect 32 0 28 0;
#X connect 33 0 35 0;
#X connect 34 0 33 0;
#X connect 35 0 39 0;
#X connect 35 1 36 0;
#X connect 35 2 37 0;
#X connect 35 3 38 0;
#X connect 36 0 32 1;
#X connect 37 0 32 1;
#X connect 38 0 32 1;
#X connect 39 0 32 1;
#X connect 40 0 41 0;
#X connect 41 0 42 0;
#X connect 42 0 43 0;
#X connect 43 0 44 0;
#X connect 43 1 45 0;
#X connect 43 2 46 0;
#X connect 43 3 47 0;
#X connect 44 0 48 0;
#X connect 45 0 48 0;
#X connect 46 0 48 0;
#X connect 47 0 48 0;
#X connect 48 0 32 0;
#X connect 49 0 53 0;
#X connect 50 0 51 0;
#X connect 51 0 52 0;
#X connect 52 0 40 0;
#X connect 53 0 62 0;
#X connect 54 0 30 0;
#X connect 55 0 56 0;
#X connect 56 0 57 0;
#X connect 57 0 58 0;
#X connect 58 0 59 0;
#X connect 59 0 1 1;
#X connect 60 0 1 1;
#X connect 61 0 60 0;
#X connect 62 0 31 0;
#X connect 63 0 64 0;
#X connect 64 0 67 0;
#X connect 64 1 68 0;
#X connect 65 0 66 0;
#X connect 66 0 63 0;
#X connect 67 0 1 0;
#X connect 68 0 1 0;
