#N canvas 732 32 987 1057 12;
#X declare -path ./bop;
#X declare -path ./bop/babs;
#X obj 313 723 bop.instrument~;
#A saved instrument 3;
#X obj 336 985 hip~ 80;
#X obj 314 658 bop.strum, f 23;
#A saved strum 0;
#A saved chord 3;
#A saved shuffle 1;
#A saved root 69;
#A saved octaves 4;
#A saved velocity 1;
#A saved duration 0.971429;
#X msg 316 394 strum \$1;
#X obj 312 787 *~ 0.6;
#X obj 60 29 declare -path ./bop;
#X obj 329 50 r sensor1;
#X obj 1069 37 r sensor2;
#X obj 59 58 declare -path ./bop/babs;
#X obj 67 128 == \$1;
#X obj 67 184 switch~;
#X obj 67 154 tgl 16 0 empty empty ENABLE 20 10 0 10 #00ff04 #000000 #000000 0 1;
#X obj 68 100 r active-voice;
#X obj 330 152 babs.gate;
#X obj 382 102 == \$1;
#X obj 383 78 r active-voice;
#X obj 384 128 tgl 19 0 empty empty empty 0 -10 0 12 #fcfcfc #000000 #000000 0 1;
#X obj 1071 143 babs.gate;
#X obj 1123 93 == \$1;
#X obj 1124 69 r active-voice;
#X obj 1125 119 tgl 19 0 empty empty empty 0 -10 0 12 #fcfcfc #000000 #000000 0 1;
#X floatatom 336 209 5 0 0 0 - - - 0;
#X floatatom 1080 226 5 0 0 0 - - - 0;
#X obj 334 1068 throw~ left;
#X obj 1097 976 hip~ 80;
#X obj 1075 649 bop.strum, f 11;
#A saved strum 1;
#A saved chord 3;
#A saved shuffle 1;
#A saved root 45;
#A saved octaves 4;
#A saved velocity 1;
#A saved duration 0.278571;
#X msg 1077 385 strum \$1;
#X obj 1095 1059 throw~ right;
#X obj 1074 714 bop.casio~;
#A saved wave-1 0;
#A saved wave-2 1;
#A saved filter 0.7;
#A saved attack 0.0854483;
#A saved decay 0.3;
#A saved sustain 0.0785714;
#A saved release 0;
#A saved gain 1;
#X obj 1314 337 loadbang;
#X obj 1192 296 > 0;
#X obj 1192 320 change;
#X obj 1192 344 sel 0;
#X obj 1192 368 delay 1000;
#X msg 1192 392 stop;
#X obj 1076 798 *~ 0.4;
#X obj 1303 459 bng 19 250 50 0 empty empty empty 0 -10 0 12 #fcfcfc #000000 #000000;
#X obj 459 509 tgl 19 0 empty empty empty 0 -10 0 12 #fcfcfc #000000 #000000 0 1;
#X obj 459 537 sel 0 1;
#X obj 543 337 tgl 19 0 empty empty empty 0 -10 0 12 #fcfcfc #000000 #000000 0 1;
#X obj 543 365 metro 6000;
#X obj 955 482 tgl 19 0 empty empty empty 0 -10 0 12 #fcfcfc #000000 #000000 0 1;
#X obj 955 510 sel 0 1;
#X obj 948 412 metro 6000;
#X msg 480 607 root 69 \, chord 3;
#X msg 458 570 root 67 \, chord 7;
#X obj 634 291 r sensor1;
#X obj 634 315 > 0;
#X obj 634 339 change;
#X obj 634 363 sel 1;
#X obj 634 387 bng 19 250 50 0 empty empty empty 0 -10 0 12 #fcfcfc #000000 #000000;
#X obj 837 389 > 0;
#X obj 837 413 change;
#X obj 837 437 sel 1;
#X obj 837 461 bng 19 250 50 0 empty empty empty 0 -10 0 12 #fcfcfc #000000 #000000;
#X obj 837 365 r sensor2;
#X obj 946 375 == \$1;
#X obj 947 351 r active-voice;
#X obj 1314 361 delay 2000;
#X obj 1272 721 bng 19 250 50 0 empty empty empty 0 -10 0 12 #fcfcfc #000000 #000000;
#X obj 1079 761 lop~ 1200 0.1;
#X msg 1310 385 1;
#X obj 1276 612 loadbang;
#X obj 1276 636 delay 2000;
#X msg 1272 660 1;
#X obj 1268 694 metro 22100;
#X msg 955 544 root 43 \, chord 7;
#X msg 976 580 root 45 \, chord 3;
#X obj 1306 419 metro 20000;
#X msg 1274 757 attack 0 1000 0.1 1000 0.015 3000 0.15 2000 0 2500 0.03 2800 0.15 1500 0 1800 0.15 2200 0.07 2700 0.19 1600 0.015 2000;
#X msg 1284 497 filter 0.7 10000 0.3 10000;
#X connect 0 0 4 0;
#X connect 1 0 23 0;
#X connect 2 0 0 0;
#X connect 2 1 0 1;
#X connect 3 0 2 0;
#X connect 4 0 1 0;
#X connect 6 0 13 0;
#X connect 7 0 17 0;
#X connect 9 0 11 0;
#X connect 11 0 10 0;
#X connect 12 0 9 0;
#X connect 13 0 21 0;
#X connect 14 0 16 0;
#X connect 15 0 14 0;
#X connect 16 0 13 1;
#X connect 17 0 22 0;
#X connect 17 0 30 0;
#X connect 18 0 20 0;
#X connect 19 0 18 0;
#X connect 20 0 17 1;
#X connect 21 0 3 0;
#X connect 22 0 26 0;
#X connect 24 0 27 0;
#X connect 25 0 28 0;
#X connect 25 1 28 1;
#X connect 26 0 25 0;
#X connect 28 0 60 0;
#X connect 29 0 58 0;
#X connect 30 0 31 0;
#X connect 31 0 32 0;
#X connect 32 0 33 0;
#X connect 33 0 34 0;
#X connect 34 0 25 1;
#X connect 35 0 24 0;
#X connect 36 0 70 0;
#X connect 37 0 38 0;
#X connect 38 0 45 0;
#X connect 38 1 44 0;
#X connect 39 0 40 0;
#X connect 41 0 42 0;
#X connect 42 0 66 0;
#X connect 42 1 67 0;
#X connect 43 0 54 0;
#X connect 44 0 2 1;
#X connect 45 0 2 1;
#X connect 46 0 47 0;
#X connect 47 0 48 0;
#X connect 48 0 49 0;
#X connect 49 0 50 0;
#X connect 50 0 37 0;
#X connect 51 0 52 0;
#X connect 52 0 53 0;
#X connect 53 0 54 0;
#X connect 54 0 41 0;
#X connect 55 0 51 0;
#X connect 56 0 43 0;
#X connect 57 0 56 0;
#X connect 58 0 61 0;
#X connect 59 0 69 0;
#X connect 60 0 35 0;
#X connect 61 0 68 0;
#X connect 62 0 63 0;
#X connect 63 0 64 0;
#X connect 64 0 65 0;
#X connect 65 0 59 0;
#X connect 66 0 25 0;
#X connect 67 0 25 0;
#X connect 68 0 36 0;
#X connect 69 0 25 1;
#X connect 70 0 25 1;
