#N canvas 541 32 1117 1057 12;
#X declare -path ./bop;
#X declare -path ./bop/babs;
#X obj 310 691 bop.semisteps, f 23;
#A saved semisteps 0.4343;
#A saved root 48;
#A saved hold 1;
#A saved duration 0.9;
#A saved velocity 0.75;
#X obj 359 916 hip~ 80;
#X obj 1906 1615;
#X obj 311 742 bop.casio~, f 23;
#A saved wave-1 1;
#A saved wave-2 1;
#A saved filter 1;
#A saved attack 0.0214286;
#A saved decay 0.178571;
#A saved sustain 0.628571;
#A saved release 0;
#A saved gain 0;
#X msg 355 322 gain \$1;
#X obj 583 381 loadbang;
#X obj 371 1006 throw~ left;
#X msg 471 618 semisteps 0.4343;
#X obj 430 491 delay 1000;
#X obj 508 435 bng 19 250 50 0 empty empty empty 0 -10 0 12 #fcfcfc #000000 #000000;
#X obj 60 29 declare -path ./bop;
#X obj 329 50 r sensor1;
#X obj 1069 37 r sensor2;
#X obj 59 58 declare -path ./bop/babs;
#X obj 67 128 == \$1;
#X obj 67 184 switch~;
#X obj 67 154 tgl 16 0 empty empty ENABLE 20 10 0 10 #00ff04 #000000 #000000 0 1;
#X obj 68 100 r active-voice;
#X obj 330 152 babs.gate;
#X obj 382 102 == \$1;
#X obj 383 78 r active-voice;
#X obj 384 128 tgl 19 0 empty empty empty 0 -10 0 12 #fcfcfc #000000 #000000 0 1;
#X obj 1071 143 babs.gate;
#X obj 1123 93 == \$1;
#X obj 1124 69 r active-voice;
#X obj 1125 119 tgl 19 0 empty empty empty 0 -10 0 12 #fcfcfc #000000 #000000 0 1;
#X floatatom 336 209 5 0 0 0 - - - 0;
#X floatatom 1080 225 5 0 0 0 - - - 0;
#X obj 1078 794 bop.semisteps, f 23;
#A saved semisteps 7.52;
#A saved root 48;
#A saved hold 1;
#A saved duration 0.9;
#A saved velocity 0.75;
#X obj 1099 946 hip~ 80;
#X obj 1079 845 bop.casio~, f 23;
#A saved wave-1 1;
#A saved wave-2 3;
#A saved filter 1;
#A saved attack 0.0214286;
#A saved decay 0.178571;
#A saved sustain 0.628571;
#A saved release 0;
#A saved gain 0;
#X msg 1123 425 gain \$1;
#X obj 1479 418 loadbang;
#X obj 1198 594 delay 1000;
#X obj 1276 538 bng 19 250 50 0 empty empty empty 0 -10 0 12 #fcfcfc #000000 #000000;
#X obj 1111 1036 throw~ right;
#X msg 589 627 filter loop 1 4000 0.1 8000 0.3 8000 0.2 4000, f 25;
#X msg 1298 581 filter loop 1 6000 0.1 12000 0.3 12000 0.2 6000 \,, f 25;
#X msg 1239 721 semisteps 7.52;
#X connect 0 0 3 0;
#X connect 0 1 3 1;
#X connect 1 0 6 0;
#X connect 3 0 1 0;
#X connect 4 0 0 0;
#X connect 5 0 9 0;
#X connect 7 0 0 1;
#X connect 8 0 7 0;
#X connect 8 0 36 0;
#X connect 9 0 8 0;
#X connect 11 0 18 0;
#X connect 12 0 22 0;
#X connect 14 0 16 0;
#X connect 16 0 15 0;
#X connect 17 0 14 0;
#X connect 18 0 26 0;
#X connect 19 0 21 0;
#X connect 20 0 19 0;
#X connect 21 0 18 1;
#X connect 22 0 27 0;
#X connect 23 0 25 0;
#X connect 24 0 23 0;
#X connect 25 0 22 1;
#X connect 26 0 4 0;
#X connect 27 0 31 0;
#X connect 28 0 30 0;
#X connect 28 1 30 1;
#X connect 29 0 35 0;
#X connect 30 0 29 0;
#X connect 31 0 30 1;
#X connect 32 0 34 0;
#X connect 33 0 38 0;
#X connect 33 0 37 0;
#X connect 34 0 33 0;
#X connect 36 0 3 1;
#X connect 37 0 30 1;
#X connect 38 0 28 1;
