#N canvas 421 32 1303 1057 12;
#X declare -path ./bop;
#X declare -path ./bop/babs;
#X obj 428 611 bop.instrument~;
#X obj 427 703 hip~ 80;
#X obj 429 546 bop.strum, f 23;
#X obj 427 675 *~ 0.5;
#X msg 431 472 strum \$1;
#X obj 427 731 throw~ left;
#X obj 153 105 declare -path ./bop;
#X obj 422 133 r sensor1;
#X obj 153 133 declare -path ./bop/babs;
#X obj 881 778 throw~ right;
#X obj 1100 18 r sensor2;
#X obj 873 18 r sensor2;
#X obj 508 349 tgl 19 0 empty empty empty 0 -10 0 12 #fcfcfc #000000 #000000 0 1;
#X obj 1040 470 bop.semisteps, f 23;
#X obj 1030 603 hip~ 80;
#X obj 1196 340 loadbang;
#X floatatom 1029 213 5 0 0 0 - - - 0;
#X obj 1196 364 delay 1000;
#X obj 1030 555 *~;
#X obj 1030 339 sig~;
#X obj 1030 363 babs.slide~ 0.1 0.1;
#X obj 883 214 > 0;
#X obj 883 238 change;
#X obj 883 262 sel 1;
#X obj 883 286 bng 19 250 50 0 empty empty empty 0 -10 0 12 #fcfcfc #000000 #000000;
#X obj 1041 521 bop.synth~, f 23;
#X msg 1192 421 cutoff loop 10000 4000 500 8000 10000 8000 10000 4000, f 47;
#X msg 823 425 semisteps 5.4343;
#X msg 802 388 semisteps 4.3434;
#X obj 1030 278 babs.scale 0 1 0.5 1;
#X obj 978 275 sel 0;
#X msg 978 317 0;
#X obj 367 351 babs.scale 0 1 1 0;
#X msg 639 491 root 40 \, chord 1;
#X msg 825 468 semisteps 0.4354;
#X obj 802 355 sel 0 1 2;
#X obj 803 328 random 3;
#X msg 658 571 root 48 \, chord 0;
#X obj 639 458 sel 0 1 2;
#X msg 660 528 root 41 \, chord 7;
#X connect 0 0 3 0;
#X connect 1 0 5 0;
#X connect 2 0 0 0;
#X connect 2 1 0 1;
#X connect 3 0 1 0;
#X connect 4 0 2 0;
#X connect 7 0 32 0;
#X connect 10 0 16 0;
#X connect 11 0 21 0;
#X connect 13 0 25 0;
#X connect 13 1 25 1;
#X connect 14 0 9 0;
#X connect 15 0 17 0;
#X connect 16 0 29 0;
#X connect 16 0 30 0;
#X connect 17 0 26 0;
#X connect 18 0 14 0;
#X connect 19 0 20 0;
#X connect 20 0 18 0;
#X connect 21 0 22 0;
#X connect 22 0 23 0;
#X connect 23 0 24 0;
#X connect 24 0 36 0;
#X connect 25 0 18 1;
#X connect 26 0 13 1;
#X connect 27 0 13 1;
#X connect 28 0 13 1;
#X connect 29 0 19 0;
#X connect 30 0 31 0;
#X connect 31 0 19 0;
#X connect 32 0 4 0;
#X connect 33 0 2 1;
#X connect 34 0 13 1;
#X connect 35 0 28 0;
#X connect 35 1 27 0;
#X connect 35 2 34 0;
#X connect 36 0 35 0;
#X connect 36 0 38 0;
#X connect 37 0 2 1;
#X connect 38 0 33 0;
#X connect 38 1 39 0;
#X connect 38 2 37 0;
#X connect 39 0 2 1;
