#N canvas 473 32 1224 1057 12;
#X declare -path ./bop;
#X declare -path ./bop/babs;
#X obj 328 1151 hip~ 80;
#X obj 1906 1255;
#X obj 83 82 declare -path ./bop;
#X obj 678 315 r sensor1;
#X obj 1036 321 r sensor2;
#X obj 85 111 declare -path ./bop/babs;
#X floatatom 1041 617 5 0 0 0 - - - 0;
#X obj 329 1183 throw~ left;
#X obj 1058 787 bop.instrument~;
#X obj 1061 1166 hip~ 80;
#X obj 1057 851 *~ 0.5;
#X msg 1035 677 strum \$1;
#X obj 1060 1204 throw~ right;
#X obj 3304 1181;
#X obj 1041 727 bop.strum, f 23;
#X obj 328 1074 bop.casio~, f 13;
#X obj 328 1113 *~ 0.7;
#X obj 735 754 babs.scale 0 1 100 127;
#X obj 391 753 + \$1, f 23;
#X obj 539 634 int;
#X obj 538 601 babs.scale 0 1 0 12;
#X obj 538 672 select 0 5 7 12;
#X obj 569 707 5;
#X obj 601 704 7;
#X obj 632 707 12;
#X obj 537 705 0;
#X msg 436 927 filter loop 0.9 400 0.1 8000 0.75 7000 0.2 12000 0.4 6000 0.05 11000 0.3 7000 0.6 5000 0.15 10000 0.08 9000 0.5 8000 0.2 4000 \, attack loop 0.2 1000 0.1 1000 0.015 3000 0.25 2000 0.05 2500 0.18 2800 0.22 1500 0.1 1800 0.3 2200 0.07 2700 0.19 1600 0.015 2000, f 53;
#X obj 430 851 loadbang;
#X obj 394 804 pack, f 48;
#X obj 412 268 r sensor1;
#X obj 391 306 > 0;
#X obj 392 436 babs.counter;
#X obj 392 460 % 4;
#X obj 389 489 sel 0 1 2 3, f 24;
#X obj 386 571 t f;
#X obj 389 333 change;
#X obj 437 883 delay 1000;
#X msg 1211 573 root 48 \, chord 7;
#X obj 391 405 metro 150;
#X obj 515 209 r sensor1;
#X floatatom 502 410 5 0 0 0 - - - 0;
#X obj 455 368 babs.scale 0 1 100 280;
#X msg 1223 609 root 53 \, chord 2;
#X msg 1231 637 root 55 \, chord 0;
#X msg 1238 671 root 60 \, chord 0;
#X msg 388 519 48;
#X msg 430 520 40;
#X msg 469 519 43;
#X msg 511 521 47;
#X connect 0 0 7 0;
#X connect 3 0 17 0;
#X connect 3 0 20 0;
#X connect 4 0 6 0;
#X connect 6 0 11 0;
#X connect 8 0 10 0;
#X connect 9 0 12 0;
#X connect 10 0 9 0;
#X connect 11 0 14 0;
#X connect 14 0 8 0;
#X connect 14 1 8 1;
#X connect 15 0 16 0;
#X connect 16 0 0 0;
#X connect 17 0 28 1;
#X connect 18 0 28 0;
#X connect 19 0 21 0;
#X connect 20 0 19 0;
#X connect 21 0 25 0;
#X connect 21 1 22 0;
#X connect 21 2 23 0;
#X connect 21 3 24 0;
#X connect 22 0 18 1;
#X connect 22 0 42 0;
#X connect 23 0 18 1;
#X connect 23 0 43 0;
#X connect 24 0 18 1;
#X connect 24 0 44 0;
#X connect 25 0 18 1;
#X connect 25 0 37 0;
#X connect 26 0 15 1;
#X connect 27 0 36 0;
#X connect 28 0 15 1;
#X connect 29 0 30 0;
#X connect 30 0 35 0;
#X connect 31 0 32 0;
#X connect 32 0 33 0;
#X connect 33 0 45 0;
#X connect 33 1 46 0;
#X connect 33 2 47 0;
#X connect 33 3 48 0;
#X connect 34 0 18 0;
#X connect 35 0 38 0;
#X connect 36 0 26 0;
#X connect 37 0 14 1;
#X connect 38 0 31 0;
#X connect 39 0 41 0;
#X connect 41 0 38 1;
#X connect 41 0 40 0;
#X connect 42 0 14 1;
#X connect 43 0 14 1;
#X connect 44 0 14 1;
#X connect 45 0 34 0;
#X connect 46 0 34 0;
#X connect 47 0 34 0;
#X connect 48 0 34 0;
